G04 #@! TF.GenerationSoftware,KiCad,Pcbnew,5.0.1*
G04 #@! TF.CreationDate,2019-01-16T09:22:18-08:00*
G04 #@! TF.ProjectId,HSMC-GPIO-kicad,48534D432D4750494F2D6B696361642E,rev?*
G04 #@! TF.SameCoordinates,Original*
G04 #@! TF.FileFunction,Legend,Bot*
G04 #@! TF.FilePolarity,Positive*
%FSLAX46Y46*%
G04 Gerber Fmt 4.6, Leading zero omitted, Abs format (unit mm)*
G04 Created by KiCad (PCBNEW 5.0.1) date Wed 16 Jan 2019 09:22:18 AM PST*
%MOMM*%
%LPD*%
G01*
G04 APERTURE LIST*
%ADD10C,0.120000*%
%ADD11C,0.150000*%
G04 APERTURE END LIST*
D10*
G04 #@! TO.C,J2*
X27715000Y-92265200D02*
X27715000Y-94865200D01*
X27715000Y-94865200D02*
X32715000Y-94865200D01*
X34515000Y-92265200D02*
X34515000Y-93065200D01*
X34515000Y-93065200D02*
X32715000Y-94865200D01*
X27715000Y-76665200D02*
X27715000Y-72265200D01*
X34515000Y-72265200D02*
X34515000Y-76665200D01*
X34515000Y-52265200D02*
X34515000Y-56665200D01*
X27715000Y-56665200D02*
X27715000Y-52265200D01*
X27715000Y-36665200D02*
X27715000Y-34065200D01*
X27715000Y-34065200D02*
X32715000Y-34065200D01*
X32715000Y-34065200D02*
X34515000Y-35865200D01*
X34515000Y-35865200D02*
X34515000Y-36665200D01*
X27715000Y-36665200D02*
X27315000Y-36665200D01*
G04 #@! TO.C,D42*
X63190000Y-30990000D02*
X63190000Y-32450000D01*
X66350000Y-30990000D02*
X66350000Y-33150000D01*
X66350000Y-30990000D02*
X65420000Y-30990000D01*
X63190000Y-30990000D02*
X64120000Y-30990000D01*
G04 #@! TO.C,D41*
X68270000Y-30990000D02*
X68270000Y-32450000D01*
X71430000Y-30990000D02*
X71430000Y-33150000D01*
X71430000Y-30990000D02*
X70500000Y-30990000D01*
X68270000Y-30990000D02*
X69200000Y-30990000D01*
G04 #@! TO.C,U1*
X54875000Y-40000000D02*
X53775000Y-40000000D01*
X54875000Y-39730000D02*
X54875000Y-40000000D01*
X56375000Y-39730000D02*
X54875000Y-39730000D01*
X54875000Y-46360000D02*
X52045000Y-46360000D01*
X54875000Y-46630000D02*
X54875000Y-46360000D01*
X56375000Y-46630000D02*
X54875000Y-46630000D01*
G04 #@! TO.C,C14*
X58970000Y-33474922D02*
X58970000Y-33992078D01*
X57550000Y-33474922D02*
X57550000Y-33992078D01*
G04 #@! TO.C,C15*
X53890000Y-33396422D02*
X53890000Y-33913578D01*
X52470000Y-33396422D02*
X52470000Y-33913578D01*
G04 #@! TO.C,C1*
X72638710Y-86536278D02*
X72638710Y-86019122D01*
X74058710Y-86536278D02*
X74058710Y-86019122D01*
G04 #@! TO.C,C18*
X62059710Y-96010200D02*
X62059710Y-91800200D01*
X65079710Y-96010200D02*
X62059710Y-96010200D01*
X65079710Y-91800200D02*
X65079710Y-96010200D01*
G04 #@! TO.C,C20*
X72219710Y-96010200D02*
X72219710Y-91800200D01*
X75239710Y-96010200D02*
X72219710Y-96010200D01*
X75239710Y-91800200D02*
X75239710Y-96010200D01*
G04 #@! TO.C,C19*
X67139710Y-96010200D02*
X67139710Y-91800200D01*
X70159710Y-96010200D02*
X67139710Y-96010200D01*
X70159710Y-91800200D02*
X70159710Y-96010200D01*
G04 #@! TO.C,C13*
X72638710Y-40816278D02*
X72638710Y-40299122D01*
X74058710Y-40816278D02*
X74058710Y-40299122D01*
G04 #@! TO.C,C11*
X72638710Y-48436278D02*
X72638710Y-47919122D01*
X74058710Y-48436278D02*
X74058710Y-47919122D01*
G04 #@! TO.C,C12*
X72638710Y-44626278D02*
X72638710Y-44109122D01*
X74058710Y-44626278D02*
X74058710Y-44109122D01*
G04 #@! TO.C,R42*
X49724710Y-32319279D02*
X49724710Y-31993721D01*
X50744710Y-32319279D02*
X50744710Y-31993721D01*
G04 #@! TO.C,R43*
X60900710Y-31751279D02*
X60900710Y-31425721D01*
X61920710Y-31751279D02*
X61920710Y-31425721D01*
G04 #@! TO.C,C6*
X72638710Y-67486278D02*
X72638710Y-66969122D01*
X74058710Y-67486278D02*
X74058710Y-66969122D01*
G04 #@! TO.C,C9*
X72638710Y-56056278D02*
X72638710Y-55539122D01*
X74058710Y-56056278D02*
X74058710Y-55539122D01*
G04 #@! TO.C,C3*
X72638710Y-78916278D02*
X72638710Y-78399122D01*
X74058710Y-78916278D02*
X74058710Y-78399122D01*
G04 #@! TO.C,C10*
X72638710Y-52246278D02*
X72638710Y-51729122D01*
X74058710Y-52246278D02*
X74058710Y-51729122D01*
G04 #@! TO.C,C7*
X72638710Y-63676278D02*
X72638710Y-63159122D01*
X74058710Y-63676278D02*
X74058710Y-63159122D01*
G04 #@! TO.C,C8*
X72638710Y-59866278D02*
X72638710Y-59349122D01*
X74058710Y-59866278D02*
X74058710Y-59349122D01*
G04 #@! TO.C,C4*
X72638710Y-75106278D02*
X72638710Y-74589122D01*
X74058710Y-75106278D02*
X74058710Y-74589122D01*
G04 #@! TO.C,C5*
X72638710Y-71296278D02*
X72638710Y-70779122D01*
X74058710Y-71296278D02*
X74058710Y-70779122D01*
G04 #@! TO.C,C2*
X72638710Y-82726278D02*
X72638710Y-82209122D01*
X74058710Y-82726278D02*
X74058710Y-82209122D01*
G04 #@! TO.C,J2*
D11*
X35647380Y-64131866D02*
X36361666Y-64131866D01*
X36504523Y-64084247D01*
X36599761Y-63989009D01*
X36647380Y-63846152D01*
X36647380Y-63750914D01*
X35742619Y-64560438D02*
X35695000Y-64608057D01*
X35647380Y-64703295D01*
X35647380Y-64941390D01*
X35695000Y-65036628D01*
X35742619Y-65084247D01*
X35837857Y-65131866D01*
X35933095Y-65131866D01*
X36075952Y-65084247D01*
X36647380Y-64512819D01*
X36647380Y-65131866D01*
G04 #@! TO.C,D42*
X67722380Y-30535714D02*
X66722380Y-30535714D01*
X66722380Y-30773809D01*
X66770000Y-30916666D01*
X66865238Y-31011904D01*
X66960476Y-31059523D01*
X67150952Y-31107142D01*
X67293809Y-31107142D01*
X67484285Y-31059523D01*
X67579523Y-31011904D01*
X67674761Y-30916666D01*
X67722380Y-30773809D01*
X67722380Y-30535714D01*
X67055714Y-31964285D02*
X67722380Y-31964285D01*
X66674761Y-31726190D02*
X67389047Y-31488095D01*
X67389047Y-32107142D01*
X66817619Y-32440476D02*
X66770000Y-32488095D01*
X66722380Y-32583333D01*
X66722380Y-32821428D01*
X66770000Y-32916666D01*
X66817619Y-32964285D01*
X66912857Y-33011904D01*
X67008095Y-33011904D01*
X67150952Y-32964285D01*
X67722380Y-32392857D01*
X67722380Y-33011904D01*
G04 #@! TO.C,D41*
X72802380Y-30535714D02*
X71802380Y-30535714D01*
X71802380Y-30773809D01*
X71850000Y-30916666D01*
X71945238Y-31011904D01*
X72040476Y-31059523D01*
X72230952Y-31107142D01*
X72373809Y-31107142D01*
X72564285Y-31059523D01*
X72659523Y-31011904D01*
X72754761Y-30916666D01*
X72802380Y-30773809D01*
X72802380Y-30535714D01*
X72135714Y-31964285D02*
X72802380Y-31964285D01*
X71754761Y-31726190D02*
X72469047Y-31488095D01*
X72469047Y-32107142D01*
X72802380Y-33011904D02*
X72802380Y-32440476D01*
X72802380Y-32726190D02*
X71802380Y-32726190D01*
X71945238Y-32630952D01*
X72040476Y-32535714D01*
X72088095Y-32440476D01*
G04 #@! TO.C,U1*
X52792380Y-42418095D02*
X53601904Y-42418095D01*
X53697142Y-42465714D01*
X53744761Y-42513333D01*
X53792380Y-42608571D01*
X53792380Y-42799047D01*
X53744761Y-42894285D01*
X53697142Y-42941904D01*
X53601904Y-42989523D01*
X52792380Y-42989523D01*
X53792380Y-43989523D02*
X53792380Y-43418095D01*
X53792380Y-43703809D02*
X52792380Y-43703809D01*
X52935238Y-43608571D01*
X53030476Y-43513333D01*
X53078095Y-43418095D01*
G04 #@! TO.C,C14*
X56999142Y-33135342D02*
X57046761Y-33087723D01*
X57094380Y-32944866D01*
X57094380Y-32849628D01*
X57046761Y-32706771D01*
X56951523Y-32611533D01*
X56856285Y-32563914D01*
X56665809Y-32516295D01*
X56522952Y-32516295D01*
X56332476Y-32563914D01*
X56237238Y-32611533D01*
X56142000Y-32706771D01*
X56094380Y-32849628D01*
X56094380Y-32944866D01*
X56142000Y-33087723D01*
X56189619Y-33135342D01*
X57094380Y-34087723D02*
X57094380Y-33516295D01*
X57094380Y-33802009D02*
X56094380Y-33802009D01*
X56237238Y-33706771D01*
X56332476Y-33611533D01*
X56380095Y-33516295D01*
X56427714Y-34944866D02*
X57094380Y-34944866D01*
X56046761Y-34706771D02*
X56761047Y-34468676D01*
X56761047Y-35087723D01*
G04 #@! TO.C,C15*
X55221142Y-33139142D02*
X55268761Y-33091523D01*
X55316380Y-32948666D01*
X55316380Y-32853428D01*
X55268761Y-32710571D01*
X55173523Y-32615333D01*
X55078285Y-32567714D01*
X54887809Y-32520095D01*
X54744952Y-32520095D01*
X54554476Y-32567714D01*
X54459238Y-32615333D01*
X54364000Y-32710571D01*
X54316380Y-32853428D01*
X54316380Y-32948666D01*
X54364000Y-33091523D01*
X54411619Y-33139142D01*
X55316380Y-34091523D02*
X55316380Y-33520095D01*
X55316380Y-33805809D02*
X54316380Y-33805809D01*
X54459238Y-33710571D01*
X54554476Y-33615333D01*
X54602095Y-33520095D01*
X54316380Y-34996285D02*
X54316380Y-34520095D01*
X54792571Y-34472476D01*
X54744952Y-34520095D01*
X54697333Y-34615333D01*
X54697333Y-34853428D01*
X54744952Y-34948666D01*
X54792571Y-34996285D01*
X54887809Y-35043904D01*
X55125904Y-35043904D01*
X55221142Y-34996285D01*
X55268761Y-34948666D01*
X55316380Y-34853428D01*
X55316380Y-34615333D01*
X55268761Y-34520095D01*
X55221142Y-34472476D01*
G04 #@! TO.C,C1*
X74769567Y-86444366D02*
X74721948Y-86491985D01*
X74674329Y-86634842D01*
X74674329Y-86730080D01*
X74721948Y-86872938D01*
X74817186Y-86968176D01*
X74912424Y-87015795D01*
X75102900Y-87063414D01*
X75245757Y-87063414D01*
X75436233Y-87015795D01*
X75531471Y-86968176D01*
X75626710Y-86872938D01*
X75674329Y-86730080D01*
X75674329Y-86634842D01*
X75626710Y-86491985D01*
X75579090Y-86444366D01*
X74674329Y-85491985D02*
X74674329Y-86063414D01*
X74674329Y-85777700D02*
X75674329Y-85777700D01*
X75531471Y-85872938D01*
X75436233Y-85968176D01*
X75388614Y-86063414D01*
G04 #@! TO.C,C18*
X66339852Y-92063342D02*
X66387471Y-92015723D01*
X66435090Y-91872866D01*
X66435090Y-91777628D01*
X66387471Y-91634771D01*
X66292233Y-91539533D01*
X66196995Y-91491914D01*
X66006519Y-91444295D01*
X65863662Y-91444295D01*
X65673186Y-91491914D01*
X65577948Y-91539533D01*
X65482710Y-91634771D01*
X65435090Y-91777628D01*
X65435090Y-91872866D01*
X65482710Y-92015723D01*
X65530329Y-92063342D01*
X66435090Y-93015723D02*
X66435090Y-92444295D01*
X66435090Y-92730009D02*
X65435090Y-92730009D01*
X65577948Y-92634771D01*
X65673186Y-92539533D01*
X65720805Y-92444295D01*
X65863662Y-93587152D02*
X65816043Y-93491914D01*
X65768424Y-93444295D01*
X65673186Y-93396676D01*
X65625567Y-93396676D01*
X65530329Y-93444295D01*
X65482710Y-93491914D01*
X65435090Y-93587152D01*
X65435090Y-93777628D01*
X65482710Y-93872866D01*
X65530329Y-93920485D01*
X65625567Y-93968104D01*
X65673186Y-93968104D01*
X65768424Y-93920485D01*
X65816043Y-93872866D01*
X65863662Y-93777628D01*
X65863662Y-93587152D01*
X65911281Y-93491914D01*
X65958900Y-93444295D01*
X66054138Y-93396676D01*
X66244614Y-93396676D01*
X66339852Y-93444295D01*
X66387471Y-93491914D01*
X66435090Y-93587152D01*
X66435090Y-93777628D01*
X66387471Y-93872866D01*
X66339852Y-93920485D01*
X66244614Y-93968104D01*
X66054138Y-93968104D01*
X65958900Y-93920485D01*
X65911281Y-93872866D01*
X65863662Y-93777628D01*
G04 #@! TO.C,C20*
X76499852Y-92063342D02*
X76547471Y-92015723D01*
X76595090Y-91872866D01*
X76595090Y-91777628D01*
X76547471Y-91634771D01*
X76452233Y-91539533D01*
X76356995Y-91491914D01*
X76166519Y-91444295D01*
X76023662Y-91444295D01*
X75833186Y-91491914D01*
X75737948Y-91539533D01*
X75642710Y-91634771D01*
X75595090Y-91777628D01*
X75595090Y-91872866D01*
X75642710Y-92015723D01*
X75690329Y-92063342D01*
X75690329Y-92444295D02*
X75642710Y-92491914D01*
X75595090Y-92587152D01*
X75595090Y-92825247D01*
X75642710Y-92920485D01*
X75690329Y-92968104D01*
X75785567Y-93015723D01*
X75880805Y-93015723D01*
X76023662Y-92968104D01*
X76595090Y-92396676D01*
X76595090Y-93015723D01*
X75595090Y-93634771D02*
X75595090Y-93730009D01*
X75642710Y-93825247D01*
X75690329Y-93872866D01*
X75785567Y-93920485D01*
X75976043Y-93968104D01*
X76214138Y-93968104D01*
X76404614Y-93920485D01*
X76499852Y-93872866D01*
X76547471Y-93825247D01*
X76595090Y-93730009D01*
X76595090Y-93634771D01*
X76547471Y-93539533D01*
X76499852Y-93491914D01*
X76404614Y-93444295D01*
X76214138Y-93396676D01*
X75976043Y-93396676D01*
X75785567Y-93444295D01*
X75690329Y-93491914D01*
X75642710Y-93539533D01*
X75595090Y-93634771D01*
G04 #@! TO.C,C19*
X71419852Y-92063342D02*
X71467471Y-92015723D01*
X71515090Y-91872866D01*
X71515090Y-91777628D01*
X71467471Y-91634771D01*
X71372233Y-91539533D01*
X71276995Y-91491914D01*
X71086519Y-91444295D01*
X70943662Y-91444295D01*
X70753186Y-91491914D01*
X70657948Y-91539533D01*
X70562710Y-91634771D01*
X70515090Y-91777628D01*
X70515090Y-91872866D01*
X70562710Y-92015723D01*
X70610329Y-92063342D01*
X71515090Y-93015723D02*
X71515090Y-92444295D01*
X71515090Y-92730009D02*
X70515090Y-92730009D01*
X70657948Y-92634771D01*
X70753186Y-92539533D01*
X70800805Y-92444295D01*
X71515090Y-93491914D02*
X71515090Y-93682390D01*
X71467471Y-93777628D01*
X71419852Y-93825247D01*
X71276995Y-93920485D01*
X71086519Y-93968104D01*
X70705567Y-93968104D01*
X70610329Y-93920485D01*
X70562710Y-93872866D01*
X70515090Y-93777628D01*
X70515090Y-93587152D01*
X70562710Y-93491914D01*
X70610329Y-93444295D01*
X70705567Y-93396676D01*
X70943662Y-93396676D01*
X71038900Y-93444295D01*
X71086519Y-93491914D01*
X71134138Y-93587152D01*
X71134138Y-93777628D01*
X71086519Y-93872866D01*
X71038900Y-93920485D01*
X70943662Y-93968104D01*
G04 #@! TO.C,C13*
X75355852Y-39914842D02*
X75403471Y-39867223D01*
X75451090Y-39724366D01*
X75451090Y-39629128D01*
X75403471Y-39486271D01*
X75308233Y-39391033D01*
X75212995Y-39343414D01*
X75022519Y-39295795D01*
X74879662Y-39295795D01*
X74689186Y-39343414D01*
X74593948Y-39391033D01*
X74498710Y-39486271D01*
X74451090Y-39629128D01*
X74451090Y-39724366D01*
X74498710Y-39867223D01*
X74546329Y-39914842D01*
X75451090Y-40867223D02*
X75451090Y-40295795D01*
X75451090Y-40581509D02*
X74451090Y-40581509D01*
X74593948Y-40486271D01*
X74689186Y-40391033D01*
X74736805Y-40295795D01*
X74451090Y-41200557D02*
X74451090Y-41819604D01*
X74832043Y-41486271D01*
X74832043Y-41629128D01*
X74879662Y-41724366D01*
X74927281Y-41771985D01*
X75022519Y-41819604D01*
X75260614Y-41819604D01*
X75355852Y-41771985D01*
X75403471Y-41724366D01*
X75451090Y-41629128D01*
X75451090Y-41343414D01*
X75403471Y-41248176D01*
X75355852Y-41200557D01*
G04 #@! TO.C,C11*
X75355852Y-47534842D02*
X75403471Y-47487223D01*
X75451090Y-47344366D01*
X75451090Y-47249128D01*
X75403471Y-47106271D01*
X75308233Y-47011033D01*
X75212995Y-46963414D01*
X75022519Y-46915795D01*
X74879662Y-46915795D01*
X74689186Y-46963414D01*
X74593948Y-47011033D01*
X74498710Y-47106271D01*
X74451090Y-47249128D01*
X74451090Y-47344366D01*
X74498710Y-47487223D01*
X74546329Y-47534842D01*
X75451090Y-48487223D02*
X75451090Y-47915795D01*
X75451090Y-48201509D02*
X74451090Y-48201509D01*
X74593948Y-48106271D01*
X74689186Y-48011033D01*
X74736805Y-47915795D01*
X75451090Y-49439604D02*
X75451090Y-48868176D01*
X75451090Y-49153890D02*
X74451090Y-49153890D01*
X74593948Y-49058652D01*
X74689186Y-48963414D01*
X74736805Y-48868176D01*
G04 #@! TO.C,C12*
X75355852Y-43724842D02*
X75403471Y-43677223D01*
X75451090Y-43534366D01*
X75451090Y-43439128D01*
X75403471Y-43296271D01*
X75308233Y-43201033D01*
X75212995Y-43153414D01*
X75022519Y-43105795D01*
X74879662Y-43105795D01*
X74689186Y-43153414D01*
X74593948Y-43201033D01*
X74498710Y-43296271D01*
X74451090Y-43439128D01*
X74451090Y-43534366D01*
X74498710Y-43677223D01*
X74546329Y-43724842D01*
X75451090Y-44677223D02*
X75451090Y-44105795D01*
X75451090Y-44391509D02*
X74451090Y-44391509D01*
X74593948Y-44296271D01*
X74689186Y-44201033D01*
X74736805Y-44105795D01*
X74546329Y-45058176D02*
X74498710Y-45105795D01*
X74451090Y-45201033D01*
X74451090Y-45439128D01*
X74498710Y-45534366D01*
X74546329Y-45581985D01*
X74641567Y-45629604D01*
X74736805Y-45629604D01*
X74879662Y-45581985D01*
X75451090Y-45010557D01*
X75451090Y-45629604D01*
G04 #@! TO.C,R42*
D10*
X50551376Y-34348000D02*
X50218043Y-34114666D01*
X50551376Y-33948000D02*
X49851376Y-33948000D01*
X49851376Y-34214666D01*
X49884710Y-34281333D01*
X49918043Y-34314666D01*
X49984710Y-34348000D01*
X50084710Y-34348000D01*
X50151376Y-34314666D01*
X50184710Y-34281333D01*
X50218043Y-34214666D01*
X50218043Y-33948000D01*
X50084710Y-34948000D02*
X50551376Y-34948000D01*
X49818043Y-34781333D02*
X50318043Y-34614666D01*
X50318043Y-35048000D01*
X49918043Y-35281333D02*
X49884710Y-35314666D01*
X49851376Y-35381333D01*
X49851376Y-35548000D01*
X49884710Y-35614666D01*
X49918043Y-35648000D01*
X49984710Y-35681333D01*
X50051376Y-35681333D01*
X50151376Y-35648000D01*
X50551376Y-35248000D01*
X50551376Y-35681333D01*
G04 #@! TO.C,R43*
X61727376Y-33840000D02*
X61394043Y-33606666D01*
X61727376Y-33440000D02*
X61027376Y-33440000D01*
X61027376Y-33706666D01*
X61060710Y-33773333D01*
X61094043Y-33806666D01*
X61160710Y-33840000D01*
X61260710Y-33840000D01*
X61327376Y-33806666D01*
X61360710Y-33773333D01*
X61394043Y-33706666D01*
X61394043Y-33440000D01*
X61260710Y-34440000D02*
X61727376Y-34440000D01*
X60994043Y-34273333D02*
X61494043Y-34106666D01*
X61494043Y-34540000D01*
X61027376Y-34740000D02*
X61027376Y-35173333D01*
X61294043Y-34940000D01*
X61294043Y-35040000D01*
X61327376Y-35106666D01*
X61360710Y-35140000D01*
X61427376Y-35173333D01*
X61594043Y-35173333D01*
X61660710Y-35140000D01*
X61694043Y-35106666D01*
X61727376Y-35040000D01*
X61727376Y-34840000D01*
X61694043Y-34773333D01*
X61660710Y-34740000D01*
G04 #@! TO.C,C6*
D11*
X74601277Y-67460066D02*
X74553658Y-67507685D01*
X74506039Y-67650542D01*
X74506039Y-67745780D01*
X74553658Y-67888638D01*
X74648896Y-67983876D01*
X74744134Y-68031495D01*
X74934610Y-68079114D01*
X75077467Y-68079114D01*
X75267943Y-68031495D01*
X75363181Y-67983876D01*
X75458420Y-67888638D01*
X75506039Y-67745780D01*
X75506039Y-67650542D01*
X75458420Y-67507685D01*
X75410800Y-67460066D01*
X75506039Y-66602923D02*
X75506039Y-66793400D01*
X75458420Y-66888638D01*
X75410800Y-66936257D01*
X75267943Y-67031495D01*
X75077467Y-67079114D01*
X74696515Y-67079114D01*
X74601277Y-67031495D01*
X74553658Y-66983876D01*
X74506039Y-66888638D01*
X74506039Y-66698161D01*
X74553658Y-66602923D01*
X74601277Y-66555304D01*
X74696515Y-66507685D01*
X74934610Y-66507685D01*
X75029848Y-66555304D01*
X75077467Y-66602923D01*
X75125086Y-66698161D01*
X75125086Y-66888638D01*
X75077467Y-66983876D01*
X75029848Y-67031495D01*
X74934610Y-67079114D01*
G04 #@! TO.C,C9*
X74769567Y-55964366D02*
X74721948Y-56011985D01*
X74674329Y-56154842D01*
X74674329Y-56250080D01*
X74721948Y-56392938D01*
X74817186Y-56488176D01*
X74912424Y-56535795D01*
X75102900Y-56583414D01*
X75245757Y-56583414D01*
X75436233Y-56535795D01*
X75531471Y-56488176D01*
X75626710Y-56392938D01*
X75674329Y-56250080D01*
X75674329Y-56154842D01*
X75626710Y-56011985D01*
X75579090Y-55964366D01*
X74674329Y-55488176D02*
X74674329Y-55297700D01*
X74721948Y-55202461D01*
X74769567Y-55154842D01*
X74912424Y-55059604D01*
X75102900Y-55011985D01*
X75483852Y-55011985D01*
X75579090Y-55059604D01*
X75626710Y-55107223D01*
X75674329Y-55202461D01*
X75674329Y-55392938D01*
X75626710Y-55488176D01*
X75579090Y-55535795D01*
X75483852Y-55583414D01*
X75245757Y-55583414D01*
X75150519Y-55535795D01*
X75102900Y-55488176D01*
X75055281Y-55392938D01*
X75055281Y-55202461D01*
X75102900Y-55107223D01*
X75150519Y-55059604D01*
X75245757Y-55011985D01*
G04 #@! TO.C,C3*
X74769567Y-78824366D02*
X74721948Y-78871985D01*
X74674329Y-79014842D01*
X74674329Y-79110080D01*
X74721948Y-79252938D01*
X74817186Y-79348176D01*
X74912424Y-79395795D01*
X75102900Y-79443414D01*
X75245757Y-79443414D01*
X75436233Y-79395795D01*
X75531471Y-79348176D01*
X75626710Y-79252938D01*
X75674329Y-79110080D01*
X75674329Y-79014842D01*
X75626710Y-78871985D01*
X75579090Y-78824366D01*
X75674329Y-78491033D02*
X75674329Y-77871985D01*
X75293376Y-78205319D01*
X75293376Y-78062461D01*
X75245757Y-77967223D01*
X75198138Y-77919604D01*
X75102900Y-77871985D01*
X74864805Y-77871985D01*
X74769567Y-77919604D01*
X74721948Y-77967223D01*
X74674329Y-78062461D01*
X74674329Y-78348176D01*
X74721948Y-78443414D01*
X74769567Y-78491033D01*
G04 #@! TO.C,C10*
X74769567Y-52630557D02*
X74721948Y-52678176D01*
X74674329Y-52821033D01*
X74674329Y-52916271D01*
X74721948Y-53059128D01*
X74817186Y-53154366D01*
X74912424Y-53201985D01*
X75102900Y-53249604D01*
X75245757Y-53249604D01*
X75436233Y-53201985D01*
X75531471Y-53154366D01*
X75626710Y-53059128D01*
X75674329Y-52916271D01*
X75674329Y-52821033D01*
X75626710Y-52678176D01*
X75579090Y-52630557D01*
X74674329Y-51678176D02*
X74674329Y-52249604D01*
X74674329Y-51963890D02*
X75674329Y-51963890D01*
X75531471Y-52059128D01*
X75436233Y-52154366D01*
X75388614Y-52249604D01*
X75674329Y-51059128D02*
X75674329Y-50963890D01*
X75626710Y-50868652D01*
X75579090Y-50821033D01*
X75483852Y-50773414D01*
X75293376Y-50725795D01*
X75055281Y-50725795D01*
X74864805Y-50773414D01*
X74769567Y-50821033D01*
X74721948Y-50868652D01*
X74674329Y-50963890D01*
X74674329Y-51059128D01*
X74721948Y-51154366D01*
X74769567Y-51201985D01*
X74864805Y-51249604D01*
X75055281Y-51297223D01*
X75293376Y-51297223D01*
X75483852Y-51249604D01*
X75579090Y-51201985D01*
X75626710Y-51154366D01*
X75674329Y-51059128D01*
G04 #@! TO.C,C7*
X74769567Y-63584366D02*
X74721948Y-63631985D01*
X74674329Y-63774842D01*
X74674329Y-63870080D01*
X74721948Y-64012938D01*
X74817186Y-64108176D01*
X74912424Y-64155795D01*
X75102900Y-64203414D01*
X75245757Y-64203414D01*
X75436233Y-64155795D01*
X75531471Y-64108176D01*
X75626710Y-64012938D01*
X75674329Y-63870080D01*
X75674329Y-63774842D01*
X75626710Y-63631985D01*
X75579090Y-63584366D01*
X75674329Y-63251033D02*
X75674329Y-62584366D01*
X74674329Y-63012938D01*
G04 #@! TO.C,C8*
X74769567Y-59774366D02*
X74721948Y-59821985D01*
X74674329Y-59964842D01*
X74674329Y-60060080D01*
X74721948Y-60202938D01*
X74817186Y-60298176D01*
X74912424Y-60345795D01*
X75102900Y-60393414D01*
X75245757Y-60393414D01*
X75436233Y-60345795D01*
X75531471Y-60298176D01*
X75626710Y-60202938D01*
X75674329Y-60060080D01*
X75674329Y-59964842D01*
X75626710Y-59821985D01*
X75579090Y-59774366D01*
X75245757Y-59202938D02*
X75293376Y-59298176D01*
X75340995Y-59345795D01*
X75436233Y-59393414D01*
X75483852Y-59393414D01*
X75579090Y-59345795D01*
X75626710Y-59298176D01*
X75674329Y-59202938D01*
X75674329Y-59012461D01*
X75626710Y-58917223D01*
X75579090Y-58869604D01*
X75483852Y-58821985D01*
X75436233Y-58821985D01*
X75340995Y-58869604D01*
X75293376Y-58917223D01*
X75245757Y-59012461D01*
X75245757Y-59202938D01*
X75198138Y-59298176D01*
X75150519Y-59345795D01*
X75055281Y-59393414D01*
X74864805Y-59393414D01*
X74769567Y-59345795D01*
X74721948Y-59298176D01*
X74674329Y-59202938D01*
X74674329Y-59012461D01*
X74721948Y-58917223D01*
X74769567Y-58869604D01*
X74864805Y-58821985D01*
X75055281Y-58821985D01*
X75150519Y-58869604D01*
X75198138Y-58917223D01*
X75245757Y-59012461D01*
G04 #@! TO.C,C4*
X74769567Y-75014366D02*
X74721948Y-75061985D01*
X74674329Y-75204842D01*
X74674329Y-75300080D01*
X74721948Y-75442938D01*
X74817186Y-75538176D01*
X74912424Y-75585795D01*
X75102900Y-75633414D01*
X75245757Y-75633414D01*
X75436233Y-75585795D01*
X75531471Y-75538176D01*
X75626710Y-75442938D01*
X75674329Y-75300080D01*
X75674329Y-75204842D01*
X75626710Y-75061985D01*
X75579090Y-75014366D01*
X75340995Y-74157223D02*
X74674329Y-74157223D01*
X75721948Y-74395319D02*
X75007662Y-74633414D01*
X75007662Y-74014366D01*
G04 #@! TO.C,C5*
X74769567Y-71204366D02*
X74721948Y-71251985D01*
X74674329Y-71394842D01*
X74674329Y-71490080D01*
X74721948Y-71632938D01*
X74817186Y-71728176D01*
X74912424Y-71775795D01*
X75102900Y-71823414D01*
X75245757Y-71823414D01*
X75436233Y-71775795D01*
X75531471Y-71728176D01*
X75626710Y-71632938D01*
X75674329Y-71490080D01*
X75674329Y-71394842D01*
X75626710Y-71251985D01*
X75579090Y-71204366D01*
X75674329Y-70299604D02*
X75674329Y-70775795D01*
X75198138Y-70823414D01*
X75245757Y-70775795D01*
X75293376Y-70680557D01*
X75293376Y-70442461D01*
X75245757Y-70347223D01*
X75198138Y-70299604D01*
X75102900Y-70251985D01*
X74864805Y-70251985D01*
X74769567Y-70299604D01*
X74721948Y-70347223D01*
X74674329Y-70442461D01*
X74674329Y-70680557D01*
X74721948Y-70775795D01*
X74769567Y-70823414D01*
G04 #@! TO.C,C2*
X74769567Y-82634366D02*
X74721948Y-82681985D01*
X74674329Y-82824842D01*
X74674329Y-82920080D01*
X74721948Y-83062938D01*
X74817186Y-83158176D01*
X74912424Y-83205795D01*
X75102900Y-83253414D01*
X75245757Y-83253414D01*
X75436233Y-83205795D01*
X75531471Y-83158176D01*
X75626710Y-83062938D01*
X75674329Y-82920080D01*
X75674329Y-82824842D01*
X75626710Y-82681985D01*
X75579090Y-82634366D01*
X75579090Y-82253414D02*
X75626710Y-82205795D01*
X75674329Y-82110557D01*
X75674329Y-81872461D01*
X75626710Y-81777223D01*
X75579090Y-81729604D01*
X75483852Y-81681985D01*
X75388614Y-81681985D01*
X75245757Y-81729604D01*
X74674329Y-82301033D01*
X74674329Y-81681985D01*
G04 #@! TD*
M02*
