G04 #@! TF.GenerationSoftware,KiCad,Pcbnew,5.0.0*
G04 #@! TF.CreationDate,2018-10-15T07:19:38-07:00*
G04 #@! TF.ProjectId,HSMC-GPIO-kicad,48534D432D4750494F2D6B696361642E,rev?*
G04 #@! TF.SameCoordinates,Original*
G04 #@! TF.FileFunction,Soldermask,Top*
G04 #@! TF.FilePolarity,Negative*
%FSLAX46Y46*%
G04 Gerber Fmt 4.6, Leading zero omitted, Abs format (unit mm)*
G04 Created by KiCad (PCBNEW 5.0.0) date Mon Oct 15 07:19:38 2018*
%MOMM*%
%LPD*%
G01*
G04 APERTURE LIST*
%ADD10O,2.100000X2.100000*%
%ADD11R,2.100000X2.100000*%
%ADD12R,1.950000X1.000000*%
%ADD13R,1.100000X0.850000*%
%ADD14C,3.400000*%
%ADD15R,3.400000X3.400000*%
%ADD16C,0.100000*%
%ADD17C,1.725000*%
%ADD18O,2.127200X2.127200*%
%ADD19R,2.127200X2.127200*%
%ADD20C,1.416000*%
%ADD21C,3.575000*%
%ADD22C,1.275000*%
G04 APERTURE END LIST*
D10*
G04 #@! TO.C,J3*
X64770000Y-27940000D03*
X67310000Y-27940000D03*
X69850000Y-27940000D03*
D11*
X72390000Y-27940000D03*
G04 #@! TD*
D12*
G04 #@! TO.C,U2*
X53180000Y-33147000D03*
X53180000Y-31877000D03*
X53180000Y-30607000D03*
X53180000Y-29337000D03*
X58580000Y-29337000D03*
X58580000Y-30607000D03*
X58580000Y-31877000D03*
X58580000Y-33147000D03*
G04 #@! TD*
D13*
G04 #@! TO.C,D1*
X72681710Y-40210200D03*
X70681710Y-40860200D03*
X70681710Y-39560200D03*
G04 #@! TD*
G04 #@! TO.C,D2*
X76491710Y-41480200D03*
X74491710Y-42130200D03*
X74491710Y-40830200D03*
G04 #@! TD*
D14*
G04 #@! TO.C,J4*
X73729710Y-98630200D03*
D15*
X58489710Y-98630200D03*
D14*
X68649710Y-98630200D03*
X63569710Y-98630200D03*
G04 #@! TD*
D16*
G04 #@! TO.C,C16*
G36*
X45812931Y-44098567D02*
X45844525Y-44103254D01*
X45875508Y-44111015D01*
X45905581Y-44121775D01*
X45934455Y-44135431D01*
X45961851Y-44151852D01*
X45987506Y-44170879D01*
X46011172Y-44192328D01*
X46032621Y-44215994D01*
X46051648Y-44241649D01*
X46068069Y-44269045D01*
X46081725Y-44297919D01*
X46092485Y-44327992D01*
X46100246Y-44358975D01*
X46104933Y-44390569D01*
X46106500Y-44422471D01*
X46106500Y-46521529D01*
X46104933Y-46553431D01*
X46100246Y-46585025D01*
X46092485Y-46616008D01*
X46081725Y-46646081D01*
X46068069Y-46674955D01*
X46051648Y-46702351D01*
X46032621Y-46728006D01*
X46011172Y-46751672D01*
X45987506Y-46773121D01*
X45961851Y-46792148D01*
X45934455Y-46808569D01*
X45905581Y-46822225D01*
X45875508Y-46832985D01*
X45844525Y-46840746D01*
X45812931Y-46845433D01*
X45781029Y-46847000D01*
X44706971Y-46847000D01*
X44675069Y-46845433D01*
X44643475Y-46840746D01*
X44612492Y-46832985D01*
X44582419Y-46822225D01*
X44553545Y-46808569D01*
X44526149Y-46792148D01*
X44500494Y-46773121D01*
X44476828Y-46751672D01*
X44455379Y-46728006D01*
X44436352Y-46702351D01*
X44419931Y-46674955D01*
X44406275Y-46646081D01*
X44395515Y-46616008D01*
X44387754Y-46585025D01*
X44383067Y-46553431D01*
X44381500Y-46521529D01*
X44381500Y-44422471D01*
X44383067Y-44390569D01*
X44387754Y-44358975D01*
X44395515Y-44327992D01*
X44406275Y-44297919D01*
X44419931Y-44269045D01*
X44436352Y-44241649D01*
X44455379Y-44215994D01*
X44476828Y-44192328D01*
X44500494Y-44170879D01*
X44526149Y-44151852D01*
X44553545Y-44135431D01*
X44582419Y-44121775D01*
X44612492Y-44111015D01*
X44643475Y-44103254D01*
X44675069Y-44098567D01*
X44706971Y-44097000D01*
X45781029Y-44097000D01*
X45812931Y-44098567D01*
X45812931Y-44098567D01*
G37*
D17*
X45244000Y-45472000D03*
D16*
G36*
X48887931Y-44098567D02*
X48919525Y-44103254D01*
X48950508Y-44111015D01*
X48980581Y-44121775D01*
X49009455Y-44135431D01*
X49036851Y-44151852D01*
X49062506Y-44170879D01*
X49086172Y-44192328D01*
X49107621Y-44215994D01*
X49126648Y-44241649D01*
X49143069Y-44269045D01*
X49156725Y-44297919D01*
X49167485Y-44327992D01*
X49175246Y-44358975D01*
X49179933Y-44390569D01*
X49181500Y-44422471D01*
X49181500Y-46521529D01*
X49179933Y-46553431D01*
X49175246Y-46585025D01*
X49167485Y-46616008D01*
X49156725Y-46646081D01*
X49143069Y-46674955D01*
X49126648Y-46702351D01*
X49107621Y-46728006D01*
X49086172Y-46751672D01*
X49062506Y-46773121D01*
X49036851Y-46792148D01*
X49009455Y-46808569D01*
X48980581Y-46822225D01*
X48950508Y-46832985D01*
X48919525Y-46840746D01*
X48887931Y-46845433D01*
X48856029Y-46847000D01*
X47781971Y-46847000D01*
X47750069Y-46845433D01*
X47718475Y-46840746D01*
X47687492Y-46832985D01*
X47657419Y-46822225D01*
X47628545Y-46808569D01*
X47601149Y-46792148D01*
X47575494Y-46773121D01*
X47551828Y-46751672D01*
X47530379Y-46728006D01*
X47511352Y-46702351D01*
X47494931Y-46674955D01*
X47481275Y-46646081D01*
X47470515Y-46616008D01*
X47462754Y-46585025D01*
X47458067Y-46553431D01*
X47456500Y-46521529D01*
X47456500Y-44422471D01*
X47458067Y-44390569D01*
X47462754Y-44358975D01*
X47470515Y-44327992D01*
X47481275Y-44297919D01*
X47494931Y-44269045D01*
X47511352Y-44241649D01*
X47530379Y-44215994D01*
X47551828Y-44192328D01*
X47575494Y-44170879D01*
X47601149Y-44151852D01*
X47628545Y-44135431D01*
X47657419Y-44121775D01*
X47687492Y-44111015D01*
X47718475Y-44103254D01*
X47750069Y-44098567D01*
X47781971Y-44097000D01*
X48856029Y-44097000D01*
X48887931Y-44098567D01*
X48887931Y-44098567D01*
G37*
D17*
X48319000Y-45472000D03*
G04 #@! TD*
D18*
G04 #@! TO.C,J1*
X84381710Y-88470200D03*
X81841710Y-88470200D03*
X84381710Y-85930200D03*
X81841710Y-85930200D03*
X84381710Y-83390200D03*
X81841710Y-83390200D03*
X84381710Y-80850200D03*
X81841710Y-80850200D03*
X84381710Y-78310200D03*
X81841710Y-78310200D03*
X84381710Y-75770200D03*
X81841710Y-75770200D03*
X84381710Y-73230200D03*
X81841710Y-73230200D03*
X84381710Y-70690200D03*
X81841710Y-70690200D03*
X84381710Y-68150200D03*
X81841710Y-68150200D03*
X84381710Y-65610200D03*
X81841710Y-65610200D03*
X84381710Y-63070200D03*
X81841710Y-63070200D03*
X84381710Y-60530200D03*
X81841710Y-60530200D03*
X84381710Y-57990200D03*
X81841710Y-57990200D03*
X84381710Y-55450200D03*
X81841710Y-55450200D03*
X84381710Y-52910200D03*
X81841710Y-52910200D03*
X84381710Y-50370200D03*
X81841710Y-50370200D03*
X84381710Y-47830200D03*
X81841710Y-47830200D03*
X84381710Y-45290200D03*
X81841710Y-45290200D03*
X84381710Y-42750200D03*
X81841710Y-42750200D03*
X84381710Y-40210200D03*
D19*
X81841710Y-40210200D03*
G04 #@! TD*
D13*
G04 #@! TO.C,D15*
X68871710Y-57990200D03*
X66871710Y-58640200D03*
X66871710Y-57340200D03*
G04 #@! TD*
G04 #@! TO.C,D39*
X68871710Y-88470200D03*
X66871710Y-89120200D03*
X66871710Y-87820200D03*
G04 #@! TD*
G04 #@! TO.C,D22*
X72681710Y-66880200D03*
X70681710Y-67530200D03*
X70681710Y-66230200D03*
G04 #@! TD*
G04 #@! TO.C,D10*
X72681710Y-51640200D03*
X70681710Y-52290200D03*
X70681710Y-50990200D03*
G04 #@! TD*
G04 #@! TO.C,D14*
X76491710Y-56720200D03*
X74491710Y-57370200D03*
X74491710Y-56070200D03*
G04 #@! TD*
G04 #@! TO.C,D30*
X68871710Y-77040200D03*
X66871710Y-77690200D03*
X66871710Y-76390200D03*
G04 #@! TD*
G04 #@! TO.C,D7*
X72681710Y-47830200D03*
X70681710Y-48480200D03*
X70681710Y-47180200D03*
G04 #@! TD*
G04 #@! TO.C,D23*
X76491710Y-68150200D03*
X74491710Y-68800200D03*
X74491710Y-67500200D03*
G04 #@! TD*
G04 #@! TO.C,D34*
X72681710Y-82120200D03*
X70681710Y-82770200D03*
X70681710Y-81470200D03*
G04 #@! TD*
G04 #@! TO.C,D26*
X76491710Y-71960200D03*
X74491710Y-72610200D03*
X74491710Y-71310200D03*
G04 #@! TD*
G04 #@! TO.C,D35*
X74491710Y-82740200D03*
X74491710Y-84040200D03*
X76491710Y-83390200D03*
G04 #@! TD*
G04 #@! TO.C,D31*
X72681710Y-78310200D03*
X70681710Y-78960200D03*
X70681710Y-77660200D03*
G04 #@! TD*
G04 #@! TO.C,D19*
X72681710Y-63070200D03*
X70681710Y-63720200D03*
X70681710Y-62420200D03*
G04 #@! TD*
G04 #@! TO.C,D11*
X76491710Y-52910200D03*
X74491710Y-53560200D03*
X74491710Y-52260200D03*
G04 #@! TD*
G04 #@! TO.C,D6*
X66871710Y-45910200D03*
X66871710Y-47210200D03*
X68871710Y-46560200D03*
G04 #@! TD*
G04 #@! TO.C,D3*
X68871710Y-42750200D03*
X66871710Y-43400200D03*
X66871710Y-42100200D03*
G04 #@! TD*
G04 #@! TO.C,D27*
X68871710Y-73230200D03*
X66871710Y-73880200D03*
X66871710Y-72580200D03*
G04 #@! TD*
G04 #@! TO.C,D38*
X76491710Y-87200200D03*
X74491710Y-87850200D03*
X74491710Y-86550200D03*
G04 #@! TD*
G04 #@! TO.C,D18*
X68871710Y-61800200D03*
X66871710Y-62450200D03*
X66871710Y-61150200D03*
G04 #@! TD*
G04 #@! TO.C,D29*
X76491710Y-75770200D03*
X74491710Y-76420200D03*
X74491710Y-75120200D03*
G04 #@! TD*
G04 #@! TO.C,D40*
X72681710Y-89740200D03*
X70681710Y-90390200D03*
X70681710Y-89090200D03*
G04 #@! TD*
G04 #@! TO.C,D37*
X72681710Y-85930200D03*
X70681710Y-86580200D03*
X70681710Y-85280200D03*
G04 #@! TD*
G04 #@! TO.C,D25*
X72681710Y-70690200D03*
X70681710Y-71340200D03*
X70681710Y-70040200D03*
G04 #@! TD*
G04 #@! TO.C,D36*
X68871710Y-84660200D03*
X66871710Y-85310200D03*
X66871710Y-84010200D03*
G04 #@! TD*
G04 #@! TO.C,D16*
X72681710Y-59260200D03*
X70681710Y-59910200D03*
X70681710Y-58610200D03*
G04 #@! TD*
G04 #@! TO.C,D28*
X72681710Y-74500200D03*
X70681710Y-75150200D03*
X70681710Y-73850200D03*
G04 #@! TD*
G04 #@! TO.C,D24*
X68871710Y-69420200D03*
X66871710Y-70070200D03*
X66871710Y-68770200D03*
G04 #@! TD*
G04 #@! TO.C,D21*
X68871710Y-65610200D03*
X66871710Y-66260200D03*
X66871710Y-64960200D03*
G04 #@! TD*
G04 #@! TO.C,D20*
X76491710Y-64340200D03*
X74491710Y-64990200D03*
X74491710Y-63690200D03*
G04 #@! TD*
G04 #@! TO.C,D13*
X72681710Y-55450200D03*
X70681710Y-56100200D03*
X70681710Y-54800200D03*
G04 #@! TD*
G04 #@! TO.C,D17*
X76491710Y-60530200D03*
X74491710Y-61180200D03*
X74491710Y-59880200D03*
G04 #@! TD*
G04 #@! TO.C,D32*
X76491710Y-79580200D03*
X74491710Y-80230200D03*
X74491710Y-78930200D03*
G04 #@! TD*
G04 #@! TO.C,D5*
X76491710Y-45290200D03*
X74491710Y-45940200D03*
X74491710Y-44640200D03*
G04 #@! TD*
G04 #@! TO.C,D12*
X68871710Y-54180200D03*
X66871710Y-54830200D03*
X66871710Y-53530200D03*
G04 #@! TD*
G04 #@! TO.C,D9*
X68871710Y-50370200D03*
X66871710Y-51020200D03*
X66871710Y-49720200D03*
G04 #@! TD*
G04 #@! TO.C,D8*
X76491710Y-49100200D03*
X74491710Y-49750200D03*
X74491710Y-48450200D03*
G04 #@! TD*
G04 #@! TO.C,D33*
X68871710Y-80850200D03*
X66871710Y-81500200D03*
X66871710Y-80200200D03*
G04 #@! TD*
G04 #@! TO.C,D4*
X70681710Y-43370200D03*
X70681710Y-44670200D03*
X72681710Y-44020200D03*
G04 #@! TD*
D20*
G04 #@! TO.C,J2*
X29083000Y-93703140D03*
X29083000Y-35227260D03*
D21*
X45415200Y-28905200D03*
X45415200Y-100025200D03*
X31115000Y-28905200D03*
X31115000Y-100025200D03*
G04 #@! TD*
D16*
G04 #@! TO.C,R41*
G36*
X50622203Y-31928735D02*
X50653145Y-31933325D01*
X50683488Y-31940925D01*
X50712940Y-31951463D01*
X50741218Y-31964838D01*
X50768048Y-31980919D01*
X50793173Y-31999553D01*
X50816350Y-32020560D01*
X50837357Y-32043737D01*
X50855991Y-32068862D01*
X50872072Y-32095692D01*
X50885447Y-32123970D01*
X50895985Y-32153422D01*
X50903585Y-32183765D01*
X50908175Y-32214707D01*
X50909710Y-32245950D01*
X50909710Y-32883450D01*
X50908175Y-32914693D01*
X50903585Y-32945635D01*
X50895985Y-32975978D01*
X50885447Y-33005430D01*
X50872072Y-33033708D01*
X50855991Y-33060538D01*
X50837357Y-33085663D01*
X50816350Y-33108840D01*
X50793173Y-33129847D01*
X50768048Y-33148481D01*
X50741218Y-33164562D01*
X50712940Y-33177937D01*
X50683488Y-33188475D01*
X50653145Y-33196075D01*
X50622203Y-33200665D01*
X50590960Y-33202200D01*
X49878460Y-33202200D01*
X49847217Y-33200665D01*
X49816275Y-33196075D01*
X49785932Y-33188475D01*
X49756480Y-33177937D01*
X49728202Y-33164562D01*
X49701372Y-33148481D01*
X49676247Y-33129847D01*
X49653070Y-33108840D01*
X49632063Y-33085663D01*
X49613429Y-33060538D01*
X49597348Y-33033708D01*
X49583973Y-33005430D01*
X49573435Y-32975978D01*
X49565835Y-32945635D01*
X49561245Y-32914693D01*
X49559710Y-32883450D01*
X49559710Y-32245950D01*
X49561245Y-32214707D01*
X49565835Y-32183765D01*
X49573435Y-32153422D01*
X49583973Y-32123970D01*
X49597348Y-32095692D01*
X49613429Y-32068862D01*
X49632063Y-32043737D01*
X49653070Y-32020560D01*
X49676247Y-31999553D01*
X49701372Y-31980919D01*
X49728202Y-31964838D01*
X49756480Y-31951463D01*
X49785932Y-31940925D01*
X49816275Y-31933325D01*
X49847217Y-31928735D01*
X49878460Y-31927200D01*
X50590960Y-31927200D01*
X50622203Y-31928735D01*
X50622203Y-31928735D01*
G37*
D22*
X50234710Y-32564700D03*
D16*
G36*
X50622203Y-33503735D02*
X50653145Y-33508325D01*
X50683488Y-33515925D01*
X50712940Y-33526463D01*
X50741218Y-33539838D01*
X50768048Y-33555919D01*
X50793173Y-33574553D01*
X50816350Y-33595560D01*
X50837357Y-33618737D01*
X50855991Y-33643862D01*
X50872072Y-33670692D01*
X50885447Y-33698970D01*
X50895985Y-33728422D01*
X50903585Y-33758765D01*
X50908175Y-33789707D01*
X50909710Y-33820950D01*
X50909710Y-34458450D01*
X50908175Y-34489693D01*
X50903585Y-34520635D01*
X50895985Y-34550978D01*
X50885447Y-34580430D01*
X50872072Y-34608708D01*
X50855991Y-34635538D01*
X50837357Y-34660663D01*
X50816350Y-34683840D01*
X50793173Y-34704847D01*
X50768048Y-34723481D01*
X50741218Y-34739562D01*
X50712940Y-34752937D01*
X50683488Y-34763475D01*
X50653145Y-34771075D01*
X50622203Y-34775665D01*
X50590960Y-34777200D01*
X49878460Y-34777200D01*
X49847217Y-34775665D01*
X49816275Y-34771075D01*
X49785932Y-34763475D01*
X49756480Y-34752937D01*
X49728202Y-34739562D01*
X49701372Y-34723481D01*
X49676247Y-34704847D01*
X49653070Y-34683840D01*
X49632063Y-34660663D01*
X49613429Y-34635538D01*
X49597348Y-34608708D01*
X49583973Y-34580430D01*
X49573435Y-34550978D01*
X49565835Y-34520635D01*
X49561245Y-34489693D01*
X49559710Y-34458450D01*
X49559710Y-33820950D01*
X49561245Y-33789707D01*
X49565835Y-33758765D01*
X49573435Y-33728422D01*
X49583973Y-33698970D01*
X49597348Y-33670692D01*
X49613429Y-33643862D01*
X49632063Y-33618737D01*
X49653070Y-33595560D01*
X49676247Y-33574553D01*
X49701372Y-33555919D01*
X49728202Y-33539838D01*
X49756480Y-33526463D01*
X49785932Y-33515925D01*
X49816275Y-33508325D01*
X49847217Y-33503735D01*
X49878460Y-33502200D01*
X50590960Y-33502200D01*
X50622203Y-33503735D01*
X50622203Y-33503735D01*
G37*
D22*
X50234710Y-34139700D03*
G04 #@! TD*
D16*
G04 #@! TO.C,R44*
G36*
X61798203Y-31098035D02*
X61829145Y-31102625D01*
X61859488Y-31110225D01*
X61888940Y-31120763D01*
X61917218Y-31134138D01*
X61944048Y-31150219D01*
X61969173Y-31168853D01*
X61992350Y-31189860D01*
X62013357Y-31213037D01*
X62031991Y-31238162D01*
X62048072Y-31264992D01*
X62061447Y-31293270D01*
X62071985Y-31322722D01*
X62079585Y-31353065D01*
X62084175Y-31384007D01*
X62085710Y-31415250D01*
X62085710Y-32052750D01*
X62084175Y-32083993D01*
X62079585Y-32114935D01*
X62071985Y-32145278D01*
X62061447Y-32174730D01*
X62048072Y-32203008D01*
X62031991Y-32229838D01*
X62013357Y-32254963D01*
X61992350Y-32278140D01*
X61969173Y-32299147D01*
X61944048Y-32317781D01*
X61917218Y-32333862D01*
X61888940Y-32347237D01*
X61859488Y-32357775D01*
X61829145Y-32365375D01*
X61798203Y-32369965D01*
X61766960Y-32371500D01*
X61054460Y-32371500D01*
X61023217Y-32369965D01*
X60992275Y-32365375D01*
X60961932Y-32357775D01*
X60932480Y-32347237D01*
X60904202Y-32333862D01*
X60877372Y-32317781D01*
X60852247Y-32299147D01*
X60829070Y-32278140D01*
X60808063Y-32254963D01*
X60789429Y-32229838D01*
X60773348Y-32203008D01*
X60759973Y-32174730D01*
X60749435Y-32145278D01*
X60741835Y-32114935D01*
X60737245Y-32083993D01*
X60735710Y-32052750D01*
X60735710Y-31415250D01*
X60737245Y-31384007D01*
X60741835Y-31353065D01*
X60749435Y-31322722D01*
X60759973Y-31293270D01*
X60773348Y-31264992D01*
X60789429Y-31238162D01*
X60808063Y-31213037D01*
X60829070Y-31189860D01*
X60852247Y-31168853D01*
X60877372Y-31150219D01*
X60904202Y-31134138D01*
X60932480Y-31120763D01*
X60961932Y-31110225D01*
X60992275Y-31102625D01*
X61023217Y-31098035D01*
X61054460Y-31096500D01*
X61766960Y-31096500D01*
X61798203Y-31098035D01*
X61798203Y-31098035D01*
G37*
D22*
X61410710Y-31734000D03*
D16*
G36*
X61798203Y-32673035D02*
X61829145Y-32677625D01*
X61859488Y-32685225D01*
X61888940Y-32695763D01*
X61917218Y-32709138D01*
X61944048Y-32725219D01*
X61969173Y-32743853D01*
X61992350Y-32764860D01*
X62013357Y-32788037D01*
X62031991Y-32813162D01*
X62048072Y-32839992D01*
X62061447Y-32868270D01*
X62071985Y-32897722D01*
X62079585Y-32928065D01*
X62084175Y-32959007D01*
X62085710Y-32990250D01*
X62085710Y-33627750D01*
X62084175Y-33658993D01*
X62079585Y-33689935D01*
X62071985Y-33720278D01*
X62061447Y-33749730D01*
X62048072Y-33778008D01*
X62031991Y-33804838D01*
X62013357Y-33829963D01*
X61992350Y-33853140D01*
X61969173Y-33874147D01*
X61944048Y-33892781D01*
X61917218Y-33908862D01*
X61888940Y-33922237D01*
X61859488Y-33932775D01*
X61829145Y-33940375D01*
X61798203Y-33944965D01*
X61766960Y-33946500D01*
X61054460Y-33946500D01*
X61023217Y-33944965D01*
X60992275Y-33940375D01*
X60961932Y-33932775D01*
X60932480Y-33922237D01*
X60904202Y-33908862D01*
X60877372Y-33892781D01*
X60852247Y-33874147D01*
X60829070Y-33853140D01*
X60808063Y-33829963D01*
X60789429Y-33804838D01*
X60773348Y-33778008D01*
X60759973Y-33749730D01*
X60749435Y-33720278D01*
X60741835Y-33689935D01*
X60737245Y-33658993D01*
X60735710Y-33627750D01*
X60735710Y-32990250D01*
X60737245Y-32959007D01*
X60741835Y-32928065D01*
X60749435Y-32897722D01*
X60759973Y-32868270D01*
X60773348Y-32839992D01*
X60789429Y-32813162D01*
X60808063Y-32788037D01*
X60829070Y-32764860D01*
X60852247Y-32743853D01*
X60877372Y-32725219D01*
X60904202Y-32709138D01*
X60932480Y-32695763D01*
X60961932Y-32685225D01*
X60992275Y-32677625D01*
X61023217Y-32673035D01*
X61054460Y-32671500D01*
X61766960Y-32671500D01*
X61798203Y-32673035D01*
X61798203Y-32673035D01*
G37*
D22*
X61410710Y-33309000D03*
G04 #@! TD*
D16*
G04 #@! TO.C,C17*
G36*
X45812931Y-39514567D02*
X45844525Y-39519254D01*
X45875508Y-39527015D01*
X45905581Y-39537775D01*
X45934455Y-39551431D01*
X45961851Y-39567852D01*
X45987506Y-39586879D01*
X46011172Y-39608328D01*
X46032621Y-39631994D01*
X46051648Y-39657649D01*
X46068069Y-39685045D01*
X46081725Y-39713919D01*
X46092485Y-39743992D01*
X46100246Y-39774975D01*
X46104933Y-39806569D01*
X46106500Y-39838471D01*
X46106500Y-41937529D01*
X46104933Y-41969431D01*
X46100246Y-42001025D01*
X46092485Y-42032008D01*
X46081725Y-42062081D01*
X46068069Y-42090955D01*
X46051648Y-42118351D01*
X46032621Y-42144006D01*
X46011172Y-42167672D01*
X45987506Y-42189121D01*
X45961851Y-42208148D01*
X45934455Y-42224569D01*
X45905581Y-42238225D01*
X45875508Y-42248985D01*
X45844525Y-42256746D01*
X45812931Y-42261433D01*
X45781029Y-42263000D01*
X44706971Y-42263000D01*
X44675069Y-42261433D01*
X44643475Y-42256746D01*
X44612492Y-42248985D01*
X44582419Y-42238225D01*
X44553545Y-42224569D01*
X44526149Y-42208148D01*
X44500494Y-42189121D01*
X44476828Y-42167672D01*
X44455379Y-42144006D01*
X44436352Y-42118351D01*
X44419931Y-42090955D01*
X44406275Y-42062081D01*
X44395515Y-42032008D01*
X44387754Y-42001025D01*
X44383067Y-41969431D01*
X44381500Y-41937529D01*
X44381500Y-39838471D01*
X44383067Y-39806569D01*
X44387754Y-39774975D01*
X44395515Y-39743992D01*
X44406275Y-39713919D01*
X44419931Y-39685045D01*
X44436352Y-39657649D01*
X44455379Y-39631994D01*
X44476828Y-39608328D01*
X44500494Y-39586879D01*
X44526149Y-39567852D01*
X44553545Y-39551431D01*
X44582419Y-39537775D01*
X44612492Y-39527015D01*
X44643475Y-39519254D01*
X44675069Y-39514567D01*
X44706971Y-39513000D01*
X45781029Y-39513000D01*
X45812931Y-39514567D01*
X45812931Y-39514567D01*
G37*
D17*
X45244000Y-40888000D03*
D16*
G36*
X48887931Y-39514567D02*
X48919525Y-39519254D01*
X48950508Y-39527015D01*
X48980581Y-39537775D01*
X49009455Y-39551431D01*
X49036851Y-39567852D01*
X49062506Y-39586879D01*
X49086172Y-39608328D01*
X49107621Y-39631994D01*
X49126648Y-39657649D01*
X49143069Y-39685045D01*
X49156725Y-39713919D01*
X49167485Y-39743992D01*
X49175246Y-39774975D01*
X49179933Y-39806569D01*
X49181500Y-39838471D01*
X49181500Y-41937529D01*
X49179933Y-41969431D01*
X49175246Y-42001025D01*
X49167485Y-42032008D01*
X49156725Y-42062081D01*
X49143069Y-42090955D01*
X49126648Y-42118351D01*
X49107621Y-42144006D01*
X49086172Y-42167672D01*
X49062506Y-42189121D01*
X49036851Y-42208148D01*
X49009455Y-42224569D01*
X48980581Y-42238225D01*
X48950508Y-42248985D01*
X48919525Y-42256746D01*
X48887931Y-42261433D01*
X48856029Y-42263000D01*
X47781971Y-42263000D01*
X47750069Y-42261433D01*
X47718475Y-42256746D01*
X47687492Y-42248985D01*
X47657419Y-42238225D01*
X47628545Y-42224569D01*
X47601149Y-42208148D01*
X47575494Y-42189121D01*
X47551828Y-42167672D01*
X47530379Y-42144006D01*
X47511352Y-42118351D01*
X47494931Y-42090955D01*
X47481275Y-42062081D01*
X47470515Y-42032008D01*
X47462754Y-42001025D01*
X47458067Y-41969431D01*
X47456500Y-41937529D01*
X47456500Y-39838471D01*
X47458067Y-39806569D01*
X47462754Y-39774975D01*
X47470515Y-39743992D01*
X47481275Y-39713919D01*
X47494931Y-39685045D01*
X47511352Y-39657649D01*
X47530379Y-39631994D01*
X47551828Y-39608328D01*
X47575494Y-39586879D01*
X47601149Y-39567852D01*
X47628545Y-39551431D01*
X47657419Y-39537775D01*
X47687492Y-39527015D01*
X47718475Y-39519254D01*
X47750069Y-39514567D01*
X47781971Y-39513000D01*
X48856029Y-39513000D01*
X48887931Y-39514567D01*
X48887931Y-39514567D01*
G37*
D17*
X48319000Y-40888000D03*
G04 #@! TD*
D16*
G04 #@! TO.C,R36*
G36*
X64945203Y-83986735D02*
X64976145Y-83991325D01*
X65006488Y-83998925D01*
X65035940Y-84009463D01*
X65064218Y-84022838D01*
X65091048Y-84038919D01*
X65116173Y-84057553D01*
X65139350Y-84078560D01*
X65160357Y-84101737D01*
X65178991Y-84126862D01*
X65195072Y-84153692D01*
X65208447Y-84181970D01*
X65218985Y-84211422D01*
X65226585Y-84241765D01*
X65231175Y-84272707D01*
X65232710Y-84303950D01*
X65232710Y-85016450D01*
X65231175Y-85047693D01*
X65226585Y-85078635D01*
X65218985Y-85108978D01*
X65208447Y-85138430D01*
X65195072Y-85166708D01*
X65178991Y-85193538D01*
X65160357Y-85218663D01*
X65139350Y-85241840D01*
X65116173Y-85262847D01*
X65091048Y-85281481D01*
X65064218Y-85297562D01*
X65035940Y-85310937D01*
X65006488Y-85321475D01*
X64976145Y-85329075D01*
X64945203Y-85333665D01*
X64913960Y-85335200D01*
X64276460Y-85335200D01*
X64245217Y-85333665D01*
X64214275Y-85329075D01*
X64183932Y-85321475D01*
X64154480Y-85310937D01*
X64126202Y-85297562D01*
X64099372Y-85281481D01*
X64074247Y-85262847D01*
X64051070Y-85241840D01*
X64030063Y-85218663D01*
X64011429Y-85193538D01*
X63995348Y-85166708D01*
X63981973Y-85138430D01*
X63971435Y-85108978D01*
X63963835Y-85078635D01*
X63959245Y-85047693D01*
X63957710Y-85016450D01*
X63957710Y-84303950D01*
X63959245Y-84272707D01*
X63963835Y-84241765D01*
X63971435Y-84211422D01*
X63981973Y-84181970D01*
X63995348Y-84153692D01*
X64011429Y-84126862D01*
X64030063Y-84101737D01*
X64051070Y-84078560D01*
X64074247Y-84057553D01*
X64099372Y-84038919D01*
X64126202Y-84022838D01*
X64154480Y-84009463D01*
X64183932Y-83998925D01*
X64214275Y-83991325D01*
X64245217Y-83986735D01*
X64276460Y-83985200D01*
X64913960Y-83985200D01*
X64945203Y-83986735D01*
X64945203Y-83986735D01*
G37*
D22*
X64595210Y-84660200D03*
D16*
G36*
X63370203Y-83986735D02*
X63401145Y-83991325D01*
X63431488Y-83998925D01*
X63460940Y-84009463D01*
X63489218Y-84022838D01*
X63516048Y-84038919D01*
X63541173Y-84057553D01*
X63564350Y-84078560D01*
X63585357Y-84101737D01*
X63603991Y-84126862D01*
X63620072Y-84153692D01*
X63633447Y-84181970D01*
X63643985Y-84211422D01*
X63651585Y-84241765D01*
X63656175Y-84272707D01*
X63657710Y-84303950D01*
X63657710Y-85016450D01*
X63656175Y-85047693D01*
X63651585Y-85078635D01*
X63643985Y-85108978D01*
X63633447Y-85138430D01*
X63620072Y-85166708D01*
X63603991Y-85193538D01*
X63585357Y-85218663D01*
X63564350Y-85241840D01*
X63541173Y-85262847D01*
X63516048Y-85281481D01*
X63489218Y-85297562D01*
X63460940Y-85310937D01*
X63431488Y-85321475D01*
X63401145Y-85329075D01*
X63370203Y-85333665D01*
X63338960Y-85335200D01*
X62701460Y-85335200D01*
X62670217Y-85333665D01*
X62639275Y-85329075D01*
X62608932Y-85321475D01*
X62579480Y-85310937D01*
X62551202Y-85297562D01*
X62524372Y-85281481D01*
X62499247Y-85262847D01*
X62476070Y-85241840D01*
X62455063Y-85218663D01*
X62436429Y-85193538D01*
X62420348Y-85166708D01*
X62406973Y-85138430D01*
X62396435Y-85108978D01*
X62388835Y-85078635D01*
X62384245Y-85047693D01*
X62382710Y-85016450D01*
X62382710Y-84303950D01*
X62384245Y-84272707D01*
X62388835Y-84241765D01*
X62396435Y-84211422D01*
X62406973Y-84181970D01*
X62420348Y-84153692D01*
X62436429Y-84126862D01*
X62455063Y-84101737D01*
X62476070Y-84078560D01*
X62499247Y-84057553D01*
X62524372Y-84038919D01*
X62551202Y-84022838D01*
X62579480Y-84009463D01*
X62608932Y-83998925D01*
X62639275Y-83991325D01*
X62670217Y-83986735D01*
X62701460Y-83985200D01*
X63338960Y-83985200D01*
X63370203Y-83986735D01*
X63370203Y-83986735D01*
G37*
D22*
X63020210Y-84660200D03*
G04 #@! TD*
D16*
G04 #@! TO.C,R35*
G36*
X59560203Y-82716735D02*
X59591145Y-82721325D01*
X59621488Y-82728925D01*
X59650940Y-82739463D01*
X59679218Y-82752838D01*
X59706048Y-82768919D01*
X59731173Y-82787553D01*
X59754350Y-82808560D01*
X59775357Y-82831737D01*
X59793991Y-82856862D01*
X59810072Y-82883692D01*
X59823447Y-82911970D01*
X59833985Y-82941422D01*
X59841585Y-82971765D01*
X59846175Y-83002707D01*
X59847710Y-83033950D01*
X59847710Y-83746450D01*
X59846175Y-83777693D01*
X59841585Y-83808635D01*
X59833985Y-83838978D01*
X59823447Y-83868430D01*
X59810072Y-83896708D01*
X59793991Y-83923538D01*
X59775357Y-83948663D01*
X59754350Y-83971840D01*
X59731173Y-83992847D01*
X59706048Y-84011481D01*
X59679218Y-84027562D01*
X59650940Y-84040937D01*
X59621488Y-84051475D01*
X59591145Y-84059075D01*
X59560203Y-84063665D01*
X59528960Y-84065200D01*
X58891460Y-84065200D01*
X58860217Y-84063665D01*
X58829275Y-84059075D01*
X58798932Y-84051475D01*
X58769480Y-84040937D01*
X58741202Y-84027562D01*
X58714372Y-84011481D01*
X58689247Y-83992847D01*
X58666070Y-83971840D01*
X58645063Y-83948663D01*
X58626429Y-83923538D01*
X58610348Y-83896708D01*
X58596973Y-83868430D01*
X58586435Y-83838978D01*
X58578835Y-83808635D01*
X58574245Y-83777693D01*
X58572710Y-83746450D01*
X58572710Y-83033950D01*
X58574245Y-83002707D01*
X58578835Y-82971765D01*
X58586435Y-82941422D01*
X58596973Y-82911970D01*
X58610348Y-82883692D01*
X58626429Y-82856862D01*
X58645063Y-82831737D01*
X58666070Y-82808560D01*
X58689247Y-82787553D01*
X58714372Y-82768919D01*
X58741202Y-82752838D01*
X58769480Y-82739463D01*
X58798932Y-82728925D01*
X58829275Y-82721325D01*
X58860217Y-82716735D01*
X58891460Y-82715200D01*
X59528960Y-82715200D01*
X59560203Y-82716735D01*
X59560203Y-82716735D01*
G37*
D22*
X59210210Y-83390200D03*
D16*
G36*
X61135203Y-82716735D02*
X61166145Y-82721325D01*
X61196488Y-82728925D01*
X61225940Y-82739463D01*
X61254218Y-82752838D01*
X61281048Y-82768919D01*
X61306173Y-82787553D01*
X61329350Y-82808560D01*
X61350357Y-82831737D01*
X61368991Y-82856862D01*
X61385072Y-82883692D01*
X61398447Y-82911970D01*
X61408985Y-82941422D01*
X61416585Y-82971765D01*
X61421175Y-83002707D01*
X61422710Y-83033950D01*
X61422710Y-83746450D01*
X61421175Y-83777693D01*
X61416585Y-83808635D01*
X61408985Y-83838978D01*
X61398447Y-83868430D01*
X61385072Y-83896708D01*
X61368991Y-83923538D01*
X61350357Y-83948663D01*
X61329350Y-83971840D01*
X61306173Y-83992847D01*
X61281048Y-84011481D01*
X61254218Y-84027562D01*
X61225940Y-84040937D01*
X61196488Y-84051475D01*
X61166145Y-84059075D01*
X61135203Y-84063665D01*
X61103960Y-84065200D01*
X60466460Y-84065200D01*
X60435217Y-84063665D01*
X60404275Y-84059075D01*
X60373932Y-84051475D01*
X60344480Y-84040937D01*
X60316202Y-84027562D01*
X60289372Y-84011481D01*
X60264247Y-83992847D01*
X60241070Y-83971840D01*
X60220063Y-83948663D01*
X60201429Y-83923538D01*
X60185348Y-83896708D01*
X60171973Y-83868430D01*
X60161435Y-83838978D01*
X60153835Y-83808635D01*
X60149245Y-83777693D01*
X60147710Y-83746450D01*
X60147710Y-83033950D01*
X60149245Y-83002707D01*
X60153835Y-82971765D01*
X60161435Y-82941422D01*
X60171973Y-82911970D01*
X60185348Y-82883692D01*
X60201429Y-82856862D01*
X60220063Y-82831737D01*
X60241070Y-82808560D01*
X60264247Y-82787553D01*
X60289372Y-82768919D01*
X60316202Y-82752838D01*
X60344480Y-82739463D01*
X60373932Y-82728925D01*
X60404275Y-82721325D01*
X60435217Y-82716735D01*
X60466460Y-82715200D01*
X61103960Y-82715200D01*
X61135203Y-82716735D01*
X61135203Y-82716735D01*
G37*
D22*
X60785210Y-83390200D03*
G04 #@! TD*
D16*
G04 #@! TO.C,R34*
G36*
X64945203Y-81446735D02*
X64976145Y-81451325D01*
X65006488Y-81458925D01*
X65035940Y-81469463D01*
X65064218Y-81482838D01*
X65091048Y-81498919D01*
X65116173Y-81517553D01*
X65139350Y-81538560D01*
X65160357Y-81561737D01*
X65178991Y-81586862D01*
X65195072Y-81613692D01*
X65208447Y-81641970D01*
X65218985Y-81671422D01*
X65226585Y-81701765D01*
X65231175Y-81732707D01*
X65232710Y-81763950D01*
X65232710Y-82476450D01*
X65231175Y-82507693D01*
X65226585Y-82538635D01*
X65218985Y-82568978D01*
X65208447Y-82598430D01*
X65195072Y-82626708D01*
X65178991Y-82653538D01*
X65160357Y-82678663D01*
X65139350Y-82701840D01*
X65116173Y-82722847D01*
X65091048Y-82741481D01*
X65064218Y-82757562D01*
X65035940Y-82770937D01*
X65006488Y-82781475D01*
X64976145Y-82789075D01*
X64945203Y-82793665D01*
X64913960Y-82795200D01*
X64276460Y-82795200D01*
X64245217Y-82793665D01*
X64214275Y-82789075D01*
X64183932Y-82781475D01*
X64154480Y-82770937D01*
X64126202Y-82757562D01*
X64099372Y-82741481D01*
X64074247Y-82722847D01*
X64051070Y-82701840D01*
X64030063Y-82678663D01*
X64011429Y-82653538D01*
X63995348Y-82626708D01*
X63981973Y-82598430D01*
X63971435Y-82568978D01*
X63963835Y-82538635D01*
X63959245Y-82507693D01*
X63957710Y-82476450D01*
X63957710Y-81763950D01*
X63959245Y-81732707D01*
X63963835Y-81701765D01*
X63971435Y-81671422D01*
X63981973Y-81641970D01*
X63995348Y-81613692D01*
X64011429Y-81586862D01*
X64030063Y-81561737D01*
X64051070Y-81538560D01*
X64074247Y-81517553D01*
X64099372Y-81498919D01*
X64126202Y-81482838D01*
X64154480Y-81469463D01*
X64183932Y-81458925D01*
X64214275Y-81451325D01*
X64245217Y-81446735D01*
X64276460Y-81445200D01*
X64913960Y-81445200D01*
X64945203Y-81446735D01*
X64945203Y-81446735D01*
G37*
D22*
X64595210Y-82120200D03*
D16*
G36*
X63370203Y-81446735D02*
X63401145Y-81451325D01*
X63431488Y-81458925D01*
X63460940Y-81469463D01*
X63489218Y-81482838D01*
X63516048Y-81498919D01*
X63541173Y-81517553D01*
X63564350Y-81538560D01*
X63585357Y-81561737D01*
X63603991Y-81586862D01*
X63620072Y-81613692D01*
X63633447Y-81641970D01*
X63643985Y-81671422D01*
X63651585Y-81701765D01*
X63656175Y-81732707D01*
X63657710Y-81763950D01*
X63657710Y-82476450D01*
X63656175Y-82507693D01*
X63651585Y-82538635D01*
X63643985Y-82568978D01*
X63633447Y-82598430D01*
X63620072Y-82626708D01*
X63603991Y-82653538D01*
X63585357Y-82678663D01*
X63564350Y-82701840D01*
X63541173Y-82722847D01*
X63516048Y-82741481D01*
X63489218Y-82757562D01*
X63460940Y-82770937D01*
X63431488Y-82781475D01*
X63401145Y-82789075D01*
X63370203Y-82793665D01*
X63338960Y-82795200D01*
X62701460Y-82795200D01*
X62670217Y-82793665D01*
X62639275Y-82789075D01*
X62608932Y-82781475D01*
X62579480Y-82770937D01*
X62551202Y-82757562D01*
X62524372Y-82741481D01*
X62499247Y-82722847D01*
X62476070Y-82701840D01*
X62455063Y-82678663D01*
X62436429Y-82653538D01*
X62420348Y-82626708D01*
X62406973Y-82598430D01*
X62396435Y-82568978D01*
X62388835Y-82538635D01*
X62384245Y-82507693D01*
X62382710Y-82476450D01*
X62382710Y-81763950D01*
X62384245Y-81732707D01*
X62388835Y-81701765D01*
X62396435Y-81671422D01*
X62406973Y-81641970D01*
X62420348Y-81613692D01*
X62436429Y-81586862D01*
X62455063Y-81561737D01*
X62476070Y-81538560D01*
X62499247Y-81517553D01*
X62524372Y-81498919D01*
X62551202Y-81482838D01*
X62579480Y-81469463D01*
X62608932Y-81458925D01*
X62639275Y-81451325D01*
X62670217Y-81446735D01*
X62701460Y-81445200D01*
X63338960Y-81445200D01*
X63370203Y-81446735D01*
X63370203Y-81446735D01*
G37*
D22*
X63020210Y-82120200D03*
G04 #@! TD*
D16*
G04 #@! TO.C,R11*
G36*
X59560203Y-52236735D02*
X59591145Y-52241325D01*
X59621488Y-52248925D01*
X59650940Y-52259463D01*
X59679218Y-52272838D01*
X59706048Y-52288919D01*
X59731173Y-52307553D01*
X59754350Y-52328560D01*
X59775357Y-52351737D01*
X59793991Y-52376862D01*
X59810072Y-52403692D01*
X59823447Y-52431970D01*
X59833985Y-52461422D01*
X59841585Y-52491765D01*
X59846175Y-52522707D01*
X59847710Y-52553950D01*
X59847710Y-53266450D01*
X59846175Y-53297693D01*
X59841585Y-53328635D01*
X59833985Y-53358978D01*
X59823447Y-53388430D01*
X59810072Y-53416708D01*
X59793991Y-53443538D01*
X59775357Y-53468663D01*
X59754350Y-53491840D01*
X59731173Y-53512847D01*
X59706048Y-53531481D01*
X59679218Y-53547562D01*
X59650940Y-53560937D01*
X59621488Y-53571475D01*
X59591145Y-53579075D01*
X59560203Y-53583665D01*
X59528960Y-53585200D01*
X58891460Y-53585200D01*
X58860217Y-53583665D01*
X58829275Y-53579075D01*
X58798932Y-53571475D01*
X58769480Y-53560937D01*
X58741202Y-53547562D01*
X58714372Y-53531481D01*
X58689247Y-53512847D01*
X58666070Y-53491840D01*
X58645063Y-53468663D01*
X58626429Y-53443538D01*
X58610348Y-53416708D01*
X58596973Y-53388430D01*
X58586435Y-53358978D01*
X58578835Y-53328635D01*
X58574245Y-53297693D01*
X58572710Y-53266450D01*
X58572710Y-52553950D01*
X58574245Y-52522707D01*
X58578835Y-52491765D01*
X58586435Y-52461422D01*
X58596973Y-52431970D01*
X58610348Y-52403692D01*
X58626429Y-52376862D01*
X58645063Y-52351737D01*
X58666070Y-52328560D01*
X58689247Y-52307553D01*
X58714372Y-52288919D01*
X58741202Y-52272838D01*
X58769480Y-52259463D01*
X58798932Y-52248925D01*
X58829275Y-52241325D01*
X58860217Y-52236735D01*
X58891460Y-52235200D01*
X59528960Y-52235200D01*
X59560203Y-52236735D01*
X59560203Y-52236735D01*
G37*
D22*
X59210210Y-52910200D03*
D16*
G36*
X61135203Y-52236735D02*
X61166145Y-52241325D01*
X61196488Y-52248925D01*
X61225940Y-52259463D01*
X61254218Y-52272838D01*
X61281048Y-52288919D01*
X61306173Y-52307553D01*
X61329350Y-52328560D01*
X61350357Y-52351737D01*
X61368991Y-52376862D01*
X61385072Y-52403692D01*
X61398447Y-52431970D01*
X61408985Y-52461422D01*
X61416585Y-52491765D01*
X61421175Y-52522707D01*
X61422710Y-52553950D01*
X61422710Y-53266450D01*
X61421175Y-53297693D01*
X61416585Y-53328635D01*
X61408985Y-53358978D01*
X61398447Y-53388430D01*
X61385072Y-53416708D01*
X61368991Y-53443538D01*
X61350357Y-53468663D01*
X61329350Y-53491840D01*
X61306173Y-53512847D01*
X61281048Y-53531481D01*
X61254218Y-53547562D01*
X61225940Y-53560937D01*
X61196488Y-53571475D01*
X61166145Y-53579075D01*
X61135203Y-53583665D01*
X61103960Y-53585200D01*
X60466460Y-53585200D01*
X60435217Y-53583665D01*
X60404275Y-53579075D01*
X60373932Y-53571475D01*
X60344480Y-53560937D01*
X60316202Y-53547562D01*
X60289372Y-53531481D01*
X60264247Y-53512847D01*
X60241070Y-53491840D01*
X60220063Y-53468663D01*
X60201429Y-53443538D01*
X60185348Y-53416708D01*
X60171973Y-53388430D01*
X60161435Y-53358978D01*
X60153835Y-53328635D01*
X60149245Y-53297693D01*
X60147710Y-53266450D01*
X60147710Y-52553950D01*
X60149245Y-52522707D01*
X60153835Y-52491765D01*
X60161435Y-52461422D01*
X60171973Y-52431970D01*
X60185348Y-52403692D01*
X60201429Y-52376862D01*
X60220063Y-52351737D01*
X60241070Y-52328560D01*
X60264247Y-52307553D01*
X60289372Y-52288919D01*
X60316202Y-52272838D01*
X60344480Y-52259463D01*
X60373932Y-52248925D01*
X60404275Y-52241325D01*
X60435217Y-52236735D01*
X60466460Y-52235200D01*
X61103960Y-52235200D01*
X61135203Y-52236735D01*
X61135203Y-52236735D01*
G37*
D22*
X60785210Y-52910200D03*
G04 #@! TD*
D16*
G04 #@! TO.C,R29*
G36*
X59560203Y-75096735D02*
X59591145Y-75101325D01*
X59621488Y-75108925D01*
X59650940Y-75119463D01*
X59679218Y-75132838D01*
X59706048Y-75148919D01*
X59731173Y-75167553D01*
X59754350Y-75188560D01*
X59775357Y-75211737D01*
X59793991Y-75236862D01*
X59810072Y-75263692D01*
X59823447Y-75291970D01*
X59833985Y-75321422D01*
X59841585Y-75351765D01*
X59846175Y-75382707D01*
X59847710Y-75413950D01*
X59847710Y-76126450D01*
X59846175Y-76157693D01*
X59841585Y-76188635D01*
X59833985Y-76218978D01*
X59823447Y-76248430D01*
X59810072Y-76276708D01*
X59793991Y-76303538D01*
X59775357Y-76328663D01*
X59754350Y-76351840D01*
X59731173Y-76372847D01*
X59706048Y-76391481D01*
X59679218Y-76407562D01*
X59650940Y-76420937D01*
X59621488Y-76431475D01*
X59591145Y-76439075D01*
X59560203Y-76443665D01*
X59528960Y-76445200D01*
X58891460Y-76445200D01*
X58860217Y-76443665D01*
X58829275Y-76439075D01*
X58798932Y-76431475D01*
X58769480Y-76420937D01*
X58741202Y-76407562D01*
X58714372Y-76391481D01*
X58689247Y-76372847D01*
X58666070Y-76351840D01*
X58645063Y-76328663D01*
X58626429Y-76303538D01*
X58610348Y-76276708D01*
X58596973Y-76248430D01*
X58586435Y-76218978D01*
X58578835Y-76188635D01*
X58574245Y-76157693D01*
X58572710Y-76126450D01*
X58572710Y-75413950D01*
X58574245Y-75382707D01*
X58578835Y-75351765D01*
X58586435Y-75321422D01*
X58596973Y-75291970D01*
X58610348Y-75263692D01*
X58626429Y-75236862D01*
X58645063Y-75211737D01*
X58666070Y-75188560D01*
X58689247Y-75167553D01*
X58714372Y-75148919D01*
X58741202Y-75132838D01*
X58769480Y-75119463D01*
X58798932Y-75108925D01*
X58829275Y-75101325D01*
X58860217Y-75096735D01*
X58891460Y-75095200D01*
X59528960Y-75095200D01*
X59560203Y-75096735D01*
X59560203Y-75096735D01*
G37*
D22*
X59210210Y-75770200D03*
D16*
G36*
X61135203Y-75096735D02*
X61166145Y-75101325D01*
X61196488Y-75108925D01*
X61225940Y-75119463D01*
X61254218Y-75132838D01*
X61281048Y-75148919D01*
X61306173Y-75167553D01*
X61329350Y-75188560D01*
X61350357Y-75211737D01*
X61368991Y-75236862D01*
X61385072Y-75263692D01*
X61398447Y-75291970D01*
X61408985Y-75321422D01*
X61416585Y-75351765D01*
X61421175Y-75382707D01*
X61422710Y-75413950D01*
X61422710Y-76126450D01*
X61421175Y-76157693D01*
X61416585Y-76188635D01*
X61408985Y-76218978D01*
X61398447Y-76248430D01*
X61385072Y-76276708D01*
X61368991Y-76303538D01*
X61350357Y-76328663D01*
X61329350Y-76351840D01*
X61306173Y-76372847D01*
X61281048Y-76391481D01*
X61254218Y-76407562D01*
X61225940Y-76420937D01*
X61196488Y-76431475D01*
X61166145Y-76439075D01*
X61135203Y-76443665D01*
X61103960Y-76445200D01*
X60466460Y-76445200D01*
X60435217Y-76443665D01*
X60404275Y-76439075D01*
X60373932Y-76431475D01*
X60344480Y-76420937D01*
X60316202Y-76407562D01*
X60289372Y-76391481D01*
X60264247Y-76372847D01*
X60241070Y-76351840D01*
X60220063Y-76328663D01*
X60201429Y-76303538D01*
X60185348Y-76276708D01*
X60171973Y-76248430D01*
X60161435Y-76218978D01*
X60153835Y-76188635D01*
X60149245Y-76157693D01*
X60147710Y-76126450D01*
X60147710Y-75413950D01*
X60149245Y-75382707D01*
X60153835Y-75351765D01*
X60161435Y-75321422D01*
X60171973Y-75291970D01*
X60185348Y-75263692D01*
X60201429Y-75236862D01*
X60220063Y-75211737D01*
X60241070Y-75188560D01*
X60264247Y-75167553D01*
X60289372Y-75148919D01*
X60316202Y-75132838D01*
X60344480Y-75119463D01*
X60373932Y-75108925D01*
X60404275Y-75101325D01*
X60435217Y-75096735D01*
X60466460Y-75095200D01*
X61103960Y-75095200D01*
X61135203Y-75096735D01*
X61135203Y-75096735D01*
G37*
D22*
X60785210Y-75770200D03*
G04 #@! TD*
D16*
G04 #@! TO.C,R12*
G36*
X64945203Y-53506735D02*
X64976145Y-53511325D01*
X65006488Y-53518925D01*
X65035940Y-53529463D01*
X65064218Y-53542838D01*
X65091048Y-53558919D01*
X65116173Y-53577553D01*
X65139350Y-53598560D01*
X65160357Y-53621737D01*
X65178991Y-53646862D01*
X65195072Y-53673692D01*
X65208447Y-53701970D01*
X65218985Y-53731422D01*
X65226585Y-53761765D01*
X65231175Y-53792707D01*
X65232710Y-53823950D01*
X65232710Y-54536450D01*
X65231175Y-54567693D01*
X65226585Y-54598635D01*
X65218985Y-54628978D01*
X65208447Y-54658430D01*
X65195072Y-54686708D01*
X65178991Y-54713538D01*
X65160357Y-54738663D01*
X65139350Y-54761840D01*
X65116173Y-54782847D01*
X65091048Y-54801481D01*
X65064218Y-54817562D01*
X65035940Y-54830937D01*
X65006488Y-54841475D01*
X64976145Y-54849075D01*
X64945203Y-54853665D01*
X64913960Y-54855200D01*
X64276460Y-54855200D01*
X64245217Y-54853665D01*
X64214275Y-54849075D01*
X64183932Y-54841475D01*
X64154480Y-54830937D01*
X64126202Y-54817562D01*
X64099372Y-54801481D01*
X64074247Y-54782847D01*
X64051070Y-54761840D01*
X64030063Y-54738663D01*
X64011429Y-54713538D01*
X63995348Y-54686708D01*
X63981973Y-54658430D01*
X63971435Y-54628978D01*
X63963835Y-54598635D01*
X63959245Y-54567693D01*
X63957710Y-54536450D01*
X63957710Y-53823950D01*
X63959245Y-53792707D01*
X63963835Y-53761765D01*
X63971435Y-53731422D01*
X63981973Y-53701970D01*
X63995348Y-53673692D01*
X64011429Y-53646862D01*
X64030063Y-53621737D01*
X64051070Y-53598560D01*
X64074247Y-53577553D01*
X64099372Y-53558919D01*
X64126202Y-53542838D01*
X64154480Y-53529463D01*
X64183932Y-53518925D01*
X64214275Y-53511325D01*
X64245217Y-53506735D01*
X64276460Y-53505200D01*
X64913960Y-53505200D01*
X64945203Y-53506735D01*
X64945203Y-53506735D01*
G37*
D22*
X64595210Y-54180200D03*
D16*
G36*
X63370203Y-53506735D02*
X63401145Y-53511325D01*
X63431488Y-53518925D01*
X63460940Y-53529463D01*
X63489218Y-53542838D01*
X63516048Y-53558919D01*
X63541173Y-53577553D01*
X63564350Y-53598560D01*
X63585357Y-53621737D01*
X63603991Y-53646862D01*
X63620072Y-53673692D01*
X63633447Y-53701970D01*
X63643985Y-53731422D01*
X63651585Y-53761765D01*
X63656175Y-53792707D01*
X63657710Y-53823950D01*
X63657710Y-54536450D01*
X63656175Y-54567693D01*
X63651585Y-54598635D01*
X63643985Y-54628978D01*
X63633447Y-54658430D01*
X63620072Y-54686708D01*
X63603991Y-54713538D01*
X63585357Y-54738663D01*
X63564350Y-54761840D01*
X63541173Y-54782847D01*
X63516048Y-54801481D01*
X63489218Y-54817562D01*
X63460940Y-54830937D01*
X63431488Y-54841475D01*
X63401145Y-54849075D01*
X63370203Y-54853665D01*
X63338960Y-54855200D01*
X62701460Y-54855200D01*
X62670217Y-54853665D01*
X62639275Y-54849075D01*
X62608932Y-54841475D01*
X62579480Y-54830937D01*
X62551202Y-54817562D01*
X62524372Y-54801481D01*
X62499247Y-54782847D01*
X62476070Y-54761840D01*
X62455063Y-54738663D01*
X62436429Y-54713538D01*
X62420348Y-54686708D01*
X62406973Y-54658430D01*
X62396435Y-54628978D01*
X62388835Y-54598635D01*
X62384245Y-54567693D01*
X62382710Y-54536450D01*
X62382710Y-53823950D01*
X62384245Y-53792707D01*
X62388835Y-53761765D01*
X62396435Y-53731422D01*
X62406973Y-53701970D01*
X62420348Y-53673692D01*
X62436429Y-53646862D01*
X62455063Y-53621737D01*
X62476070Y-53598560D01*
X62499247Y-53577553D01*
X62524372Y-53558919D01*
X62551202Y-53542838D01*
X62579480Y-53529463D01*
X62608932Y-53518925D01*
X62639275Y-53511325D01*
X62670217Y-53506735D01*
X62701460Y-53505200D01*
X63338960Y-53505200D01*
X63370203Y-53506735D01*
X63370203Y-53506735D01*
G37*
D22*
X63020210Y-54180200D03*
G04 #@! TD*
D16*
G04 #@! TO.C,R30*
G36*
X64945203Y-76366735D02*
X64976145Y-76371325D01*
X65006488Y-76378925D01*
X65035940Y-76389463D01*
X65064218Y-76402838D01*
X65091048Y-76418919D01*
X65116173Y-76437553D01*
X65139350Y-76458560D01*
X65160357Y-76481737D01*
X65178991Y-76506862D01*
X65195072Y-76533692D01*
X65208447Y-76561970D01*
X65218985Y-76591422D01*
X65226585Y-76621765D01*
X65231175Y-76652707D01*
X65232710Y-76683950D01*
X65232710Y-77396450D01*
X65231175Y-77427693D01*
X65226585Y-77458635D01*
X65218985Y-77488978D01*
X65208447Y-77518430D01*
X65195072Y-77546708D01*
X65178991Y-77573538D01*
X65160357Y-77598663D01*
X65139350Y-77621840D01*
X65116173Y-77642847D01*
X65091048Y-77661481D01*
X65064218Y-77677562D01*
X65035940Y-77690937D01*
X65006488Y-77701475D01*
X64976145Y-77709075D01*
X64945203Y-77713665D01*
X64913960Y-77715200D01*
X64276460Y-77715200D01*
X64245217Y-77713665D01*
X64214275Y-77709075D01*
X64183932Y-77701475D01*
X64154480Y-77690937D01*
X64126202Y-77677562D01*
X64099372Y-77661481D01*
X64074247Y-77642847D01*
X64051070Y-77621840D01*
X64030063Y-77598663D01*
X64011429Y-77573538D01*
X63995348Y-77546708D01*
X63981973Y-77518430D01*
X63971435Y-77488978D01*
X63963835Y-77458635D01*
X63959245Y-77427693D01*
X63957710Y-77396450D01*
X63957710Y-76683950D01*
X63959245Y-76652707D01*
X63963835Y-76621765D01*
X63971435Y-76591422D01*
X63981973Y-76561970D01*
X63995348Y-76533692D01*
X64011429Y-76506862D01*
X64030063Y-76481737D01*
X64051070Y-76458560D01*
X64074247Y-76437553D01*
X64099372Y-76418919D01*
X64126202Y-76402838D01*
X64154480Y-76389463D01*
X64183932Y-76378925D01*
X64214275Y-76371325D01*
X64245217Y-76366735D01*
X64276460Y-76365200D01*
X64913960Y-76365200D01*
X64945203Y-76366735D01*
X64945203Y-76366735D01*
G37*
D22*
X64595210Y-77040200D03*
D16*
G36*
X63370203Y-76366735D02*
X63401145Y-76371325D01*
X63431488Y-76378925D01*
X63460940Y-76389463D01*
X63489218Y-76402838D01*
X63516048Y-76418919D01*
X63541173Y-76437553D01*
X63564350Y-76458560D01*
X63585357Y-76481737D01*
X63603991Y-76506862D01*
X63620072Y-76533692D01*
X63633447Y-76561970D01*
X63643985Y-76591422D01*
X63651585Y-76621765D01*
X63656175Y-76652707D01*
X63657710Y-76683950D01*
X63657710Y-77396450D01*
X63656175Y-77427693D01*
X63651585Y-77458635D01*
X63643985Y-77488978D01*
X63633447Y-77518430D01*
X63620072Y-77546708D01*
X63603991Y-77573538D01*
X63585357Y-77598663D01*
X63564350Y-77621840D01*
X63541173Y-77642847D01*
X63516048Y-77661481D01*
X63489218Y-77677562D01*
X63460940Y-77690937D01*
X63431488Y-77701475D01*
X63401145Y-77709075D01*
X63370203Y-77713665D01*
X63338960Y-77715200D01*
X62701460Y-77715200D01*
X62670217Y-77713665D01*
X62639275Y-77709075D01*
X62608932Y-77701475D01*
X62579480Y-77690937D01*
X62551202Y-77677562D01*
X62524372Y-77661481D01*
X62499247Y-77642847D01*
X62476070Y-77621840D01*
X62455063Y-77598663D01*
X62436429Y-77573538D01*
X62420348Y-77546708D01*
X62406973Y-77518430D01*
X62396435Y-77488978D01*
X62388835Y-77458635D01*
X62384245Y-77427693D01*
X62382710Y-77396450D01*
X62382710Y-76683950D01*
X62384245Y-76652707D01*
X62388835Y-76621765D01*
X62396435Y-76591422D01*
X62406973Y-76561970D01*
X62420348Y-76533692D01*
X62436429Y-76506862D01*
X62455063Y-76481737D01*
X62476070Y-76458560D01*
X62499247Y-76437553D01*
X62524372Y-76418919D01*
X62551202Y-76402838D01*
X62579480Y-76389463D01*
X62608932Y-76378925D01*
X62639275Y-76371325D01*
X62670217Y-76366735D01*
X62701460Y-76365200D01*
X63338960Y-76365200D01*
X63370203Y-76366735D01*
X63370203Y-76366735D01*
G37*
D22*
X63020210Y-77040200D03*
G04 #@! TD*
D16*
G04 #@! TO.C,R33*
G36*
X59560203Y-80176735D02*
X59591145Y-80181325D01*
X59621488Y-80188925D01*
X59650940Y-80199463D01*
X59679218Y-80212838D01*
X59706048Y-80228919D01*
X59731173Y-80247553D01*
X59754350Y-80268560D01*
X59775357Y-80291737D01*
X59793991Y-80316862D01*
X59810072Y-80343692D01*
X59823447Y-80371970D01*
X59833985Y-80401422D01*
X59841585Y-80431765D01*
X59846175Y-80462707D01*
X59847710Y-80493950D01*
X59847710Y-81206450D01*
X59846175Y-81237693D01*
X59841585Y-81268635D01*
X59833985Y-81298978D01*
X59823447Y-81328430D01*
X59810072Y-81356708D01*
X59793991Y-81383538D01*
X59775357Y-81408663D01*
X59754350Y-81431840D01*
X59731173Y-81452847D01*
X59706048Y-81471481D01*
X59679218Y-81487562D01*
X59650940Y-81500937D01*
X59621488Y-81511475D01*
X59591145Y-81519075D01*
X59560203Y-81523665D01*
X59528960Y-81525200D01*
X58891460Y-81525200D01*
X58860217Y-81523665D01*
X58829275Y-81519075D01*
X58798932Y-81511475D01*
X58769480Y-81500937D01*
X58741202Y-81487562D01*
X58714372Y-81471481D01*
X58689247Y-81452847D01*
X58666070Y-81431840D01*
X58645063Y-81408663D01*
X58626429Y-81383538D01*
X58610348Y-81356708D01*
X58596973Y-81328430D01*
X58586435Y-81298978D01*
X58578835Y-81268635D01*
X58574245Y-81237693D01*
X58572710Y-81206450D01*
X58572710Y-80493950D01*
X58574245Y-80462707D01*
X58578835Y-80431765D01*
X58586435Y-80401422D01*
X58596973Y-80371970D01*
X58610348Y-80343692D01*
X58626429Y-80316862D01*
X58645063Y-80291737D01*
X58666070Y-80268560D01*
X58689247Y-80247553D01*
X58714372Y-80228919D01*
X58741202Y-80212838D01*
X58769480Y-80199463D01*
X58798932Y-80188925D01*
X58829275Y-80181325D01*
X58860217Y-80176735D01*
X58891460Y-80175200D01*
X59528960Y-80175200D01*
X59560203Y-80176735D01*
X59560203Y-80176735D01*
G37*
D22*
X59210210Y-80850200D03*
D16*
G36*
X61135203Y-80176735D02*
X61166145Y-80181325D01*
X61196488Y-80188925D01*
X61225940Y-80199463D01*
X61254218Y-80212838D01*
X61281048Y-80228919D01*
X61306173Y-80247553D01*
X61329350Y-80268560D01*
X61350357Y-80291737D01*
X61368991Y-80316862D01*
X61385072Y-80343692D01*
X61398447Y-80371970D01*
X61408985Y-80401422D01*
X61416585Y-80431765D01*
X61421175Y-80462707D01*
X61422710Y-80493950D01*
X61422710Y-81206450D01*
X61421175Y-81237693D01*
X61416585Y-81268635D01*
X61408985Y-81298978D01*
X61398447Y-81328430D01*
X61385072Y-81356708D01*
X61368991Y-81383538D01*
X61350357Y-81408663D01*
X61329350Y-81431840D01*
X61306173Y-81452847D01*
X61281048Y-81471481D01*
X61254218Y-81487562D01*
X61225940Y-81500937D01*
X61196488Y-81511475D01*
X61166145Y-81519075D01*
X61135203Y-81523665D01*
X61103960Y-81525200D01*
X60466460Y-81525200D01*
X60435217Y-81523665D01*
X60404275Y-81519075D01*
X60373932Y-81511475D01*
X60344480Y-81500937D01*
X60316202Y-81487562D01*
X60289372Y-81471481D01*
X60264247Y-81452847D01*
X60241070Y-81431840D01*
X60220063Y-81408663D01*
X60201429Y-81383538D01*
X60185348Y-81356708D01*
X60171973Y-81328430D01*
X60161435Y-81298978D01*
X60153835Y-81268635D01*
X60149245Y-81237693D01*
X60147710Y-81206450D01*
X60147710Y-80493950D01*
X60149245Y-80462707D01*
X60153835Y-80431765D01*
X60161435Y-80401422D01*
X60171973Y-80371970D01*
X60185348Y-80343692D01*
X60201429Y-80316862D01*
X60220063Y-80291737D01*
X60241070Y-80268560D01*
X60264247Y-80247553D01*
X60289372Y-80228919D01*
X60316202Y-80212838D01*
X60344480Y-80199463D01*
X60373932Y-80188925D01*
X60404275Y-80181325D01*
X60435217Y-80176735D01*
X60466460Y-80175200D01*
X61103960Y-80175200D01*
X61135203Y-80176735D01*
X61135203Y-80176735D01*
G37*
D22*
X60785210Y-80850200D03*
G04 #@! TD*
D16*
G04 #@! TO.C,R4*
G36*
X64945203Y-43346735D02*
X64976145Y-43351325D01*
X65006488Y-43358925D01*
X65035940Y-43369463D01*
X65064218Y-43382838D01*
X65091048Y-43398919D01*
X65116173Y-43417553D01*
X65139350Y-43438560D01*
X65160357Y-43461737D01*
X65178991Y-43486862D01*
X65195072Y-43513692D01*
X65208447Y-43541970D01*
X65218985Y-43571422D01*
X65226585Y-43601765D01*
X65231175Y-43632707D01*
X65232710Y-43663950D01*
X65232710Y-44376450D01*
X65231175Y-44407693D01*
X65226585Y-44438635D01*
X65218985Y-44468978D01*
X65208447Y-44498430D01*
X65195072Y-44526708D01*
X65178991Y-44553538D01*
X65160357Y-44578663D01*
X65139350Y-44601840D01*
X65116173Y-44622847D01*
X65091048Y-44641481D01*
X65064218Y-44657562D01*
X65035940Y-44670937D01*
X65006488Y-44681475D01*
X64976145Y-44689075D01*
X64945203Y-44693665D01*
X64913960Y-44695200D01*
X64276460Y-44695200D01*
X64245217Y-44693665D01*
X64214275Y-44689075D01*
X64183932Y-44681475D01*
X64154480Y-44670937D01*
X64126202Y-44657562D01*
X64099372Y-44641481D01*
X64074247Y-44622847D01*
X64051070Y-44601840D01*
X64030063Y-44578663D01*
X64011429Y-44553538D01*
X63995348Y-44526708D01*
X63981973Y-44498430D01*
X63971435Y-44468978D01*
X63963835Y-44438635D01*
X63959245Y-44407693D01*
X63957710Y-44376450D01*
X63957710Y-43663950D01*
X63959245Y-43632707D01*
X63963835Y-43601765D01*
X63971435Y-43571422D01*
X63981973Y-43541970D01*
X63995348Y-43513692D01*
X64011429Y-43486862D01*
X64030063Y-43461737D01*
X64051070Y-43438560D01*
X64074247Y-43417553D01*
X64099372Y-43398919D01*
X64126202Y-43382838D01*
X64154480Y-43369463D01*
X64183932Y-43358925D01*
X64214275Y-43351325D01*
X64245217Y-43346735D01*
X64276460Y-43345200D01*
X64913960Y-43345200D01*
X64945203Y-43346735D01*
X64945203Y-43346735D01*
G37*
D22*
X64595210Y-44020200D03*
D16*
G36*
X63370203Y-43346735D02*
X63401145Y-43351325D01*
X63431488Y-43358925D01*
X63460940Y-43369463D01*
X63489218Y-43382838D01*
X63516048Y-43398919D01*
X63541173Y-43417553D01*
X63564350Y-43438560D01*
X63585357Y-43461737D01*
X63603991Y-43486862D01*
X63620072Y-43513692D01*
X63633447Y-43541970D01*
X63643985Y-43571422D01*
X63651585Y-43601765D01*
X63656175Y-43632707D01*
X63657710Y-43663950D01*
X63657710Y-44376450D01*
X63656175Y-44407693D01*
X63651585Y-44438635D01*
X63643985Y-44468978D01*
X63633447Y-44498430D01*
X63620072Y-44526708D01*
X63603991Y-44553538D01*
X63585357Y-44578663D01*
X63564350Y-44601840D01*
X63541173Y-44622847D01*
X63516048Y-44641481D01*
X63489218Y-44657562D01*
X63460940Y-44670937D01*
X63431488Y-44681475D01*
X63401145Y-44689075D01*
X63370203Y-44693665D01*
X63338960Y-44695200D01*
X62701460Y-44695200D01*
X62670217Y-44693665D01*
X62639275Y-44689075D01*
X62608932Y-44681475D01*
X62579480Y-44670937D01*
X62551202Y-44657562D01*
X62524372Y-44641481D01*
X62499247Y-44622847D01*
X62476070Y-44601840D01*
X62455063Y-44578663D01*
X62436429Y-44553538D01*
X62420348Y-44526708D01*
X62406973Y-44498430D01*
X62396435Y-44468978D01*
X62388835Y-44438635D01*
X62384245Y-44407693D01*
X62382710Y-44376450D01*
X62382710Y-43663950D01*
X62384245Y-43632707D01*
X62388835Y-43601765D01*
X62396435Y-43571422D01*
X62406973Y-43541970D01*
X62420348Y-43513692D01*
X62436429Y-43486862D01*
X62455063Y-43461737D01*
X62476070Y-43438560D01*
X62499247Y-43417553D01*
X62524372Y-43398919D01*
X62551202Y-43382838D01*
X62579480Y-43369463D01*
X62608932Y-43358925D01*
X62639275Y-43351325D01*
X62670217Y-43346735D01*
X62701460Y-43345200D01*
X63338960Y-43345200D01*
X63370203Y-43346735D01*
X63370203Y-43346735D01*
G37*
D22*
X63020210Y-44020200D03*
G04 #@! TD*
D16*
G04 #@! TO.C,R5*
G36*
X59560203Y-44616735D02*
X59591145Y-44621325D01*
X59621488Y-44628925D01*
X59650940Y-44639463D01*
X59679218Y-44652838D01*
X59706048Y-44668919D01*
X59731173Y-44687553D01*
X59754350Y-44708560D01*
X59775357Y-44731737D01*
X59793991Y-44756862D01*
X59810072Y-44783692D01*
X59823447Y-44811970D01*
X59833985Y-44841422D01*
X59841585Y-44871765D01*
X59846175Y-44902707D01*
X59847710Y-44933950D01*
X59847710Y-45646450D01*
X59846175Y-45677693D01*
X59841585Y-45708635D01*
X59833985Y-45738978D01*
X59823447Y-45768430D01*
X59810072Y-45796708D01*
X59793991Y-45823538D01*
X59775357Y-45848663D01*
X59754350Y-45871840D01*
X59731173Y-45892847D01*
X59706048Y-45911481D01*
X59679218Y-45927562D01*
X59650940Y-45940937D01*
X59621488Y-45951475D01*
X59591145Y-45959075D01*
X59560203Y-45963665D01*
X59528960Y-45965200D01*
X58891460Y-45965200D01*
X58860217Y-45963665D01*
X58829275Y-45959075D01*
X58798932Y-45951475D01*
X58769480Y-45940937D01*
X58741202Y-45927562D01*
X58714372Y-45911481D01*
X58689247Y-45892847D01*
X58666070Y-45871840D01*
X58645063Y-45848663D01*
X58626429Y-45823538D01*
X58610348Y-45796708D01*
X58596973Y-45768430D01*
X58586435Y-45738978D01*
X58578835Y-45708635D01*
X58574245Y-45677693D01*
X58572710Y-45646450D01*
X58572710Y-44933950D01*
X58574245Y-44902707D01*
X58578835Y-44871765D01*
X58586435Y-44841422D01*
X58596973Y-44811970D01*
X58610348Y-44783692D01*
X58626429Y-44756862D01*
X58645063Y-44731737D01*
X58666070Y-44708560D01*
X58689247Y-44687553D01*
X58714372Y-44668919D01*
X58741202Y-44652838D01*
X58769480Y-44639463D01*
X58798932Y-44628925D01*
X58829275Y-44621325D01*
X58860217Y-44616735D01*
X58891460Y-44615200D01*
X59528960Y-44615200D01*
X59560203Y-44616735D01*
X59560203Y-44616735D01*
G37*
D22*
X59210210Y-45290200D03*
D16*
G36*
X61135203Y-44616735D02*
X61166145Y-44621325D01*
X61196488Y-44628925D01*
X61225940Y-44639463D01*
X61254218Y-44652838D01*
X61281048Y-44668919D01*
X61306173Y-44687553D01*
X61329350Y-44708560D01*
X61350357Y-44731737D01*
X61368991Y-44756862D01*
X61385072Y-44783692D01*
X61398447Y-44811970D01*
X61408985Y-44841422D01*
X61416585Y-44871765D01*
X61421175Y-44902707D01*
X61422710Y-44933950D01*
X61422710Y-45646450D01*
X61421175Y-45677693D01*
X61416585Y-45708635D01*
X61408985Y-45738978D01*
X61398447Y-45768430D01*
X61385072Y-45796708D01*
X61368991Y-45823538D01*
X61350357Y-45848663D01*
X61329350Y-45871840D01*
X61306173Y-45892847D01*
X61281048Y-45911481D01*
X61254218Y-45927562D01*
X61225940Y-45940937D01*
X61196488Y-45951475D01*
X61166145Y-45959075D01*
X61135203Y-45963665D01*
X61103960Y-45965200D01*
X60466460Y-45965200D01*
X60435217Y-45963665D01*
X60404275Y-45959075D01*
X60373932Y-45951475D01*
X60344480Y-45940937D01*
X60316202Y-45927562D01*
X60289372Y-45911481D01*
X60264247Y-45892847D01*
X60241070Y-45871840D01*
X60220063Y-45848663D01*
X60201429Y-45823538D01*
X60185348Y-45796708D01*
X60171973Y-45768430D01*
X60161435Y-45738978D01*
X60153835Y-45708635D01*
X60149245Y-45677693D01*
X60147710Y-45646450D01*
X60147710Y-44933950D01*
X60149245Y-44902707D01*
X60153835Y-44871765D01*
X60161435Y-44841422D01*
X60171973Y-44811970D01*
X60185348Y-44783692D01*
X60201429Y-44756862D01*
X60220063Y-44731737D01*
X60241070Y-44708560D01*
X60264247Y-44687553D01*
X60289372Y-44668919D01*
X60316202Y-44652838D01*
X60344480Y-44639463D01*
X60373932Y-44628925D01*
X60404275Y-44621325D01*
X60435217Y-44616735D01*
X60466460Y-44615200D01*
X61103960Y-44615200D01*
X61135203Y-44616735D01*
X61135203Y-44616735D01*
G37*
D22*
X60785210Y-45290200D03*
G04 #@! TD*
D16*
G04 #@! TO.C,R6*
G36*
X64945203Y-45886735D02*
X64976145Y-45891325D01*
X65006488Y-45898925D01*
X65035940Y-45909463D01*
X65064218Y-45922838D01*
X65091048Y-45938919D01*
X65116173Y-45957553D01*
X65139350Y-45978560D01*
X65160357Y-46001737D01*
X65178991Y-46026862D01*
X65195072Y-46053692D01*
X65208447Y-46081970D01*
X65218985Y-46111422D01*
X65226585Y-46141765D01*
X65231175Y-46172707D01*
X65232710Y-46203950D01*
X65232710Y-46916450D01*
X65231175Y-46947693D01*
X65226585Y-46978635D01*
X65218985Y-47008978D01*
X65208447Y-47038430D01*
X65195072Y-47066708D01*
X65178991Y-47093538D01*
X65160357Y-47118663D01*
X65139350Y-47141840D01*
X65116173Y-47162847D01*
X65091048Y-47181481D01*
X65064218Y-47197562D01*
X65035940Y-47210937D01*
X65006488Y-47221475D01*
X64976145Y-47229075D01*
X64945203Y-47233665D01*
X64913960Y-47235200D01*
X64276460Y-47235200D01*
X64245217Y-47233665D01*
X64214275Y-47229075D01*
X64183932Y-47221475D01*
X64154480Y-47210937D01*
X64126202Y-47197562D01*
X64099372Y-47181481D01*
X64074247Y-47162847D01*
X64051070Y-47141840D01*
X64030063Y-47118663D01*
X64011429Y-47093538D01*
X63995348Y-47066708D01*
X63981973Y-47038430D01*
X63971435Y-47008978D01*
X63963835Y-46978635D01*
X63959245Y-46947693D01*
X63957710Y-46916450D01*
X63957710Y-46203950D01*
X63959245Y-46172707D01*
X63963835Y-46141765D01*
X63971435Y-46111422D01*
X63981973Y-46081970D01*
X63995348Y-46053692D01*
X64011429Y-46026862D01*
X64030063Y-46001737D01*
X64051070Y-45978560D01*
X64074247Y-45957553D01*
X64099372Y-45938919D01*
X64126202Y-45922838D01*
X64154480Y-45909463D01*
X64183932Y-45898925D01*
X64214275Y-45891325D01*
X64245217Y-45886735D01*
X64276460Y-45885200D01*
X64913960Y-45885200D01*
X64945203Y-45886735D01*
X64945203Y-45886735D01*
G37*
D22*
X64595210Y-46560200D03*
D16*
G36*
X63370203Y-45886735D02*
X63401145Y-45891325D01*
X63431488Y-45898925D01*
X63460940Y-45909463D01*
X63489218Y-45922838D01*
X63516048Y-45938919D01*
X63541173Y-45957553D01*
X63564350Y-45978560D01*
X63585357Y-46001737D01*
X63603991Y-46026862D01*
X63620072Y-46053692D01*
X63633447Y-46081970D01*
X63643985Y-46111422D01*
X63651585Y-46141765D01*
X63656175Y-46172707D01*
X63657710Y-46203950D01*
X63657710Y-46916450D01*
X63656175Y-46947693D01*
X63651585Y-46978635D01*
X63643985Y-47008978D01*
X63633447Y-47038430D01*
X63620072Y-47066708D01*
X63603991Y-47093538D01*
X63585357Y-47118663D01*
X63564350Y-47141840D01*
X63541173Y-47162847D01*
X63516048Y-47181481D01*
X63489218Y-47197562D01*
X63460940Y-47210937D01*
X63431488Y-47221475D01*
X63401145Y-47229075D01*
X63370203Y-47233665D01*
X63338960Y-47235200D01*
X62701460Y-47235200D01*
X62670217Y-47233665D01*
X62639275Y-47229075D01*
X62608932Y-47221475D01*
X62579480Y-47210937D01*
X62551202Y-47197562D01*
X62524372Y-47181481D01*
X62499247Y-47162847D01*
X62476070Y-47141840D01*
X62455063Y-47118663D01*
X62436429Y-47093538D01*
X62420348Y-47066708D01*
X62406973Y-47038430D01*
X62396435Y-47008978D01*
X62388835Y-46978635D01*
X62384245Y-46947693D01*
X62382710Y-46916450D01*
X62382710Y-46203950D01*
X62384245Y-46172707D01*
X62388835Y-46141765D01*
X62396435Y-46111422D01*
X62406973Y-46081970D01*
X62420348Y-46053692D01*
X62436429Y-46026862D01*
X62455063Y-46001737D01*
X62476070Y-45978560D01*
X62499247Y-45957553D01*
X62524372Y-45938919D01*
X62551202Y-45922838D01*
X62579480Y-45909463D01*
X62608932Y-45898925D01*
X62639275Y-45891325D01*
X62670217Y-45886735D01*
X62701460Y-45885200D01*
X63338960Y-45885200D01*
X63370203Y-45886735D01*
X63370203Y-45886735D01*
G37*
D22*
X63020210Y-46560200D03*
G04 #@! TD*
D16*
G04 #@! TO.C,R7*
G36*
X59560203Y-47156735D02*
X59591145Y-47161325D01*
X59621488Y-47168925D01*
X59650940Y-47179463D01*
X59679218Y-47192838D01*
X59706048Y-47208919D01*
X59731173Y-47227553D01*
X59754350Y-47248560D01*
X59775357Y-47271737D01*
X59793991Y-47296862D01*
X59810072Y-47323692D01*
X59823447Y-47351970D01*
X59833985Y-47381422D01*
X59841585Y-47411765D01*
X59846175Y-47442707D01*
X59847710Y-47473950D01*
X59847710Y-48186450D01*
X59846175Y-48217693D01*
X59841585Y-48248635D01*
X59833985Y-48278978D01*
X59823447Y-48308430D01*
X59810072Y-48336708D01*
X59793991Y-48363538D01*
X59775357Y-48388663D01*
X59754350Y-48411840D01*
X59731173Y-48432847D01*
X59706048Y-48451481D01*
X59679218Y-48467562D01*
X59650940Y-48480937D01*
X59621488Y-48491475D01*
X59591145Y-48499075D01*
X59560203Y-48503665D01*
X59528960Y-48505200D01*
X58891460Y-48505200D01*
X58860217Y-48503665D01*
X58829275Y-48499075D01*
X58798932Y-48491475D01*
X58769480Y-48480937D01*
X58741202Y-48467562D01*
X58714372Y-48451481D01*
X58689247Y-48432847D01*
X58666070Y-48411840D01*
X58645063Y-48388663D01*
X58626429Y-48363538D01*
X58610348Y-48336708D01*
X58596973Y-48308430D01*
X58586435Y-48278978D01*
X58578835Y-48248635D01*
X58574245Y-48217693D01*
X58572710Y-48186450D01*
X58572710Y-47473950D01*
X58574245Y-47442707D01*
X58578835Y-47411765D01*
X58586435Y-47381422D01*
X58596973Y-47351970D01*
X58610348Y-47323692D01*
X58626429Y-47296862D01*
X58645063Y-47271737D01*
X58666070Y-47248560D01*
X58689247Y-47227553D01*
X58714372Y-47208919D01*
X58741202Y-47192838D01*
X58769480Y-47179463D01*
X58798932Y-47168925D01*
X58829275Y-47161325D01*
X58860217Y-47156735D01*
X58891460Y-47155200D01*
X59528960Y-47155200D01*
X59560203Y-47156735D01*
X59560203Y-47156735D01*
G37*
D22*
X59210210Y-47830200D03*
D16*
G36*
X61135203Y-47156735D02*
X61166145Y-47161325D01*
X61196488Y-47168925D01*
X61225940Y-47179463D01*
X61254218Y-47192838D01*
X61281048Y-47208919D01*
X61306173Y-47227553D01*
X61329350Y-47248560D01*
X61350357Y-47271737D01*
X61368991Y-47296862D01*
X61385072Y-47323692D01*
X61398447Y-47351970D01*
X61408985Y-47381422D01*
X61416585Y-47411765D01*
X61421175Y-47442707D01*
X61422710Y-47473950D01*
X61422710Y-48186450D01*
X61421175Y-48217693D01*
X61416585Y-48248635D01*
X61408985Y-48278978D01*
X61398447Y-48308430D01*
X61385072Y-48336708D01*
X61368991Y-48363538D01*
X61350357Y-48388663D01*
X61329350Y-48411840D01*
X61306173Y-48432847D01*
X61281048Y-48451481D01*
X61254218Y-48467562D01*
X61225940Y-48480937D01*
X61196488Y-48491475D01*
X61166145Y-48499075D01*
X61135203Y-48503665D01*
X61103960Y-48505200D01*
X60466460Y-48505200D01*
X60435217Y-48503665D01*
X60404275Y-48499075D01*
X60373932Y-48491475D01*
X60344480Y-48480937D01*
X60316202Y-48467562D01*
X60289372Y-48451481D01*
X60264247Y-48432847D01*
X60241070Y-48411840D01*
X60220063Y-48388663D01*
X60201429Y-48363538D01*
X60185348Y-48336708D01*
X60171973Y-48308430D01*
X60161435Y-48278978D01*
X60153835Y-48248635D01*
X60149245Y-48217693D01*
X60147710Y-48186450D01*
X60147710Y-47473950D01*
X60149245Y-47442707D01*
X60153835Y-47411765D01*
X60161435Y-47381422D01*
X60171973Y-47351970D01*
X60185348Y-47323692D01*
X60201429Y-47296862D01*
X60220063Y-47271737D01*
X60241070Y-47248560D01*
X60264247Y-47227553D01*
X60289372Y-47208919D01*
X60316202Y-47192838D01*
X60344480Y-47179463D01*
X60373932Y-47168925D01*
X60404275Y-47161325D01*
X60435217Y-47156735D01*
X60466460Y-47155200D01*
X61103960Y-47155200D01*
X61135203Y-47156735D01*
X61135203Y-47156735D01*
G37*
D22*
X60785210Y-47830200D03*
G04 #@! TD*
D16*
G04 #@! TO.C,R8*
G36*
X64945203Y-48426735D02*
X64976145Y-48431325D01*
X65006488Y-48438925D01*
X65035940Y-48449463D01*
X65064218Y-48462838D01*
X65091048Y-48478919D01*
X65116173Y-48497553D01*
X65139350Y-48518560D01*
X65160357Y-48541737D01*
X65178991Y-48566862D01*
X65195072Y-48593692D01*
X65208447Y-48621970D01*
X65218985Y-48651422D01*
X65226585Y-48681765D01*
X65231175Y-48712707D01*
X65232710Y-48743950D01*
X65232710Y-49456450D01*
X65231175Y-49487693D01*
X65226585Y-49518635D01*
X65218985Y-49548978D01*
X65208447Y-49578430D01*
X65195072Y-49606708D01*
X65178991Y-49633538D01*
X65160357Y-49658663D01*
X65139350Y-49681840D01*
X65116173Y-49702847D01*
X65091048Y-49721481D01*
X65064218Y-49737562D01*
X65035940Y-49750937D01*
X65006488Y-49761475D01*
X64976145Y-49769075D01*
X64945203Y-49773665D01*
X64913960Y-49775200D01*
X64276460Y-49775200D01*
X64245217Y-49773665D01*
X64214275Y-49769075D01*
X64183932Y-49761475D01*
X64154480Y-49750937D01*
X64126202Y-49737562D01*
X64099372Y-49721481D01*
X64074247Y-49702847D01*
X64051070Y-49681840D01*
X64030063Y-49658663D01*
X64011429Y-49633538D01*
X63995348Y-49606708D01*
X63981973Y-49578430D01*
X63971435Y-49548978D01*
X63963835Y-49518635D01*
X63959245Y-49487693D01*
X63957710Y-49456450D01*
X63957710Y-48743950D01*
X63959245Y-48712707D01*
X63963835Y-48681765D01*
X63971435Y-48651422D01*
X63981973Y-48621970D01*
X63995348Y-48593692D01*
X64011429Y-48566862D01*
X64030063Y-48541737D01*
X64051070Y-48518560D01*
X64074247Y-48497553D01*
X64099372Y-48478919D01*
X64126202Y-48462838D01*
X64154480Y-48449463D01*
X64183932Y-48438925D01*
X64214275Y-48431325D01*
X64245217Y-48426735D01*
X64276460Y-48425200D01*
X64913960Y-48425200D01*
X64945203Y-48426735D01*
X64945203Y-48426735D01*
G37*
D22*
X64595210Y-49100200D03*
D16*
G36*
X63370203Y-48426735D02*
X63401145Y-48431325D01*
X63431488Y-48438925D01*
X63460940Y-48449463D01*
X63489218Y-48462838D01*
X63516048Y-48478919D01*
X63541173Y-48497553D01*
X63564350Y-48518560D01*
X63585357Y-48541737D01*
X63603991Y-48566862D01*
X63620072Y-48593692D01*
X63633447Y-48621970D01*
X63643985Y-48651422D01*
X63651585Y-48681765D01*
X63656175Y-48712707D01*
X63657710Y-48743950D01*
X63657710Y-49456450D01*
X63656175Y-49487693D01*
X63651585Y-49518635D01*
X63643985Y-49548978D01*
X63633447Y-49578430D01*
X63620072Y-49606708D01*
X63603991Y-49633538D01*
X63585357Y-49658663D01*
X63564350Y-49681840D01*
X63541173Y-49702847D01*
X63516048Y-49721481D01*
X63489218Y-49737562D01*
X63460940Y-49750937D01*
X63431488Y-49761475D01*
X63401145Y-49769075D01*
X63370203Y-49773665D01*
X63338960Y-49775200D01*
X62701460Y-49775200D01*
X62670217Y-49773665D01*
X62639275Y-49769075D01*
X62608932Y-49761475D01*
X62579480Y-49750937D01*
X62551202Y-49737562D01*
X62524372Y-49721481D01*
X62499247Y-49702847D01*
X62476070Y-49681840D01*
X62455063Y-49658663D01*
X62436429Y-49633538D01*
X62420348Y-49606708D01*
X62406973Y-49578430D01*
X62396435Y-49548978D01*
X62388835Y-49518635D01*
X62384245Y-49487693D01*
X62382710Y-49456450D01*
X62382710Y-48743950D01*
X62384245Y-48712707D01*
X62388835Y-48681765D01*
X62396435Y-48651422D01*
X62406973Y-48621970D01*
X62420348Y-48593692D01*
X62436429Y-48566862D01*
X62455063Y-48541737D01*
X62476070Y-48518560D01*
X62499247Y-48497553D01*
X62524372Y-48478919D01*
X62551202Y-48462838D01*
X62579480Y-48449463D01*
X62608932Y-48438925D01*
X62639275Y-48431325D01*
X62670217Y-48426735D01*
X62701460Y-48425200D01*
X63338960Y-48425200D01*
X63370203Y-48426735D01*
X63370203Y-48426735D01*
G37*
D22*
X63020210Y-49100200D03*
G04 #@! TD*
D16*
G04 #@! TO.C,R9*
G36*
X59560203Y-49696735D02*
X59591145Y-49701325D01*
X59621488Y-49708925D01*
X59650940Y-49719463D01*
X59679218Y-49732838D01*
X59706048Y-49748919D01*
X59731173Y-49767553D01*
X59754350Y-49788560D01*
X59775357Y-49811737D01*
X59793991Y-49836862D01*
X59810072Y-49863692D01*
X59823447Y-49891970D01*
X59833985Y-49921422D01*
X59841585Y-49951765D01*
X59846175Y-49982707D01*
X59847710Y-50013950D01*
X59847710Y-50726450D01*
X59846175Y-50757693D01*
X59841585Y-50788635D01*
X59833985Y-50818978D01*
X59823447Y-50848430D01*
X59810072Y-50876708D01*
X59793991Y-50903538D01*
X59775357Y-50928663D01*
X59754350Y-50951840D01*
X59731173Y-50972847D01*
X59706048Y-50991481D01*
X59679218Y-51007562D01*
X59650940Y-51020937D01*
X59621488Y-51031475D01*
X59591145Y-51039075D01*
X59560203Y-51043665D01*
X59528960Y-51045200D01*
X58891460Y-51045200D01*
X58860217Y-51043665D01*
X58829275Y-51039075D01*
X58798932Y-51031475D01*
X58769480Y-51020937D01*
X58741202Y-51007562D01*
X58714372Y-50991481D01*
X58689247Y-50972847D01*
X58666070Y-50951840D01*
X58645063Y-50928663D01*
X58626429Y-50903538D01*
X58610348Y-50876708D01*
X58596973Y-50848430D01*
X58586435Y-50818978D01*
X58578835Y-50788635D01*
X58574245Y-50757693D01*
X58572710Y-50726450D01*
X58572710Y-50013950D01*
X58574245Y-49982707D01*
X58578835Y-49951765D01*
X58586435Y-49921422D01*
X58596973Y-49891970D01*
X58610348Y-49863692D01*
X58626429Y-49836862D01*
X58645063Y-49811737D01*
X58666070Y-49788560D01*
X58689247Y-49767553D01*
X58714372Y-49748919D01*
X58741202Y-49732838D01*
X58769480Y-49719463D01*
X58798932Y-49708925D01*
X58829275Y-49701325D01*
X58860217Y-49696735D01*
X58891460Y-49695200D01*
X59528960Y-49695200D01*
X59560203Y-49696735D01*
X59560203Y-49696735D01*
G37*
D22*
X59210210Y-50370200D03*
D16*
G36*
X61135203Y-49696735D02*
X61166145Y-49701325D01*
X61196488Y-49708925D01*
X61225940Y-49719463D01*
X61254218Y-49732838D01*
X61281048Y-49748919D01*
X61306173Y-49767553D01*
X61329350Y-49788560D01*
X61350357Y-49811737D01*
X61368991Y-49836862D01*
X61385072Y-49863692D01*
X61398447Y-49891970D01*
X61408985Y-49921422D01*
X61416585Y-49951765D01*
X61421175Y-49982707D01*
X61422710Y-50013950D01*
X61422710Y-50726450D01*
X61421175Y-50757693D01*
X61416585Y-50788635D01*
X61408985Y-50818978D01*
X61398447Y-50848430D01*
X61385072Y-50876708D01*
X61368991Y-50903538D01*
X61350357Y-50928663D01*
X61329350Y-50951840D01*
X61306173Y-50972847D01*
X61281048Y-50991481D01*
X61254218Y-51007562D01*
X61225940Y-51020937D01*
X61196488Y-51031475D01*
X61166145Y-51039075D01*
X61135203Y-51043665D01*
X61103960Y-51045200D01*
X60466460Y-51045200D01*
X60435217Y-51043665D01*
X60404275Y-51039075D01*
X60373932Y-51031475D01*
X60344480Y-51020937D01*
X60316202Y-51007562D01*
X60289372Y-50991481D01*
X60264247Y-50972847D01*
X60241070Y-50951840D01*
X60220063Y-50928663D01*
X60201429Y-50903538D01*
X60185348Y-50876708D01*
X60171973Y-50848430D01*
X60161435Y-50818978D01*
X60153835Y-50788635D01*
X60149245Y-50757693D01*
X60147710Y-50726450D01*
X60147710Y-50013950D01*
X60149245Y-49982707D01*
X60153835Y-49951765D01*
X60161435Y-49921422D01*
X60171973Y-49891970D01*
X60185348Y-49863692D01*
X60201429Y-49836862D01*
X60220063Y-49811737D01*
X60241070Y-49788560D01*
X60264247Y-49767553D01*
X60289372Y-49748919D01*
X60316202Y-49732838D01*
X60344480Y-49719463D01*
X60373932Y-49708925D01*
X60404275Y-49701325D01*
X60435217Y-49696735D01*
X60466460Y-49695200D01*
X61103960Y-49695200D01*
X61135203Y-49696735D01*
X61135203Y-49696735D01*
G37*
D22*
X60785210Y-50370200D03*
G04 #@! TD*
D16*
G04 #@! TO.C,R10*
G36*
X64945203Y-50966735D02*
X64976145Y-50971325D01*
X65006488Y-50978925D01*
X65035940Y-50989463D01*
X65064218Y-51002838D01*
X65091048Y-51018919D01*
X65116173Y-51037553D01*
X65139350Y-51058560D01*
X65160357Y-51081737D01*
X65178991Y-51106862D01*
X65195072Y-51133692D01*
X65208447Y-51161970D01*
X65218985Y-51191422D01*
X65226585Y-51221765D01*
X65231175Y-51252707D01*
X65232710Y-51283950D01*
X65232710Y-51996450D01*
X65231175Y-52027693D01*
X65226585Y-52058635D01*
X65218985Y-52088978D01*
X65208447Y-52118430D01*
X65195072Y-52146708D01*
X65178991Y-52173538D01*
X65160357Y-52198663D01*
X65139350Y-52221840D01*
X65116173Y-52242847D01*
X65091048Y-52261481D01*
X65064218Y-52277562D01*
X65035940Y-52290937D01*
X65006488Y-52301475D01*
X64976145Y-52309075D01*
X64945203Y-52313665D01*
X64913960Y-52315200D01*
X64276460Y-52315200D01*
X64245217Y-52313665D01*
X64214275Y-52309075D01*
X64183932Y-52301475D01*
X64154480Y-52290937D01*
X64126202Y-52277562D01*
X64099372Y-52261481D01*
X64074247Y-52242847D01*
X64051070Y-52221840D01*
X64030063Y-52198663D01*
X64011429Y-52173538D01*
X63995348Y-52146708D01*
X63981973Y-52118430D01*
X63971435Y-52088978D01*
X63963835Y-52058635D01*
X63959245Y-52027693D01*
X63957710Y-51996450D01*
X63957710Y-51283950D01*
X63959245Y-51252707D01*
X63963835Y-51221765D01*
X63971435Y-51191422D01*
X63981973Y-51161970D01*
X63995348Y-51133692D01*
X64011429Y-51106862D01*
X64030063Y-51081737D01*
X64051070Y-51058560D01*
X64074247Y-51037553D01*
X64099372Y-51018919D01*
X64126202Y-51002838D01*
X64154480Y-50989463D01*
X64183932Y-50978925D01*
X64214275Y-50971325D01*
X64245217Y-50966735D01*
X64276460Y-50965200D01*
X64913960Y-50965200D01*
X64945203Y-50966735D01*
X64945203Y-50966735D01*
G37*
D22*
X64595210Y-51640200D03*
D16*
G36*
X63370203Y-50966735D02*
X63401145Y-50971325D01*
X63431488Y-50978925D01*
X63460940Y-50989463D01*
X63489218Y-51002838D01*
X63516048Y-51018919D01*
X63541173Y-51037553D01*
X63564350Y-51058560D01*
X63585357Y-51081737D01*
X63603991Y-51106862D01*
X63620072Y-51133692D01*
X63633447Y-51161970D01*
X63643985Y-51191422D01*
X63651585Y-51221765D01*
X63656175Y-51252707D01*
X63657710Y-51283950D01*
X63657710Y-51996450D01*
X63656175Y-52027693D01*
X63651585Y-52058635D01*
X63643985Y-52088978D01*
X63633447Y-52118430D01*
X63620072Y-52146708D01*
X63603991Y-52173538D01*
X63585357Y-52198663D01*
X63564350Y-52221840D01*
X63541173Y-52242847D01*
X63516048Y-52261481D01*
X63489218Y-52277562D01*
X63460940Y-52290937D01*
X63431488Y-52301475D01*
X63401145Y-52309075D01*
X63370203Y-52313665D01*
X63338960Y-52315200D01*
X62701460Y-52315200D01*
X62670217Y-52313665D01*
X62639275Y-52309075D01*
X62608932Y-52301475D01*
X62579480Y-52290937D01*
X62551202Y-52277562D01*
X62524372Y-52261481D01*
X62499247Y-52242847D01*
X62476070Y-52221840D01*
X62455063Y-52198663D01*
X62436429Y-52173538D01*
X62420348Y-52146708D01*
X62406973Y-52118430D01*
X62396435Y-52088978D01*
X62388835Y-52058635D01*
X62384245Y-52027693D01*
X62382710Y-51996450D01*
X62382710Y-51283950D01*
X62384245Y-51252707D01*
X62388835Y-51221765D01*
X62396435Y-51191422D01*
X62406973Y-51161970D01*
X62420348Y-51133692D01*
X62436429Y-51106862D01*
X62455063Y-51081737D01*
X62476070Y-51058560D01*
X62499247Y-51037553D01*
X62524372Y-51018919D01*
X62551202Y-51002838D01*
X62579480Y-50989463D01*
X62608932Y-50978925D01*
X62639275Y-50971325D01*
X62670217Y-50966735D01*
X62701460Y-50965200D01*
X63338960Y-50965200D01*
X63370203Y-50966735D01*
X63370203Y-50966735D01*
G37*
D22*
X63020210Y-51640200D03*
G04 #@! TD*
D16*
G04 #@! TO.C,R13*
G36*
X59560203Y-54776735D02*
X59591145Y-54781325D01*
X59621488Y-54788925D01*
X59650940Y-54799463D01*
X59679218Y-54812838D01*
X59706048Y-54828919D01*
X59731173Y-54847553D01*
X59754350Y-54868560D01*
X59775357Y-54891737D01*
X59793991Y-54916862D01*
X59810072Y-54943692D01*
X59823447Y-54971970D01*
X59833985Y-55001422D01*
X59841585Y-55031765D01*
X59846175Y-55062707D01*
X59847710Y-55093950D01*
X59847710Y-55806450D01*
X59846175Y-55837693D01*
X59841585Y-55868635D01*
X59833985Y-55898978D01*
X59823447Y-55928430D01*
X59810072Y-55956708D01*
X59793991Y-55983538D01*
X59775357Y-56008663D01*
X59754350Y-56031840D01*
X59731173Y-56052847D01*
X59706048Y-56071481D01*
X59679218Y-56087562D01*
X59650940Y-56100937D01*
X59621488Y-56111475D01*
X59591145Y-56119075D01*
X59560203Y-56123665D01*
X59528960Y-56125200D01*
X58891460Y-56125200D01*
X58860217Y-56123665D01*
X58829275Y-56119075D01*
X58798932Y-56111475D01*
X58769480Y-56100937D01*
X58741202Y-56087562D01*
X58714372Y-56071481D01*
X58689247Y-56052847D01*
X58666070Y-56031840D01*
X58645063Y-56008663D01*
X58626429Y-55983538D01*
X58610348Y-55956708D01*
X58596973Y-55928430D01*
X58586435Y-55898978D01*
X58578835Y-55868635D01*
X58574245Y-55837693D01*
X58572710Y-55806450D01*
X58572710Y-55093950D01*
X58574245Y-55062707D01*
X58578835Y-55031765D01*
X58586435Y-55001422D01*
X58596973Y-54971970D01*
X58610348Y-54943692D01*
X58626429Y-54916862D01*
X58645063Y-54891737D01*
X58666070Y-54868560D01*
X58689247Y-54847553D01*
X58714372Y-54828919D01*
X58741202Y-54812838D01*
X58769480Y-54799463D01*
X58798932Y-54788925D01*
X58829275Y-54781325D01*
X58860217Y-54776735D01*
X58891460Y-54775200D01*
X59528960Y-54775200D01*
X59560203Y-54776735D01*
X59560203Y-54776735D01*
G37*
D22*
X59210210Y-55450200D03*
D16*
G36*
X61135203Y-54776735D02*
X61166145Y-54781325D01*
X61196488Y-54788925D01*
X61225940Y-54799463D01*
X61254218Y-54812838D01*
X61281048Y-54828919D01*
X61306173Y-54847553D01*
X61329350Y-54868560D01*
X61350357Y-54891737D01*
X61368991Y-54916862D01*
X61385072Y-54943692D01*
X61398447Y-54971970D01*
X61408985Y-55001422D01*
X61416585Y-55031765D01*
X61421175Y-55062707D01*
X61422710Y-55093950D01*
X61422710Y-55806450D01*
X61421175Y-55837693D01*
X61416585Y-55868635D01*
X61408985Y-55898978D01*
X61398447Y-55928430D01*
X61385072Y-55956708D01*
X61368991Y-55983538D01*
X61350357Y-56008663D01*
X61329350Y-56031840D01*
X61306173Y-56052847D01*
X61281048Y-56071481D01*
X61254218Y-56087562D01*
X61225940Y-56100937D01*
X61196488Y-56111475D01*
X61166145Y-56119075D01*
X61135203Y-56123665D01*
X61103960Y-56125200D01*
X60466460Y-56125200D01*
X60435217Y-56123665D01*
X60404275Y-56119075D01*
X60373932Y-56111475D01*
X60344480Y-56100937D01*
X60316202Y-56087562D01*
X60289372Y-56071481D01*
X60264247Y-56052847D01*
X60241070Y-56031840D01*
X60220063Y-56008663D01*
X60201429Y-55983538D01*
X60185348Y-55956708D01*
X60171973Y-55928430D01*
X60161435Y-55898978D01*
X60153835Y-55868635D01*
X60149245Y-55837693D01*
X60147710Y-55806450D01*
X60147710Y-55093950D01*
X60149245Y-55062707D01*
X60153835Y-55031765D01*
X60161435Y-55001422D01*
X60171973Y-54971970D01*
X60185348Y-54943692D01*
X60201429Y-54916862D01*
X60220063Y-54891737D01*
X60241070Y-54868560D01*
X60264247Y-54847553D01*
X60289372Y-54828919D01*
X60316202Y-54812838D01*
X60344480Y-54799463D01*
X60373932Y-54788925D01*
X60404275Y-54781325D01*
X60435217Y-54776735D01*
X60466460Y-54775200D01*
X61103960Y-54775200D01*
X61135203Y-54776735D01*
X61135203Y-54776735D01*
G37*
D22*
X60785210Y-55450200D03*
G04 #@! TD*
D16*
G04 #@! TO.C,R37*
G36*
X59560203Y-85256735D02*
X59591145Y-85261325D01*
X59621488Y-85268925D01*
X59650940Y-85279463D01*
X59679218Y-85292838D01*
X59706048Y-85308919D01*
X59731173Y-85327553D01*
X59754350Y-85348560D01*
X59775357Y-85371737D01*
X59793991Y-85396862D01*
X59810072Y-85423692D01*
X59823447Y-85451970D01*
X59833985Y-85481422D01*
X59841585Y-85511765D01*
X59846175Y-85542707D01*
X59847710Y-85573950D01*
X59847710Y-86286450D01*
X59846175Y-86317693D01*
X59841585Y-86348635D01*
X59833985Y-86378978D01*
X59823447Y-86408430D01*
X59810072Y-86436708D01*
X59793991Y-86463538D01*
X59775357Y-86488663D01*
X59754350Y-86511840D01*
X59731173Y-86532847D01*
X59706048Y-86551481D01*
X59679218Y-86567562D01*
X59650940Y-86580937D01*
X59621488Y-86591475D01*
X59591145Y-86599075D01*
X59560203Y-86603665D01*
X59528960Y-86605200D01*
X58891460Y-86605200D01*
X58860217Y-86603665D01*
X58829275Y-86599075D01*
X58798932Y-86591475D01*
X58769480Y-86580937D01*
X58741202Y-86567562D01*
X58714372Y-86551481D01*
X58689247Y-86532847D01*
X58666070Y-86511840D01*
X58645063Y-86488663D01*
X58626429Y-86463538D01*
X58610348Y-86436708D01*
X58596973Y-86408430D01*
X58586435Y-86378978D01*
X58578835Y-86348635D01*
X58574245Y-86317693D01*
X58572710Y-86286450D01*
X58572710Y-85573950D01*
X58574245Y-85542707D01*
X58578835Y-85511765D01*
X58586435Y-85481422D01*
X58596973Y-85451970D01*
X58610348Y-85423692D01*
X58626429Y-85396862D01*
X58645063Y-85371737D01*
X58666070Y-85348560D01*
X58689247Y-85327553D01*
X58714372Y-85308919D01*
X58741202Y-85292838D01*
X58769480Y-85279463D01*
X58798932Y-85268925D01*
X58829275Y-85261325D01*
X58860217Y-85256735D01*
X58891460Y-85255200D01*
X59528960Y-85255200D01*
X59560203Y-85256735D01*
X59560203Y-85256735D01*
G37*
D22*
X59210210Y-85930200D03*
D16*
G36*
X61135203Y-85256735D02*
X61166145Y-85261325D01*
X61196488Y-85268925D01*
X61225940Y-85279463D01*
X61254218Y-85292838D01*
X61281048Y-85308919D01*
X61306173Y-85327553D01*
X61329350Y-85348560D01*
X61350357Y-85371737D01*
X61368991Y-85396862D01*
X61385072Y-85423692D01*
X61398447Y-85451970D01*
X61408985Y-85481422D01*
X61416585Y-85511765D01*
X61421175Y-85542707D01*
X61422710Y-85573950D01*
X61422710Y-86286450D01*
X61421175Y-86317693D01*
X61416585Y-86348635D01*
X61408985Y-86378978D01*
X61398447Y-86408430D01*
X61385072Y-86436708D01*
X61368991Y-86463538D01*
X61350357Y-86488663D01*
X61329350Y-86511840D01*
X61306173Y-86532847D01*
X61281048Y-86551481D01*
X61254218Y-86567562D01*
X61225940Y-86580937D01*
X61196488Y-86591475D01*
X61166145Y-86599075D01*
X61135203Y-86603665D01*
X61103960Y-86605200D01*
X60466460Y-86605200D01*
X60435217Y-86603665D01*
X60404275Y-86599075D01*
X60373932Y-86591475D01*
X60344480Y-86580937D01*
X60316202Y-86567562D01*
X60289372Y-86551481D01*
X60264247Y-86532847D01*
X60241070Y-86511840D01*
X60220063Y-86488663D01*
X60201429Y-86463538D01*
X60185348Y-86436708D01*
X60171973Y-86408430D01*
X60161435Y-86378978D01*
X60153835Y-86348635D01*
X60149245Y-86317693D01*
X60147710Y-86286450D01*
X60147710Y-85573950D01*
X60149245Y-85542707D01*
X60153835Y-85511765D01*
X60161435Y-85481422D01*
X60171973Y-85451970D01*
X60185348Y-85423692D01*
X60201429Y-85396862D01*
X60220063Y-85371737D01*
X60241070Y-85348560D01*
X60264247Y-85327553D01*
X60289372Y-85308919D01*
X60316202Y-85292838D01*
X60344480Y-85279463D01*
X60373932Y-85268925D01*
X60404275Y-85261325D01*
X60435217Y-85256735D01*
X60466460Y-85255200D01*
X61103960Y-85255200D01*
X61135203Y-85256735D01*
X61135203Y-85256735D01*
G37*
D22*
X60785210Y-85930200D03*
G04 #@! TD*
D16*
G04 #@! TO.C,R3*
G36*
X59560203Y-42076735D02*
X59591145Y-42081325D01*
X59621488Y-42088925D01*
X59650940Y-42099463D01*
X59679218Y-42112838D01*
X59706048Y-42128919D01*
X59731173Y-42147553D01*
X59754350Y-42168560D01*
X59775357Y-42191737D01*
X59793991Y-42216862D01*
X59810072Y-42243692D01*
X59823447Y-42271970D01*
X59833985Y-42301422D01*
X59841585Y-42331765D01*
X59846175Y-42362707D01*
X59847710Y-42393950D01*
X59847710Y-43106450D01*
X59846175Y-43137693D01*
X59841585Y-43168635D01*
X59833985Y-43198978D01*
X59823447Y-43228430D01*
X59810072Y-43256708D01*
X59793991Y-43283538D01*
X59775357Y-43308663D01*
X59754350Y-43331840D01*
X59731173Y-43352847D01*
X59706048Y-43371481D01*
X59679218Y-43387562D01*
X59650940Y-43400937D01*
X59621488Y-43411475D01*
X59591145Y-43419075D01*
X59560203Y-43423665D01*
X59528960Y-43425200D01*
X58891460Y-43425200D01*
X58860217Y-43423665D01*
X58829275Y-43419075D01*
X58798932Y-43411475D01*
X58769480Y-43400937D01*
X58741202Y-43387562D01*
X58714372Y-43371481D01*
X58689247Y-43352847D01*
X58666070Y-43331840D01*
X58645063Y-43308663D01*
X58626429Y-43283538D01*
X58610348Y-43256708D01*
X58596973Y-43228430D01*
X58586435Y-43198978D01*
X58578835Y-43168635D01*
X58574245Y-43137693D01*
X58572710Y-43106450D01*
X58572710Y-42393950D01*
X58574245Y-42362707D01*
X58578835Y-42331765D01*
X58586435Y-42301422D01*
X58596973Y-42271970D01*
X58610348Y-42243692D01*
X58626429Y-42216862D01*
X58645063Y-42191737D01*
X58666070Y-42168560D01*
X58689247Y-42147553D01*
X58714372Y-42128919D01*
X58741202Y-42112838D01*
X58769480Y-42099463D01*
X58798932Y-42088925D01*
X58829275Y-42081325D01*
X58860217Y-42076735D01*
X58891460Y-42075200D01*
X59528960Y-42075200D01*
X59560203Y-42076735D01*
X59560203Y-42076735D01*
G37*
D22*
X59210210Y-42750200D03*
D16*
G36*
X61135203Y-42076735D02*
X61166145Y-42081325D01*
X61196488Y-42088925D01*
X61225940Y-42099463D01*
X61254218Y-42112838D01*
X61281048Y-42128919D01*
X61306173Y-42147553D01*
X61329350Y-42168560D01*
X61350357Y-42191737D01*
X61368991Y-42216862D01*
X61385072Y-42243692D01*
X61398447Y-42271970D01*
X61408985Y-42301422D01*
X61416585Y-42331765D01*
X61421175Y-42362707D01*
X61422710Y-42393950D01*
X61422710Y-43106450D01*
X61421175Y-43137693D01*
X61416585Y-43168635D01*
X61408985Y-43198978D01*
X61398447Y-43228430D01*
X61385072Y-43256708D01*
X61368991Y-43283538D01*
X61350357Y-43308663D01*
X61329350Y-43331840D01*
X61306173Y-43352847D01*
X61281048Y-43371481D01*
X61254218Y-43387562D01*
X61225940Y-43400937D01*
X61196488Y-43411475D01*
X61166145Y-43419075D01*
X61135203Y-43423665D01*
X61103960Y-43425200D01*
X60466460Y-43425200D01*
X60435217Y-43423665D01*
X60404275Y-43419075D01*
X60373932Y-43411475D01*
X60344480Y-43400937D01*
X60316202Y-43387562D01*
X60289372Y-43371481D01*
X60264247Y-43352847D01*
X60241070Y-43331840D01*
X60220063Y-43308663D01*
X60201429Y-43283538D01*
X60185348Y-43256708D01*
X60171973Y-43228430D01*
X60161435Y-43198978D01*
X60153835Y-43168635D01*
X60149245Y-43137693D01*
X60147710Y-43106450D01*
X60147710Y-42393950D01*
X60149245Y-42362707D01*
X60153835Y-42331765D01*
X60161435Y-42301422D01*
X60171973Y-42271970D01*
X60185348Y-42243692D01*
X60201429Y-42216862D01*
X60220063Y-42191737D01*
X60241070Y-42168560D01*
X60264247Y-42147553D01*
X60289372Y-42128919D01*
X60316202Y-42112838D01*
X60344480Y-42099463D01*
X60373932Y-42088925D01*
X60404275Y-42081325D01*
X60435217Y-42076735D01*
X60466460Y-42075200D01*
X61103960Y-42075200D01*
X61135203Y-42076735D01*
X61135203Y-42076735D01*
G37*
D22*
X60785210Y-42750200D03*
G04 #@! TD*
D16*
G04 #@! TO.C,R2*
G36*
X64945203Y-40806735D02*
X64976145Y-40811325D01*
X65006488Y-40818925D01*
X65035940Y-40829463D01*
X65064218Y-40842838D01*
X65091048Y-40858919D01*
X65116173Y-40877553D01*
X65139350Y-40898560D01*
X65160357Y-40921737D01*
X65178991Y-40946862D01*
X65195072Y-40973692D01*
X65208447Y-41001970D01*
X65218985Y-41031422D01*
X65226585Y-41061765D01*
X65231175Y-41092707D01*
X65232710Y-41123950D01*
X65232710Y-41836450D01*
X65231175Y-41867693D01*
X65226585Y-41898635D01*
X65218985Y-41928978D01*
X65208447Y-41958430D01*
X65195072Y-41986708D01*
X65178991Y-42013538D01*
X65160357Y-42038663D01*
X65139350Y-42061840D01*
X65116173Y-42082847D01*
X65091048Y-42101481D01*
X65064218Y-42117562D01*
X65035940Y-42130937D01*
X65006488Y-42141475D01*
X64976145Y-42149075D01*
X64945203Y-42153665D01*
X64913960Y-42155200D01*
X64276460Y-42155200D01*
X64245217Y-42153665D01*
X64214275Y-42149075D01*
X64183932Y-42141475D01*
X64154480Y-42130937D01*
X64126202Y-42117562D01*
X64099372Y-42101481D01*
X64074247Y-42082847D01*
X64051070Y-42061840D01*
X64030063Y-42038663D01*
X64011429Y-42013538D01*
X63995348Y-41986708D01*
X63981973Y-41958430D01*
X63971435Y-41928978D01*
X63963835Y-41898635D01*
X63959245Y-41867693D01*
X63957710Y-41836450D01*
X63957710Y-41123950D01*
X63959245Y-41092707D01*
X63963835Y-41061765D01*
X63971435Y-41031422D01*
X63981973Y-41001970D01*
X63995348Y-40973692D01*
X64011429Y-40946862D01*
X64030063Y-40921737D01*
X64051070Y-40898560D01*
X64074247Y-40877553D01*
X64099372Y-40858919D01*
X64126202Y-40842838D01*
X64154480Y-40829463D01*
X64183932Y-40818925D01*
X64214275Y-40811325D01*
X64245217Y-40806735D01*
X64276460Y-40805200D01*
X64913960Y-40805200D01*
X64945203Y-40806735D01*
X64945203Y-40806735D01*
G37*
D22*
X64595210Y-41480200D03*
D16*
G36*
X63370203Y-40806735D02*
X63401145Y-40811325D01*
X63431488Y-40818925D01*
X63460940Y-40829463D01*
X63489218Y-40842838D01*
X63516048Y-40858919D01*
X63541173Y-40877553D01*
X63564350Y-40898560D01*
X63585357Y-40921737D01*
X63603991Y-40946862D01*
X63620072Y-40973692D01*
X63633447Y-41001970D01*
X63643985Y-41031422D01*
X63651585Y-41061765D01*
X63656175Y-41092707D01*
X63657710Y-41123950D01*
X63657710Y-41836450D01*
X63656175Y-41867693D01*
X63651585Y-41898635D01*
X63643985Y-41928978D01*
X63633447Y-41958430D01*
X63620072Y-41986708D01*
X63603991Y-42013538D01*
X63585357Y-42038663D01*
X63564350Y-42061840D01*
X63541173Y-42082847D01*
X63516048Y-42101481D01*
X63489218Y-42117562D01*
X63460940Y-42130937D01*
X63431488Y-42141475D01*
X63401145Y-42149075D01*
X63370203Y-42153665D01*
X63338960Y-42155200D01*
X62701460Y-42155200D01*
X62670217Y-42153665D01*
X62639275Y-42149075D01*
X62608932Y-42141475D01*
X62579480Y-42130937D01*
X62551202Y-42117562D01*
X62524372Y-42101481D01*
X62499247Y-42082847D01*
X62476070Y-42061840D01*
X62455063Y-42038663D01*
X62436429Y-42013538D01*
X62420348Y-41986708D01*
X62406973Y-41958430D01*
X62396435Y-41928978D01*
X62388835Y-41898635D01*
X62384245Y-41867693D01*
X62382710Y-41836450D01*
X62382710Y-41123950D01*
X62384245Y-41092707D01*
X62388835Y-41061765D01*
X62396435Y-41031422D01*
X62406973Y-41001970D01*
X62420348Y-40973692D01*
X62436429Y-40946862D01*
X62455063Y-40921737D01*
X62476070Y-40898560D01*
X62499247Y-40877553D01*
X62524372Y-40858919D01*
X62551202Y-40842838D01*
X62579480Y-40829463D01*
X62608932Y-40818925D01*
X62639275Y-40811325D01*
X62670217Y-40806735D01*
X62701460Y-40805200D01*
X63338960Y-40805200D01*
X63370203Y-40806735D01*
X63370203Y-40806735D01*
G37*
D22*
X63020210Y-41480200D03*
G04 #@! TD*
D16*
G04 #@! TO.C,R15*
G36*
X59560203Y-57316735D02*
X59591145Y-57321325D01*
X59621488Y-57328925D01*
X59650940Y-57339463D01*
X59679218Y-57352838D01*
X59706048Y-57368919D01*
X59731173Y-57387553D01*
X59754350Y-57408560D01*
X59775357Y-57431737D01*
X59793991Y-57456862D01*
X59810072Y-57483692D01*
X59823447Y-57511970D01*
X59833985Y-57541422D01*
X59841585Y-57571765D01*
X59846175Y-57602707D01*
X59847710Y-57633950D01*
X59847710Y-58346450D01*
X59846175Y-58377693D01*
X59841585Y-58408635D01*
X59833985Y-58438978D01*
X59823447Y-58468430D01*
X59810072Y-58496708D01*
X59793991Y-58523538D01*
X59775357Y-58548663D01*
X59754350Y-58571840D01*
X59731173Y-58592847D01*
X59706048Y-58611481D01*
X59679218Y-58627562D01*
X59650940Y-58640937D01*
X59621488Y-58651475D01*
X59591145Y-58659075D01*
X59560203Y-58663665D01*
X59528960Y-58665200D01*
X58891460Y-58665200D01*
X58860217Y-58663665D01*
X58829275Y-58659075D01*
X58798932Y-58651475D01*
X58769480Y-58640937D01*
X58741202Y-58627562D01*
X58714372Y-58611481D01*
X58689247Y-58592847D01*
X58666070Y-58571840D01*
X58645063Y-58548663D01*
X58626429Y-58523538D01*
X58610348Y-58496708D01*
X58596973Y-58468430D01*
X58586435Y-58438978D01*
X58578835Y-58408635D01*
X58574245Y-58377693D01*
X58572710Y-58346450D01*
X58572710Y-57633950D01*
X58574245Y-57602707D01*
X58578835Y-57571765D01*
X58586435Y-57541422D01*
X58596973Y-57511970D01*
X58610348Y-57483692D01*
X58626429Y-57456862D01*
X58645063Y-57431737D01*
X58666070Y-57408560D01*
X58689247Y-57387553D01*
X58714372Y-57368919D01*
X58741202Y-57352838D01*
X58769480Y-57339463D01*
X58798932Y-57328925D01*
X58829275Y-57321325D01*
X58860217Y-57316735D01*
X58891460Y-57315200D01*
X59528960Y-57315200D01*
X59560203Y-57316735D01*
X59560203Y-57316735D01*
G37*
D22*
X59210210Y-57990200D03*
D16*
G36*
X61135203Y-57316735D02*
X61166145Y-57321325D01*
X61196488Y-57328925D01*
X61225940Y-57339463D01*
X61254218Y-57352838D01*
X61281048Y-57368919D01*
X61306173Y-57387553D01*
X61329350Y-57408560D01*
X61350357Y-57431737D01*
X61368991Y-57456862D01*
X61385072Y-57483692D01*
X61398447Y-57511970D01*
X61408985Y-57541422D01*
X61416585Y-57571765D01*
X61421175Y-57602707D01*
X61422710Y-57633950D01*
X61422710Y-58346450D01*
X61421175Y-58377693D01*
X61416585Y-58408635D01*
X61408985Y-58438978D01*
X61398447Y-58468430D01*
X61385072Y-58496708D01*
X61368991Y-58523538D01*
X61350357Y-58548663D01*
X61329350Y-58571840D01*
X61306173Y-58592847D01*
X61281048Y-58611481D01*
X61254218Y-58627562D01*
X61225940Y-58640937D01*
X61196488Y-58651475D01*
X61166145Y-58659075D01*
X61135203Y-58663665D01*
X61103960Y-58665200D01*
X60466460Y-58665200D01*
X60435217Y-58663665D01*
X60404275Y-58659075D01*
X60373932Y-58651475D01*
X60344480Y-58640937D01*
X60316202Y-58627562D01*
X60289372Y-58611481D01*
X60264247Y-58592847D01*
X60241070Y-58571840D01*
X60220063Y-58548663D01*
X60201429Y-58523538D01*
X60185348Y-58496708D01*
X60171973Y-58468430D01*
X60161435Y-58438978D01*
X60153835Y-58408635D01*
X60149245Y-58377693D01*
X60147710Y-58346450D01*
X60147710Y-57633950D01*
X60149245Y-57602707D01*
X60153835Y-57571765D01*
X60161435Y-57541422D01*
X60171973Y-57511970D01*
X60185348Y-57483692D01*
X60201429Y-57456862D01*
X60220063Y-57431737D01*
X60241070Y-57408560D01*
X60264247Y-57387553D01*
X60289372Y-57368919D01*
X60316202Y-57352838D01*
X60344480Y-57339463D01*
X60373932Y-57328925D01*
X60404275Y-57321325D01*
X60435217Y-57316735D01*
X60466460Y-57315200D01*
X61103960Y-57315200D01*
X61135203Y-57316735D01*
X61135203Y-57316735D01*
G37*
D22*
X60785210Y-57990200D03*
G04 #@! TD*
D16*
G04 #@! TO.C,R17*
G36*
X59560203Y-59856735D02*
X59591145Y-59861325D01*
X59621488Y-59868925D01*
X59650940Y-59879463D01*
X59679218Y-59892838D01*
X59706048Y-59908919D01*
X59731173Y-59927553D01*
X59754350Y-59948560D01*
X59775357Y-59971737D01*
X59793991Y-59996862D01*
X59810072Y-60023692D01*
X59823447Y-60051970D01*
X59833985Y-60081422D01*
X59841585Y-60111765D01*
X59846175Y-60142707D01*
X59847710Y-60173950D01*
X59847710Y-60886450D01*
X59846175Y-60917693D01*
X59841585Y-60948635D01*
X59833985Y-60978978D01*
X59823447Y-61008430D01*
X59810072Y-61036708D01*
X59793991Y-61063538D01*
X59775357Y-61088663D01*
X59754350Y-61111840D01*
X59731173Y-61132847D01*
X59706048Y-61151481D01*
X59679218Y-61167562D01*
X59650940Y-61180937D01*
X59621488Y-61191475D01*
X59591145Y-61199075D01*
X59560203Y-61203665D01*
X59528960Y-61205200D01*
X58891460Y-61205200D01*
X58860217Y-61203665D01*
X58829275Y-61199075D01*
X58798932Y-61191475D01*
X58769480Y-61180937D01*
X58741202Y-61167562D01*
X58714372Y-61151481D01*
X58689247Y-61132847D01*
X58666070Y-61111840D01*
X58645063Y-61088663D01*
X58626429Y-61063538D01*
X58610348Y-61036708D01*
X58596973Y-61008430D01*
X58586435Y-60978978D01*
X58578835Y-60948635D01*
X58574245Y-60917693D01*
X58572710Y-60886450D01*
X58572710Y-60173950D01*
X58574245Y-60142707D01*
X58578835Y-60111765D01*
X58586435Y-60081422D01*
X58596973Y-60051970D01*
X58610348Y-60023692D01*
X58626429Y-59996862D01*
X58645063Y-59971737D01*
X58666070Y-59948560D01*
X58689247Y-59927553D01*
X58714372Y-59908919D01*
X58741202Y-59892838D01*
X58769480Y-59879463D01*
X58798932Y-59868925D01*
X58829275Y-59861325D01*
X58860217Y-59856735D01*
X58891460Y-59855200D01*
X59528960Y-59855200D01*
X59560203Y-59856735D01*
X59560203Y-59856735D01*
G37*
D22*
X59210210Y-60530200D03*
D16*
G36*
X61135203Y-59856735D02*
X61166145Y-59861325D01*
X61196488Y-59868925D01*
X61225940Y-59879463D01*
X61254218Y-59892838D01*
X61281048Y-59908919D01*
X61306173Y-59927553D01*
X61329350Y-59948560D01*
X61350357Y-59971737D01*
X61368991Y-59996862D01*
X61385072Y-60023692D01*
X61398447Y-60051970D01*
X61408985Y-60081422D01*
X61416585Y-60111765D01*
X61421175Y-60142707D01*
X61422710Y-60173950D01*
X61422710Y-60886450D01*
X61421175Y-60917693D01*
X61416585Y-60948635D01*
X61408985Y-60978978D01*
X61398447Y-61008430D01*
X61385072Y-61036708D01*
X61368991Y-61063538D01*
X61350357Y-61088663D01*
X61329350Y-61111840D01*
X61306173Y-61132847D01*
X61281048Y-61151481D01*
X61254218Y-61167562D01*
X61225940Y-61180937D01*
X61196488Y-61191475D01*
X61166145Y-61199075D01*
X61135203Y-61203665D01*
X61103960Y-61205200D01*
X60466460Y-61205200D01*
X60435217Y-61203665D01*
X60404275Y-61199075D01*
X60373932Y-61191475D01*
X60344480Y-61180937D01*
X60316202Y-61167562D01*
X60289372Y-61151481D01*
X60264247Y-61132847D01*
X60241070Y-61111840D01*
X60220063Y-61088663D01*
X60201429Y-61063538D01*
X60185348Y-61036708D01*
X60171973Y-61008430D01*
X60161435Y-60978978D01*
X60153835Y-60948635D01*
X60149245Y-60917693D01*
X60147710Y-60886450D01*
X60147710Y-60173950D01*
X60149245Y-60142707D01*
X60153835Y-60111765D01*
X60161435Y-60081422D01*
X60171973Y-60051970D01*
X60185348Y-60023692D01*
X60201429Y-59996862D01*
X60220063Y-59971737D01*
X60241070Y-59948560D01*
X60264247Y-59927553D01*
X60289372Y-59908919D01*
X60316202Y-59892838D01*
X60344480Y-59879463D01*
X60373932Y-59868925D01*
X60404275Y-59861325D01*
X60435217Y-59856735D01*
X60466460Y-59855200D01*
X61103960Y-59855200D01*
X61135203Y-59856735D01*
X61135203Y-59856735D01*
G37*
D22*
X60785210Y-60530200D03*
G04 #@! TD*
D16*
G04 #@! TO.C,R18*
G36*
X64945203Y-61126735D02*
X64976145Y-61131325D01*
X65006488Y-61138925D01*
X65035940Y-61149463D01*
X65064218Y-61162838D01*
X65091048Y-61178919D01*
X65116173Y-61197553D01*
X65139350Y-61218560D01*
X65160357Y-61241737D01*
X65178991Y-61266862D01*
X65195072Y-61293692D01*
X65208447Y-61321970D01*
X65218985Y-61351422D01*
X65226585Y-61381765D01*
X65231175Y-61412707D01*
X65232710Y-61443950D01*
X65232710Y-62156450D01*
X65231175Y-62187693D01*
X65226585Y-62218635D01*
X65218985Y-62248978D01*
X65208447Y-62278430D01*
X65195072Y-62306708D01*
X65178991Y-62333538D01*
X65160357Y-62358663D01*
X65139350Y-62381840D01*
X65116173Y-62402847D01*
X65091048Y-62421481D01*
X65064218Y-62437562D01*
X65035940Y-62450937D01*
X65006488Y-62461475D01*
X64976145Y-62469075D01*
X64945203Y-62473665D01*
X64913960Y-62475200D01*
X64276460Y-62475200D01*
X64245217Y-62473665D01*
X64214275Y-62469075D01*
X64183932Y-62461475D01*
X64154480Y-62450937D01*
X64126202Y-62437562D01*
X64099372Y-62421481D01*
X64074247Y-62402847D01*
X64051070Y-62381840D01*
X64030063Y-62358663D01*
X64011429Y-62333538D01*
X63995348Y-62306708D01*
X63981973Y-62278430D01*
X63971435Y-62248978D01*
X63963835Y-62218635D01*
X63959245Y-62187693D01*
X63957710Y-62156450D01*
X63957710Y-61443950D01*
X63959245Y-61412707D01*
X63963835Y-61381765D01*
X63971435Y-61351422D01*
X63981973Y-61321970D01*
X63995348Y-61293692D01*
X64011429Y-61266862D01*
X64030063Y-61241737D01*
X64051070Y-61218560D01*
X64074247Y-61197553D01*
X64099372Y-61178919D01*
X64126202Y-61162838D01*
X64154480Y-61149463D01*
X64183932Y-61138925D01*
X64214275Y-61131325D01*
X64245217Y-61126735D01*
X64276460Y-61125200D01*
X64913960Y-61125200D01*
X64945203Y-61126735D01*
X64945203Y-61126735D01*
G37*
D22*
X64595210Y-61800200D03*
D16*
G36*
X63370203Y-61126735D02*
X63401145Y-61131325D01*
X63431488Y-61138925D01*
X63460940Y-61149463D01*
X63489218Y-61162838D01*
X63516048Y-61178919D01*
X63541173Y-61197553D01*
X63564350Y-61218560D01*
X63585357Y-61241737D01*
X63603991Y-61266862D01*
X63620072Y-61293692D01*
X63633447Y-61321970D01*
X63643985Y-61351422D01*
X63651585Y-61381765D01*
X63656175Y-61412707D01*
X63657710Y-61443950D01*
X63657710Y-62156450D01*
X63656175Y-62187693D01*
X63651585Y-62218635D01*
X63643985Y-62248978D01*
X63633447Y-62278430D01*
X63620072Y-62306708D01*
X63603991Y-62333538D01*
X63585357Y-62358663D01*
X63564350Y-62381840D01*
X63541173Y-62402847D01*
X63516048Y-62421481D01*
X63489218Y-62437562D01*
X63460940Y-62450937D01*
X63431488Y-62461475D01*
X63401145Y-62469075D01*
X63370203Y-62473665D01*
X63338960Y-62475200D01*
X62701460Y-62475200D01*
X62670217Y-62473665D01*
X62639275Y-62469075D01*
X62608932Y-62461475D01*
X62579480Y-62450937D01*
X62551202Y-62437562D01*
X62524372Y-62421481D01*
X62499247Y-62402847D01*
X62476070Y-62381840D01*
X62455063Y-62358663D01*
X62436429Y-62333538D01*
X62420348Y-62306708D01*
X62406973Y-62278430D01*
X62396435Y-62248978D01*
X62388835Y-62218635D01*
X62384245Y-62187693D01*
X62382710Y-62156450D01*
X62382710Y-61443950D01*
X62384245Y-61412707D01*
X62388835Y-61381765D01*
X62396435Y-61351422D01*
X62406973Y-61321970D01*
X62420348Y-61293692D01*
X62436429Y-61266862D01*
X62455063Y-61241737D01*
X62476070Y-61218560D01*
X62499247Y-61197553D01*
X62524372Y-61178919D01*
X62551202Y-61162838D01*
X62579480Y-61149463D01*
X62608932Y-61138925D01*
X62639275Y-61131325D01*
X62670217Y-61126735D01*
X62701460Y-61125200D01*
X63338960Y-61125200D01*
X63370203Y-61126735D01*
X63370203Y-61126735D01*
G37*
D22*
X63020210Y-61800200D03*
G04 #@! TD*
D16*
G04 #@! TO.C,R19*
G36*
X59560203Y-62396735D02*
X59591145Y-62401325D01*
X59621488Y-62408925D01*
X59650940Y-62419463D01*
X59679218Y-62432838D01*
X59706048Y-62448919D01*
X59731173Y-62467553D01*
X59754350Y-62488560D01*
X59775357Y-62511737D01*
X59793991Y-62536862D01*
X59810072Y-62563692D01*
X59823447Y-62591970D01*
X59833985Y-62621422D01*
X59841585Y-62651765D01*
X59846175Y-62682707D01*
X59847710Y-62713950D01*
X59847710Y-63426450D01*
X59846175Y-63457693D01*
X59841585Y-63488635D01*
X59833985Y-63518978D01*
X59823447Y-63548430D01*
X59810072Y-63576708D01*
X59793991Y-63603538D01*
X59775357Y-63628663D01*
X59754350Y-63651840D01*
X59731173Y-63672847D01*
X59706048Y-63691481D01*
X59679218Y-63707562D01*
X59650940Y-63720937D01*
X59621488Y-63731475D01*
X59591145Y-63739075D01*
X59560203Y-63743665D01*
X59528960Y-63745200D01*
X58891460Y-63745200D01*
X58860217Y-63743665D01*
X58829275Y-63739075D01*
X58798932Y-63731475D01*
X58769480Y-63720937D01*
X58741202Y-63707562D01*
X58714372Y-63691481D01*
X58689247Y-63672847D01*
X58666070Y-63651840D01*
X58645063Y-63628663D01*
X58626429Y-63603538D01*
X58610348Y-63576708D01*
X58596973Y-63548430D01*
X58586435Y-63518978D01*
X58578835Y-63488635D01*
X58574245Y-63457693D01*
X58572710Y-63426450D01*
X58572710Y-62713950D01*
X58574245Y-62682707D01*
X58578835Y-62651765D01*
X58586435Y-62621422D01*
X58596973Y-62591970D01*
X58610348Y-62563692D01*
X58626429Y-62536862D01*
X58645063Y-62511737D01*
X58666070Y-62488560D01*
X58689247Y-62467553D01*
X58714372Y-62448919D01*
X58741202Y-62432838D01*
X58769480Y-62419463D01*
X58798932Y-62408925D01*
X58829275Y-62401325D01*
X58860217Y-62396735D01*
X58891460Y-62395200D01*
X59528960Y-62395200D01*
X59560203Y-62396735D01*
X59560203Y-62396735D01*
G37*
D22*
X59210210Y-63070200D03*
D16*
G36*
X61135203Y-62396735D02*
X61166145Y-62401325D01*
X61196488Y-62408925D01*
X61225940Y-62419463D01*
X61254218Y-62432838D01*
X61281048Y-62448919D01*
X61306173Y-62467553D01*
X61329350Y-62488560D01*
X61350357Y-62511737D01*
X61368991Y-62536862D01*
X61385072Y-62563692D01*
X61398447Y-62591970D01*
X61408985Y-62621422D01*
X61416585Y-62651765D01*
X61421175Y-62682707D01*
X61422710Y-62713950D01*
X61422710Y-63426450D01*
X61421175Y-63457693D01*
X61416585Y-63488635D01*
X61408985Y-63518978D01*
X61398447Y-63548430D01*
X61385072Y-63576708D01*
X61368991Y-63603538D01*
X61350357Y-63628663D01*
X61329350Y-63651840D01*
X61306173Y-63672847D01*
X61281048Y-63691481D01*
X61254218Y-63707562D01*
X61225940Y-63720937D01*
X61196488Y-63731475D01*
X61166145Y-63739075D01*
X61135203Y-63743665D01*
X61103960Y-63745200D01*
X60466460Y-63745200D01*
X60435217Y-63743665D01*
X60404275Y-63739075D01*
X60373932Y-63731475D01*
X60344480Y-63720937D01*
X60316202Y-63707562D01*
X60289372Y-63691481D01*
X60264247Y-63672847D01*
X60241070Y-63651840D01*
X60220063Y-63628663D01*
X60201429Y-63603538D01*
X60185348Y-63576708D01*
X60171973Y-63548430D01*
X60161435Y-63518978D01*
X60153835Y-63488635D01*
X60149245Y-63457693D01*
X60147710Y-63426450D01*
X60147710Y-62713950D01*
X60149245Y-62682707D01*
X60153835Y-62651765D01*
X60161435Y-62621422D01*
X60171973Y-62591970D01*
X60185348Y-62563692D01*
X60201429Y-62536862D01*
X60220063Y-62511737D01*
X60241070Y-62488560D01*
X60264247Y-62467553D01*
X60289372Y-62448919D01*
X60316202Y-62432838D01*
X60344480Y-62419463D01*
X60373932Y-62408925D01*
X60404275Y-62401325D01*
X60435217Y-62396735D01*
X60466460Y-62395200D01*
X61103960Y-62395200D01*
X61135203Y-62396735D01*
X61135203Y-62396735D01*
G37*
D22*
X60785210Y-63070200D03*
G04 #@! TD*
D16*
G04 #@! TO.C,R20*
G36*
X64945203Y-63666735D02*
X64976145Y-63671325D01*
X65006488Y-63678925D01*
X65035940Y-63689463D01*
X65064218Y-63702838D01*
X65091048Y-63718919D01*
X65116173Y-63737553D01*
X65139350Y-63758560D01*
X65160357Y-63781737D01*
X65178991Y-63806862D01*
X65195072Y-63833692D01*
X65208447Y-63861970D01*
X65218985Y-63891422D01*
X65226585Y-63921765D01*
X65231175Y-63952707D01*
X65232710Y-63983950D01*
X65232710Y-64696450D01*
X65231175Y-64727693D01*
X65226585Y-64758635D01*
X65218985Y-64788978D01*
X65208447Y-64818430D01*
X65195072Y-64846708D01*
X65178991Y-64873538D01*
X65160357Y-64898663D01*
X65139350Y-64921840D01*
X65116173Y-64942847D01*
X65091048Y-64961481D01*
X65064218Y-64977562D01*
X65035940Y-64990937D01*
X65006488Y-65001475D01*
X64976145Y-65009075D01*
X64945203Y-65013665D01*
X64913960Y-65015200D01*
X64276460Y-65015200D01*
X64245217Y-65013665D01*
X64214275Y-65009075D01*
X64183932Y-65001475D01*
X64154480Y-64990937D01*
X64126202Y-64977562D01*
X64099372Y-64961481D01*
X64074247Y-64942847D01*
X64051070Y-64921840D01*
X64030063Y-64898663D01*
X64011429Y-64873538D01*
X63995348Y-64846708D01*
X63981973Y-64818430D01*
X63971435Y-64788978D01*
X63963835Y-64758635D01*
X63959245Y-64727693D01*
X63957710Y-64696450D01*
X63957710Y-63983950D01*
X63959245Y-63952707D01*
X63963835Y-63921765D01*
X63971435Y-63891422D01*
X63981973Y-63861970D01*
X63995348Y-63833692D01*
X64011429Y-63806862D01*
X64030063Y-63781737D01*
X64051070Y-63758560D01*
X64074247Y-63737553D01*
X64099372Y-63718919D01*
X64126202Y-63702838D01*
X64154480Y-63689463D01*
X64183932Y-63678925D01*
X64214275Y-63671325D01*
X64245217Y-63666735D01*
X64276460Y-63665200D01*
X64913960Y-63665200D01*
X64945203Y-63666735D01*
X64945203Y-63666735D01*
G37*
D22*
X64595210Y-64340200D03*
D16*
G36*
X63370203Y-63666735D02*
X63401145Y-63671325D01*
X63431488Y-63678925D01*
X63460940Y-63689463D01*
X63489218Y-63702838D01*
X63516048Y-63718919D01*
X63541173Y-63737553D01*
X63564350Y-63758560D01*
X63585357Y-63781737D01*
X63603991Y-63806862D01*
X63620072Y-63833692D01*
X63633447Y-63861970D01*
X63643985Y-63891422D01*
X63651585Y-63921765D01*
X63656175Y-63952707D01*
X63657710Y-63983950D01*
X63657710Y-64696450D01*
X63656175Y-64727693D01*
X63651585Y-64758635D01*
X63643985Y-64788978D01*
X63633447Y-64818430D01*
X63620072Y-64846708D01*
X63603991Y-64873538D01*
X63585357Y-64898663D01*
X63564350Y-64921840D01*
X63541173Y-64942847D01*
X63516048Y-64961481D01*
X63489218Y-64977562D01*
X63460940Y-64990937D01*
X63431488Y-65001475D01*
X63401145Y-65009075D01*
X63370203Y-65013665D01*
X63338960Y-65015200D01*
X62701460Y-65015200D01*
X62670217Y-65013665D01*
X62639275Y-65009075D01*
X62608932Y-65001475D01*
X62579480Y-64990937D01*
X62551202Y-64977562D01*
X62524372Y-64961481D01*
X62499247Y-64942847D01*
X62476070Y-64921840D01*
X62455063Y-64898663D01*
X62436429Y-64873538D01*
X62420348Y-64846708D01*
X62406973Y-64818430D01*
X62396435Y-64788978D01*
X62388835Y-64758635D01*
X62384245Y-64727693D01*
X62382710Y-64696450D01*
X62382710Y-63983950D01*
X62384245Y-63952707D01*
X62388835Y-63921765D01*
X62396435Y-63891422D01*
X62406973Y-63861970D01*
X62420348Y-63833692D01*
X62436429Y-63806862D01*
X62455063Y-63781737D01*
X62476070Y-63758560D01*
X62499247Y-63737553D01*
X62524372Y-63718919D01*
X62551202Y-63702838D01*
X62579480Y-63689463D01*
X62608932Y-63678925D01*
X62639275Y-63671325D01*
X62670217Y-63666735D01*
X62701460Y-63665200D01*
X63338960Y-63665200D01*
X63370203Y-63666735D01*
X63370203Y-63666735D01*
G37*
D22*
X63020210Y-64340200D03*
G04 #@! TD*
D16*
G04 #@! TO.C,R21*
G36*
X59560203Y-64936735D02*
X59591145Y-64941325D01*
X59621488Y-64948925D01*
X59650940Y-64959463D01*
X59679218Y-64972838D01*
X59706048Y-64988919D01*
X59731173Y-65007553D01*
X59754350Y-65028560D01*
X59775357Y-65051737D01*
X59793991Y-65076862D01*
X59810072Y-65103692D01*
X59823447Y-65131970D01*
X59833985Y-65161422D01*
X59841585Y-65191765D01*
X59846175Y-65222707D01*
X59847710Y-65253950D01*
X59847710Y-65966450D01*
X59846175Y-65997693D01*
X59841585Y-66028635D01*
X59833985Y-66058978D01*
X59823447Y-66088430D01*
X59810072Y-66116708D01*
X59793991Y-66143538D01*
X59775357Y-66168663D01*
X59754350Y-66191840D01*
X59731173Y-66212847D01*
X59706048Y-66231481D01*
X59679218Y-66247562D01*
X59650940Y-66260937D01*
X59621488Y-66271475D01*
X59591145Y-66279075D01*
X59560203Y-66283665D01*
X59528960Y-66285200D01*
X58891460Y-66285200D01*
X58860217Y-66283665D01*
X58829275Y-66279075D01*
X58798932Y-66271475D01*
X58769480Y-66260937D01*
X58741202Y-66247562D01*
X58714372Y-66231481D01*
X58689247Y-66212847D01*
X58666070Y-66191840D01*
X58645063Y-66168663D01*
X58626429Y-66143538D01*
X58610348Y-66116708D01*
X58596973Y-66088430D01*
X58586435Y-66058978D01*
X58578835Y-66028635D01*
X58574245Y-65997693D01*
X58572710Y-65966450D01*
X58572710Y-65253950D01*
X58574245Y-65222707D01*
X58578835Y-65191765D01*
X58586435Y-65161422D01*
X58596973Y-65131970D01*
X58610348Y-65103692D01*
X58626429Y-65076862D01*
X58645063Y-65051737D01*
X58666070Y-65028560D01*
X58689247Y-65007553D01*
X58714372Y-64988919D01*
X58741202Y-64972838D01*
X58769480Y-64959463D01*
X58798932Y-64948925D01*
X58829275Y-64941325D01*
X58860217Y-64936735D01*
X58891460Y-64935200D01*
X59528960Y-64935200D01*
X59560203Y-64936735D01*
X59560203Y-64936735D01*
G37*
D22*
X59210210Y-65610200D03*
D16*
G36*
X61135203Y-64936735D02*
X61166145Y-64941325D01*
X61196488Y-64948925D01*
X61225940Y-64959463D01*
X61254218Y-64972838D01*
X61281048Y-64988919D01*
X61306173Y-65007553D01*
X61329350Y-65028560D01*
X61350357Y-65051737D01*
X61368991Y-65076862D01*
X61385072Y-65103692D01*
X61398447Y-65131970D01*
X61408985Y-65161422D01*
X61416585Y-65191765D01*
X61421175Y-65222707D01*
X61422710Y-65253950D01*
X61422710Y-65966450D01*
X61421175Y-65997693D01*
X61416585Y-66028635D01*
X61408985Y-66058978D01*
X61398447Y-66088430D01*
X61385072Y-66116708D01*
X61368991Y-66143538D01*
X61350357Y-66168663D01*
X61329350Y-66191840D01*
X61306173Y-66212847D01*
X61281048Y-66231481D01*
X61254218Y-66247562D01*
X61225940Y-66260937D01*
X61196488Y-66271475D01*
X61166145Y-66279075D01*
X61135203Y-66283665D01*
X61103960Y-66285200D01*
X60466460Y-66285200D01*
X60435217Y-66283665D01*
X60404275Y-66279075D01*
X60373932Y-66271475D01*
X60344480Y-66260937D01*
X60316202Y-66247562D01*
X60289372Y-66231481D01*
X60264247Y-66212847D01*
X60241070Y-66191840D01*
X60220063Y-66168663D01*
X60201429Y-66143538D01*
X60185348Y-66116708D01*
X60171973Y-66088430D01*
X60161435Y-66058978D01*
X60153835Y-66028635D01*
X60149245Y-65997693D01*
X60147710Y-65966450D01*
X60147710Y-65253950D01*
X60149245Y-65222707D01*
X60153835Y-65191765D01*
X60161435Y-65161422D01*
X60171973Y-65131970D01*
X60185348Y-65103692D01*
X60201429Y-65076862D01*
X60220063Y-65051737D01*
X60241070Y-65028560D01*
X60264247Y-65007553D01*
X60289372Y-64988919D01*
X60316202Y-64972838D01*
X60344480Y-64959463D01*
X60373932Y-64948925D01*
X60404275Y-64941325D01*
X60435217Y-64936735D01*
X60466460Y-64935200D01*
X61103960Y-64935200D01*
X61135203Y-64936735D01*
X61135203Y-64936735D01*
G37*
D22*
X60785210Y-65610200D03*
G04 #@! TD*
D16*
G04 #@! TO.C,R22*
G36*
X64945203Y-66206735D02*
X64976145Y-66211325D01*
X65006488Y-66218925D01*
X65035940Y-66229463D01*
X65064218Y-66242838D01*
X65091048Y-66258919D01*
X65116173Y-66277553D01*
X65139350Y-66298560D01*
X65160357Y-66321737D01*
X65178991Y-66346862D01*
X65195072Y-66373692D01*
X65208447Y-66401970D01*
X65218985Y-66431422D01*
X65226585Y-66461765D01*
X65231175Y-66492707D01*
X65232710Y-66523950D01*
X65232710Y-67236450D01*
X65231175Y-67267693D01*
X65226585Y-67298635D01*
X65218985Y-67328978D01*
X65208447Y-67358430D01*
X65195072Y-67386708D01*
X65178991Y-67413538D01*
X65160357Y-67438663D01*
X65139350Y-67461840D01*
X65116173Y-67482847D01*
X65091048Y-67501481D01*
X65064218Y-67517562D01*
X65035940Y-67530937D01*
X65006488Y-67541475D01*
X64976145Y-67549075D01*
X64945203Y-67553665D01*
X64913960Y-67555200D01*
X64276460Y-67555200D01*
X64245217Y-67553665D01*
X64214275Y-67549075D01*
X64183932Y-67541475D01*
X64154480Y-67530937D01*
X64126202Y-67517562D01*
X64099372Y-67501481D01*
X64074247Y-67482847D01*
X64051070Y-67461840D01*
X64030063Y-67438663D01*
X64011429Y-67413538D01*
X63995348Y-67386708D01*
X63981973Y-67358430D01*
X63971435Y-67328978D01*
X63963835Y-67298635D01*
X63959245Y-67267693D01*
X63957710Y-67236450D01*
X63957710Y-66523950D01*
X63959245Y-66492707D01*
X63963835Y-66461765D01*
X63971435Y-66431422D01*
X63981973Y-66401970D01*
X63995348Y-66373692D01*
X64011429Y-66346862D01*
X64030063Y-66321737D01*
X64051070Y-66298560D01*
X64074247Y-66277553D01*
X64099372Y-66258919D01*
X64126202Y-66242838D01*
X64154480Y-66229463D01*
X64183932Y-66218925D01*
X64214275Y-66211325D01*
X64245217Y-66206735D01*
X64276460Y-66205200D01*
X64913960Y-66205200D01*
X64945203Y-66206735D01*
X64945203Y-66206735D01*
G37*
D22*
X64595210Y-66880200D03*
D16*
G36*
X63370203Y-66206735D02*
X63401145Y-66211325D01*
X63431488Y-66218925D01*
X63460940Y-66229463D01*
X63489218Y-66242838D01*
X63516048Y-66258919D01*
X63541173Y-66277553D01*
X63564350Y-66298560D01*
X63585357Y-66321737D01*
X63603991Y-66346862D01*
X63620072Y-66373692D01*
X63633447Y-66401970D01*
X63643985Y-66431422D01*
X63651585Y-66461765D01*
X63656175Y-66492707D01*
X63657710Y-66523950D01*
X63657710Y-67236450D01*
X63656175Y-67267693D01*
X63651585Y-67298635D01*
X63643985Y-67328978D01*
X63633447Y-67358430D01*
X63620072Y-67386708D01*
X63603991Y-67413538D01*
X63585357Y-67438663D01*
X63564350Y-67461840D01*
X63541173Y-67482847D01*
X63516048Y-67501481D01*
X63489218Y-67517562D01*
X63460940Y-67530937D01*
X63431488Y-67541475D01*
X63401145Y-67549075D01*
X63370203Y-67553665D01*
X63338960Y-67555200D01*
X62701460Y-67555200D01*
X62670217Y-67553665D01*
X62639275Y-67549075D01*
X62608932Y-67541475D01*
X62579480Y-67530937D01*
X62551202Y-67517562D01*
X62524372Y-67501481D01*
X62499247Y-67482847D01*
X62476070Y-67461840D01*
X62455063Y-67438663D01*
X62436429Y-67413538D01*
X62420348Y-67386708D01*
X62406973Y-67358430D01*
X62396435Y-67328978D01*
X62388835Y-67298635D01*
X62384245Y-67267693D01*
X62382710Y-67236450D01*
X62382710Y-66523950D01*
X62384245Y-66492707D01*
X62388835Y-66461765D01*
X62396435Y-66431422D01*
X62406973Y-66401970D01*
X62420348Y-66373692D01*
X62436429Y-66346862D01*
X62455063Y-66321737D01*
X62476070Y-66298560D01*
X62499247Y-66277553D01*
X62524372Y-66258919D01*
X62551202Y-66242838D01*
X62579480Y-66229463D01*
X62608932Y-66218925D01*
X62639275Y-66211325D01*
X62670217Y-66206735D01*
X62701460Y-66205200D01*
X63338960Y-66205200D01*
X63370203Y-66206735D01*
X63370203Y-66206735D01*
G37*
D22*
X63020210Y-66880200D03*
G04 #@! TD*
D16*
G04 #@! TO.C,R23*
G36*
X59560203Y-67476735D02*
X59591145Y-67481325D01*
X59621488Y-67488925D01*
X59650940Y-67499463D01*
X59679218Y-67512838D01*
X59706048Y-67528919D01*
X59731173Y-67547553D01*
X59754350Y-67568560D01*
X59775357Y-67591737D01*
X59793991Y-67616862D01*
X59810072Y-67643692D01*
X59823447Y-67671970D01*
X59833985Y-67701422D01*
X59841585Y-67731765D01*
X59846175Y-67762707D01*
X59847710Y-67793950D01*
X59847710Y-68506450D01*
X59846175Y-68537693D01*
X59841585Y-68568635D01*
X59833985Y-68598978D01*
X59823447Y-68628430D01*
X59810072Y-68656708D01*
X59793991Y-68683538D01*
X59775357Y-68708663D01*
X59754350Y-68731840D01*
X59731173Y-68752847D01*
X59706048Y-68771481D01*
X59679218Y-68787562D01*
X59650940Y-68800937D01*
X59621488Y-68811475D01*
X59591145Y-68819075D01*
X59560203Y-68823665D01*
X59528960Y-68825200D01*
X58891460Y-68825200D01*
X58860217Y-68823665D01*
X58829275Y-68819075D01*
X58798932Y-68811475D01*
X58769480Y-68800937D01*
X58741202Y-68787562D01*
X58714372Y-68771481D01*
X58689247Y-68752847D01*
X58666070Y-68731840D01*
X58645063Y-68708663D01*
X58626429Y-68683538D01*
X58610348Y-68656708D01*
X58596973Y-68628430D01*
X58586435Y-68598978D01*
X58578835Y-68568635D01*
X58574245Y-68537693D01*
X58572710Y-68506450D01*
X58572710Y-67793950D01*
X58574245Y-67762707D01*
X58578835Y-67731765D01*
X58586435Y-67701422D01*
X58596973Y-67671970D01*
X58610348Y-67643692D01*
X58626429Y-67616862D01*
X58645063Y-67591737D01*
X58666070Y-67568560D01*
X58689247Y-67547553D01*
X58714372Y-67528919D01*
X58741202Y-67512838D01*
X58769480Y-67499463D01*
X58798932Y-67488925D01*
X58829275Y-67481325D01*
X58860217Y-67476735D01*
X58891460Y-67475200D01*
X59528960Y-67475200D01*
X59560203Y-67476735D01*
X59560203Y-67476735D01*
G37*
D22*
X59210210Y-68150200D03*
D16*
G36*
X61135203Y-67476735D02*
X61166145Y-67481325D01*
X61196488Y-67488925D01*
X61225940Y-67499463D01*
X61254218Y-67512838D01*
X61281048Y-67528919D01*
X61306173Y-67547553D01*
X61329350Y-67568560D01*
X61350357Y-67591737D01*
X61368991Y-67616862D01*
X61385072Y-67643692D01*
X61398447Y-67671970D01*
X61408985Y-67701422D01*
X61416585Y-67731765D01*
X61421175Y-67762707D01*
X61422710Y-67793950D01*
X61422710Y-68506450D01*
X61421175Y-68537693D01*
X61416585Y-68568635D01*
X61408985Y-68598978D01*
X61398447Y-68628430D01*
X61385072Y-68656708D01*
X61368991Y-68683538D01*
X61350357Y-68708663D01*
X61329350Y-68731840D01*
X61306173Y-68752847D01*
X61281048Y-68771481D01*
X61254218Y-68787562D01*
X61225940Y-68800937D01*
X61196488Y-68811475D01*
X61166145Y-68819075D01*
X61135203Y-68823665D01*
X61103960Y-68825200D01*
X60466460Y-68825200D01*
X60435217Y-68823665D01*
X60404275Y-68819075D01*
X60373932Y-68811475D01*
X60344480Y-68800937D01*
X60316202Y-68787562D01*
X60289372Y-68771481D01*
X60264247Y-68752847D01*
X60241070Y-68731840D01*
X60220063Y-68708663D01*
X60201429Y-68683538D01*
X60185348Y-68656708D01*
X60171973Y-68628430D01*
X60161435Y-68598978D01*
X60153835Y-68568635D01*
X60149245Y-68537693D01*
X60147710Y-68506450D01*
X60147710Y-67793950D01*
X60149245Y-67762707D01*
X60153835Y-67731765D01*
X60161435Y-67701422D01*
X60171973Y-67671970D01*
X60185348Y-67643692D01*
X60201429Y-67616862D01*
X60220063Y-67591737D01*
X60241070Y-67568560D01*
X60264247Y-67547553D01*
X60289372Y-67528919D01*
X60316202Y-67512838D01*
X60344480Y-67499463D01*
X60373932Y-67488925D01*
X60404275Y-67481325D01*
X60435217Y-67476735D01*
X60466460Y-67475200D01*
X61103960Y-67475200D01*
X61135203Y-67476735D01*
X61135203Y-67476735D01*
G37*
D22*
X60785210Y-68150200D03*
G04 #@! TD*
D16*
G04 #@! TO.C,R14*
G36*
X64945203Y-56046735D02*
X64976145Y-56051325D01*
X65006488Y-56058925D01*
X65035940Y-56069463D01*
X65064218Y-56082838D01*
X65091048Y-56098919D01*
X65116173Y-56117553D01*
X65139350Y-56138560D01*
X65160357Y-56161737D01*
X65178991Y-56186862D01*
X65195072Y-56213692D01*
X65208447Y-56241970D01*
X65218985Y-56271422D01*
X65226585Y-56301765D01*
X65231175Y-56332707D01*
X65232710Y-56363950D01*
X65232710Y-57076450D01*
X65231175Y-57107693D01*
X65226585Y-57138635D01*
X65218985Y-57168978D01*
X65208447Y-57198430D01*
X65195072Y-57226708D01*
X65178991Y-57253538D01*
X65160357Y-57278663D01*
X65139350Y-57301840D01*
X65116173Y-57322847D01*
X65091048Y-57341481D01*
X65064218Y-57357562D01*
X65035940Y-57370937D01*
X65006488Y-57381475D01*
X64976145Y-57389075D01*
X64945203Y-57393665D01*
X64913960Y-57395200D01*
X64276460Y-57395200D01*
X64245217Y-57393665D01*
X64214275Y-57389075D01*
X64183932Y-57381475D01*
X64154480Y-57370937D01*
X64126202Y-57357562D01*
X64099372Y-57341481D01*
X64074247Y-57322847D01*
X64051070Y-57301840D01*
X64030063Y-57278663D01*
X64011429Y-57253538D01*
X63995348Y-57226708D01*
X63981973Y-57198430D01*
X63971435Y-57168978D01*
X63963835Y-57138635D01*
X63959245Y-57107693D01*
X63957710Y-57076450D01*
X63957710Y-56363950D01*
X63959245Y-56332707D01*
X63963835Y-56301765D01*
X63971435Y-56271422D01*
X63981973Y-56241970D01*
X63995348Y-56213692D01*
X64011429Y-56186862D01*
X64030063Y-56161737D01*
X64051070Y-56138560D01*
X64074247Y-56117553D01*
X64099372Y-56098919D01*
X64126202Y-56082838D01*
X64154480Y-56069463D01*
X64183932Y-56058925D01*
X64214275Y-56051325D01*
X64245217Y-56046735D01*
X64276460Y-56045200D01*
X64913960Y-56045200D01*
X64945203Y-56046735D01*
X64945203Y-56046735D01*
G37*
D22*
X64595210Y-56720200D03*
D16*
G36*
X63370203Y-56046735D02*
X63401145Y-56051325D01*
X63431488Y-56058925D01*
X63460940Y-56069463D01*
X63489218Y-56082838D01*
X63516048Y-56098919D01*
X63541173Y-56117553D01*
X63564350Y-56138560D01*
X63585357Y-56161737D01*
X63603991Y-56186862D01*
X63620072Y-56213692D01*
X63633447Y-56241970D01*
X63643985Y-56271422D01*
X63651585Y-56301765D01*
X63656175Y-56332707D01*
X63657710Y-56363950D01*
X63657710Y-57076450D01*
X63656175Y-57107693D01*
X63651585Y-57138635D01*
X63643985Y-57168978D01*
X63633447Y-57198430D01*
X63620072Y-57226708D01*
X63603991Y-57253538D01*
X63585357Y-57278663D01*
X63564350Y-57301840D01*
X63541173Y-57322847D01*
X63516048Y-57341481D01*
X63489218Y-57357562D01*
X63460940Y-57370937D01*
X63431488Y-57381475D01*
X63401145Y-57389075D01*
X63370203Y-57393665D01*
X63338960Y-57395200D01*
X62701460Y-57395200D01*
X62670217Y-57393665D01*
X62639275Y-57389075D01*
X62608932Y-57381475D01*
X62579480Y-57370937D01*
X62551202Y-57357562D01*
X62524372Y-57341481D01*
X62499247Y-57322847D01*
X62476070Y-57301840D01*
X62455063Y-57278663D01*
X62436429Y-57253538D01*
X62420348Y-57226708D01*
X62406973Y-57198430D01*
X62396435Y-57168978D01*
X62388835Y-57138635D01*
X62384245Y-57107693D01*
X62382710Y-57076450D01*
X62382710Y-56363950D01*
X62384245Y-56332707D01*
X62388835Y-56301765D01*
X62396435Y-56271422D01*
X62406973Y-56241970D01*
X62420348Y-56213692D01*
X62436429Y-56186862D01*
X62455063Y-56161737D01*
X62476070Y-56138560D01*
X62499247Y-56117553D01*
X62524372Y-56098919D01*
X62551202Y-56082838D01*
X62579480Y-56069463D01*
X62608932Y-56058925D01*
X62639275Y-56051325D01*
X62670217Y-56046735D01*
X62701460Y-56045200D01*
X63338960Y-56045200D01*
X63370203Y-56046735D01*
X63370203Y-56046735D01*
G37*
D22*
X63020210Y-56720200D03*
G04 #@! TD*
D16*
G04 #@! TO.C,R25*
G36*
X59560203Y-70016735D02*
X59591145Y-70021325D01*
X59621488Y-70028925D01*
X59650940Y-70039463D01*
X59679218Y-70052838D01*
X59706048Y-70068919D01*
X59731173Y-70087553D01*
X59754350Y-70108560D01*
X59775357Y-70131737D01*
X59793991Y-70156862D01*
X59810072Y-70183692D01*
X59823447Y-70211970D01*
X59833985Y-70241422D01*
X59841585Y-70271765D01*
X59846175Y-70302707D01*
X59847710Y-70333950D01*
X59847710Y-71046450D01*
X59846175Y-71077693D01*
X59841585Y-71108635D01*
X59833985Y-71138978D01*
X59823447Y-71168430D01*
X59810072Y-71196708D01*
X59793991Y-71223538D01*
X59775357Y-71248663D01*
X59754350Y-71271840D01*
X59731173Y-71292847D01*
X59706048Y-71311481D01*
X59679218Y-71327562D01*
X59650940Y-71340937D01*
X59621488Y-71351475D01*
X59591145Y-71359075D01*
X59560203Y-71363665D01*
X59528960Y-71365200D01*
X58891460Y-71365200D01*
X58860217Y-71363665D01*
X58829275Y-71359075D01*
X58798932Y-71351475D01*
X58769480Y-71340937D01*
X58741202Y-71327562D01*
X58714372Y-71311481D01*
X58689247Y-71292847D01*
X58666070Y-71271840D01*
X58645063Y-71248663D01*
X58626429Y-71223538D01*
X58610348Y-71196708D01*
X58596973Y-71168430D01*
X58586435Y-71138978D01*
X58578835Y-71108635D01*
X58574245Y-71077693D01*
X58572710Y-71046450D01*
X58572710Y-70333950D01*
X58574245Y-70302707D01*
X58578835Y-70271765D01*
X58586435Y-70241422D01*
X58596973Y-70211970D01*
X58610348Y-70183692D01*
X58626429Y-70156862D01*
X58645063Y-70131737D01*
X58666070Y-70108560D01*
X58689247Y-70087553D01*
X58714372Y-70068919D01*
X58741202Y-70052838D01*
X58769480Y-70039463D01*
X58798932Y-70028925D01*
X58829275Y-70021325D01*
X58860217Y-70016735D01*
X58891460Y-70015200D01*
X59528960Y-70015200D01*
X59560203Y-70016735D01*
X59560203Y-70016735D01*
G37*
D22*
X59210210Y-70690200D03*
D16*
G36*
X61135203Y-70016735D02*
X61166145Y-70021325D01*
X61196488Y-70028925D01*
X61225940Y-70039463D01*
X61254218Y-70052838D01*
X61281048Y-70068919D01*
X61306173Y-70087553D01*
X61329350Y-70108560D01*
X61350357Y-70131737D01*
X61368991Y-70156862D01*
X61385072Y-70183692D01*
X61398447Y-70211970D01*
X61408985Y-70241422D01*
X61416585Y-70271765D01*
X61421175Y-70302707D01*
X61422710Y-70333950D01*
X61422710Y-71046450D01*
X61421175Y-71077693D01*
X61416585Y-71108635D01*
X61408985Y-71138978D01*
X61398447Y-71168430D01*
X61385072Y-71196708D01*
X61368991Y-71223538D01*
X61350357Y-71248663D01*
X61329350Y-71271840D01*
X61306173Y-71292847D01*
X61281048Y-71311481D01*
X61254218Y-71327562D01*
X61225940Y-71340937D01*
X61196488Y-71351475D01*
X61166145Y-71359075D01*
X61135203Y-71363665D01*
X61103960Y-71365200D01*
X60466460Y-71365200D01*
X60435217Y-71363665D01*
X60404275Y-71359075D01*
X60373932Y-71351475D01*
X60344480Y-71340937D01*
X60316202Y-71327562D01*
X60289372Y-71311481D01*
X60264247Y-71292847D01*
X60241070Y-71271840D01*
X60220063Y-71248663D01*
X60201429Y-71223538D01*
X60185348Y-71196708D01*
X60171973Y-71168430D01*
X60161435Y-71138978D01*
X60153835Y-71108635D01*
X60149245Y-71077693D01*
X60147710Y-71046450D01*
X60147710Y-70333950D01*
X60149245Y-70302707D01*
X60153835Y-70271765D01*
X60161435Y-70241422D01*
X60171973Y-70211970D01*
X60185348Y-70183692D01*
X60201429Y-70156862D01*
X60220063Y-70131737D01*
X60241070Y-70108560D01*
X60264247Y-70087553D01*
X60289372Y-70068919D01*
X60316202Y-70052838D01*
X60344480Y-70039463D01*
X60373932Y-70028925D01*
X60404275Y-70021325D01*
X60435217Y-70016735D01*
X60466460Y-70015200D01*
X61103960Y-70015200D01*
X61135203Y-70016735D01*
X61135203Y-70016735D01*
G37*
D22*
X60785210Y-70690200D03*
G04 #@! TD*
D16*
G04 #@! TO.C,R26*
G36*
X64945203Y-71286735D02*
X64976145Y-71291325D01*
X65006488Y-71298925D01*
X65035940Y-71309463D01*
X65064218Y-71322838D01*
X65091048Y-71338919D01*
X65116173Y-71357553D01*
X65139350Y-71378560D01*
X65160357Y-71401737D01*
X65178991Y-71426862D01*
X65195072Y-71453692D01*
X65208447Y-71481970D01*
X65218985Y-71511422D01*
X65226585Y-71541765D01*
X65231175Y-71572707D01*
X65232710Y-71603950D01*
X65232710Y-72316450D01*
X65231175Y-72347693D01*
X65226585Y-72378635D01*
X65218985Y-72408978D01*
X65208447Y-72438430D01*
X65195072Y-72466708D01*
X65178991Y-72493538D01*
X65160357Y-72518663D01*
X65139350Y-72541840D01*
X65116173Y-72562847D01*
X65091048Y-72581481D01*
X65064218Y-72597562D01*
X65035940Y-72610937D01*
X65006488Y-72621475D01*
X64976145Y-72629075D01*
X64945203Y-72633665D01*
X64913960Y-72635200D01*
X64276460Y-72635200D01*
X64245217Y-72633665D01*
X64214275Y-72629075D01*
X64183932Y-72621475D01*
X64154480Y-72610937D01*
X64126202Y-72597562D01*
X64099372Y-72581481D01*
X64074247Y-72562847D01*
X64051070Y-72541840D01*
X64030063Y-72518663D01*
X64011429Y-72493538D01*
X63995348Y-72466708D01*
X63981973Y-72438430D01*
X63971435Y-72408978D01*
X63963835Y-72378635D01*
X63959245Y-72347693D01*
X63957710Y-72316450D01*
X63957710Y-71603950D01*
X63959245Y-71572707D01*
X63963835Y-71541765D01*
X63971435Y-71511422D01*
X63981973Y-71481970D01*
X63995348Y-71453692D01*
X64011429Y-71426862D01*
X64030063Y-71401737D01*
X64051070Y-71378560D01*
X64074247Y-71357553D01*
X64099372Y-71338919D01*
X64126202Y-71322838D01*
X64154480Y-71309463D01*
X64183932Y-71298925D01*
X64214275Y-71291325D01*
X64245217Y-71286735D01*
X64276460Y-71285200D01*
X64913960Y-71285200D01*
X64945203Y-71286735D01*
X64945203Y-71286735D01*
G37*
D22*
X64595210Y-71960200D03*
D16*
G36*
X63370203Y-71286735D02*
X63401145Y-71291325D01*
X63431488Y-71298925D01*
X63460940Y-71309463D01*
X63489218Y-71322838D01*
X63516048Y-71338919D01*
X63541173Y-71357553D01*
X63564350Y-71378560D01*
X63585357Y-71401737D01*
X63603991Y-71426862D01*
X63620072Y-71453692D01*
X63633447Y-71481970D01*
X63643985Y-71511422D01*
X63651585Y-71541765D01*
X63656175Y-71572707D01*
X63657710Y-71603950D01*
X63657710Y-72316450D01*
X63656175Y-72347693D01*
X63651585Y-72378635D01*
X63643985Y-72408978D01*
X63633447Y-72438430D01*
X63620072Y-72466708D01*
X63603991Y-72493538D01*
X63585357Y-72518663D01*
X63564350Y-72541840D01*
X63541173Y-72562847D01*
X63516048Y-72581481D01*
X63489218Y-72597562D01*
X63460940Y-72610937D01*
X63431488Y-72621475D01*
X63401145Y-72629075D01*
X63370203Y-72633665D01*
X63338960Y-72635200D01*
X62701460Y-72635200D01*
X62670217Y-72633665D01*
X62639275Y-72629075D01*
X62608932Y-72621475D01*
X62579480Y-72610937D01*
X62551202Y-72597562D01*
X62524372Y-72581481D01*
X62499247Y-72562847D01*
X62476070Y-72541840D01*
X62455063Y-72518663D01*
X62436429Y-72493538D01*
X62420348Y-72466708D01*
X62406973Y-72438430D01*
X62396435Y-72408978D01*
X62388835Y-72378635D01*
X62384245Y-72347693D01*
X62382710Y-72316450D01*
X62382710Y-71603950D01*
X62384245Y-71572707D01*
X62388835Y-71541765D01*
X62396435Y-71511422D01*
X62406973Y-71481970D01*
X62420348Y-71453692D01*
X62436429Y-71426862D01*
X62455063Y-71401737D01*
X62476070Y-71378560D01*
X62499247Y-71357553D01*
X62524372Y-71338919D01*
X62551202Y-71322838D01*
X62579480Y-71309463D01*
X62608932Y-71298925D01*
X62639275Y-71291325D01*
X62670217Y-71286735D01*
X62701460Y-71285200D01*
X63338960Y-71285200D01*
X63370203Y-71286735D01*
X63370203Y-71286735D01*
G37*
D22*
X63020210Y-71960200D03*
G04 #@! TD*
D16*
G04 #@! TO.C,R27*
G36*
X59560203Y-72556735D02*
X59591145Y-72561325D01*
X59621488Y-72568925D01*
X59650940Y-72579463D01*
X59679218Y-72592838D01*
X59706048Y-72608919D01*
X59731173Y-72627553D01*
X59754350Y-72648560D01*
X59775357Y-72671737D01*
X59793991Y-72696862D01*
X59810072Y-72723692D01*
X59823447Y-72751970D01*
X59833985Y-72781422D01*
X59841585Y-72811765D01*
X59846175Y-72842707D01*
X59847710Y-72873950D01*
X59847710Y-73586450D01*
X59846175Y-73617693D01*
X59841585Y-73648635D01*
X59833985Y-73678978D01*
X59823447Y-73708430D01*
X59810072Y-73736708D01*
X59793991Y-73763538D01*
X59775357Y-73788663D01*
X59754350Y-73811840D01*
X59731173Y-73832847D01*
X59706048Y-73851481D01*
X59679218Y-73867562D01*
X59650940Y-73880937D01*
X59621488Y-73891475D01*
X59591145Y-73899075D01*
X59560203Y-73903665D01*
X59528960Y-73905200D01*
X58891460Y-73905200D01*
X58860217Y-73903665D01*
X58829275Y-73899075D01*
X58798932Y-73891475D01*
X58769480Y-73880937D01*
X58741202Y-73867562D01*
X58714372Y-73851481D01*
X58689247Y-73832847D01*
X58666070Y-73811840D01*
X58645063Y-73788663D01*
X58626429Y-73763538D01*
X58610348Y-73736708D01*
X58596973Y-73708430D01*
X58586435Y-73678978D01*
X58578835Y-73648635D01*
X58574245Y-73617693D01*
X58572710Y-73586450D01*
X58572710Y-72873950D01*
X58574245Y-72842707D01*
X58578835Y-72811765D01*
X58586435Y-72781422D01*
X58596973Y-72751970D01*
X58610348Y-72723692D01*
X58626429Y-72696862D01*
X58645063Y-72671737D01*
X58666070Y-72648560D01*
X58689247Y-72627553D01*
X58714372Y-72608919D01*
X58741202Y-72592838D01*
X58769480Y-72579463D01*
X58798932Y-72568925D01*
X58829275Y-72561325D01*
X58860217Y-72556735D01*
X58891460Y-72555200D01*
X59528960Y-72555200D01*
X59560203Y-72556735D01*
X59560203Y-72556735D01*
G37*
D22*
X59210210Y-73230200D03*
D16*
G36*
X61135203Y-72556735D02*
X61166145Y-72561325D01*
X61196488Y-72568925D01*
X61225940Y-72579463D01*
X61254218Y-72592838D01*
X61281048Y-72608919D01*
X61306173Y-72627553D01*
X61329350Y-72648560D01*
X61350357Y-72671737D01*
X61368991Y-72696862D01*
X61385072Y-72723692D01*
X61398447Y-72751970D01*
X61408985Y-72781422D01*
X61416585Y-72811765D01*
X61421175Y-72842707D01*
X61422710Y-72873950D01*
X61422710Y-73586450D01*
X61421175Y-73617693D01*
X61416585Y-73648635D01*
X61408985Y-73678978D01*
X61398447Y-73708430D01*
X61385072Y-73736708D01*
X61368991Y-73763538D01*
X61350357Y-73788663D01*
X61329350Y-73811840D01*
X61306173Y-73832847D01*
X61281048Y-73851481D01*
X61254218Y-73867562D01*
X61225940Y-73880937D01*
X61196488Y-73891475D01*
X61166145Y-73899075D01*
X61135203Y-73903665D01*
X61103960Y-73905200D01*
X60466460Y-73905200D01*
X60435217Y-73903665D01*
X60404275Y-73899075D01*
X60373932Y-73891475D01*
X60344480Y-73880937D01*
X60316202Y-73867562D01*
X60289372Y-73851481D01*
X60264247Y-73832847D01*
X60241070Y-73811840D01*
X60220063Y-73788663D01*
X60201429Y-73763538D01*
X60185348Y-73736708D01*
X60171973Y-73708430D01*
X60161435Y-73678978D01*
X60153835Y-73648635D01*
X60149245Y-73617693D01*
X60147710Y-73586450D01*
X60147710Y-72873950D01*
X60149245Y-72842707D01*
X60153835Y-72811765D01*
X60161435Y-72781422D01*
X60171973Y-72751970D01*
X60185348Y-72723692D01*
X60201429Y-72696862D01*
X60220063Y-72671737D01*
X60241070Y-72648560D01*
X60264247Y-72627553D01*
X60289372Y-72608919D01*
X60316202Y-72592838D01*
X60344480Y-72579463D01*
X60373932Y-72568925D01*
X60404275Y-72561325D01*
X60435217Y-72556735D01*
X60466460Y-72555200D01*
X61103960Y-72555200D01*
X61135203Y-72556735D01*
X61135203Y-72556735D01*
G37*
D22*
X60785210Y-73230200D03*
G04 #@! TD*
D16*
G04 #@! TO.C,R28*
G36*
X64945203Y-73826735D02*
X64976145Y-73831325D01*
X65006488Y-73838925D01*
X65035940Y-73849463D01*
X65064218Y-73862838D01*
X65091048Y-73878919D01*
X65116173Y-73897553D01*
X65139350Y-73918560D01*
X65160357Y-73941737D01*
X65178991Y-73966862D01*
X65195072Y-73993692D01*
X65208447Y-74021970D01*
X65218985Y-74051422D01*
X65226585Y-74081765D01*
X65231175Y-74112707D01*
X65232710Y-74143950D01*
X65232710Y-74856450D01*
X65231175Y-74887693D01*
X65226585Y-74918635D01*
X65218985Y-74948978D01*
X65208447Y-74978430D01*
X65195072Y-75006708D01*
X65178991Y-75033538D01*
X65160357Y-75058663D01*
X65139350Y-75081840D01*
X65116173Y-75102847D01*
X65091048Y-75121481D01*
X65064218Y-75137562D01*
X65035940Y-75150937D01*
X65006488Y-75161475D01*
X64976145Y-75169075D01*
X64945203Y-75173665D01*
X64913960Y-75175200D01*
X64276460Y-75175200D01*
X64245217Y-75173665D01*
X64214275Y-75169075D01*
X64183932Y-75161475D01*
X64154480Y-75150937D01*
X64126202Y-75137562D01*
X64099372Y-75121481D01*
X64074247Y-75102847D01*
X64051070Y-75081840D01*
X64030063Y-75058663D01*
X64011429Y-75033538D01*
X63995348Y-75006708D01*
X63981973Y-74978430D01*
X63971435Y-74948978D01*
X63963835Y-74918635D01*
X63959245Y-74887693D01*
X63957710Y-74856450D01*
X63957710Y-74143950D01*
X63959245Y-74112707D01*
X63963835Y-74081765D01*
X63971435Y-74051422D01*
X63981973Y-74021970D01*
X63995348Y-73993692D01*
X64011429Y-73966862D01*
X64030063Y-73941737D01*
X64051070Y-73918560D01*
X64074247Y-73897553D01*
X64099372Y-73878919D01*
X64126202Y-73862838D01*
X64154480Y-73849463D01*
X64183932Y-73838925D01*
X64214275Y-73831325D01*
X64245217Y-73826735D01*
X64276460Y-73825200D01*
X64913960Y-73825200D01*
X64945203Y-73826735D01*
X64945203Y-73826735D01*
G37*
D22*
X64595210Y-74500200D03*
D16*
G36*
X63370203Y-73826735D02*
X63401145Y-73831325D01*
X63431488Y-73838925D01*
X63460940Y-73849463D01*
X63489218Y-73862838D01*
X63516048Y-73878919D01*
X63541173Y-73897553D01*
X63564350Y-73918560D01*
X63585357Y-73941737D01*
X63603991Y-73966862D01*
X63620072Y-73993692D01*
X63633447Y-74021970D01*
X63643985Y-74051422D01*
X63651585Y-74081765D01*
X63656175Y-74112707D01*
X63657710Y-74143950D01*
X63657710Y-74856450D01*
X63656175Y-74887693D01*
X63651585Y-74918635D01*
X63643985Y-74948978D01*
X63633447Y-74978430D01*
X63620072Y-75006708D01*
X63603991Y-75033538D01*
X63585357Y-75058663D01*
X63564350Y-75081840D01*
X63541173Y-75102847D01*
X63516048Y-75121481D01*
X63489218Y-75137562D01*
X63460940Y-75150937D01*
X63431488Y-75161475D01*
X63401145Y-75169075D01*
X63370203Y-75173665D01*
X63338960Y-75175200D01*
X62701460Y-75175200D01*
X62670217Y-75173665D01*
X62639275Y-75169075D01*
X62608932Y-75161475D01*
X62579480Y-75150937D01*
X62551202Y-75137562D01*
X62524372Y-75121481D01*
X62499247Y-75102847D01*
X62476070Y-75081840D01*
X62455063Y-75058663D01*
X62436429Y-75033538D01*
X62420348Y-75006708D01*
X62406973Y-74978430D01*
X62396435Y-74948978D01*
X62388835Y-74918635D01*
X62384245Y-74887693D01*
X62382710Y-74856450D01*
X62382710Y-74143950D01*
X62384245Y-74112707D01*
X62388835Y-74081765D01*
X62396435Y-74051422D01*
X62406973Y-74021970D01*
X62420348Y-73993692D01*
X62436429Y-73966862D01*
X62455063Y-73941737D01*
X62476070Y-73918560D01*
X62499247Y-73897553D01*
X62524372Y-73878919D01*
X62551202Y-73862838D01*
X62579480Y-73849463D01*
X62608932Y-73838925D01*
X62639275Y-73831325D01*
X62670217Y-73826735D01*
X62701460Y-73825200D01*
X63338960Y-73825200D01*
X63370203Y-73826735D01*
X63370203Y-73826735D01*
G37*
D22*
X63020210Y-74500200D03*
G04 #@! TD*
D16*
G04 #@! TO.C,R31*
G36*
X59560203Y-77636735D02*
X59591145Y-77641325D01*
X59621488Y-77648925D01*
X59650940Y-77659463D01*
X59679218Y-77672838D01*
X59706048Y-77688919D01*
X59731173Y-77707553D01*
X59754350Y-77728560D01*
X59775357Y-77751737D01*
X59793991Y-77776862D01*
X59810072Y-77803692D01*
X59823447Y-77831970D01*
X59833985Y-77861422D01*
X59841585Y-77891765D01*
X59846175Y-77922707D01*
X59847710Y-77953950D01*
X59847710Y-78666450D01*
X59846175Y-78697693D01*
X59841585Y-78728635D01*
X59833985Y-78758978D01*
X59823447Y-78788430D01*
X59810072Y-78816708D01*
X59793991Y-78843538D01*
X59775357Y-78868663D01*
X59754350Y-78891840D01*
X59731173Y-78912847D01*
X59706048Y-78931481D01*
X59679218Y-78947562D01*
X59650940Y-78960937D01*
X59621488Y-78971475D01*
X59591145Y-78979075D01*
X59560203Y-78983665D01*
X59528960Y-78985200D01*
X58891460Y-78985200D01*
X58860217Y-78983665D01*
X58829275Y-78979075D01*
X58798932Y-78971475D01*
X58769480Y-78960937D01*
X58741202Y-78947562D01*
X58714372Y-78931481D01*
X58689247Y-78912847D01*
X58666070Y-78891840D01*
X58645063Y-78868663D01*
X58626429Y-78843538D01*
X58610348Y-78816708D01*
X58596973Y-78788430D01*
X58586435Y-78758978D01*
X58578835Y-78728635D01*
X58574245Y-78697693D01*
X58572710Y-78666450D01*
X58572710Y-77953950D01*
X58574245Y-77922707D01*
X58578835Y-77891765D01*
X58586435Y-77861422D01*
X58596973Y-77831970D01*
X58610348Y-77803692D01*
X58626429Y-77776862D01*
X58645063Y-77751737D01*
X58666070Y-77728560D01*
X58689247Y-77707553D01*
X58714372Y-77688919D01*
X58741202Y-77672838D01*
X58769480Y-77659463D01*
X58798932Y-77648925D01*
X58829275Y-77641325D01*
X58860217Y-77636735D01*
X58891460Y-77635200D01*
X59528960Y-77635200D01*
X59560203Y-77636735D01*
X59560203Y-77636735D01*
G37*
D22*
X59210210Y-78310200D03*
D16*
G36*
X61135203Y-77636735D02*
X61166145Y-77641325D01*
X61196488Y-77648925D01*
X61225940Y-77659463D01*
X61254218Y-77672838D01*
X61281048Y-77688919D01*
X61306173Y-77707553D01*
X61329350Y-77728560D01*
X61350357Y-77751737D01*
X61368991Y-77776862D01*
X61385072Y-77803692D01*
X61398447Y-77831970D01*
X61408985Y-77861422D01*
X61416585Y-77891765D01*
X61421175Y-77922707D01*
X61422710Y-77953950D01*
X61422710Y-78666450D01*
X61421175Y-78697693D01*
X61416585Y-78728635D01*
X61408985Y-78758978D01*
X61398447Y-78788430D01*
X61385072Y-78816708D01*
X61368991Y-78843538D01*
X61350357Y-78868663D01*
X61329350Y-78891840D01*
X61306173Y-78912847D01*
X61281048Y-78931481D01*
X61254218Y-78947562D01*
X61225940Y-78960937D01*
X61196488Y-78971475D01*
X61166145Y-78979075D01*
X61135203Y-78983665D01*
X61103960Y-78985200D01*
X60466460Y-78985200D01*
X60435217Y-78983665D01*
X60404275Y-78979075D01*
X60373932Y-78971475D01*
X60344480Y-78960937D01*
X60316202Y-78947562D01*
X60289372Y-78931481D01*
X60264247Y-78912847D01*
X60241070Y-78891840D01*
X60220063Y-78868663D01*
X60201429Y-78843538D01*
X60185348Y-78816708D01*
X60171973Y-78788430D01*
X60161435Y-78758978D01*
X60153835Y-78728635D01*
X60149245Y-78697693D01*
X60147710Y-78666450D01*
X60147710Y-77953950D01*
X60149245Y-77922707D01*
X60153835Y-77891765D01*
X60161435Y-77861422D01*
X60171973Y-77831970D01*
X60185348Y-77803692D01*
X60201429Y-77776862D01*
X60220063Y-77751737D01*
X60241070Y-77728560D01*
X60264247Y-77707553D01*
X60289372Y-77688919D01*
X60316202Y-77672838D01*
X60344480Y-77659463D01*
X60373932Y-77648925D01*
X60404275Y-77641325D01*
X60435217Y-77636735D01*
X60466460Y-77635200D01*
X61103960Y-77635200D01*
X61135203Y-77636735D01*
X61135203Y-77636735D01*
G37*
D22*
X60785210Y-78310200D03*
G04 #@! TD*
D16*
G04 #@! TO.C,R32*
G36*
X64945203Y-78906735D02*
X64976145Y-78911325D01*
X65006488Y-78918925D01*
X65035940Y-78929463D01*
X65064218Y-78942838D01*
X65091048Y-78958919D01*
X65116173Y-78977553D01*
X65139350Y-78998560D01*
X65160357Y-79021737D01*
X65178991Y-79046862D01*
X65195072Y-79073692D01*
X65208447Y-79101970D01*
X65218985Y-79131422D01*
X65226585Y-79161765D01*
X65231175Y-79192707D01*
X65232710Y-79223950D01*
X65232710Y-79936450D01*
X65231175Y-79967693D01*
X65226585Y-79998635D01*
X65218985Y-80028978D01*
X65208447Y-80058430D01*
X65195072Y-80086708D01*
X65178991Y-80113538D01*
X65160357Y-80138663D01*
X65139350Y-80161840D01*
X65116173Y-80182847D01*
X65091048Y-80201481D01*
X65064218Y-80217562D01*
X65035940Y-80230937D01*
X65006488Y-80241475D01*
X64976145Y-80249075D01*
X64945203Y-80253665D01*
X64913960Y-80255200D01*
X64276460Y-80255200D01*
X64245217Y-80253665D01*
X64214275Y-80249075D01*
X64183932Y-80241475D01*
X64154480Y-80230937D01*
X64126202Y-80217562D01*
X64099372Y-80201481D01*
X64074247Y-80182847D01*
X64051070Y-80161840D01*
X64030063Y-80138663D01*
X64011429Y-80113538D01*
X63995348Y-80086708D01*
X63981973Y-80058430D01*
X63971435Y-80028978D01*
X63963835Y-79998635D01*
X63959245Y-79967693D01*
X63957710Y-79936450D01*
X63957710Y-79223950D01*
X63959245Y-79192707D01*
X63963835Y-79161765D01*
X63971435Y-79131422D01*
X63981973Y-79101970D01*
X63995348Y-79073692D01*
X64011429Y-79046862D01*
X64030063Y-79021737D01*
X64051070Y-78998560D01*
X64074247Y-78977553D01*
X64099372Y-78958919D01*
X64126202Y-78942838D01*
X64154480Y-78929463D01*
X64183932Y-78918925D01*
X64214275Y-78911325D01*
X64245217Y-78906735D01*
X64276460Y-78905200D01*
X64913960Y-78905200D01*
X64945203Y-78906735D01*
X64945203Y-78906735D01*
G37*
D22*
X64595210Y-79580200D03*
D16*
G36*
X63370203Y-78906735D02*
X63401145Y-78911325D01*
X63431488Y-78918925D01*
X63460940Y-78929463D01*
X63489218Y-78942838D01*
X63516048Y-78958919D01*
X63541173Y-78977553D01*
X63564350Y-78998560D01*
X63585357Y-79021737D01*
X63603991Y-79046862D01*
X63620072Y-79073692D01*
X63633447Y-79101970D01*
X63643985Y-79131422D01*
X63651585Y-79161765D01*
X63656175Y-79192707D01*
X63657710Y-79223950D01*
X63657710Y-79936450D01*
X63656175Y-79967693D01*
X63651585Y-79998635D01*
X63643985Y-80028978D01*
X63633447Y-80058430D01*
X63620072Y-80086708D01*
X63603991Y-80113538D01*
X63585357Y-80138663D01*
X63564350Y-80161840D01*
X63541173Y-80182847D01*
X63516048Y-80201481D01*
X63489218Y-80217562D01*
X63460940Y-80230937D01*
X63431488Y-80241475D01*
X63401145Y-80249075D01*
X63370203Y-80253665D01*
X63338960Y-80255200D01*
X62701460Y-80255200D01*
X62670217Y-80253665D01*
X62639275Y-80249075D01*
X62608932Y-80241475D01*
X62579480Y-80230937D01*
X62551202Y-80217562D01*
X62524372Y-80201481D01*
X62499247Y-80182847D01*
X62476070Y-80161840D01*
X62455063Y-80138663D01*
X62436429Y-80113538D01*
X62420348Y-80086708D01*
X62406973Y-80058430D01*
X62396435Y-80028978D01*
X62388835Y-79998635D01*
X62384245Y-79967693D01*
X62382710Y-79936450D01*
X62382710Y-79223950D01*
X62384245Y-79192707D01*
X62388835Y-79161765D01*
X62396435Y-79131422D01*
X62406973Y-79101970D01*
X62420348Y-79073692D01*
X62436429Y-79046862D01*
X62455063Y-79021737D01*
X62476070Y-78998560D01*
X62499247Y-78977553D01*
X62524372Y-78958919D01*
X62551202Y-78942838D01*
X62579480Y-78929463D01*
X62608932Y-78918925D01*
X62639275Y-78911325D01*
X62670217Y-78906735D01*
X62701460Y-78905200D01*
X63338960Y-78905200D01*
X63370203Y-78906735D01*
X63370203Y-78906735D01*
G37*
D22*
X63020210Y-79580200D03*
G04 #@! TD*
D16*
G04 #@! TO.C,R38*
G36*
X64945203Y-86526735D02*
X64976145Y-86531325D01*
X65006488Y-86538925D01*
X65035940Y-86549463D01*
X65064218Y-86562838D01*
X65091048Y-86578919D01*
X65116173Y-86597553D01*
X65139350Y-86618560D01*
X65160357Y-86641737D01*
X65178991Y-86666862D01*
X65195072Y-86693692D01*
X65208447Y-86721970D01*
X65218985Y-86751422D01*
X65226585Y-86781765D01*
X65231175Y-86812707D01*
X65232710Y-86843950D01*
X65232710Y-87556450D01*
X65231175Y-87587693D01*
X65226585Y-87618635D01*
X65218985Y-87648978D01*
X65208447Y-87678430D01*
X65195072Y-87706708D01*
X65178991Y-87733538D01*
X65160357Y-87758663D01*
X65139350Y-87781840D01*
X65116173Y-87802847D01*
X65091048Y-87821481D01*
X65064218Y-87837562D01*
X65035940Y-87850937D01*
X65006488Y-87861475D01*
X64976145Y-87869075D01*
X64945203Y-87873665D01*
X64913960Y-87875200D01*
X64276460Y-87875200D01*
X64245217Y-87873665D01*
X64214275Y-87869075D01*
X64183932Y-87861475D01*
X64154480Y-87850937D01*
X64126202Y-87837562D01*
X64099372Y-87821481D01*
X64074247Y-87802847D01*
X64051070Y-87781840D01*
X64030063Y-87758663D01*
X64011429Y-87733538D01*
X63995348Y-87706708D01*
X63981973Y-87678430D01*
X63971435Y-87648978D01*
X63963835Y-87618635D01*
X63959245Y-87587693D01*
X63957710Y-87556450D01*
X63957710Y-86843950D01*
X63959245Y-86812707D01*
X63963835Y-86781765D01*
X63971435Y-86751422D01*
X63981973Y-86721970D01*
X63995348Y-86693692D01*
X64011429Y-86666862D01*
X64030063Y-86641737D01*
X64051070Y-86618560D01*
X64074247Y-86597553D01*
X64099372Y-86578919D01*
X64126202Y-86562838D01*
X64154480Y-86549463D01*
X64183932Y-86538925D01*
X64214275Y-86531325D01*
X64245217Y-86526735D01*
X64276460Y-86525200D01*
X64913960Y-86525200D01*
X64945203Y-86526735D01*
X64945203Y-86526735D01*
G37*
D22*
X64595210Y-87200200D03*
D16*
G36*
X63370203Y-86526735D02*
X63401145Y-86531325D01*
X63431488Y-86538925D01*
X63460940Y-86549463D01*
X63489218Y-86562838D01*
X63516048Y-86578919D01*
X63541173Y-86597553D01*
X63564350Y-86618560D01*
X63585357Y-86641737D01*
X63603991Y-86666862D01*
X63620072Y-86693692D01*
X63633447Y-86721970D01*
X63643985Y-86751422D01*
X63651585Y-86781765D01*
X63656175Y-86812707D01*
X63657710Y-86843950D01*
X63657710Y-87556450D01*
X63656175Y-87587693D01*
X63651585Y-87618635D01*
X63643985Y-87648978D01*
X63633447Y-87678430D01*
X63620072Y-87706708D01*
X63603991Y-87733538D01*
X63585357Y-87758663D01*
X63564350Y-87781840D01*
X63541173Y-87802847D01*
X63516048Y-87821481D01*
X63489218Y-87837562D01*
X63460940Y-87850937D01*
X63431488Y-87861475D01*
X63401145Y-87869075D01*
X63370203Y-87873665D01*
X63338960Y-87875200D01*
X62701460Y-87875200D01*
X62670217Y-87873665D01*
X62639275Y-87869075D01*
X62608932Y-87861475D01*
X62579480Y-87850937D01*
X62551202Y-87837562D01*
X62524372Y-87821481D01*
X62499247Y-87802847D01*
X62476070Y-87781840D01*
X62455063Y-87758663D01*
X62436429Y-87733538D01*
X62420348Y-87706708D01*
X62406973Y-87678430D01*
X62396435Y-87648978D01*
X62388835Y-87618635D01*
X62384245Y-87587693D01*
X62382710Y-87556450D01*
X62382710Y-86843950D01*
X62384245Y-86812707D01*
X62388835Y-86781765D01*
X62396435Y-86751422D01*
X62406973Y-86721970D01*
X62420348Y-86693692D01*
X62436429Y-86666862D01*
X62455063Y-86641737D01*
X62476070Y-86618560D01*
X62499247Y-86597553D01*
X62524372Y-86578919D01*
X62551202Y-86562838D01*
X62579480Y-86549463D01*
X62608932Y-86538925D01*
X62639275Y-86531325D01*
X62670217Y-86526735D01*
X62701460Y-86525200D01*
X63338960Y-86525200D01*
X63370203Y-86526735D01*
X63370203Y-86526735D01*
G37*
D22*
X63020210Y-87200200D03*
G04 #@! TD*
D16*
G04 #@! TO.C,R39*
G36*
X59560203Y-87796735D02*
X59591145Y-87801325D01*
X59621488Y-87808925D01*
X59650940Y-87819463D01*
X59679218Y-87832838D01*
X59706048Y-87848919D01*
X59731173Y-87867553D01*
X59754350Y-87888560D01*
X59775357Y-87911737D01*
X59793991Y-87936862D01*
X59810072Y-87963692D01*
X59823447Y-87991970D01*
X59833985Y-88021422D01*
X59841585Y-88051765D01*
X59846175Y-88082707D01*
X59847710Y-88113950D01*
X59847710Y-88826450D01*
X59846175Y-88857693D01*
X59841585Y-88888635D01*
X59833985Y-88918978D01*
X59823447Y-88948430D01*
X59810072Y-88976708D01*
X59793991Y-89003538D01*
X59775357Y-89028663D01*
X59754350Y-89051840D01*
X59731173Y-89072847D01*
X59706048Y-89091481D01*
X59679218Y-89107562D01*
X59650940Y-89120937D01*
X59621488Y-89131475D01*
X59591145Y-89139075D01*
X59560203Y-89143665D01*
X59528960Y-89145200D01*
X58891460Y-89145200D01*
X58860217Y-89143665D01*
X58829275Y-89139075D01*
X58798932Y-89131475D01*
X58769480Y-89120937D01*
X58741202Y-89107562D01*
X58714372Y-89091481D01*
X58689247Y-89072847D01*
X58666070Y-89051840D01*
X58645063Y-89028663D01*
X58626429Y-89003538D01*
X58610348Y-88976708D01*
X58596973Y-88948430D01*
X58586435Y-88918978D01*
X58578835Y-88888635D01*
X58574245Y-88857693D01*
X58572710Y-88826450D01*
X58572710Y-88113950D01*
X58574245Y-88082707D01*
X58578835Y-88051765D01*
X58586435Y-88021422D01*
X58596973Y-87991970D01*
X58610348Y-87963692D01*
X58626429Y-87936862D01*
X58645063Y-87911737D01*
X58666070Y-87888560D01*
X58689247Y-87867553D01*
X58714372Y-87848919D01*
X58741202Y-87832838D01*
X58769480Y-87819463D01*
X58798932Y-87808925D01*
X58829275Y-87801325D01*
X58860217Y-87796735D01*
X58891460Y-87795200D01*
X59528960Y-87795200D01*
X59560203Y-87796735D01*
X59560203Y-87796735D01*
G37*
D22*
X59210210Y-88470200D03*
D16*
G36*
X61135203Y-87796735D02*
X61166145Y-87801325D01*
X61196488Y-87808925D01*
X61225940Y-87819463D01*
X61254218Y-87832838D01*
X61281048Y-87848919D01*
X61306173Y-87867553D01*
X61329350Y-87888560D01*
X61350357Y-87911737D01*
X61368991Y-87936862D01*
X61385072Y-87963692D01*
X61398447Y-87991970D01*
X61408985Y-88021422D01*
X61416585Y-88051765D01*
X61421175Y-88082707D01*
X61422710Y-88113950D01*
X61422710Y-88826450D01*
X61421175Y-88857693D01*
X61416585Y-88888635D01*
X61408985Y-88918978D01*
X61398447Y-88948430D01*
X61385072Y-88976708D01*
X61368991Y-89003538D01*
X61350357Y-89028663D01*
X61329350Y-89051840D01*
X61306173Y-89072847D01*
X61281048Y-89091481D01*
X61254218Y-89107562D01*
X61225940Y-89120937D01*
X61196488Y-89131475D01*
X61166145Y-89139075D01*
X61135203Y-89143665D01*
X61103960Y-89145200D01*
X60466460Y-89145200D01*
X60435217Y-89143665D01*
X60404275Y-89139075D01*
X60373932Y-89131475D01*
X60344480Y-89120937D01*
X60316202Y-89107562D01*
X60289372Y-89091481D01*
X60264247Y-89072847D01*
X60241070Y-89051840D01*
X60220063Y-89028663D01*
X60201429Y-89003538D01*
X60185348Y-88976708D01*
X60171973Y-88948430D01*
X60161435Y-88918978D01*
X60153835Y-88888635D01*
X60149245Y-88857693D01*
X60147710Y-88826450D01*
X60147710Y-88113950D01*
X60149245Y-88082707D01*
X60153835Y-88051765D01*
X60161435Y-88021422D01*
X60171973Y-87991970D01*
X60185348Y-87963692D01*
X60201429Y-87936862D01*
X60220063Y-87911737D01*
X60241070Y-87888560D01*
X60264247Y-87867553D01*
X60289372Y-87848919D01*
X60316202Y-87832838D01*
X60344480Y-87819463D01*
X60373932Y-87808925D01*
X60404275Y-87801325D01*
X60435217Y-87796735D01*
X60466460Y-87795200D01*
X61103960Y-87795200D01*
X61135203Y-87796735D01*
X61135203Y-87796735D01*
G37*
D22*
X60785210Y-88470200D03*
G04 #@! TD*
D16*
G04 #@! TO.C,R40*
G36*
X64945203Y-89066735D02*
X64976145Y-89071325D01*
X65006488Y-89078925D01*
X65035940Y-89089463D01*
X65064218Y-89102838D01*
X65091048Y-89118919D01*
X65116173Y-89137553D01*
X65139350Y-89158560D01*
X65160357Y-89181737D01*
X65178991Y-89206862D01*
X65195072Y-89233692D01*
X65208447Y-89261970D01*
X65218985Y-89291422D01*
X65226585Y-89321765D01*
X65231175Y-89352707D01*
X65232710Y-89383950D01*
X65232710Y-90096450D01*
X65231175Y-90127693D01*
X65226585Y-90158635D01*
X65218985Y-90188978D01*
X65208447Y-90218430D01*
X65195072Y-90246708D01*
X65178991Y-90273538D01*
X65160357Y-90298663D01*
X65139350Y-90321840D01*
X65116173Y-90342847D01*
X65091048Y-90361481D01*
X65064218Y-90377562D01*
X65035940Y-90390937D01*
X65006488Y-90401475D01*
X64976145Y-90409075D01*
X64945203Y-90413665D01*
X64913960Y-90415200D01*
X64276460Y-90415200D01*
X64245217Y-90413665D01*
X64214275Y-90409075D01*
X64183932Y-90401475D01*
X64154480Y-90390937D01*
X64126202Y-90377562D01*
X64099372Y-90361481D01*
X64074247Y-90342847D01*
X64051070Y-90321840D01*
X64030063Y-90298663D01*
X64011429Y-90273538D01*
X63995348Y-90246708D01*
X63981973Y-90218430D01*
X63971435Y-90188978D01*
X63963835Y-90158635D01*
X63959245Y-90127693D01*
X63957710Y-90096450D01*
X63957710Y-89383950D01*
X63959245Y-89352707D01*
X63963835Y-89321765D01*
X63971435Y-89291422D01*
X63981973Y-89261970D01*
X63995348Y-89233692D01*
X64011429Y-89206862D01*
X64030063Y-89181737D01*
X64051070Y-89158560D01*
X64074247Y-89137553D01*
X64099372Y-89118919D01*
X64126202Y-89102838D01*
X64154480Y-89089463D01*
X64183932Y-89078925D01*
X64214275Y-89071325D01*
X64245217Y-89066735D01*
X64276460Y-89065200D01*
X64913960Y-89065200D01*
X64945203Y-89066735D01*
X64945203Y-89066735D01*
G37*
D22*
X64595210Y-89740200D03*
D16*
G36*
X63370203Y-89066735D02*
X63401145Y-89071325D01*
X63431488Y-89078925D01*
X63460940Y-89089463D01*
X63489218Y-89102838D01*
X63516048Y-89118919D01*
X63541173Y-89137553D01*
X63564350Y-89158560D01*
X63585357Y-89181737D01*
X63603991Y-89206862D01*
X63620072Y-89233692D01*
X63633447Y-89261970D01*
X63643985Y-89291422D01*
X63651585Y-89321765D01*
X63656175Y-89352707D01*
X63657710Y-89383950D01*
X63657710Y-90096450D01*
X63656175Y-90127693D01*
X63651585Y-90158635D01*
X63643985Y-90188978D01*
X63633447Y-90218430D01*
X63620072Y-90246708D01*
X63603991Y-90273538D01*
X63585357Y-90298663D01*
X63564350Y-90321840D01*
X63541173Y-90342847D01*
X63516048Y-90361481D01*
X63489218Y-90377562D01*
X63460940Y-90390937D01*
X63431488Y-90401475D01*
X63401145Y-90409075D01*
X63370203Y-90413665D01*
X63338960Y-90415200D01*
X62701460Y-90415200D01*
X62670217Y-90413665D01*
X62639275Y-90409075D01*
X62608932Y-90401475D01*
X62579480Y-90390937D01*
X62551202Y-90377562D01*
X62524372Y-90361481D01*
X62499247Y-90342847D01*
X62476070Y-90321840D01*
X62455063Y-90298663D01*
X62436429Y-90273538D01*
X62420348Y-90246708D01*
X62406973Y-90218430D01*
X62396435Y-90188978D01*
X62388835Y-90158635D01*
X62384245Y-90127693D01*
X62382710Y-90096450D01*
X62382710Y-89383950D01*
X62384245Y-89352707D01*
X62388835Y-89321765D01*
X62396435Y-89291422D01*
X62406973Y-89261970D01*
X62420348Y-89233692D01*
X62436429Y-89206862D01*
X62455063Y-89181737D01*
X62476070Y-89158560D01*
X62499247Y-89137553D01*
X62524372Y-89118919D01*
X62551202Y-89102838D01*
X62579480Y-89089463D01*
X62608932Y-89078925D01*
X62639275Y-89071325D01*
X62670217Y-89066735D01*
X62701460Y-89065200D01*
X63338960Y-89065200D01*
X63370203Y-89066735D01*
X63370203Y-89066735D01*
G37*
D22*
X63020210Y-89740200D03*
G04 #@! TD*
D16*
G04 #@! TO.C,R16*
G36*
X64945203Y-58586735D02*
X64976145Y-58591325D01*
X65006488Y-58598925D01*
X65035940Y-58609463D01*
X65064218Y-58622838D01*
X65091048Y-58638919D01*
X65116173Y-58657553D01*
X65139350Y-58678560D01*
X65160357Y-58701737D01*
X65178991Y-58726862D01*
X65195072Y-58753692D01*
X65208447Y-58781970D01*
X65218985Y-58811422D01*
X65226585Y-58841765D01*
X65231175Y-58872707D01*
X65232710Y-58903950D01*
X65232710Y-59616450D01*
X65231175Y-59647693D01*
X65226585Y-59678635D01*
X65218985Y-59708978D01*
X65208447Y-59738430D01*
X65195072Y-59766708D01*
X65178991Y-59793538D01*
X65160357Y-59818663D01*
X65139350Y-59841840D01*
X65116173Y-59862847D01*
X65091048Y-59881481D01*
X65064218Y-59897562D01*
X65035940Y-59910937D01*
X65006488Y-59921475D01*
X64976145Y-59929075D01*
X64945203Y-59933665D01*
X64913960Y-59935200D01*
X64276460Y-59935200D01*
X64245217Y-59933665D01*
X64214275Y-59929075D01*
X64183932Y-59921475D01*
X64154480Y-59910937D01*
X64126202Y-59897562D01*
X64099372Y-59881481D01*
X64074247Y-59862847D01*
X64051070Y-59841840D01*
X64030063Y-59818663D01*
X64011429Y-59793538D01*
X63995348Y-59766708D01*
X63981973Y-59738430D01*
X63971435Y-59708978D01*
X63963835Y-59678635D01*
X63959245Y-59647693D01*
X63957710Y-59616450D01*
X63957710Y-58903950D01*
X63959245Y-58872707D01*
X63963835Y-58841765D01*
X63971435Y-58811422D01*
X63981973Y-58781970D01*
X63995348Y-58753692D01*
X64011429Y-58726862D01*
X64030063Y-58701737D01*
X64051070Y-58678560D01*
X64074247Y-58657553D01*
X64099372Y-58638919D01*
X64126202Y-58622838D01*
X64154480Y-58609463D01*
X64183932Y-58598925D01*
X64214275Y-58591325D01*
X64245217Y-58586735D01*
X64276460Y-58585200D01*
X64913960Y-58585200D01*
X64945203Y-58586735D01*
X64945203Y-58586735D01*
G37*
D22*
X64595210Y-59260200D03*
D16*
G36*
X63370203Y-58586735D02*
X63401145Y-58591325D01*
X63431488Y-58598925D01*
X63460940Y-58609463D01*
X63489218Y-58622838D01*
X63516048Y-58638919D01*
X63541173Y-58657553D01*
X63564350Y-58678560D01*
X63585357Y-58701737D01*
X63603991Y-58726862D01*
X63620072Y-58753692D01*
X63633447Y-58781970D01*
X63643985Y-58811422D01*
X63651585Y-58841765D01*
X63656175Y-58872707D01*
X63657710Y-58903950D01*
X63657710Y-59616450D01*
X63656175Y-59647693D01*
X63651585Y-59678635D01*
X63643985Y-59708978D01*
X63633447Y-59738430D01*
X63620072Y-59766708D01*
X63603991Y-59793538D01*
X63585357Y-59818663D01*
X63564350Y-59841840D01*
X63541173Y-59862847D01*
X63516048Y-59881481D01*
X63489218Y-59897562D01*
X63460940Y-59910937D01*
X63431488Y-59921475D01*
X63401145Y-59929075D01*
X63370203Y-59933665D01*
X63338960Y-59935200D01*
X62701460Y-59935200D01*
X62670217Y-59933665D01*
X62639275Y-59929075D01*
X62608932Y-59921475D01*
X62579480Y-59910937D01*
X62551202Y-59897562D01*
X62524372Y-59881481D01*
X62499247Y-59862847D01*
X62476070Y-59841840D01*
X62455063Y-59818663D01*
X62436429Y-59793538D01*
X62420348Y-59766708D01*
X62406973Y-59738430D01*
X62396435Y-59708978D01*
X62388835Y-59678635D01*
X62384245Y-59647693D01*
X62382710Y-59616450D01*
X62382710Y-58903950D01*
X62384245Y-58872707D01*
X62388835Y-58841765D01*
X62396435Y-58811422D01*
X62406973Y-58781970D01*
X62420348Y-58753692D01*
X62436429Y-58726862D01*
X62455063Y-58701737D01*
X62476070Y-58678560D01*
X62499247Y-58657553D01*
X62524372Y-58638919D01*
X62551202Y-58622838D01*
X62579480Y-58609463D01*
X62608932Y-58598925D01*
X62639275Y-58591325D01*
X62670217Y-58586735D01*
X62701460Y-58585200D01*
X63338960Y-58585200D01*
X63370203Y-58586735D01*
X63370203Y-58586735D01*
G37*
D22*
X63020210Y-59260200D03*
G04 #@! TD*
D16*
G04 #@! TO.C,R24*
G36*
X64945203Y-68746735D02*
X64976145Y-68751325D01*
X65006488Y-68758925D01*
X65035940Y-68769463D01*
X65064218Y-68782838D01*
X65091048Y-68798919D01*
X65116173Y-68817553D01*
X65139350Y-68838560D01*
X65160357Y-68861737D01*
X65178991Y-68886862D01*
X65195072Y-68913692D01*
X65208447Y-68941970D01*
X65218985Y-68971422D01*
X65226585Y-69001765D01*
X65231175Y-69032707D01*
X65232710Y-69063950D01*
X65232710Y-69776450D01*
X65231175Y-69807693D01*
X65226585Y-69838635D01*
X65218985Y-69868978D01*
X65208447Y-69898430D01*
X65195072Y-69926708D01*
X65178991Y-69953538D01*
X65160357Y-69978663D01*
X65139350Y-70001840D01*
X65116173Y-70022847D01*
X65091048Y-70041481D01*
X65064218Y-70057562D01*
X65035940Y-70070937D01*
X65006488Y-70081475D01*
X64976145Y-70089075D01*
X64945203Y-70093665D01*
X64913960Y-70095200D01*
X64276460Y-70095200D01*
X64245217Y-70093665D01*
X64214275Y-70089075D01*
X64183932Y-70081475D01*
X64154480Y-70070937D01*
X64126202Y-70057562D01*
X64099372Y-70041481D01*
X64074247Y-70022847D01*
X64051070Y-70001840D01*
X64030063Y-69978663D01*
X64011429Y-69953538D01*
X63995348Y-69926708D01*
X63981973Y-69898430D01*
X63971435Y-69868978D01*
X63963835Y-69838635D01*
X63959245Y-69807693D01*
X63957710Y-69776450D01*
X63957710Y-69063950D01*
X63959245Y-69032707D01*
X63963835Y-69001765D01*
X63971435Y-68971422D01*
X63981973Y-68941970D01*
X63995348Y-68913692D01*
X64011429Y-68886862D01*
X64030063Y-68861737D01*
X64051070Y-68838560D01*
X64074247Y-68817553D01*
X64099372Y-68798919D01*
X64126202Y-68782838D01*
X64154480Y-68769463D01*
X64183932Y-68758925D01*
X64214275Y-68751325D01*
X64245217Y-68746735D01*
X64276460Y-68745200D01*
X64913960Y-68745200D01*
X64945203Y-68746735D01*
X64945203Y-68746735D01*
G37*
D22*
X64595210Y-69420200D03*
D16*
G36*
X63370203Y-68746735D02*
X63401145Y-68751325D01*
X63431488Y-68758925D01*
X63460940Y-68769463D01*
X63489218Y-68782838D01*
X63516048Y-68798919D01*
X63541173Y-68817553D01*
X63564350Y-68838560D01*
X63585357Y-68861737D01*
X63603991Y-68886862D01*
X63620072Y-68913692D01*
X63633447Y-68941970D01*
X63643985Y-68971422D01*
X63651585Y-69001765D01*
X63656175Y-69032707D01*
X63657710Y-69063950D01*
X63657710Y-69776450D01*
X63656175Y-69807693D01*
X63651585Y-69838635D01*
X63643985Y-69868978D01*
X63633447Y-69898430D01*
X63620072Y-69926708D01*
X63603991Y-69953538D01*
X63585357Y-69978663D01*
X63564350Y-70001840D01*
X63541173Y-70022847D01*
X63516048Y-70041481D01*
X63489218Y-70057562D01*
X63460940Y-70070937D01*
X63431488Y-70081475D01*
X63401145Y-70089075D01*
X63370203Y-70093665D01*
X63338960Y-70095200D01*
X62701460Y-70095200D01*
X62670217Y-70093665D01*
X62639275Y-70089075D01*
X62608932Y-70081475D01*
X62579480Y-70070937D01*
X62551202Y-70057562D01*
X62524372Y-70041481D01*
X62499247Y-70022847D01*
X62476070Y-70001840D01*
X62455063Y-69978663D01*
X62436429Y-69953538D01*
X62420348Y-69926708D01*
X62406973Y-69898430D01*
X62396435Y-69868978D01*
X62388835Y-69838635D01*
X62384245Y-69807693D01*
X62382710Y-69776450D01*
X62382710Y-69063950D01*
X62384245Y-69032707D01*
X62388835Y-69001765D01*
X62396435Y-68971422D01*
X62406973Y-68941970D01*
X62420348Y-68913692D01*
X62436429Y-68886862D01*
X62455063Y-68861737D01*
X62476070Y-68838560D01*
X62499247Y-68817553D01*
X62524372Y-68798919D01*
X62551202Y-68782838D01*
X62579480Y-68769463D01*
X62608932Y-68758925D01*
X62639275Y-68751325D01*
X62670217Y-68746735D01*
X62701460Y-68745200D01*
X63338960Y-68745200D01*
X63370203Y-68746735D01*
X63370203Y-68746735D01*
G37*
D22*
X63020210Y-69420200D03*
G04 #@! TD*
D16*
G04 #@! TO.C,R1*
G36*
X59560203Y-39536735D02*
X59591145Y-39541325D01*
X59621488Y-39548925D01*
X59650940Y-39559463D01*
X59679218Y-39572838D01*
X59706048Y-39588919D01*
X59731173Y-39607553D01*
X59754350Y-39628560D01*
X59775357Y-39651737D01*
X59793991Y-39676862D01*
X59810072Y-39703692D01*
X59823447Y-39731970D01*
X59833985Y-39761422D01*
X59841585Y-39791765D01*
X59846175Y-39822707D01*
X59847710Y-39853950D01*
X59847710Y-40566450D01*
X59846175Y-40597693D01*
X59841585Y-40628635D01*
X59833985Y-40658978D01*
X59823447Y-40688430D01*
X59810072Y-40716708D01*
X59793991Y-40743538D01*
X59775357Y-40768663D01*
X59754350Y-40791840D01*
X59731173Y-40812847D01*
X59706048Y-40831481D01*
X59679218Y-40847562D01*
X59650940Y-40860937D01*
X59621488Y-40871475D01*
X59591145Y-40879075D01*
X59560203Y-40883665D01*
X59528960Y-40885200D01*
X58891460Y-40885200D01*
X58860217Y-40883665D01*
X58829275Y-40879075D01*
X58798932Y-40871475D01*
X58769480Y-40860937D01*
X58741202Y-40847562D01*
X58714372Y-40831481D01*
X58689247Y-40812847D01*
X58666070Y-40791840D01*
X58645063Y-40768663D01*
X58626429Y-40743538D01*
X58610348Y-40716708D01*
X58596973Y-40688430D01*
X58586435Y-40658978D01*
X58578835Y-40628635D01*
X58574245Y-40597693D01*
X58572710Y-40566450D01*
X58572710Y-39853950D01*
X58574245Y-39822707D01*
X58578835Y-39791765D01*
X58586435Y-39761422D01*
X58596973Y-39731970D01*
X58610348Y-39703692D01*
X58626429Y-39676862D01*
X58645063Y-39651737D01*
X58666070Y-39628560D01*
X58689247Y-39607553D01*
X58714372Y-39588919D01*
X58741202Y-39572838D01*
X58769480Y-39559463D01*
X58798932Y-39548925D01*
X58829275Y-39541325D01*
X58860217Y-39536735D01*
X58891460Y-39535200D01*
X59528960Y-39535200D01*
X59560203Y-39536735D01*
X59560203Y-39536735D01*
G37*
D22*
X59210210Y-40210200D03*
D16*
G36*
X61135203Y-39536735D02*
X61166145Y-39541325D01*
X61196488Y-39548925D01*
X61225940Y-39559463D01*
X61254218Y-39572838D01*
X61281048Y-39588919D01*
X61306173Y-39607553D01*
X61329350Y-39628560D01*
X61350357Y-39651737D01*
X61368991Y-39676862D01*
X61385072Y-39703692D01*
X61398447Y-39731970D01*
X61408985Y-39761422D01*
X61416585Y-39791765D01*
X61421175Y-39822707D01*
X61422710Y-39853950D01*
X61422710Y-40566450D01*
X61421175Y-40597693D01*
X61416585Y-40628635D01*
X61408985Y-40658978D01*
X61398447Y-40688430D01*
X61385072Y-40716708D01*
X61368991Y-40743538D01*
X61350357Y-40768663D01*
X61329350Y-40791840D01*
X61306173Y-40812847D01*
X61281048Y-40831481D01*
X61254218Y-40847562D01*
X61225940Y-40860937D01*
X61196488Y-40871475D01*
X61166145Y-40879075D01*
X61135203Y-40883665D01*
X61103960Y-40885200D01*
X60466460Y-40885200D01*
X60435217Y-40883665D01*
X60404275Y-40879075D01*
X60373932Y-40871475D01*
X60344480Y-40860937D01*
X60316202Y-40847562D01*
X60289372Y-40831481D01*
X60264247Y-40812847D01*
X60241070Y-40791840D01*
X60220063Y-40768663D01*
X60201429Y-40743538D01*
X60185348Y-40716708D01*
X60171973Y-40688430D01*
X60161435Y-40658978D01*
X60153835Y-40628635D01*
X60149245Y-40597693D01*
X60147710Y-40566450D01*
X60147710Y-39853950D01*
X60149245Y-39822707D01*
X60153835Y-39791765D01*
X60161435Y-39761422D01*
X60171973Y-39731970D01*
X60185348Y-39703692D01*
X60201429Y-39676862D01*
X60220063Y-39651737D01*
X60241070Y-39628560D01*
X60264247Y-39607553D01*
X60289372Y-39588919D01*
X60316202Y-39572838D01*
X60344480Y-39559463D01*
X60373932Y-39548925D01*
X60404275Y-39541325D01*
X60435217Y-39536735D01*
X60466460Y-39535200D01*
X61103960Y-39535200D01*
X61135203Y-39536735D01*
X61135203Y-39536735D01*
G37*
D22*
X60785210Y-40210200D03*
G04 #@! TD*
D10*
G04 #@! TO.C,JP1*
X58260000Y-36703000D03*
X55720000Y-36703000D03*
D11*
X53180000Y-36703000D03*
G04 #@! TD*
M02*
