M48
;DRILL file {KiCad 5.0.1} date Mon 12 Nov 2018 05:49:47 PM PST
;FORMAT={-:-/ absolute / inch / decimal}
FMAT,2
INCH,TZ
T1C0.0100
T2C0.0394
T3C0.0400
T4C0.0598
%
G90
G05
M72
T1
X1.0344Y-2.2919
X1.0344Y-2.351
X1.0344Y-2.41
X1.0344Y-2.4691
X1.0344Y-2.5281
X1.0344Y-2.5872
X1.0344Y-2.6462
X1.0344Y-2.7053
X1.0344Y-2.7643
X1.0344Y-2.8234
X1.0344Y-3.0793
X1.0344Y-3.1384
X1.0344Y-3.1974
X1.0344Y-3.2565
X1.0344Y-3.3155
X1.0344Y-3.3746
X1.0344Y-3.4336
X1.0344Y-3.4927
X1.0344Y-3.5517
X1.0344Y-3.6108
X1.0533Y-1.9376
X1.0541Y-2.2919
X1.0541Y-2.351
X1.0541Y-2.41
X1.0541Y-2.4691
X1.0541Y-2.5281
X1.0541Y-2.5872
X1.0541Y-2.6462
X1.0541Y-2.7053
X1.0541Y-2.7643
X1.0541Y-2.8234
X1.0541Y-3.0793
X1.0541Y-3.1384
X1.0541Y-3.1974
X1.0541Y-3.2565
X1.0541Y-3.3155
X1.0541Y-3.3746
X1.0541Y-3.4336
X1.0541Y-3.4927
X1.0541Y-3.5517
X1.0541Y-3.6108
X1.2966Y-1.938
X1.2973Y-2.2526
X1.2973Y-2.2723
X1.2973Y-2.292
X1.2973Y-2.3117
X1.2973Y-2.3313
X1.2973Y-2.351
X1.2973Y-2.3707
X1.2973Y-2.3904
X1.2973Y-2.4101
X1.2973Y-2.4298
X1.2973Y-2.4495
X1.2973Y-2.4691
X1.2973Y-2.4888
X1.2973Y-2.5085
X1.2973Y-2.5282
X1.2973Y-2.5479
X1.2973Y-2.5676
X1.2973Y-2.5872
X1.2973Y-2.6069
X1.2973Y-2.6266
X1.2973Y-2.6463
X1.2973Y-2.666
X1.2973Y-2.6857
X1.2973Y-2.7054
X1.2973Y-2.725
X1.2973Y-2.7447
X1.2973Y-2.7644
X1.2973Y-2.7841
X1.2973Y-2.8038
X1.2973Y-2.8235
X1.2973Y-3.04
X1.2973Y-3.0597
X1.2973Y-3.0794
X1.2973Y-3.0991
X1.2973Y-3.1187
X1.2973Y-3.1384
X1.2973Y-3.1581
X1.2973Y-3.1778
X1.2973Y-3.1975
X1.2973Y-3.2172
X1.2973Y-3.2369
X1.2973Y-3.2565
X1.2973Y-3.2762
X1.2973Y-3.2959
X1.2973Y-3.3156
X1.2973Y-3.3353
X1.2973Y-3.355
X1.2973Y-3.3746
X1.2973Y-3.3943
X1.2973Y-3.414
X1.2973Y-3.4337
X1.2973Y-3.4534
X1.2973Y-3.4731
X1.2973Y-3.4928
X1.2973Y-3.5124
X1.2973Y-3.5321
X1.2973Y-3.5518
X1.4057Y-2.2427
X1.4057Y-2.3017
X1.4057Y-2.3608
X1.4057Y-2.4199
X1.4057Y-2.4789
X1.4057Y-2.538
X1.4057Y-2.597
X1.4057Y-2.6561
X1.4057Y-2.7151
X1.4057Y-2.7742
X1.4057Y-3.0301
X1.4057Y-3.0891
X1.4057Y-3.1482
X1.4057Y-3.2073
X1.4057Y-3.2663
X1.4057Y-3.3254
X1.4057Y-3.3844
X1.4057Y-3.4435
X1.4057Y-3.5025
X1.4057Y-3.5616
X1.4352Y-2.2722
X1.4352Y-2.3313
X1.4352Y-2.3903
X1.4352Y-2.4494
X1.4352Y-2.5084
X1.4352Y-2.5675
X1.4352Y-2.6265
X1.4352Y-2.6856
X1.4352Y-2.7447
X1.4352Y-2.8037
X1.4352Y-3.0596
X1.4352Y-3.1187
X1.4352Y-3.1777
X1.4352Y-3.2368
X1.4352Y-3.2958
X1.4352Y-3.3549
X1.4352Y-3.4139
X1.4352Y-3.473
X1.4352Y-3.5321
X1.4352Y-3.5911
X1.7313Y-1.5898
X1.7313Y-1.6298
X1.7313Y-1.7702
X1.7313Y-1.8102
X1.7813Y-1.5398
X1.7813Y-1.6798
X1.7813Y-1.7202
X1.7813Y-1.8602
X1.8313Y-1.7702
X1.8313Y-1.8102
X1.8313Y-1.5898
X1.8313Y-1.6298
X1.9723Y-1.5902
X1.9723Y-1.6302
X1.9723Y-1.7698
X1.9723Y-1.8098
X1.9923Y-1.7898
X1.9923Y-1.6102
X2.0123Y-1.5902
X2.0123Y-1.6302
X2.0123Y-1.7698
X2.0123Y-1.8098
X2.0237Y-1.235
X2.0337Y-1.315
X2.2563Y-1.155
X2.3063Y-1.125
X2.3563Y-1.155
X2.37Y-1.2106
X2.4277Y-3.7436
X2.4677Y-1.2776
X2.5777Y-3.7436
X2.5927Y-1.6575
X2.5927Y-1.8075
X2.5927Y-1.9575
X2.5927Y-2.1075
X2.5927Y-2.2575
X2.5927Y-2.4075
X2.5927Y-2.5575
X2.5927Y-2.7075
X2.5927Y-2.8575
X2.5927Y-3.0075
X2.5927Y-3.1575
X2.5927Y-3.3075
X2.5927Y-3.4575
X2.6727Y-1.6587
X2.6727Y-1.7087
X2.6727Y-1.8075
X2.6727Y-1.8575
X2.6727Y-1.9575
X2.6727Y-2.0075
X2.6727Y-2.1075
X2.6727Y-2.1575
X2.6727Y-2.2575
X2.6727Y-2.3075
X2.6727Y-2.4075
X2.6727Y-2.4575
X2.6727Y-2.5575
X2.6727Y-2.6075
X2.6727Y-2.7075
X2.6727Y-2.7575
X2.6727Y-2.8575
X2.6727Y-2.9075
X2.6727Y-3.0075
X2.6727Y-3.0575
X2.6727Y-3.1575
X2.6727Y-3.2075
X2.6727Y-3.3075
X2.6727Y-3.3575
X2.6727Y-3.4575
X2.6727Y-3.5075
X2.7126Y-1.36
X2.7427Y-1.7087
X2.7427Y-1.7575
X2.7427Y-1.8575
X2.7427Y-1.9075
X2.7427Y-2.0075
X2.7427Y-2.0575
X2.7427Y-2.1575
X2.7427Y-2.2075
X2.7427Y-2.3075
X2.7427Y-2.3575
X2.7427Y-2.4575
X2.7427Y-2.5075
X2.7427Y-2.6075
X2.7427Y-2.6575
X2.7427Y-2.7575
X2.7427Y-2.8075
X2.7427Y-2.9075
X2.7427Y-2.9575
X2.7427Y-3.0575
X2.7427Y-3.1075
X2.7427Y-3.2075
X2.7427Y-3.2575
X2.7427Y-3.3575
X2.7427Y-3.4075
X2.7427Y-3.5075
X2.7427Y-3.5675
X2.8227Y-1.5575
X2.8227Y-1.6087
X2.8227Y-1.6575
X2.8227Y-1.7587
X2.8227Y-1.8075
X2.8227Y-1.8575
X2.8227Y-1.9087
X2.8227Y-1.9575
X2.8227Y-2.0075
X2.8227Y-2.0587
X2.8227Y-2.1075
X2.8227Y-2.1575
X2.8227Y-2.2087
X2.8227Y-2.2575
X2.8227Y-2.3075
X2.8227Y-2.3587
X2.8227Y-2.4075
X2.8227Y-2.4575
X2.8227Y-2.5087
X2.8227Y-2.5575
X2.8227Y-2.6075
X2.8227Y-2.6587
X2.8227Y-2.7075
X2.8227Y-2.7575
X2.8227Y-2.8087
X2.8227Y-2.8575
X2.8227Y-2.9075
X2.8227Y-2.9587
X2.8227Y-3.0075
X2.8227Y-3.0575
X2.8227Y-3.1087
X2.8227Y-3.1575
X2.8227Y-3.2075
X2.8227Y-3.2587
X2.8227Y-3.3075
X2.8227Y-3.3575
X2.8227Y-3.4087
X2.8227Y-3.4575
X2.8227Y-3.5075
X2.8227Y-1.7075
X2.9727Y-2.9587
X2.9727Y-1.6075
X2.9727Y-1.7587
X2.9727Y-1.9087
X2.9727Y-2.0587
X2.9727Y-2.2087
X2.9727Y-2.3587
X2.9727Y-2.5087
X2.9727Y-2.6587
X2.9727Y-2.8087
X2.9727Y-3.1087
X2.9727Y-3.2587
X2.9727Y-3.4087
T2
X2.55Y-1.1
X2.65Y-1.1
X2.75Y-1.1
X2.85Y-1.1
X2.0937Y-1.445
X2.1937Y-1.445
X2.2937Y-1.445
T3
X3.2221Y-1.5831
X3.2221Y-1.6831
X3.2221Y-1.7831
X3.2221Y-1.8831
X3.2221Y-1.9831
X3.2221Y-2.0831
X3.2221Y-2.1831
X3.2221Y-2.2831
X3.2221Y-2.3831
X3.2221Y-2.4831
X3.2221Y-2.5831
X3.2221Y-2.6831
X3.2221Y-2.7831
X3.2221Y-2.8831
X3.2221Y-2.9831
X3.2221Y-3.0831
X3.2221Y-3.1831
X3.2221Y-3.2831
X3.2221Y-3.3831
X3.2221Y-3.4831
X3.3221Y-1.5831
X3.3221Y-1.6831
X3.3221Y-1.7831
X3.3221Y-1.8831
X3.3221Y-1.9831
X3.3221Y-2.0831
X3.3221Y-2.1831
X3.3221Y-2.2831
X3.3221Y-2.3831
X3.3221Y-2.4831
X3.3221Y-2.5831
X3.3221Y-2.6831
X3.3221Y-2.7831
X3.3221Y-2.8831
X3.3221Y-2.9831
X3.3221Y-3.0831
X3.3221Y-3.1831
X3.3221Y-3.2831
X3.3221Y-3.3831
X3.3221Y-3.4831
T4
X2.3027Y-3.87
X2.5027Y-3.87
X2.7027Y-3.87
X2.9027Y-3.87
T0
M30
