G04 #@! TF.GenerationSoftware,KiCad,Pcbnew,5.0.1*
G04 #@! TF.CreationDate,2019-01-16T09:22:18-08:00*
G04 #@! TF.ProjectId,HSMC-GPIO-kicad,48534D432D4750494F2D6B696361642E,rev?*
G04 #@! TF.SameCoordinates,Original*
G04 #@! TF.FileFunction,Other,Comment*
%FSLAX46Y46*%
G04 Gerber Fmt 4.6, Leading zero omitted, Abs format (unit mm)*
G04 Created by KiCad (PCBNEW 5.0.1) date Wed 16 Jan 2019 09:22:18 AM PST*
%MOMM*%
%LPD*%
G01*
G04 APERTURE LIST*
%ADD10C,0.300000*%
G04 APERTURE END LIST*
D10*
X51900000Y-20081428D02*
X51971428Y-20010000D01*
X52114285Y-19938571D01*
X52471428Y-19938571D01*
X52614285Y-20010000D01*
X52685714Y-20081428D01*
X52757142Y-20224285D01*
X52757142Y-20367142D01*
X52685714Y-20581428D01*
X51828571Y-21438571D01*
X52757142Y-21438571D01*
X53400000Y-21295714D02*
X53471428Y-21367142D01*
X53400000Y-21438571D01*
X53328571Y-21367142D01*
X53400000Y-21295714D01*
X53400000Y-21438571D01*
X54828571Y-19938571D02*
X54114285Y-19938571D01*
X54042857Y-20652857D01*
X54114285Y-20581428D01*
X54257142Y-20510000D01*
X54614285Y-20510000D01*
X54757142Y-20581428D01*
X54828571Y-20652857D01*
X54900000Y-20795714D01*
X54900000Y-21152857D01*
X54828571Y-21295714D01*
X54757142Y-21367142D01*
X54614285Y-21438571D01*
X54257142Y-21438571D01*
X54114285Y-21367142D01*
X54042857Y-21295714D01*
X55828571Y-19938571D02*
X55971428Y-19938571D01*
X56114285Y-20010000D01*
X56185714Y-20081428D01*
X56257142Y-20224285D01*
X56328571Y-20510000D01*
X56328571Y-20867142D01*
X56257142Y-21152857D01*
X56185714Y-21295714D01*
X56114285Y-21367142D01*
X55971428Y-21438571D01*
X55828571Y-21438571D01*
X55685714Y-21367142D01*
X55614285Y-21295714D01*
X55542857Y-21152857D01*
X55471428Y-20867142D01*
X55471428Y-20510000D01*
X55542857Y-20224285D01*
X55614285Y-20081428D01*
X55685714Y-20010000D01*
X55828571Y-19938571D01*
X57257142Y-19938571D02*
X57400000Y-19938571D01*
X57542857Y-20010000D01*
X57614285Y-20081428D01*
X57685714Y-20224285D01*
X57757142Y-20510000D01*
X57757142Y-20867142D01*
X57685714Y-21152857D01*
X57614285Y-21295714D01*
X57542857Y-21367142D01*
X57400000Y-21438571D01*
X57257142Y-21438571D01*
X57114285Y-21367142D01*
X57042857Y-21295714D01*
X56971428Y-21152857D01*
X56900000Y-20867142D01*
X56900000Y-20510000D01*
X56971428Y-20224285D01*
X57042857Y-20081428D01*
X57114285Y-20010000D01*
X57257142Y-19938571D01*
X58685714Y-19938571D02*
X58828571Y-19938571D01*
X58971428Y-20010000D01*
X59042857Y-20081428D01*
X59114285Y-20224285D01*
X59185714Y-20510000D01*
X59185714Y-20867142D01*
X59114285Y-21152857D01*
X59042857Y-21295714D01*
X58971428Y-21367142D01*
X58828571Y-21438571D01*
X58685714Y-21438571D01*
X58542857Y-21367142D01*
X58471428Y-21295714D01*
X58400000Y-21152857D01*
X58328571Y-20867142D01*
X58328571Y-20510000D01*
X58400000Y-20224285D01*
X58471428Y-20081428D01*
X58542857Y-20010000D01*
X58685714Y-19938571D01*
X60971428Y-21438571D02*
X60971428Y-20438571D01*
X60971428Y-19938571D02*
X60900000Y-20010000D01*
X60971428Y-20081428D01*
X61042857Y-20010000D01*
X60971428Y-19938571D01*
X60971428Y-20081428D01*
X61685714Y-20438571D02*
X61685714Y-21438571D01*
X61685714Y-20581428D02*
X61757142Y-20510000D01*
X61900000Y-20438571D01*
X62114285Y-20438571D01*
X62257142Y-20510000D01*
X62328571Y-20652857D01*
X62328571Y-21438571D01*
X25400000Y-22860000D02*
X88900000Y-22860000D01*
X25400000Y-25400000D02*
X25400000Y-22273579D01*
X88900000Y-25400000D02*
X88900000Y-22273579D01*
X88900000Y-22860000D02*
X87773496Y-23446421D01*
X88900000Y-22860000D02*
X87773496Y-22273579D01*
X25400000Y-22860000D02*
X26526504Y-23446421D01*
X25400000Y-22860000D02*
X26526504Y-22273579D01*
X21581428Y-59143771D02*
X21581428Y-60072342D01*
X21010000Y-59572342D01*
X21010000Y-59786628D01*
X20938571Y-59929485D01*
X20867142Y-60000914D01*
X20724285Y-60072342D01*
X20367142Y-60072342D01*
X20224285Y-60000914D01*
X20152857Y-59929485D01*
X20081428Y-59786628D01*
X20081428Y-59358057D01*
X20152857Y-59215200D01*
X20224285Y-59143771D01*
X20224285Y-60715200D02*
X20152857Y-60786628D01*
X20081428Y-60715200D01*
X20152857Y-60643771D01*
X20224285Y-60715200D01*
X20081428Y-60715200D01*
X21581428Y-61715200D02*
X21581428Y-61858057D01*
X21510000Y-62000914D01*
X21438571Y-62072342D01*
X21295714Y-62143771D01*
X21010000Y-62215200D01*
X20652857Y-62215200D01*
X20367142Y-62143771D01*
X20224285Y-62072342D01*
X20152857Y-62000914D01*
X20081428Y-61858057D01*
X20081428Y-61715200D01*
X20152857Y-61572342D01*
X20224285Y-61500914D01*
X20367142Y-61429485D01*
X20652857Y-61358057D01*
X21010000Y-61358057D01*
X21295714Y-61429485D01*
X21438571Y-61500914D01*
X21510000Y-61572342D01*
X21581428Y-61715200D01*
X21581428Y-62715200D02*
X21581428Y-63715200D01*
X20081428Y-63072342D01*
X21581428Y-64929485D02*
X21581428Y-64643771D01*
X21510000Y-64500914D01*
X21438571Y-64429485D01*
X21224285Y-64286628D01*
X20938571Y-64215200D01*
X20367142Y-64215199D01*
X20224285Y-64286628D01*
X20152857Y-64358057D01*
X20081428Y-64500914D01*
X20081428Y-64786628D01*
X20152857Y-64929485D01*
X20224285Y-65000914D01*
X20367142Y-65072342D01*
X20724285Y-65072342D01*
X20867142Y-65000914D01*
X20938571Y-64929485D01*
X21010000Y-64786628D01*
X21010000Y-64500914D01*
X20938571Y-64358057D01*
X20867142Y-64286628D01*
X20724285Y-64215200D01*
X21581428Y-66000914D02*
X21581428Y-66143771D01*
X21510000Y-66286628D01*
X21438571Y-66358057D01*
X21295714Y-66429485D01*
X21010000Y-66500914D01*
X20652857Y-66500914D01*
X20367142Y-66429485D01*
X20224285Y-66358057D01*
X20152857Y-66286628D01*
X20081428Y-66143771D01*
X20081428Y-66000914D01*
X20152857Y-65858057D01*
X20224285Y-65786628D01*
X20367142Y-65715200D01*
X20652857Y-65643771D01*
X21010000Y-65643771D01*
X21295714Y-65715200D01*
X21438571Y-65786628D01*
X21510000Y-65858057D01*
X21581428Y-66000914D01*
X20081428Y-68286628D02*
X21081428Y-68286628D01*
X21581428Y-68286628D02*
X21510000Y-68215200D01*
X21438571Y-68286628D01*
X21510000Y-68358057D01*
X21581428Y-68286628D01*
X21438571Y-68286628D01*
X21081428Y-69000914D02*
X20081428Y-69000914D01*
X20938571Y-69000914D02*
X21010000Y-69072342D01*
X21081428Y-69215200D01*
X21081428Y-69429485D01*
X21010000Y-69572342D01*
X20867142Y-69643771D01*
X20081428Y-69643771D01*
X22860000Y-25400000D02*
X22860000Y-103530400D01*
X25400000Y-25400000D02*
X22273579Y-25400000D01*
X25400000Y-103530400D02*
X22273579Y-103530400D01*
X22860000Y-103530400D02*
X22273579Y-102403896D01*
X22860000Y-103530400D02*
X23446421Y-102403896D01*
X22860000Y-25400000D02*
X22273579Y-26526504D01*
X22860000Y-25400000D02*
X23446421Y-26526504D01*
M02*
