G04 #@! TF.GenerationSoftware,KiCad,Pcbnew,5.0.0*
G04 #@! TF.CreationDate,2018-09-28T17:58:42-07:00*
G04 #@! TF.ProjectId,HSMC-GPIO-kicad,48534D432D4750494F2D6B696361642E,rev?*
G04 #@! TF.SameCoordinates,Original*
G04 #@! TF.FileFunction,Legend,Top*
G04 #@! TF.FilePolarity,Positive*
%FSLAX46Y46*%
G04 Gerber Fmt 4.6, Leading zero omitted, Abs format (unit mm)*
G04 Created by KiCad (PCBNEW 5.0.0) date Fri Sep 28 17:58:42 2018*
%MOMM*%
%LPD*%
G01*
G04 APERTURE LIST*
%ADD10C,0.300000*%
%ADD11C,0.120000*%
%ADD12C,0.150000*%
G04 APERTURE END LIST*
D10*
X34692000Y-74973571D02*
X34692000Y-73473571D01*
X34692000Y-74187857D02*
X35549142Y-74187857D01*
X35549142Y-74973571D02*
X35549142Y-73473571D01*
X36192000Y-74902142D02*
X36406285Y-74973571D01*
X36763428Y-74973571D01*
X36906285Y-74902142D01*
X36977714Y-74830714D01*
X37049142Y-74687857D01*
X37049142Y-74545000D01*
X36977714Y-74402142D01*
X36906285Y-74330714D01*
X36763428Y-74259285D01*
X36477714Y-74187857D01*
X36334857Y-74116428D01*
X36263428Y-74045000D01*
X36192000Y-73902142D01*
X36192000Y-73759285D01*
X36263428Y-73616428D01*
X36334857Y-73545000D01*
X36477714Y-73473571D01*
X36834857Y-73473571D01*
X37049142Y-73545000D01*
X37692000Y-74973571D02*
X37692000Y-73473571D01*
X38192000Y-74545000D01*
X38692000Y-73473571D01*
X38692000Y-74973571D01*
X40263428Y-74830714D02*
X40192000Y-74902142D01*
X39977714Y-74973571D01*
X39834857Y-74973571D01*
X39620571Y-74902142D01*
X39477714Y-74759285D01*
X39406285Y-74616428D01*
X39334857Y-74330714D01*
X39334857Y-74116428D01*
X39406285Y-73830714D01*
X39477714Y-73687857D01*
X39620571Y-73545000D01*
X39834857Y-73473571D01*
X39977714Y-73473571D01*
X40192000Y-73545000D01*
X40263428Y-73616428D01*
X40906285Y-74402142D02*
X42049142Y-74402142D01*
X43549142Y-73545000D02*
X43406285Y-73473571D01*
X43192000Y-73473571D01*
X42977714Y-73545000D01*
X42834857Y-73687857D01*
X42763428Y-73830714D01*
X42692000Y-74116428D01*
X42692000Y-74330714D01*
X42763428Y-74616428D01*
X42834857Y-74759285D01*
X42977714Y-74902142D01*
X43192000Y-74973571D01*
X43334857Y-74973571D01*
X43549142Y-74902142D01*
X43620571Y-74830714D01*
X43620571Y-74330714D01*
X43334857Y-74330714D01*
X44263428Y-74973571D02*
X44263428Y-73473571D01*
X44834857Y-73473571D01*
X44977714Y-73545000D01*
X45049142Y-73616428D01*
X45120571Y-73759285D01*
X45120571Y-73973571D01*
X45049142Y-74116428D01*
X44977714Y-74187857D01*
X44834857Y-74259285D01*
X44263428Y-74259285D01*
X45763428Y-74973571D02*
X45763428Y-73473571D01*
X46763428Y-73473571D02*
X47049142Y-73473571D01*
X47192000Y-73545000D01*
X47334857Y-73687857D01*
X47406285Y-73973571D01*
X47406285Y-74473571D01*
X47334857Y-74759285D01*
X47192000Y-74902142D01*
X47049142Y-74973571D01*
X46763428Y-74973571D01*
X46620571Y-74902142D01*
X46477714Y-74759285D01*
X46406285Y-74473571D01*
X46406285Y-73973571D01*
X46477714Y-73687857D01*
X46620571Y-73545000D01*
X46763428Y-73473571D01*
X49049142Y-73973571D02*
X49406285Y-74973571D01*
X49763428Y-73973571D01*
X51120571Y-74973571D02*
X50263428Y-74973571D01*
X50692000Y-74973571D02*
X50692000Y-73473571D01*
X50549142Y-73687857D01*
X50406285Y-73830714D01*
X50263428Y-73902142D01*
X51763428Y-74830714D02*
X51834857Y-74902142D01*
X51763428Y-74973571D01*
X51692000Y-74902142D01*
X51763428Y-74830714D01*
X51763428Y-74973571D01*
X53263428Y-74973571D02*
X52406285Y-74973571D01*
X52834857Y-74973571D02*
X52834857Y-73473571D01*
X52692000Y-73687857D01*
X52549142Y-73830714D01*
X52406285Y-73902142D01*
X57346852Y-92471178D02*
X57203995Y-92399749D01*
X56989710Y-92399749D01*
X56775424Y-92471178D01*
X56632567Y-92614035D01*
X56561138Y-92756892D01*
X56489710Y-93042606D01*
X56489710Y-93256892D01*
X56561138Y-93542606D01*
X56632567Y-93685463D01*
X56775424Y-93828320D01*
X56989710Y-93899749D01*
X57132567Y-93899749D01*
X57346852Y-93828320D01*
X57418281Y-93756892D01*
X57418281Y-93256892D01*
X57132567Y-93256892D01*
X58061138Y-93899749D02*
X58061138Y-92399749D01*
X58918281Y-93899749D01*
X58918281Y-92399749D01*
X59632567Y-93899749D02*
X59632567Y-92399749D01*
X59989710Y-92399749D01*
X60203995Y-92471178D01*
X60346852Y-92614035D01*
X60418281Y-92756892D01*
X60489710Y-93042606D01*
X60489710Y-93256892D01*
X60418281Y-93542606D01*
X60346852Y-93685463D01*
X60203995Y-93828320D01*
X59989710Y-93899749D01*
X59632567Y-93899749D01*
X73026154Y-93899749D02*
X72169011Y-93899749D01*
X72597583Y-93899749D02*
X72597583Y-92399749D01*
X72454726Y-92614035D01*
X72311868Y-92756892D01*
X72169011Y-92828320D01*
X73597583Y-92542606D02*
X73669011Y-92471178D01*
X73811868Y-92399749D01*
X74169011Y-92399749D01*
X74311868Y-92471178D01*
X74383297Y-92542606D01*
X74454726Y-92685463D01*
X74454726Y-92828320D01*
X74383297Y-93042606D01*
X73526154Y-93899749D01*
X74454726Y-93899749D01*
X74883297Y-92399749D02*
X75383297Y-93899749D01*
X75883297Y-92399749D01*
X68589011Y-92399749D02*
X67874726Y-92399749D01*
X67803297Y-93114035D01*
X67874726Y-93042606D01*
X68017583Y-92971178D01*
X68374726Y-92971178D01*
X68517583Y-93042606D01*
X68589011Y-93114035D01*
X68660440Y-93256892D01*
X68660440Y-93614035D01*
X68589011Y-93756892D01*
X68517583Y-93828320D01*
X68374726Y-93899749D01*
X68017583Y-93899749D01*
X67874726Y-93828320D01*
X67803297Y-93756892D01*
X69089011Y-92399749D02*
X69589011Y-93899749D01*
X70089011Y-92399749D01*
X61580440Y-92399749D02*
X62509011Y-92399749D01*
X62009011Y-92971178D01*
X62223297Y-92971178D01*
X62366154Y-93042606D01*
X62437583Y-93114035D01*
X62509011Y-93256892D01*
X62509011Y-93614035D01*
X62437583Y-93756892D01*
X62366154Y-93828320D01*
X62223297Y-93899749D01*
X61794726Y-93899749D01*
X61651868Y-93828320D01*
X61580440Y-93756892D01*
X63151868Y-93756892D02*
X63223297Y-93828320D01*
X63151868Y-93899749D01*
X63080440Y-93828320D01*
X63151868Y-93756892D01*
X63151868Y-93899749D01*
X63723297Y-92399749D02*
X64651868Y-92399749D01*
X64151868Y-92971178D01*
X64366154Y-92971178D01*
X64509011Y-93042606D01*
X64580440Y-93114035D01*
X64651868Y-93256892D01*
X64651868Y-93614035D01*
X64580440Y-93756892D01*
X64509011Y-93828320D01*
X64366154Y-93899749D01*
X63937583Y-93899749D01*
X63794726Y-93828320D01*
X63723297Y-93756892D01*
X65080440Y-92399749D02*
X65580440Y-93899749D01*
X66080440Y-92399749D01*
X55312571Y-46890714D02*
X56812571Y-46390714D01*
X55312571Y-45890714D01*
X56812571Y-45390714D02*
X55312571Y-45390714D01*
X55455428Y-44747857D02*
X55384000Y-44676428D01*
X55312571Y-44533571D01*
X55312571Y-44176428D01*
X55384000Y-44033571D01*
X55455428Y-43962142D01*
X55598285Y-43890714D01*
X55741142Y-43890714D01*
X55955428Y-43962142D01*
X56812571Y-44819285D01*
X56812571Y-43890714D01*
X56669714Y-42390714D02*
X56741142Y-42462142D01*
X56812571Y-42676428D01*
X56812571Y-42819285D01*
X56741142Y-43033571D01*
X56598285Y-43176428D01*
X56455428Y-43247857D01*
X56169714Y-43319285D01*
X55955428Y-43319285D01*
X55669714Y-43247857D01*
X55526857Y-43176428D01*
X55384000Y-43033571D01*
X55312571Y-42819285D01*
X55312571Y-42676428D01*
X55384000Y-42462142D01*
X55455428Y-42390714D01*
X57852571Y-43747857D02*
X57852571Y-44462142D01*
X58566857Y-44533571D01*
X58495428Y-44462142D01*
X58424000Y-44319285D01*
X58424000Y-43962142D01*
X58495428Y-43819285D01*
X58566857Y-43747857D01*
X58709714Y-43676428D01*
X59066857Y-43676428D01*
X59209714Y-43747857D01*
X59281142Y-43819285D01*
X59352571Y-43962142D01*
X59352571Y-44319285D01*
X59281142Y-44462142D01*
X59209714Y-44533571D01*
X57852571Y-43247857D02*
X59352571Y-42747857D01*
X57852571Y-42247857D01*
X52772571Y-46747857D02*
X52772571Y-45819285D01*
X53344000Y-46319285D01*
X53344000Y-46105000D01*
X53415428Y-45962142D01*
X53486857Y-45890714D01*
X53629714Y-45819285D01*
X53986857Y-45819285D01*
X54129714Y-45890714D01*
X54201142Y-45962142D01*
X54272571Y-46105000D01*
X54272571Y-46533571D01*
X54201142Y-46676428D01*
X54129714Y-46747857D01*
X54129714Y-45176428D02*
X54201142Y-45105000D01*
X54272571Y-45176428D01*
X54201142Y-45247857D01*
X54129714Y-45176428D01*
X54272571Y-45176428D01*
X52772571Y-44605000D02*
X52772571Y-43676428D01*
X53344000Y-44176428D01*
X53344000Y-43962142D01*
X53415428Y-43819285D01*
X53486857Y-43747857D01*
X53629714Y-43676428D01*
X53986857Y-43676428D01*
X54129714Y-43747857D01*
X54201142Y-43819285D01*
X54272571Y-43962142D01*
X54272571Y-44390714D01*
X54201142Y-44533571D01*
X54129714Y-44605000D01*
X52772571Y-43247857D02*
X54272571Y-42747857D01*
X52772571Y-42247857D01*
X72473608Y-29880057D02*
X70973608Y-30380057D01*
X72473608Y-30880057D01*
X70973608Y-31380057D02*
X72473608Y-31380057D01*
X72330751Y-32022914D02*
X72402180Y-32094342D01*
X72473608Y-32237200D01*
X72473608Y-32594342D01*
X72402180Y-32737200D01*
X72330751Y-32808628D01*
X72187894Y-32880057D01*
X72045037Y-32880057D01*
X71830751Y-32808628D01*
X70973608Y-31951485D01*
X70973608Y-32880057D01*
X71116465Y-34380057D02*
X71045037Y-34308628D01*
X70973608Y-34094342D01*
X70973608Y-33951485D01*
X71045037Y-33737200D01*
X71187894Y-33594342D01*
X71330751Y-33522914D01*
X71616465Y-33451485D01*
X71830751Y-33451485D01*
X72116465Y-33522914D01*
X72259322Y-33594342D01*
X72402180Y-33737200D01*
X72473608Y-33951485D01*
X72473608Y-34094342D01*
X72402180Y-34308628D01*
X72330751Y-34380057D01*
X67322180Y-30880057D02*
X67393608Y-30737200D01*
X67393608Y-30522914D01*
X67322180Y-30308628D01*
X67179322Y-30165771D01*
X67036465Y-30094342D01*
X66750751Y-30022914D01*
X66536465Y-30022914D01*
X66250751Y-30094342D01*
X66107894Y-30165771D01*
X65965037Y-30308628D01*
X65893608Y-30522914D01*
X65893608Y-30665771D01*
X65965037Y-30880057D01*
X66036465Y-30951485D01*
X66536465Y-30951485D01*
X66536465Y-30665771D01*
X65893608Y-31594342D02*
X67393608Y-31594342D01*
X65893608Y-32451485D01*
X67393608Y-32451485D01*
X65893608Y-33165771D02*
X67393608Y-33165771D01*
X67393608Y-33522914D01*
X67322180Y-33737200D01*
X67179322Y-33880057D01*
X67036465Y-33951485D01*
X66750751Y-34022914D01*
X66536465Y-34022914D01*
X66250751Y-33951485D01*
X66107894Y-33880057D01*
X65965037Y-33737200D01*
X65893608Y-33522914D01*
X65893608Y-33165771D01*
X68505037Y-30022914D02*
X68433608Y-30237200D01*
X68433608Y-30594342D01*
X68505037Y-30737200D01*
X68576465Y-30808628D01*
X68719322Y-30880057D01*
X68862180Y-30880057D01*
X69005037Y-30808628D01*
X69076465Y-30737200D01*
X69147894Y-30594342D01*
X69219322Y-30308628D01*
X69290751Y-30165771D01*
X69362180Y-30094342D01*
X69505037Y-30022914D01*
X69647894Y-30022914D01*
X69790751Y-30094342D01*
X69862180Y-30165771D01*
X69933608Y-30308628D01*
X69933608Y-30665771D01*
X69862180Y-30880057D01*
X68433608Y-31522914D02*
X69933608Y-31522914D01*
X69933608Y-31880057D01*
X69862180Y-32094342D01*
X69719322Y-32237200D01*
X69576465Y-32308628D01*
X69290751Y-32380057D01*
X69076465Y-32380057D01*
X68790751Y-32308628D01*
X68647894Y-32237200D01*
X68505037Y-32094342D01*
X68433608Y-31880057D01*
X68433608Y-31522914D01*
X68862180Y-32951485D02*
X68862180Y-33665771D01*
X68433608Y-32808628D02*
X69933608Y-33308628D01*
X68433608Y-33808628D01*
X63425037Y-30022914D02*
X63353608Y-30237200D01*
X63353608Y-30594342D01*
X63425037Y-30737200D01*
X63496465Y-30808628D01*
X63639322Y-30880057D01*
X63782180Y-30880057D01*
X63925037Y-30808628D01*
X63996465Y-30737200D01*
X64067894Y-30594342D01*
X64139322Y-30308628D01*
X64210751Y-30165771D01*
X64282180Y-30094342D01*
X64425037Y-30022914D01*
X64567894Y-30022914D01*
X64710751Y-30094342D01*
X64782180Y-30165771D01*
X64853608Y-30308628D01*
X64853608Y-30665771D01*
X64782180Y-30880057D01*
X63496465Y-32380057D02*
X63425037Y-32308628D01*
X63353608Y-32094342D01*
X63353608Y-31951485D01*
X63425037Y-31737200D01*
X63567894Y-31594342D01*
X63710751Y-31522914D01*
X63996465Y-31451485D01*
X64210751Y-31451485D01*
X64496465Y-31522914D01*
X64639322Y-31594342D01*
X64782180Y-31737200D01*
X64853608Y-31951485D01*
X64853608Y-32094342D01*
X64782180Y-32308628D01*
X64710751Y-32380057D01*
X63353608Y-33737200D02*
X63353608Y-33022914D01*
X64853608Y-33022914D01*
D11*
G04 #@! TO.C,D27*
X72711710Y-74810200D02*
X71251710Y-74810200D01*
X72711710Y-71650200D02*
X70551710Y-71650200D01*
X72711710Y-71650200D02*
X72711710Y-72580200D01*
X72711710Y-74810200D02*
X72711710Y-73880200D01*
G04 #@! TO.C,D3*
X72711710Y-44330200D02*
X71251710Y-44330200D01*
X72711710Y-41170200D02*
X70551710Y-41170200D01*
X72711710Y-41170200D02*
X72711710Y-42100200D01*
X72711710Y-44330200D02*
X72711710Y-43400200D01*
G04 #@! TO.C,D11*
X72711710Y-54490200D02*
X71251710Y-54490200D01*
X72711710Y-51330200D02*
X70551710Y-51330200D01*
X72711710Y-51330200D02*
X72711710Y-52260200D01*
X72711710Y-54490200D02*
X72711710Y-53560200D01*
G04 #@! TO.C,D19*
X72711710Y-64650200D02*
X71251710Y-64650200D01*
X72711710Y-61490200D02*
X70551710Y-61490200D01*
X72711710Y-61490200D02*
X72711710Y-62420200D01*
X72711710Y-64650200D02*
X72711710Y-63720200D01*
G04 #@! TO.C,D15*
X72711710Y-59570200D02*
X71251710Y-59570200D01*
X72711710Y-56410200D02*
X70551710Y-56410200D01*
X72711710Y-56410200D02*
X72711710Y-57340200D01*
X72711710Y-59570200D02*
X72711710Y-58640200D01*
G04 #@! TO.C,D31*
X72711710Y-79890200D02*
X71251710Y-79890200D01*
X72711710Y-76730200D02*
X70551710Y-76730200D01*
X72711710Y-76730200D02*
X72711710Y-77660200D01*
X72711710Y-79890200D02*
X72711710Y-78960200D01*
G04 #@! TO.C,D35*
X72711710Y-84970200D02*
X71251710Y-84970200D01*
X72711710Y-81810200D02*
X70551710Y-81810200D01*
X72711710Y-81810200D02*
X72711710Y-82740200D01*
X72711710Y-84970200D02*
X72711710Y-84040200D01*
G04 #@! TO.C,D23*
X72711710Y-69730200D02*
X71251710Y-69730200D01*
X72711710Y-66570200D02*
X70551710Y-66570200D01*
X72711710Y-66570200D02*
X72711710Y-67500200D01*
X72711710Y-69730200D02*
X72711710Y-68800200D01*
G04 #@! TO.C,D7*
X72711710Y-49410200D02*
X71251710Y-49410200D01*
X72711710Y-46250200D02*
X70551710Y-46250200D01*
X72711710Y-46250200D02*
X72711710Y-47180200D01*
X72711710Y-49410200D02*
X72711710Y-48480200D01*
G04 #@! TO.C,R41*
X50998710Y-36415949D02*
X50998710Y-36090391D01*
X49978710Y-36415949D02*
X49978710Y-36090391D01*
G04 #@! TO.C,R44*
X62174710Y-36415949D02*
X62174710Y-36090391D01*
X61154710Y-36415949D02*
X61154710Y-36090391D01*
D12*
G04 #@! TO.C,U2*
X58151710Y-37355670D02*
X59551710Y-37355670D01*
X58151710Y-32255670D02*
X54001710Y-32255670D01*
X58151710Y-37405670D02*
X54001710Y-37405670D01*
X58151710Y-32255670D02*
X58151710Y-32400670D01*
X54001710Y-32255670D02*
X54001710Y-32400670D01*
X54001710Y-37405670D02*
X54001710Y-37260670D01*
X58151710Y-37405670D02*
X58151710Y-37355670D01*
D11*
G04 #@! TO.C,C3*
X43745510Y-50485410D02*
X43745510Y-54695410D01*
X46765510Y-50485410D02*
X43745510Y-50485410D01*
X46765510Y-54695410D02*
X46765510Y-50485410D01*
G04 #@! TO.C,C2*
X39173510Y-50485410D02*
X39173510Y-54695410D01*
X42193510Y-50485410D02*
X39173510Y-50485410D01*
X42193510Y-54695410D02*
X42193510Y-50485410D01*
G04 #@! TO.C,D37*
X76521710Y-87510200D02*
X75061710Y-87510200D01*
X76521710Y-84350200D02*
X74361710Y-84350200D01*
X76521710Y-84350200D02*
X76521710Y-85280200D01*
X76521710Y-87510200D02*
X76521710Y-86580200D01*
G04 #@! TO.C,D1*
X76521710Y-41790200D02*
X75061710Y-41790200D01*
X76521710Y-38630200D02*
X74361710Y-38630200D01*
X76521710Y-38630200D02*
X76521710Y-39560200D01*
X76521710Y-41790200D02*
X76521710Y-40860200D01*
G04 #@! TO.C,D33*
X76521710Y-82430200D02*
X75061710Y-82430200D01*
X76521710Y-79270200D02*
X74361710Y-79270200D01*
X76521710Y-79270200D02*
X76521710Y-80200200D01*
X76521710Y-82430200D02*
X76521710Y-81500200D01*
G04 #@! TO.C,D9*
X76521710Y-51950200D02*
X75061710Y-51950200D01*
X76521710Y-48790200D02*
X74361710Y-48790200D01*
X76521710Y-48790200D02*
X76521710Y-49720200D01*
X76521710Y-51950200D02*
X76521710Y-51020200D01*
G04 #@! TO.C,D5*
X76521710Y-46870200D02*
X75061710Y-46870200D01*
X76521710Y-43710200D02*
X74361710Y-43710200D01*
X76521710Y-43710200D02*
X76521710Y-44640200D01*
X76521710Y-46870200D02*
X76521710Y-45940200D01*
G04 #@! TO.C,D17*
X76521710Y-62110200D02*
X75061710Y-62110200D01*
X76521710Y-58950200D02*
X74361710Y-58950200D01*
X76521710Y-58950200D02*
X76521710Y-59880200D01*
X76521710Y-62110200D02*
X76521710Y-61180200D01*
G04 #@! TO.C,D13*
X76521710Y-57030200D02*
X75061710Y-57030200D01*
X76521710Y-53870200D02*
X74361710Y-53870200D01*
X76521710Y-53870200D02*
X76521710Y-54800200D01*
X76521710Y-57030200D02*
X76521710Y-56100200D01*
G04 #@! TO.C,D21*
X76521710Y-67190200D02*
X75061710Y-67190200D01*
X76521710Y-64030200D02*
X74361710Y-64030200D01*
X76521710Y-64030200D02*
X76521710Y-64960200D01*
X76521710Y-67190200D02*
X76521710Y-66260200D01*
G04 #@! TO.C,D29*
X76521710Y-77350200D02*
X75061710Y-77350200D01*
X76521710Y-74190200D02*
X74361710Y-74190200D01*
X76521710Y-74190200D02*
X76521710Y-75120200D01*
X76521710Y-77350200D02*
X76521710Y-76420200D01*
G04 #@! TO.C,D25*
X76521710Y-72270200D02*
X75061710Y-72270200D01*
X76521710Y-69110200D02*
X74361710Y-69110200D01*
X76521710Y-69110200D02*
X76521710Y-70040200D01*
X76521710Y-72270200D02*
X76521710Y-71340200D01*
G04 #@! TO.C,D39*
X72711710Y-90050200D02*
X71251710Y-90050200D01*
X72711710Y-86890200D02*
X70551710Y-86890200D01*
X72711710Y-86890200D02*
X72711710Y-87820200D01*
X72711710Y-90050200D02*
X72711710Y-89120200D01*
G04 #@! TO.C,J4*
X55949710Y-102440200D02*
X76269710Y-102440200D01*
X55949710Y-94820200D02*
X76269710Y-94820200D01*
X76269710Y-101170200D02*
X55949710Y-101170200D01*
X76269710Y-102440200D02*
X76269710Y-94820200D01*
X55949710Y-94820200D02*
X55949710Y-102440200D01*
G04 #@! TO.C,U1*
X46143510Y-46883910D02*
X46143510Y-47983910D01*
X46413510Y-46883910D02*
X46143510Y-46883910D01*
X46413510Y-45383910D02*
X46413510Y-46883910D01*
X39783510Y-46883910D02*
X39783510Y-49713910D01*
X39513510Y-46883910D02*
X39783510Y-46883910D01*
X39513510Y-45383910D02*
X39513510Y-46883910D01*
G04 #@! TO.C,R35*
X68558489Y-82880200D02*
X68232931Y-82880200D01*
X68558489Y-83900200D02*
X68232931Y-83900200D01*
G04 #@! TO.C,R11*
X68558489Y-52400200D02*
X68232931Y-52400200D01*
X68558489Y-53420200D02*
X68232931Y-53420200D01*
G04 #@! TO.C,R29*
X68558489Y-75260200D02*
X68232931Y-75260200D01*
X68558489Y-76280200D02*
X68232931Y-76280200D01*
G04 #@! TO.C,R33*
X68558489Y-80340200D02*
X68232931Y-80340200D01*
X68558489Y-81360200D02*
X68232931Y-81360200D01*
G04 #@! TO.C,R5*
X68558489Y-44780200D02*
X68232931Y-44780200D01*
X68558489Y-45800200D02*
X68232931Y-45800200D01*
G04 #@! TO.C,R7*
X68558489Y-47320200D02*
X68232931Y-47320200D01*
X68558489Y-48340200D02*
X68232931Y-48340200D01*
G04 #@! TO.C,R9*
X68558489Y-49860200D02*
X68232931Y-49860200D01*
X68558489Y-50880200D02*
X68232931Y-50880200D01*
G04 #@! TO.C,R13*
X68558489Y-54940200D02*
X68232931Y-54940200D01*
X68558489Y-55960200D02*
X68232931Y-55960200D01*
G04 #@! TO.C,R37*
X68558489Y-85420200D02*
X68232931Y-85420200D01*
X68558489Y-86440200D02*
X68232931Y-86440200D01*
G04 #@! TO.C,R3*
X68558489Y-42240200D02*
X68232931Y-42240200D01*
X68558489Y-43260200D02*
X68232931Y-43260200D01*
G04 #@! TO.C,R15*
X68558489Y-57480200D02*
X68232931Y-57480200D01*
X68558489Y-58500200D02*
X68232931Y-58500200D01*
G04 #@! TO.C,R17*
X68558489Y-60020200D02*
X68232931Y-60020200D01*
X68558489Y-61040200D02*
X68232931Y-61040200D01*
G04 #@! TO.C,R19*
X68558489Y-62560200D02*
X68232931Y-62560200D01*
X68558489Y-63580200D02*
X68232931Y-63580200D01*
G04 #@! TO.C,R21*
X68558489Y-65100200D02*
X68232931Y-65100200D01*
X68558489Y-66120200D02*
X68232931Y-66120200D01*
G04 #@! TO.C,R23*
X68558489Y-67640200D02*
X68232931Y-67640200D01*
X68558489Y-68660200D02*
X68232931Y-68660200D01*
G04 #@! TO.C,R25*
X68558489Y-70180200D02*
X68232931Y-70180200D01*
X68558489Y-71200200D02*
X68232931Y-71200200D01*
G04 #@! TO.C,R27*
X68558489Y-72720200D02*
X68232931Y-72720200D01*
X68558489Y-73740200D02*
X68232931Y-73740200D01*
G04 #@! TO.C,R31*
X68558489Y-77800200D02*
X68232931Y-77800200D01*
X68558489Y-78820200D02*
X68232931Y-78820200D01*
G04 #@! TO.C,R39*
X68558489Y-87960200D02*
X68232931Y-87960200D01*
X68558489Y-88980200D02*
X68232931Y-88980200D01*
G04 #@! TO.C,R1*
X68558489Y-39700200D02*
X68232931Y-39700200D01*
X68558489Y-40720200D02*
X68232931Y-40720200D01*
G04 #@! TO.C,J3*
X73154710Y-26434200D02*
X73154710Y-27764200D01*
X71824710Y-26434200D02*
X73154710Y-26434200D01*
X70554710Y-26434200D02*
X70554710Y-29094200D01*
X70554710Y-29094200D02*
X62874710Y-29094200D01*
X70554710Y-26434200D02*
X62874710Y-26434200D01*
X62874710Y-26434200D02*
X62874710Y-29094200D01*
G04 #@! TO.C,C4*
X47085510Y-47339332D02*
X47085510Y-47856488D01*
X48505510Y-47339332D02*
X48505510Y-47856488D01*
G04 #@! TO.C,J5*
X78186710Y-34610200D02*
X80726710Y-34610200D01*
X78186710Y-34610200D02*
X78186710Y-37150200D01*
X78436710Y-34860200D02*
X87786710Y-34860200D01*
X78436710Y-93820200D02*
X78436710Y-34860200D01*
X87786710Y-93820200D02*
X78436710Y-93820200D01*
X87786710Y-34860200D02*
X87786710Y-93820200D01*
G04 #@! TO.C,JP1*
X52264000Y-41462000D02*
X52264000Y-40132000D01*
X53594000Y-41462000D02*
X52264000Y-41462000D01*
X54864000Y-41462000D02*
X54864000Y-38802000D01*
X54864000Y-38802000D02*
X60004000Y-38802000D01*
X54864000Y-41462000D02*
X60004000Y-41462000D01*
X60004000Y-41462000D02*
X60004000Y-38802000D01*
G04 #@! TO.C,D27*
D12*
X70737424Y-71182580D02*
X70737424Y-70182580D01*
X70975519Y-70182580D01*
X71118376Y-70230200D01*
X71213614Y-70325438D01*
X71261233Y-70420676D01*
X71308852Y-70611152D01*
X71308852Y-70754009D01*
X71261233Y-70944485D01*
X71213614Y-71039723D01*
X71118376Y-71134961D01*
X70975519Y-71182580D01*
X70737424Y-71182580D01*
X71689805Y-70277819D02*
X71737424Y-70230200D01*
X71832662Y-70182580D01*
X72070757Y-70182580D01*
X72165995Y-70230200D01*
X72213614Y-70277819D01*
X72261233Y-70373057D01*
X72261233Y-70468295D01*
X72213614Y-70611152D01*
X71642186Y-71182580D01*
X72261233Y-71182580D01*
X72594567Y-70182580D02*
X73261233Y-70182580D01*
X72832662Y-71182580D01*
G04 #@! TO.C,D3*
X71213614Y-40702580D02*
X71213614Y-39702580D01*
X71451710Y-39702580D01*
X71594567Y-39750200D01*
X71689805Y-39845438D01*
X71737424Y-39940676D01*
X71785043Y-40131152D01*
X71785043Y-40274009D01*
X71737424Y-40464485D01*
X71689805Y-40559723D01*
X71594567Y-40654961D01*
X71451710Y-40702580D01*
X71213614Y-40702580D01*
X72118376Y-39702580D02*
X72737424Y-39702580D01*
X72404090Y-40083533D01*
X72546948Y-40083533D01*
X72642186Y-40131152D01*
X72689805Y-40178771D01*
X72737424Y-40274009D01*
X72737424Y-40512104D01*
X72689805Y-40607342D01*
X72642186Y-40654961D01*
X72546948Y-40702580D01*
X72261233Y-40702580D01*
X72165995Y-40654961D01*
X72118376Y-40607342D01*
G04 #@! TO.C,D11*
X70737424Y-50862580D02*
X70737424Y-49862580D01*
X70975519Y-49862580D01*
X71118376Y-49910200D01*
X71213614Y-50005438D01*
X71261233Y-50100676D01*
X71308852Y-50291152D01*
X71308852Y-50434009D01*
X71261233Y-50624485D01*
X71213614Y-50719723D01*
X71118376Y-50814961D01*
X70975519Y-50862580D01*
X70737424Y-50862580D01*
X72261233Y-50862580D02*
X71689805Y-50862580D01*
X71975519Y-50862580D02*
X71975519Y-49862580D01*
X71880281Y-50005438D01*
X71785043Y-50100676D01*
X71689805Y-50148295D01*
X73213614Y-50862580D02*
X72642186Y-50862580D01*
X72927900Y-50862580D02*
X72927900Y-49862580D01*
X72832662Y-50005438D01*
X72737424Y-50100676D01*
X72642186Y-50148295D01*
G04 #@! TO.C,D19*
X70737424Y-61022580D02*
X70737424Y-60022580D01*
X70975519Y-60022580D01*
X71118376Y-60070200D01*
X71213614Y-60165438D01*
X71261233Y-60260676D01*
X71308852Y-60451152D01*
X71308852Y-60594009D01*
X71261233Y-60784485D01*
X71213614Y-60879723D01*
X71118376Y-60974961D01*
X70975519Y-61022580D01*
X70737424Y-61022580D01*
X72261233Y-61022580D02*
X71689805Y-61022580D01*
X71975519Y-61022580D02*
X71975519Y-60022580D01*
X71880281Y-60165438D01*
X71785043Y-60260676D01*
X71689805Y-60308295D01*
X72737424Y-61022580D02*
X72927900Y-61022580D01*
X73023138Y-60974961D01*
X73070757Y-60927342D01*
X73165995Y-60784485D01*
X73213614Y-60594009D01*
X73213614Y-60213057D01*
X73165995Y-60117819D01*
X73118376Y-60070200D01*
X73023138Y-60022580D01*
X72832662Y-60022580D01*
X72737424Y-60070200D01*
X72689805Y-60117819D01*
X72642186Y-60213057D01*
X72642186Y-60451152D01*
X72689805Y-60546390D01*
X72737424Y-60594009D01*
X72832662Y-60641628D01*
X73023138Y-60641628D01*
X73118376Y-60594009D01*
X73165995Y-60546390D01*
X73213614Y-60451152D01*
G04 #@! TO.C,D15*
X70737424Y-55942580D02*
X70737424Y-54942580D01*
X70975519Y-54942580D01*
X71118376Y-54990200D01*
X71213614Y-55085438D01*
X71261233Y-55180676D01*
X71308852Y-55371152D01*
X71308852Y-55514009D01*
X71261233Y-55704485D01*
X71213614Y-55799723D01*
X71118376Y-55894961D01*
X70975519Y-55942580D01*
X70737424Y-55942580D01*
X72261233Y-55942580D02*
X71689805Y-55942580D01*
X71975519Y-55942580D02*
X71975519Y-54942580D01*
X71880281Y-55085438D01*
X71785043Y-55180676D01*
X71689805Y-55228295D01*
X73165995Y-54942580D02*
X72689805Y-54942580D01*
X72642186Y-55418771D01*
X72689805Y-55371152D01*
X72785043Y-55323533D01*
X73023138Y-55323533D01*
X73118376Y-55371152D01*
X73165995Y-55418771D01*
X73213614Y-55514009D01*
X73213614Y-55752104D01*
X73165995Y-55847342D01*
X73118376Y-55894961D01*
X73023138Y-55942580D01*
X72785043Y-55942580D01*
X72689805Y-55894961D01*
X72642186Y-55847342D01*
G04 #@! TO.C,D31*
X70737424Y-76262580D02*
X70737424Y-75262580D01*
X70975519Y-75262580D01*
X71118376Y-75310200D01*
X71213614Y-75405438D01*
X71261233Y-75500676D01*
X71308852Y-75691152D01*
X71308852Y-75834009D01*
X71261233Y-76024485D01*
X71213614Y-76119723D01*
X71118376Y-76214961D01*
X70975519Y-76262580D01*
X70737424Y-76262580D01*
X71642186Y-75262580D02*
X72261233Y-75262580D01*
X71927900Y-75643533D01*
X72070757Y-75643533D01*
X72165995Y-75691152D01*
X72213614Y-75738771D01*
X72261233Y-75834009D01*
X72261233Y-76072104D01*
X72213614Y-76167342D01*
X72165995Y-76214961D01*
X72070757Y-76262580D01*
X71785043Y-76262580D01*
X71689805Y-76214961D01*
X71642186Y-76167342D01*
X73213614Y-76262580D02*
X72642186Y-76262580D01*
X72927900Y-76262580D02*
X72927900Y-75262580D01*
X72832662Y-75405438D01*
X72737424Y-75500676D01*
X72642186Y-75548295D01*
G04 #@! TO.C,D35*
X70737424Y-81342580D02*
X70737424Y-80342580D01*
X70975519Y-80342580D01*
X71118376Y-80390200D01*
X71213614Y-80485438D01*
X71261233Y-80580676D01*
X71308852Y-80771152D01*
X71308852Y-80914009D01*
X71261233Y-81104485D01*
X71213614Y-81199723D01*
X71118376Y-81294961D01*
X70975519Y-81342580D01*
X70737424Y-81342580D01*
X71642186Y-80342580D02*
X72261233Y-80342580D01*
X71927900Y-80723533D01*
X72070757Y-80723533D01*
X72165995Y-80771152D01*
X72213614Y-80818771D01*
X72261233Y-80914009D01*
X72261233Y-81152104D01*
X72213614Y-81247342D01*
X72165995Y-81294961D01*
X72070757Y-81342580D01*
X71785043Y-81342580D01*
X71689805Y-81294961D01*
X71642186Y-81247342D01*
X73165995Y-80342580D02*
X72689805Y-80342580D01*
X72642186Y-80818771D01*
X72689805Y-80771152D01*
X72785043Y-80723533D01*
X73023138Y-80723533D01*
X73118376Y-80771152D01*
X73165995Y-80818771D01*
X73213614Y-80914009D01*
X73213614Y-81152104D01*
X73165995Y-81247342D01*
X73118376Y-81294961D01*
X73023138Y-81342580D01*
X72785043Y-81342580D01*
X72689805Y-81294961D01*
X72642186Y-81247342D01*
G04 #@! TO.C,D23*
X70737424Y-66102580D02*
X70737424Y-65102580D01*
X70975519Y-65102580D01*
X71118376Y-65150200D01*
X71213614Y-65245438D01*
X71261233Y-65340676D01*
X71308852Y-65531152D01*
X71308852Y-65674009D01*
X71261233Y-65864485D01*
X71213614Y-65959723D01*
X71118376Y-66054961D01*
X70975519Y-66102580D01*
X70737424Y-66102580D01*
X71689805Y-65197819D02*
X71737424Y-65150200D01*
X71832662Y-65102580D01*
X72070757Y-65102580D01*
X72165995Y-65150200D01*
X72213614Y-65197819D01*
X72261233Y-65293057D01*
X72261233Y-65388295D01*
X72213614Y-65531152D01*
X71642186Y-66102580D01*
X72261233Y-66102580D01*
X72594567Y-65102580D02*
X73213614Y-65102580D01*
X72880281Y-65483533D01*
X73023138Y-65483533D01*
X73118376Y-65531152D01*
X73165995Y-65578771D01*
X73213614Y-65674009D01*
X73213614Y-65912104D01*
X73165995Y-66007342D01*
X73118376Y-66054961D01*
X73023138Y-66102580D01*
X72737424Y-66102580D01*
X72642186Y-66054961D01*
X72594567Y-66007342D01*
G04 #@! TO.C,D7*
X71213614Y-45782580D02*
X71213614Y-44782580D01*
X71451710Y-44782580D01*
X71594567Y-44830200D01*
X71689805Y-44925438D01*
X71737424Y-45020676D01*
X71785043Y-45211152D01*
X71785043Y-45354009D01*
X71737424Y-45544485D01*
X71689805Y-45639723D01*
X71594567Y-45734961D01*
X71451710Y-45782580D01*
X71213614Y-45782580D01*
X72118376Y-44782580D02*
X72785043Y-44782580D01*
X72356471Y-45782580D01*
G04 #@! TO.C,R41*
X49417090Y-36870527D02*
X48940900Y-37203860D01*
X49417090Y-37441955D02*
X48417090Y-37441955D01*
X48417090Y-37061003D01*
X48464710Y-36965765D01*
X48512329Y-36918146D01*
X48607567Y-36870527D01*
X48750424Y-36870527D01*
X48845662Y-36918146D01*
X48893281Y-36965765D01*
X48940900Y-37061003D01*
X48940900Y-37441955D01*
X48750424Y-36013384D02*
X49417090Y-36013384D01*
X48369471Y-36251479D02*
X49083757Y-36489574D01*
X49083757Y-35870527D01*
X49417090Y-34965765D02*
X49417090Y-35537193D01*
X49417090Y-35251479D02*
X48417090Y-35251479D01*
X48559948Y-35346717D01*
X48655186Y-35441955D01*
X48702805Y-35537193D01*
G04 #@! TO.C,R44*
X62117090Y-39918527D02*
X61640900Y-40251860D01*
X62117090Y-40489955D02*
X61117090Y-40489955D01*
X61117090Y-40109003D01*
X61164710Y-40013765D01*
X61212329Y-39966146D01*
X61307567Y-39918527D01*
X61450424Y-39918527D01*
X61545662Y-39966146D01*
X61593281Y-40013765D01*
X61640900Y-40109003D01*
X61640900Y-40489955D01*
X61450424Y-39061384D02*
X62117090Y-39061384D01*
X61069471Y-39299479D02*
X61783757Y-39537574D01*
X61783757Y-38918527D01*
X61450424Y-38109003D02*
X62117090Y-38109003D01*
X61069471Y-38347098D02*
X61783757Y-38585193D01*
X61783757Y-37966146D01*
G04 #@! TO.C,U2*
X55314805Y-30854050D02*
X55314805Y-31663574D01*
X55362424Y-31758812D01*
X55410043Y-31806431D01*
X55505281Y-31854050D01*
X55695757Y-31854050D01*
X55790995Y-31806431D01*
X55838614Y-31758812D01*
X55886233Y-31663574D01*
X55886233Y-30854050D01*
X56314805Y-30949289D02*
X56362424Y-30901670D01*
X56457662Y-30854050D01*
X56695757Y-30854050D01*
X56790995Y-30901670D01*
X56838614Y-30949289D01*
X56886233Y-31044527D01*
X56886233Y-31139765D01*
X56838614Y-31282622D01*
X56267186Y-31854050D01*
X56886233Y-31854050D01*
G04 #@! TO.C,C3*
X48051852Y-53076866D02*
X48099471Y-53124485D01*
X48147090Y-53267342D01*
X48147090Y-53362580D01*
X48099471Y-53505438D01*
X48004233Y-53600676D01*
X47908995Y-53648295D01*
X47718519Y-53695914D01*
X47575662Y-53695914D01*
X47385186Y-53648295D01*
X47289948Y-53600676D01*
X47194710Y-53505438D01*
X47147090Y-53362580D01*
X47147090Y-53267342D01*
X47194710Y-53124485D01*
X47242329Y-53076866D01*
X47147090Y-52743533D02*
X47147090Y-52124485D01*
X47528043Y-52457819D01*
X47528043Y-52314961D01*
X47575662Y-52219723D01*
X47623281Y-52172104D01*
X47718519Y-52124485D01*
X47956614Y-52124485D01*
X48051852Y-52172104D01*
X48099471Y-52219723D01*
X48147090Y-52314961D01*
X48147090Y-52600676D01*
X48099471Y-52695914D01*
X48051852Y-52743533D01*
G04 #@! TO.C,C2*
X38653852Y-53076866D02*
X38701471Y-53124485D01*
X38749090Y-53267342D01*
X38749090Y-53362580D01*
X38701471Y-53505438D01*
X38606233Y-53600676D01*
X38510995Y-53648295D01*
X38320519Y-53695914D01*
X38177662Y-53695914D01*
X37987186Y-53648295D01*
X37891948Y-53600676D01*
X37796710Y-53505438D01*
X37749090Y-53362580D01*
X37749090Y-53267342D01*
X37796710Y-53124485D01*
X37844329Y-53076866D01*
X37844329Y-52695914D02*
X37796710Y-52648295D01*
X37749090Y-52553057D01*
X37749090Y-52314961D01*
X37796710Y-52219723D01*
X37844329Y-52172104D01*
X37939567Y-52124485D01*
X38034805Y-52124485D01*
X38177662Y-52172104D01*
X38749090Y-52743533D01*
X38749090Y-52124485D01*
G04 #@! TO.C,D37*
X74547424Y-83882580D02*
X74547424Y-82882580D01*
X74785519Y-82882580D01*
X74928376Y-82930200D01*
X75023614Y-83025438D01*
X75071233Y-83120676D01*
X75118852Y-83311152D01*
X75118852Y-83454009D01*
X75071233Y-83644485D01*
X75023614Y-83739723D01*
X74928376Y-83834961D01*
X74785519Y-83882580D01*
X74547424Y-83882580D01*
X75452186Y-82882580D02*
X76071233Y-82882580D01*
X75737900Y-83263533D01*
X75880757Y-83263533D01*
X75975995Y-83311152D01*
X76023614Y-83358771D01*
X76071233Y-83454009D01*
X76071233Y-83692104D01*
X76023614Y-83787342D01*
X75975995Y-83834961D01*
X75880757Y-83882580D01*
X75595043Y-83882580D01*
X75499805Y-83834961D01*
X75452186Y-83787342D01*
X76404567Y-82882580D02*
X77071233Y-82882580D01*
X76642662Y-83882580D01*
G04 #@! TO.C,D1*
X75023614Y-38162580D02*
X75023614Y-37162580D01*
X75261710Y-37162580D01*
X75404567Y-37210200D01*
X75499805Y-37305438D01*
X75547424Y-37400676D01*
X75595043Y-37591152D01*
X75595043Y-37734009D01*
X75547424Y-37924485D01*
X75499805Y-38019723D01*
X75404567Y-38114961D01*
X75261710Y-38162580D01*
X75023614Y-38162580D01*
X76547424Y-38162580D02*
X75975995Y-38162580D01*
X76261710Y-38162580D02*
X76261710Y-37162580D01*
X76166471Y-37305438D01*
X76071233Y-37400676D01*
X75975995Y-37448295D01*
G04 #@! TO.C,D33*
X74547424Y-78802580D02*
X74547424Y-77802580D01*
X74785519Y-77802580D01*
X74928376Y-77850200D01*
X75023614Y-77945438D01*
X75071233Y-78040676D01*
X75118852Y-78231152D01*
X75118852Y-78374009D01*
X75071233Y-78564485D01*
X75023614Y-78659723D01*
X74928376Y-78754961D01*
X74785519Y-78802580D01*
X74547424Y-78802580D01*
X75452186Y-77802580D02*
X76071233Y-77802580D01*
X75737900Y-78183533D01*
X75880757Y-78183533D01*
X75975995Y-78231152D01*
X76023614Y-78278771D01*
X76071233Y-78374009D01*
X76071233Y-78612104D01*
X76023614Y-78707342D01*
X75975995Y-78754961D01*
X75880757Y-78802580D01*
X75595043Y-78802580D01*
X75499805Y-78754961D01*
X75452186Y-78707342D01*
X76404567Y-77802580D02*
X77023614Y-77802580D01*
X76690281Y-78183533D01*
X76833138Y-78183533D01*
X76928376Y-78231152D01*
X76975995Y-78278771D01*
X77023614Y-78374009D01*
X77023614Y-78612104D01*
X76975995Y-78707342D01*
X76928376Y-78754961D01*
X76833138Y-78802580D01*
X76547424Y-78802580D01*
X76452186Y-78754961D01*
X76404567Y-78707342D01*
G04 #@! TO.C,D9*
X75023614Y-48322580D02*
X75023614Y-47322580D01*
X75261710Y-47322580D01*
X75404567Y-47370200D01*
X75499805Y-47465438D01*
X75547424Y-47560676D01*
X75595043Y-47751152D01*
X75595043Y-47894009D01*
X75547424Y-48084485D01*
X75499805Y-48179723D01*
X75404567Y-48274961D01*
X75261710Y-48322580D01*
X75023614Y-48322580D01*
X76071233Y-48322580D02*
X76261710Y-48322580D01*
X76356948Y-48274961D01*
X76404567Y-48227342D01*
X76499805Y-48084485D01*
X76547424Y-47894009D01*
X76547424Y-47513057D01*
X76499805Y-47417819D01*
X76452186Y-47370200D01*
X76356948Y-47322580D01*
X76166471Y-47322580D01*
X76071233Y-47370200D01*
X76023614Y-47417819D01*
X75975995Y-47513057D01*
X75975995Y-47751152D01*
X76023614Y-47846390D01*
X76071233Y-47894009D01*
X76166471Y-47941628D01*
X76356948Y-47941628D01*
X76452186Y-47894009D01*
X76499805Y-47846390D01*
X76547424Y-47751152D01*
G04 #@! TO.C,D5*
X75023614Y-43242580D02*
X75023614Y-42242580D01*
X75261710Y-42242580D01*
X75404567Y-42290200D01*
X75499805Y-42385438D01*
X75547424Y-42480676D01*
X75595043Y-42671152D01*
X75595043Y-42814009D01*
X75547424Y-43004485D01*
X75499805Y-43099723D01*
X75404567Y-43194961D01*
X75261710Y-43242580D01*
X75023614Y-43242580D01*
X76499805Y-42242580D02*
X76023614Y-42242580D01*
X75975995Y-42718771D01*
X76023614Y-42671152D01*
X76118852Y-42623533D01*
X76356948Y-42623533D01*
X76452186Y-42671152D01*
X76499805Y-42718771D01*
X76547424Y-42814009D01*
X76547424Y-43052104D01*
X76499805Y-43147342D01*
X76452186Y-43194961D01*
X76356948Y-43242580D01*
X76118852Y-43242580D01*
X76023614Y-43194961D01*
X75975995Y-43147342D01*
G04 #@! TO.C,D17*
X74547424Y-58482580D02*
X74547424Y-57482580D01*
X74785519Y-57482580D01*
X74928376Y-57530200D01*
X75023614Y-57625438D01*
X75071233Y-57720676D01*
X75118852Y-57911152D01*
X75118852Y-58054009D01*
X75071233Y-58244485D01*
X75023614Y-58339723D01*
X74928376Y-58434961D01*
X74785519Y-58482580D01*
X74547424Y-58482580D01*
X76071233Y-58482580D02*
X75499805Y-58482580D01*
X75785519Y-58482580D02*
X75785519Y-57482580D01*
X75690281Y-57625438D01*
X75595043Y-57720676D01*
X75499805Y-57768295D01*
X76404567Y-57482580D02*
X77071233Y-57482580D01*
X76642662Y-58482580D01*
G04 #@! TO.C,D13*
X74547424Y-53402580D02*
X74547424Y-52402580D01*
X74785519Y-52402580D01*
X74928376Y-52450200D01*
X75023614Y-52545438D01*
X75071233Y-52640676D01*
X75118852Y-52831152D01*
X75118852Y-52974009D01*
X75071233Y-53164485D01*
X75023614Y-53259723D01*
X74928376Y-53354961D01*
X74785519Y-53402580D01*
X74547424Y-53402580D01*
X76071233Y-53402580D02*
X75499805Y-53402580D01*
X75785519Y-53402580D02*
X75785519Y-52402580D01*
X75690281Y-52545438D01*
X75595043Y-52640676D01*
X75499805Y-52688295D01*
X76404567Y-52402580D02*
X77023614Y-52402580D01*
X76690281Y-52783533D01*
X76833138Y-52783533D01*
X76928376Y-52831152D01*
X76975995Y-52878771D01*
X77023614Y-52974009D01*
X77023614Y-53212104D01*
X76975995Y-53307342D01*
X76928376Y-53354961D01*
X76833138Y-53402580D01*
X76547424Y-53402580D01*
X76452186Y-53354961D01*
X76404567Y-53307342D01*
G04 #@! TO.C,D21*
X74547424Y-63562580D02*
X74547424Y-62562580D01*
X74785519Y-62562580D01*
X74928376Y-62610200D01*
X75023614Y-62705438D01*
X75071233Y-62800676D01*
X75118852Y-62991152D01*
X75118852Y-63134009D01*
X75071233Y-63324485D01*
X75023614Y-63419723D01*
X74928376Y-63514961D01*
X74785519Y-63562580D01*
X74547424Y-63562580D01*
X75499805Y-62657819D02*
X75547424Y-62610200D01*
X75642662Y-62562580D01*
X75880757Y-62562580D01*
X75975995Y-62610200D01*
X76023614Y-62657819D01*
X76071233Y-62753057D01*
X76071233Y-62848295D01*
X76023614Y-62991152D01*
X75452186Y-63562580D01*
X76071233Y-63562580D01*
X77023614Y-63562580D02*
X76452186Y-63562580D01*
X76737900Y-63562580D02*
X76737900Y-62562580D01*
X76642662Y-62705438D01*
X76547424Y-62800676D01*
X76452186Y-62848295D01*
G04 #@! TO.C,D29*
X74547424Y-73722580D02*
X74547424Y-72722580D01*
X74785519Y-72722580D01*
X74928376Y-72770200D01*
X75023614Y-72865438D01*
X75071233Y-72960676D01*
X75118852Y-73151152D01*
X75118852Y-73294009D01*
X75071233Y-73484485D01*
X75023614Y-73579723D01*
X74928376Y-73674961D01*
X74785519Y-73722580D01*
X74547424Y-73722580D01*
X75499805Y-72817819D02*
X75547424Y-72770200D01*
X75642662Y-72722580D01*
X75880757Y-72722580D01*
X75975995Y-72770200D01*
X76023614Y-72817819D01*
X76071233Y-72913057D01*
X76071233Y-73008295D01*
X76023614Y-73151152D01*
X75452186Y-73722580D01*
X76071233Y-73722580D01*
X76547424Y-73722580D02*
X76737900Y-73722580D01*
X76833138Y-73674961D01*
X76880757Y-73627342D01*
X76975995Y-73484485D01*
X77023614Y-73294009D01*
X77023614Y-72913057D01*
X76975995Y-72817819D01*
X76928376Y-72770200D01*
X76833138Y-72722580D01*
X76642662Y-72722580D01*
X76547424Y-72770200D01*
X76499805Y-72817819D01*
X76452186Y-72913057D01*
X76452186Y-73151152D01*
X76499805Y-73246390D01*
X76547424Y-73294009D01*
X76642662Y-73341628D01*
X76833138Y-73341628D01*
X76928376Y-73294009D01*
X76975995Y-73246390D01*
X77023614Y-73151152D01*
G04 #@! TO.C,D25*
X74547424Y-68642580D02*
X74547424Y-67642580D01*
X74785519Y-67642580D01*
X74928376Y-67690200D01*
X75023614Y-67785438D01*
X75071233Y-67880676D01*
X75118852Y-68071152D01*
X75118852Y-68214009D01*
X75071233Y-68404485D01*
X75023614Y-68499723D01*
X74928376Y-68594961D01*
X74785519Y-68642580D01*
X74547424Y-68642580D01*
X75499805Y-67737819D02*
X75547424Y-67690200D01*
X75642662Y-67642580D01*
X75880757Y-67642580D01*
X75975995Y-67690200D01*
X76023614Y-67737819D01*
X76071233Y-67833057D01*
X76071233Y-67928295D01*
X76023614Y-68071152D01*
X75452186Y-68642580D01*
X76071233Y-68642580D01*
X76975995Y-67642580D02*
X76499805Y-67642580D01*
X76452186Y-68118771D01*
X76499805Y-68071152D01*
X76595043Y-68023533D01*
X76833138Y-68023533D01*
X76928376Y-68071152D01*
X76975995Y-68118771D01*
X77023614Y-68214009D01*
X77023614Y-68452104D01*
X76975995Y-68547342D01*
X76928376Y-68594961D01*
X76833138Y-68642580D01*
X76595043Y-68642580D01*
X76499805Y-68594961D01*
X76452186Y-68547342D01*
G04 #@! TO.C,D39*
X70737424Y-86422580D02*
X70737424Y-85422580D01*
X70975519Y-85422580D01*
X71118376Y-85470200D01*
X71213614Y-85565438D01*
X71261233Y-85660676D01*
X71308852Y-85851152D01*
X71308852Y-85994009D01*
X71261233Y-86184485D01*
X71213614Y-86279723D01*
X71118376Y-86374961D01*
X70975519Y-86422580D01*
X70737424Y-86422580D01*
X71642186Y-85422580D02*
X72261233Y-85422580D01*
X71927900Y-85803533D01*
X72070757Y-85803533D01*
X72165995Y-85851152D01*
X72213614Y-85898771D01*
X72261233Y-85994009D01*
X72261233Y-86232104D01*
X72213614Y-86327342D01*
X72165995Y-86374961D01*
X72070757Y-86422580D01*
X71785043Y-86422580D01*
X71689805Y-86374961D01*
X71642186Y-86327342D01*
X72737424Y-86422580D02*
X72927900Y-86422580D01*
X73023138Y-86374961D01*
X73070757Y-86327342D01*
X73165995Y-86184485D01*
X73213614Y-85994009D01*
X73213614Y-85613057D01*
X73165995Y-85517819D01*
X73118376Y-85470200D01*
X73023138Y-85422580D01*
X72832662Y-85422580D01*
X72737424Y-85470200D01*
X72689805Y-85517819D01*
X72642186Y-85613057D01*
X72642186Y-85851152D01*
X72689805Y-85946390D01*
X72737424Y-85994009D01*
X72832662Y-86041628D01*
X73023138Y-86041628D01*
X73118376Y-85994009D01*
X73165995Y-85946390D01*
X73213614Y-85851152D01*
G04 #@! TO.C,J4*
X54513090Y-98963533D02*
X55227376Y-98963533D01*
X55370233Y-99011152D01*
X55465471Y-99106390D01*
X55513090Y-99249247D01*
X55513090Y-99344485D01*
X54846424Y-98058771D02*
X55513090Y-98058771D01*
X54465471Y-98296866D02*
X55179757Y-98534961D01*
X55179757Y-97915914D01*
G04 #@! TO.C,U1*
X42159805Y-48135082D02*
X42159805Y-48944606D01*
X42207424Y-49039844D01*
X42255043Y-49087463D01*
X42350281Y-49135082D01*
X42540757Y-49135082D01*
X42635995Y-49087463D01*
X42683614Y-49039844D01*
X42731233Y-48944606D01*
X42731233Y-48135082D01*
X43731233Y-49135082D02*
X43159805Y-49135082D01*
X43445519Y-49135082D02*
X43445519Y-48135082D01*
X43350281Y-48277940D01*
X43255043Y-48373178D01*
X43159805Y-48420797D01*
G04 #@! TO.C,R35*
X64704852Y-83842580D02*
X64371519Y-83366390D01*
X64133424Y-83842580D02*
X64133424Y-82842580D01*
X64514376Y-82842580D01*
X64609614Y-82890200D01*
X64657233Y-82937819D01*
X64704852Y-83033057D01*
X64704852Y-83175914D01*
X64657233Y-83271152D01*
X64609614Y-83318771D01*
X64514376Y-83366390D01*
X64133424Y-83366390D01*
X65038186Y-82842580D02*
X65657233Y-82842580D01*
X65323900Y-83223533D01*
X65466757Y-83223533D01*
X65561995Y-83271152D01*
X65609614Y-83318771D01*
X65657233Y-83414009D01*
X65657233Y-83652104D01*
X65609614Y-83747342D01*
X65561995Y-83794961D01*
X65466757Y-83842580D01*
X65181043Y-83842580D01*
X65085805Y-83794961D01*
X65038186Y-83747342D01*
X66561995Y-82842580D02*
X66085805Y-82842580D01*
X66038186Y-83318771D01*
X66085805Y-83271152D01*
X66181043Y-83223533D01*
X66419138Y-83223533D01*
X66514376Y-83271152D01*
X66561995Y-83318771D01*
X66609614Y-83414009D01*
X66609614Y-83652104D01*
X66561995Y-83747342D01*
X66514376Y-83794961D01*
X66419138Y-83842580D01*
X66181043Y-83842580D01*
X66085805Y-83794961D01*
X66038186Y-83747342D01*
G04 #@! TO.C,R11*
X64704852Y-53362580D02*
X64371519Y-52886390D01*
X64133424Y-53362580D02*
X64133424Y-52362580D01*
X64514376Y-52362580D01*
X64609614Y-52410200D01*
X64657233Y-52457819D01*
X64704852Y-52553057D01*
X64704852Y-52695914D01*
X64657233Y-52791152D01*
X64609614Y-52838771D01*
X64514376Y-52886390D01*
X64133424Y-52886390D01*
X65657233Y-53362580D02*
X65085805Y-53362580D01*
X65371519Y-53362580D02*
X65371519Y-52362580D01*
X65276281Y-52505438D01*
X65181043Y-52600676D01*
X65085805Y-52648295D01*
X66609614Y-53362580D02*
X66038186Y-53362580D01*
X66323900Y-53362580D02*
X66323900Y-52362580D01*
X66228662Y-52505438D01*
X66133424Y-52600676D01*
X66038186Y-52648295D01*
G04 #@! TO.C,R29*
X64704852Y-76222580D02*
X64371519Y-75746390D01*
X64133424Y-76222580D02*
X64133424Y-75222580D01*
X64514376Y-75222580D01*
X64609614Y-75270200D01*
X64657233Y-75317819D01*
X64704852Y-75413057D01*
X64704852Y-75555914D01*
X64657233Y-75651152D01*
X64609614Y-75698771D01*
X64514376Y-75746390D01*
X64133424Y-75746390D01*
X65085805Y-75317819D02*
X65133424Y-75270200D01*
X65228662Y-75222580D01*
X65466757Y-75222580D01*
X65561995Y-75270200D01*
X65609614Y-75317819D01*
X65657233Y-75413057D01*
X65657233Y-75508295D01*
X65609614Y-75651152D01*
X65038186Y-76222580D01*
X65657233Y-76222580D01*
X66133424Y-76222580D02*
X66323900Y-76222580D01*
X66419138Y-76174961D01*
X66466757Y-76127342D01*
X66561995Y-75984485D01*
X66609614Y-75794009D01*
X66609614Y-75413057D01*
X66561995Y-75317819D01*
X66514376Y-75270200D01*
X66419138Y-75222580D01*
X66228662Y-75222580D01*
X66133424Y-75270200D01*
X66085805Y-75317819D01*
X66038186Y-75413057D01*
X66038186Y-75651152D01*
X66085805Y-75746390D01*
X66133424Y-75794009D01*
X66228662Y-75841628D01*
X66419138Y-75841628D01*
X66514376Y-75794009D01*
X66561995Y-75746390D01*
X66609614Y-75651152D01*
G04 #@! TO.C,R33*
X64704852Y-81302580D02*
X64371519Y-80826390D01*
X64133424Y-81302580D02*
X64133424Y-80302580D01*
X64514376Y-80302580D01*
X64609614Y-80350200D01*
X64657233Y-80397819D01*
X64704852Y-80493057D01*
X64704852Y-80635914D01*
X64657233Y-80731152D01*
X64609614Y-80778771D01*
X64514376Y-80826390D01*
X64133424Y-80826390D01*
X65038186Y-80302580D02*
X65657233Y-80302580D01*
X65323900Y-80683533D01*
X65466757Y-80683533D01*
X65561995Y-80731152D01*
X65609614Y-80778771D01*
X65657233Y-80874009D01*
X65657233Y-81112104D01*
X65609614Y-81207342D01*
X65561995Y-81254961D01*
X65466757Y-81302580D01*
X65181043Y-81302580D01*
X65085805Y-81254961D01*
X65038186Y-81207342D01*
X65990567Y-80302580D02*
X66609614Y-80302580D01*
X66276281Y-80683533D01*
X66419138Y-80683533D01*
X66514376Y-80731152D01*
X66561995Y-80778771D01*
X66609614Y-80874009D01*
X66609614Y-81112104D01*
X66561995Y-81207342D01*
X66514376Y-81254961D01*
X66419138Y-81302580D01*
X66133424Y-81302580D01*
X66038186Y-81254961D01*
X65990567Y-81207342D01*
G04 #@! TO.C,R5*
X65689043Y-45742580D02*
X65355710Y-45266390D01*
X65117614Y-45742580D02*
X65117614Y-44742580D01*
X65498567Y-44742580D01*
X65593805Y-44790200D01*
X65641424Y-44837819D01*
X65689043Y-44933057D01*
X65689043Y-45075914D01*
X65641424Y-45171152D01*
X65593805Y-45218771D01*
X65498567Y-45266390D01*
X65117614Y-45266390D01*
X66593805Y-44742580D02*
X66117614Y-44742580D01*
X66069995Y-45218771D01*
X66117614Y-45171152D01*
X66212852Y-45123533D01*
X66450948Y-45123533D01*
X66546186Y-45171152D01*
X66593805Y-45218771D01*
X66641424Y-45314009D01*
X66641424Y-45552104D01*
X66593805Y-45647342D01*
X66546186Y-45694961D01*
X66450948Y-45742580D01*
X66212852Y-45742580D01*
X66117614Y-45694961D01*
X66069995Y-45647342D01*
G04 #@! TO.C,R7*
X65689043Y-48282580D02*
X65355710Y-47806390D01*
X65117614Y-48282580D02*
X65117614Y-47282580D01*
X65498567Y-47282580D01*
X65593805Y-47330200D01*
X65641424Y-47377819D01*
X65689043Y-47473057D01*
X65689043Y-47615914D01*
X65641424Y-47711152D01*
X65593805Y-47758771D01*
X65498567Y-47806390D01*
X65117614Y-47806390D01*
X66022376Y-47282580D02*
X66689043Y-47282580D01*
X66260471Y-48282580D01*
G04 #@! TO.C,R9*
X65689043Y-50822580D02*
X65355710Y-50346390D01*
X65117614Y-50822580D02*
X65117614Y-49822580D01*
X65498567Y-49822580D01*
X65593805Y-49870200D01*
X65641424Y-49917819D01*
X65689043Y-50013057D01*
X65689043Y-50155914D01*
X65641424Y-50251152D01*
X65593805Y-50298771D01*
X65498567Y-50346390D01*
X65117614Y-50346390D01*
X66165233Y-50822580D02*
X66355710Y-50822580D01*
X66450948Y-50774961D01*
X66498567Y-50727342D01*
X66593805Y-50584485D01*
X66641424Y-50394009D01*
X66641424Y-50013057D01*
X66593805Y-49917819D01*
X66546186Y-49870200D01*
X66450948Y-49822580D01*
X66260471Y-49822580D01*
X66165233Y-49870200D01*
X66117614Y-49917819D01*
X66069995Y-50013057D01*
X66069995Y-50251152D01*
X66117614Y-50346390D01*
X66165233Y-50394009D01*
X66260471Y-50441628D01*
X66450948Y-50441628D01*
X66546186Y-50394009D01*
X66593805Y-50346390D01*
X66641424Y-50251152D01*
G04 #@! TO.C,R13*
X64704852Y-55902580D02*
X64371519Y-55426390D01*
X64133424Y-55902580D02*
X64133424Y-54902580D01*
X64514376Y-54902580D01*
X64609614Y-54950200D01*
X64657233Y-54997819D01*
X64704852Y-55093057D01*
X64704852Y-55235914D01*
X64657233Y-55331152D01*
X64609614Y-55378771D01*
X64514376Y-55426390D01*
X64133424Y-55426390D01*
X65657233Y-55902580D02*
X65085805Y-55902580D01*
X65371519Y-55902580D02*
X65371519Y-54902580D01*
X65276281Y-55045438D01*
X65181043Y-55140676D01*
X65085805Y-55188295D01*
X65990567Y-54902580D02*
X66609614Y-54902580D01*
X66276281Y-55283533D01*
X66419138Y-55283533D01*
X66514376Y-55331152D01*
X66561995Y-55378771D01*
X66609614Y-55474009D01*
X66609614Y-55712104D01*
X66561995Y-55807342D01*
X66514376Y-55854961D01*
X66419138Y-55902580D01*
X66133424Y-55902580D01*
X66038186Y-55854961D01*
X65990567Y-55807342D01*
G04 #@! TO.C,R37*
X64704852Y-86382580D02*
X64371519Y-85906390D01*
X64133424Y-86382580D02*
X64133424Y-85382580D01*
X64514376Y-85382580D01*
X64609614Y-85430200D01*
X64657233Y-85477819D01*
X64704852Y-85573057D01*
X64704852Y-85715914D01*
X64657233Y-85811152D01*
X64609614Y-85858771D01*
X64514376Y-85906390D01*
X64133424Y-85906390D01*
X65038186Y-85382580D02*
X65657233Y-85382580D01*
X65323900Y-85763533D01*
X65466757Y-85763533D01*
X65561995Y-85811152D01*
X65609614Y-85858771D01*
X65657233Y-85954009D01*
X65657233Y-86192104D01*
X65609614Y-86287342D01*
X65561995Y-86334961D01*
X65466757Y-86382580D01*
X65181043Y-86382580D01*
X65085805Y-86334961D01*
X65038186Y-86287342D01*
X65990567Y-85382580D02*
X66657233Y-85382580D01*
X66228662Y-86382580D01*
G04 #@! TO.C,R3*
X65689043Y-43202580D02*
X65355710Y-42726390D01*
X65117614Y-43202580D02*
X65117614Y-42202580D01*
X65498567Y-42202580D01*
X65593805Y-42250200D01*
X65641424Y-42297819D01*
X65689043Y-42393057D01*
X65689043Y-42535914D01*
X65641424Y-42631152D01*
X65593805Y-42678771D01*
X65498567Y-42726390D01*
X65117614Y-42726390D01*
X66022376Y-42202580D02*
X66641424Y-42202580D01*
X66308090Y-42583533D01*
X66450948Y-42583533D01*
X66546186Y-42631152D01*
X66593805Y-42678771D01*
X66641424Y-42774009D01*
X66641424Y-43012104D01*
X66593805Y-43107342D01*
X66546186Y-43154961D01*
X66450948Y-43202580D01*
X66165233Y-43202580D01*
X66069995Y-43154961D01*
X66022376Y-43107342D01*
G04 #@! TO.C,R15*
X64704852Y-58442580D02*
X64371519Y-57966390D01*
X64133424Y-58442580D02*
X64133424Y-57442580D01*
X64514376Y-57442580D01*
X64609614Y-57490200D01*
X64657233Y-57537819D01*
X64704852Y-57633057D01*
X64704852Y-57775914D01*
X64657233Y-57871152D01*
X64609614Y-57918771D01*
X64514376Y-57966390D01*
X64133424Y-57966390D01*
X65657233Y-58442580D02*
X65085805Y-58442580D01*
X65371519Y-58442580D02*
X65371519Y-57442580D01*
X65276281Y-57585438D01*
X65181043Y-57680676D01*
X65085805Y-57728295D01*
X66561995Y-57442580D02*
X66085805Y-57442580D01*
X66038186Y-57918771D01*
X66085805Y-57871152D01*
X66181043Y-57823533D01*
X66419138Y-57823533D01*
X66514376Y-57871152D01*
X66561995Y-57918771D01*
X66609614Y-58014009D01*
X66609614Y-58252104D01*
X66561995Y-58347342D01*
X66514376Y-58394961D01*
X66419138Y-58442580D01*
X66181043Y-58442580D01*
X66085805Y-58394961D01*
X66038186Y-58347342D01*
G04 #@! TO.C,R17*
X64704852Y-60982580D02*
X64371519Y-60506390D01*
X64133424Y-60982580D02*
X64133424Y-59982580D01*
X64514376Y-59982580D01*
X64609614Y-60030200D01*
X64657233Y-60077819D01*
X64704852Y-60173057D01*
X64704852Y-60315914D01*
X64657233Y-60411152D01*
X64609614Y-60458771D01*
X64514376Y-60506390D01*
X64133424Y-60506390D01*
X65657233Y-60982580D02*
X65085805Y-60982580D01*
X65371519Y-60982580D02*
X65371519Y-59982580D01*
X65276281Y-60125438D01*
X65181043Y-60220676D01*
X65085805Y-60268295D01*
X65990567Y-59982580D02*
X66657233Y-59982580D01*
X66228662Y-60982580D01*
G04 #@! TO.C,R19*
X64704852Y-63522580D02*
X64371519Y-63046390D01*
X64133424Y-63522580D02*
X64133424Y-62522580D01*
X64514376Y-62522580D01*
X64609614Y-62570200D01*
X64657233Y-62617819D01*
X64704852Y-62713057D01*
X64704852Y-62855914D01*
X64657233Y-62951152D01*
X64609614Y-62998771D01*
X64514376Y-63046390D01*
X64133424Y-63046390D01*
X65657233Y-63522580D02*
X65085805Y-63522580D01*
X65371519Y-63522580D02*
X65371519Y-62522580D01*
X65276281Y-62665438D01*
X65181043Y-62760676D01*
X65085805Y-62808295D01*
X66133424Y-63522580D02*
X66323900Y-63522580D01*
X66419138Y-63474961D01*
X66466757Y-63427342D01*
X66561995Y-63284485D01*
X66609614Y-63094009D01*
X66609614Y-62713057D01*
X66561995Y-62617819D01*
X66514376Y-62570200D01*
X66419138Y-62522580D01*
X66228662Y-62522580D01*
X66133424Y-62570200D01*
X66085805Y-62617819D01*
X66038186Y-62713057D01*
X66038186Y-62951152D01*
X66085805Y-63046390D01*
X66133424Y-63094009D01*
X66228662Y-63141628D01*
X66419138Y-63141628D01*
X66514376Y-63094009D01*
X66561995Y-63046390D01*
X66609614Y-62951152D01*
G04 #@! TO.C,R21*
X64704852Y-66062580D02*
X64371519Y-65586390D01*
X64133424Y-66062580D02*
X64133424Y-65062580D01*
X64514376Y-65062580D01*
X64609614Y-65110200D01*
X64657233Y-65157819D01*
X64704852Y-65253057D01*
X64704852Y-65395914D01*
X64657233Y-65491152D01*
X64609614Y-65538771D01*
X64514376Y-65586390D01*
X64133424Y-65586390D01*
X65085805Y-65157819D02*
X65133424Y-65110200D01*
X65228662Y-65062580D01*
X65466757Y-65062580D01*
X65561995Y-65110200D01*
X65609614Y-65157819D01*
X65657233Y-65253057D01*
X65657233Y-65348295D01*
X65609614Y-65491152D01*
X65038186Y-66062580D01*
X65657233Y-66062580D01*
X66609614Y-66062580D02*
X66038186Y-66062580D01*
X66323900Y-66062580D02*
X66323900Y-65062580D01*
X66228662Y-65205438D01*
X66133424Y-65300676D01*
X66038186Y-65348295D01*
G04 #@! TO.C,R23*
X64704852Y-68602580D02*
X64371519Y-68126390D01*
X64133424Y-68602580D02*
X64133424Y-67602580D01*
X64514376Y-67602580D01*
X64609614Y-67650200D01*
X64657233Y-67697819D01*
X64704852Y-67793057D01*
X64704852Y-67935914D01*
X64657233Y-68031152D01*
X64609614Y-68078771D01*
X64514376Y-68126390D01*
X64133424Y-68126390D01*
X65085805Y-67697819D02*
X65133424Y-67650200D01*
X65228662Y-67602580D01*
X65466757Y-67602580D01*
X65561995Y-67650200D01*
X65609614Y-67697819D01*
X65657233Y-67793057D01*
X65657233Y-67888295D01*
X65609614Y-68031152D01*
X65038186Y-68602580D01*
X65657233Y-68602580D01*
X65990567Y-67602580D02*
X66609614Y-67602580D01*
X66276281Y-67983533D01*
X66419138Y-67983533D01*
X66514376Y-68031152D01*
X66561995Y-68078771D01*
X66609614Y-68174009D01*
X66609614Y-68412104D01*
X66561995Y-68507342D01*
X66514376Y-68554961D01*
X66419138Y-68602580D01*
X66133424Y-68602580D01*
X66038186Y-68554961D01*
X65990567Y-68507342D01*
G04 #@! TO.C,R25*
X64704852Y-71142580D02*
X64371519Y-70666390D01*
X64133424Y-71142580D02*
X64133424Y-70142580D01*
X64514376Y-70142580D01*
X64609614Y-70190200D01*
X64657233Y-70237819D01*
X64704852Y-70333057D01*
X64704852Y-70475914D01*
X64657233Y-70571152D01*
X64609614Y-70618771D01*
X64514376Y-70666390D01*
X64133424Y-70666390D01*
X65085805Y-70237819D02*
X65133424Y-70190200D01*
X65228662Y-70142580D01*
X65466757Y-70142580D01*
X65561995Y-70190200D01*
X65609614Y-70237819D01*
X65657233Y-70333057D01*
X65657233Y-70428295D01*
X65609614Y-70571152D01*
X65038186Y-71142580D01*
X65657233Y-71142580D01*
X66561995Y-70142580D02*
X66085805Y-70142580D01*
X66038186Y-70618771D01*
X66085805Y-70571152D01*
X66181043Y-70523533D01*
X66419138Y-70523533D01*
X66514376Y-70571152D01*
X66561995Y-70618771D01*
X66609614Y-70714009D01*
X66609614Y-70952104D01*
X66561995Y-71047342D01*
X66514376Y-71094961D01*
X66419138Y-71142580D01*
X66181043Y-71142580D01*
X66085805Y-71094961D01*
X66038186Y-71047342D01*
G04 #@! TO.C,R27*
X64704852Y-73682580D02*
X64371519Y-73206390D01*
X64133424Y-73682580D02*
X64133424Y-72682580D01*
X64514376Y-72682580D01*
X64609614Y-72730200D01*
X64657233Y-72777819D01*
X64704852Y-72873057D01*
X64704852Y-73015914D01*
X64657233Y-73111152D01*
X64609614Y-73158771D01*
X64514376Y-73206390D01*
X64133424Y-73206390D01*
X65085805Y-72777819D02*
X65133424Y-72730200D01*
X65228662Y-72682580D01*
X65466757Y-72682580D01*
X65561995Y-72730200D01*
X65609614Y-72777819D01*
X65657233Y-72873057D01*
X65657233Y-72968295D01*
X65609614Y-73111152D01*
X65038186Y-73682580D01*
X65657233Y-73682580D01*
X65990567Y-72682580D02*
X66657233Y-72682580D01*
X66228662Y-73682580D01*
G04 #@! TO.C,R31*
X64704852Y-78762580D02*
X64371519Y-78286390D01*
X64133424Y-78762580D02*
X64133424Y-77762580D01*
X64514376Y-77762580D01*
X64609614Y-77810200D01*
X64657233Y-77857819D01*
X64704852Y-77953057D01*
X64704852Y-78095914D01*
X64657233Y-78191152D01*
X64609614Y-78238771D01*
X64514376Y-78286390D01*
X64133424Y-78286390D01*
X65038186Y-77762580D02*
X65657233Y-77762580D01*
X65323900Y-78143533D01*
X65466757Y-78143533D01*
X65561995Y-78191152D01*
X65609614Y-78238771D01*
X65657233Y-78334009D01*
X65657233Y-78572104D01*
X65609614Y-78667342D01*
X65561995Y-78714961D01*
X65466757Y-78762580D01*
X65181043Y-78762580D01*
X65085805Y-78714961D01*
X65038186Y-78667342D01*
X66609614Y-78762580D02*
X66038186Y-78762580D01*
X66323900Y-78762580D02*
X66323900Y-77762580D01*
X66228662Y-77905438D01*
X66133424Y-78000676D01*
X66038186Y-78048295D01*
G04 #@! TO.C,R39*
X64704852Y-88922580D02*
X64371519Y-88446390D01*
X64133424Y-88922580D02*
X64133424Y-87922580D01*
X64514376Y-87922580D01*
X64609614Y-87970200D01*
X64657233Y-88017819D01*
X64704852Y-88113057D01*
X64704852Y-88255914D01*
X64657233Y-88351152D01*
X64609614Y-88398771D01*
X64514376Y-88446390D01*
X64133424Y-88446390D01*
X65038186Y-87922580D02*
X65657233Y-87922580D01*
X65323900Y-88303533D01*
X65466757Y-88303533D01*
X65561995Y-88351152D01*
X65609614Y-88398771D01*
X65657233Y-88494009D01*
X65657233Y-88732104D01*
X65609614Y-88827342D01*
X65561995Y-88874961D01*
X65466757Y-88922580D01*
X65181043Y-88922580D01*
X65085805Y-88874961D01*
X65038186Y-88827342D01*
X66133424Y-88922580D02*
X66323900Y-88922580D01*
X66419138Y-88874961D01*
X66466757Y-88827342D01*
X66561995Y-88684485D01*
X66609614Y-88494009D01*
X66609614Y-88113057D01*
X66561995Y-88017819D01*
X66514376Y-87970200D01*
X66419138Y-87922580D01*
X66228662Y-87922580D01*
X66133424Y-87970200D01*
X66085805Y-88017819D01*
X66038186Y-88113057D01*
X66038186Y-88351152D01*
X66085805Y-88446390D01*
X66133424Y-88494009D01*
X66228662Y-88541628D01*
X66419138Y-88541628D01*
X66514376Y-88494009D01*
X66561995Y-88446390D01*
X66609614Y-88351152D01*
G04 #@! TO.C,R1*
X65689043Y-40662580D02*
X65355710Y-40186390D01*
X65117614Y-40662580D02*
X65117614Y-39662580D01*
X65498567Y-39662580D01*
X65593805Y-39710200D01*
X65641424Y-39757819D01*
X65689043Y-39853057D01*
X65689043Y-39995914D01*
X65641424Y-40091152D01*
X65593805Y-40138771D01*
X65498567Y-40186390D01*
X65117614Y-40186390D01*
X66641424Y-40662580D02*
X66069995Y-40662580D01*
X66355710Y-40662580D02*
X66355710Y-39662580D01*
X66260471Y-39805438D01*
X66165233Y-39900676D01*
X66069995Y-39948295D01*
G04 #@! TO.C,J3*
X61117090Y-28097533D02*
X61831376Y-28097533D01*
X61974233Y-28145152D01*
X62069471Y-28240390D01*
X62117090Y-28383247D01*
X62117090Y-28478485D01*
X61117090Y-27716580D02*
X61117090Y-27097533D01*
X61498043Y-27430866D01*
X61498043Y-27288009D01*
X61545662Y-27192771D01*
X61593281Y-27145152D01*
X61688519Y-27097533D01*
X61926614Y-27097533D01*
X62021852Y-27145152D01*
X62069471Y-27192771D01*
X62117090Y-27288009D01*
X62117090Y-27573723D01*
X62069471Y-27668961D01*
X62021852Y-27716580D01*
G04 #@! TO.C,C4*
X49930652Y-47764576D02*
X49978271Y-47812195D01*
X50025890Y-47955052D01*
X50025890Y-48050290D01*
X49978271Y-48193148D01*
X49883033Y-48288386D01*
X49787795Y-48336005D01*
X49597319Y-48383624D01*
X49454462Y-48383624D01*
X49263986Y-48336005D01*
X49168748Y-48288386D01*
X49073510Y-48193148D01*
X49025890Y-48050290D01*
X49025890Y-47955052D01*
X49073510Y-47812195D01*
X49121129Y-47764576D01*
X49359224Y-46907433D02*
X50025890Y-46907433D01*
X48978271Y-47145529D02*
X49692557Y-47383624D01*
X49692557Y-46764576D01*
G04 #@! TO.C,J5*
X82778376Y-33107380D02*
X82778376Y-33821666D01*
X82730757Y-33964523D01*
X82635519Y-34059761D01*
X82492662Y-34107380D01*
X82397424Y-34107380D01*
X83730757Y-33107380D02*
X83254567Y-33107380D01*
X83206948Y-33583571D01*
X83254567Y-33535952D01*
X83349805Y-33488333D01*
X83587900Y-33488333D01*
X83683138Y-33535952D01*
X83730757Y-33583571D01*
X83778376Y-33678809D01*
X83778376Y-33916904D01*
X83730757Y-34012142D01*
X83683138Y-34059761D01*
X83587900Y-34107380D01*
X83349805Y-34107380D01*
X83254567Y-34059761D01*
X83206948Y-34012142D01*
G04 #@! TO.C,JP1*
X50506380Y-40965333D02*
X51220666Y-40965333D01*
X51363523Y-41012952D01*
X51458761Y-41108190D01*
X51506380Y-41251047D01*
X51506380Y-41346285D01*
X51506380Y-40489142D02*
X50506380Y-40489142D01*
X50506380Y-40108190D01*
X50554000Y-40012952D01*
X50601619Y-39965333D01*
X50696857Y-39917714D01*
X50839714Y-39917714D01*
X50934952Y-39965333D01*
X50982571Y-40012952D01*
X51030190Y-40108190D01*
X51030190Y-40489142D01*
X51506380Y-38965333D02*
X51506380Y-39536761D01*
X51506380Y-39251047D02*
X50506380Y-39251047D01*
X50649238Y-39346285D01*
X50744476Y-39441523D01*
X50792095Y-39536761D01*
G04 #@! TD*
M02*
