G04 #@! TF.GenerationSoftware,KiCad,Pcbnew,5.0.0*
G04 #@! TF.CreationDate,2018-10-08T08:38:06-07:00*
G04 #@! TF.ProjectId,HSMC-GPIO-kicad,48534D432D4750494F2D6B696361642E,rev?*
G04 #@! TF.SameCoordinates,Original*
G04 #@! TF.FileFunction,Soldermask,Bot*
G04 #@! TF.FilePolarity,Negative*
%FSLAX46Y46*%
G04 Gerber Fmt 4.6, Leading zero omitted, Abs format (unit mm)*
G04 Created by KiCad (PCBNEW 5.0.0) date Mon Oct  8 08:38:06 2018*
%MOMM*%
%LPD*%
G01*
G04 APERTURE LIST*
%ADD10O,2.100000X2.100000*%
%ADD11R,2.100000X2.100000*%
%ADD12R,1.200000X1.300000*%
%ADD13R,6.800000X6.200000*%
%ADD14R,2.600000X1.600000*%
%ADD15C,3.400000*%
%ADD16R,3.400000X3.400000*%
%ADD17C,0.100000*%
%ADD18C,1.375000*%
%ADD19C,1.725000*%
%ADD20O,2.127200X2.127200*%
%ADD21R,2.127200X2.127200*%
%ADD22R,1.850340X0.699720*%
%ADD23R,1.040080X5.099000*%
%ADD24R,1.040080X2.940000*%
%ADD25C,1.416000*%
%ADD26C,3.575000*%
%ADD27C,1.275000*%
G04 APERTURE END LIST*
D10*
G04 #@! TO.C,J3*
X64770000Y-27940000D03*
X67310000Y-27940000D03*
X69850000Y-27940000D03*
D11*
X72390000Y-27940000D03*
G04 #@! TD*
D12*
G04 #@! TO.C,D42*
X64770000Y-30750000D03*
X63820000Y-32750000D03*
X65720000Y-32750000D03*
G04 #@! TD*
G04 #@! TO.C,D41*
X69850000Y-30750000D03*
X68900000Y-32750000D03*
X70800000Y-32750000D03*
G04 #@! TD*
D13*
G04 #@! TO.C,U1*
X59445000Y-43180000D03*
D14*
X53145000Y-40900000D03*
X53145000Y-45460000D03*
G04 #@! TD*
D15*
G04 #@! TO.C,J4*
X73729710Y-98630200D03*
D16*
X58489710Y-98630200D03*
D15*
X68649710Y-98630200D03*
X63569710Y-98630200D03*
G04 #@! TD*
D17*
G04 #@! TO.C,C14*
G36*
X58849943Y-33985155D02*
X58883312Y-33990105D01*
X58916035Y-33998302D01*
X58947797Y-34009666D01*
X58978293Y-34024090D01*
X59007227Y-34041432D01*
X59034323Y-34061528D01*
X59059318Y-34084182D01*
X59081972Y-34109177D01*
X59102068Y-34136273D01*
X59119410Y-34165207D01*
X59133834Y-34195703D01*
X59145198Y-34227465D01*
X59153395Y-34260188D01*
X59158345Y-34293557D01*
X59160000Y-34327250D01*
X59160000Y-35014750D01*
X59158345Y-35048443D01*
X59153395Y-35081812D01*
X59145198Y-35114535D01*
X59133834Y-35146297D01*
X59119410Y-35176793D01*
X59102068Y-35205727D01*
X59081972Y-35232823D01*
X59059318Y-35257818D01*
X59034323Y-35280472D01*
X59007227Y-35300568D01*
X58978293Y-35317910D01*
X58947797Y-35332334D01*
X58916035Y-35343698D01*
X58883312Y-35351895D01*
X58849943Y-35356845D01*
X58816250Y-35358500D01*
X57703750Y-35358500D01*
X57670057Y-35356845D01*
X57636688Y-35351895D01*
X57603965Y-35343698D01*
X57572203Y-35332334D01*
X57541707Y-35317910D01*
X57512773Y-35300568D01*
X57485677Y-35280472D01*
X57460682Y-35257818D01*
X57438028Y-35232823D01*
X57417932Y-35205727D01*
X57400590Y-35176793D01*
X57386166Y-35146297D01*
X57374802Y-35114535D01*
X57366605Y-35081812D01*
X57361655Y-35048443D01*
X57360000Y-35014750D01*
X57360000Y-34327250D01*
X57361655Y-34293557D01*
X57366605Y-34260188D01*
X57374802Y-34227465D01*
X57386166Y-34195703D01*
X57400590Y-34165207D01*
X57417932Y-34136273D01*
X57438028Y-34109177D01*
X57460682Y-34084182D01*
X57485677Y-34061528D01*
X57512773Y-34041432D01*
X57541707Y-34024090D01*
X57572203Y-34009666D01*
X57603965Y-33998302D01*
X57636688Y-33990105D01*
X57670057Y-33985155D01*
X57703750Y-33983500D01*
X58816250Y-33983500D01*
X58849943Y-33985155D01*
X58849943Y-33985155D01*
G37*
D18*
X58260000Y-34671000D03*
D17*
G36*
X58849943Y-32110155D02*
X58883312Y-32115105D01*
X58916035Y-32123302D01*
X58947797Y-32134666D01*
X58978293Y-32149090D01*
X59007227Y-32166432D01*
X59034323Y-32186528D01*
X59059318Y-32209182D01*
X59081972Y-32234177D01*
X59102068Y-32261273D01*
X59119410Y-32290207D01*
X59133834Y-32320703D01*
X59145198Y-32352465D01*
X59153395Y-32385188D01*
X59158345Y-32418557D01*
X59160000Y-32452250D01*
X59160000Y-33139750D01*
X59158345Y-33173443D01*
X59153395Y-33206812D01*
X59145198Y-33239535D01*
X59133834Y-33271297D01*
X59119410Y-33301793D01*
X59102068Y-33330727D01*
X59081972Y-33357823D01*
X59059318Y-33382818D01*
X59034323Y-33405472D01*
X59007227Y-33425568D01*
X58978293Y-33442910D01*
X58947797Y-33457334D01*
X58916035Y-33468698D01*
X58883312Y-33476895D01*
X58849943Y-33481845D01*
X58816250Y-33483500D01*
X57703750Y-33483500D01*
X57670057Y-33481845D01*
X57636688Y-33476895D01*
X57603965Y-33468698D01*
X57572203Y-33457334D01*
X57541707Y-33442910D01*
X57512773Y-33425568D01*
X57485677Y-33405472D01*
X57460682Y-33382818D01*
X57438028Y-33357823D01*
X57417932Y-33330727D01*
X57400590Y-33301793D01*
X57386166Y-33271297D01*
X57374802Y-33239535D01*
X57366605Y-33206812D01*
X57361655Y-33173443D01*
X57360000Y-33139750D01*
X57360000Y-32452250D01*
X57361655Y-32418557D01*
X57366605Y-32385188D01*
X57374802Y-32352465D01*
X57386166Y-32320703D01*
X57400590Y-32290207D01*
X57417932Y-32261273D01*
X57438028Y-32234177D01*
X57460682Y-32209182D01*
X57485677Y-32186528D01*
X57512773Y-32166432D01*
X57541707Y-32149090D01*
X57572203Y-32134666D01*
X57603965Y-32123302D01*
X57636688Y-32115105D01*
X57670057Y-32110155D01*
X57703750Y-32108500D01*
X58816250Y-32108500D01*
X58849943Y-32110155D01*
X58849943Y-32110155D01*
G37*
D18*
X58260000Y-32796000D03*
G04 #@! TD*
D17*
G04 #@! TO.C,C15*
G36*
X53769943Y-33906655D02*
X53803312Y-33911605D01*
X53836035Y-33919802D01*
X53867797Y-33931166D01*
X53898293Y-33945590D01*
X53927227Y-33962932D01*
X53954323Y-33983028D01*
X53979318Y-34005682D01*
X54001972Y-34030677D01*
X54022068Y-34057773D01*
X54039410Y-34086707D01*
X54053834Y-34117203D01*
X54065198Y-34148965D01*
X54073395Y-34181688D01*
X54078345Y-34215057D01*
X54080000Y-34248750D01*
X54080000Y-34936250D01*
X54078345Y-34969943D01*
X54073395Y-35003312D01*
X54065198Y-35036035D01*
X54053834Y-35067797D01*
X54039410Y-35098293D01*
X54022068Y-35127227D01*
X54001972Y-35154323D01*
X53979318Y-35179318D01*
X53954323Y-35201972D01*
X53927227Y-35222068D01*
X53898293Y-35239410D01*
X53867797Y-35253834D01*
X53836035Y-35265198D01*
X53803312Y-35273395D01*
X53769943Y-35278345D01*
X53736250Y-35280000D01*
X52623750Y-35280000D01*
X52590057Y-35278345D01*
X52556688Y-35273395D01*
X52523965Y-35265198D01*
X52492203Y-35253834D01*
X52461707Y-35239410D01*
X52432773Y-35222068D01*
X52405677Y-35201972D01*
X52380682Y-35179318D01*
X52358028Y-35154323D01*
X52337932Y-35127227D01*
X52320590Y-35098293D01*
X52306166Y-35067797D01*
X52294802Y-35036035D01*
X52286605Y-35003312D01*
X52281655Y-34969943D01*
X52280000Y-34936250D01*
X52280000Y-34248750D01*
X52281655Y-34215057D01*
X52286605Y-34181688D01*
X52294802Y-34148965D01*
X52306166Y-34117203D01*
X52320590Y-34086707D01*
X52337932Y-34057773D01*
X52358028Y-34030677D01*
X52380682Y-34005682D01*
X52405677Y-33983028D01*
X52432773Y-33962932D01*
X52461707Y-33945590D01*
X52492203Y-33931166D01*
X52523965Y-33919802D01*
X52556688Y-33911605D01*
X52590057Y-33906655D01*
X52623750Y-33905000D01*
X53736250Y-33905000D01*
X53769943Y-33906655D01*
X53769943Y-33906655D01*
G37*
D18*
X53180000Y-34592500D03*
D17*
G36*
X53769943Y-32031655D02*
X53803312Y-32036605D01*
X53836035Y-32044802D01*
X53867797Y-32056166D01*
X53898293Y-32070590D01*
X53927227Y-32087932D01*
X53954323Y-32108028D01*
X53979318Y-32130682D01*
X54001972Y-32155677D01*
X54022068Y-32182773D01*
X54039410Y-32211707D01*
X54053834Y-32242203D01*
X54065198Y-32273965D01*
X54073395Y-32306688D01*
X54078345Y-32340057D01*
X54080000Y-32373750D01*
X54080000Y-33061250D01*
X54078345Y-33094943D01*
X54073395Y-33128312D01*
X54065198Y-33161035D01*
X54053834Y-33192797D01*
X54039410Y-33223293D01*
X54022068Y-33252227D01*
X54001972Y-33279323D01*
X53979318Y-33304318D01*
X53954323Y-33326972D01*
X53927227Y-33347068D01*
X53898293Y-33364410D01*
X53867797Y-33378834D01*
X53836035Y-33390198D01*
X53803312Y-33398395D01*
X53769943Y-33403345D01*
X53736250Y-33405000D01*
X52623750Y-33405000D01*
X52590057Y-33403345D01*
X52556688Y-33398395D01*
X52523965Y-33390198D01*
X52492203Y-33378834D01*
X52461707Y-33364410D01*
X52432773Y-33347068D01*
X52405677Y-33326972D01*
X52380682Y-33304318D01*
X52358028Y-33279323D01*
X52337932Y-33252227D01*
X52320590Y-33223293D01*
X52306166Y-33192797D01*
X52294802Y-33161035D01*
X52286605Y-33128312D01*
X52281655Y-33094943D01*
X52280000Y-33061250D01*
X52280000Y-32373750D01*
X52281655Y-32340057D01*
X52286605Y-32306688D01*
X52294802Y-32273965D01*
X52306166Y-32242203D01*
X52320590Y-32211707D01*
X52337932Y-32182773D01*
X52358028Y-32155677D01*
X52380682Y-32130682D01*
X52405677Y-32108028D01*
X52432773Y-32087932D01*
X52461707Y-32070590D01*
X52492203Y-32056166D01*
X52523965Y-32044802D01*
X52556688Y-32036605D01*
X52590057Y-32031655D01*
X52623750Y-32030000D01*
X53736250Y-32030000D01*
X53769943Y-32031655D01*
X53769943Y-32031655D01*
G37*
D18*
X53180000Y-32717500D03*
G04 #@! TD*
D17*
G04 #@! TO.C,C1*
G36*
X73684653Y-73224355D02*
X73718022Y-73229305D01*
X73750745Y-73237502D01*
X73782507Y-73248866D01*
X73813003Y-73263290D01*
X73841937Y-73280632D01*
X73869033Y-73300728D01*
X73894028Y-73323382D01*
X73916682Y-73348377D01*
X73936778Y-73375473D01*
X73954120Y-73404407D01*
X73968544Y-73434903D01*
X73979908Y-73466665D01*
X73988105Y-73499388D01*
X73993055Y-73532757D01*
X73994710Y-73566450D01*
X73994710Y-74253950D01*
X73993055Y-74287643D01*
X73988105Y-74321012D01*
X73979908Y-74353735D01*
X73968544Y-74385497D01*
X73954120Y-74415993D01*
X73936778Y-74444927D01*
X73916682Y-74472023D01*
X73894028Y-74497018D01*
X73869033Y-74519672D01*
X73841937Y-74539768D01*
X73813003Y-74557110D01*
X73782507Y-74571534D01*
X73750745Y-74582898D01*
X73718022Y-74591095D01*
X73684653Y-74596045D01*
X73650960Y-74597700D01*
X72538460Y-74597700D01*
X72504767Y-74596045D01*
X72471398Y-74591095D01*
X72438675Y-74582898D01*
X72406913Y-74571534D01*
X72376417Y-74557110D01*
X72347483Y-74539768D01*
X72320387Y-74519672D01*
X72295392Y-74497018D01*
X72272738Y-74472023D01*
X72252642Y-74444927D01*
X72235300Y-74415993D01*
X72220876Y-74385497D01*
X72209512Y-74353735D01*
X72201315Y-74321012D01*
X72196365Y-74287643D01*
X72194710Y-74253950D01*
X72194710Y-73566450D01*
X72196365Y-73532757D01*
X72201315Y-73499388D01*
X72209512Y-73466665D01*
X72220876Y-73434903D01*
X72235300Y-73404407D01*
X72252642Y-73375473D01*
X72272738Y-73348377D01*
X72295392Y-73323382D01*
X72320387Y-73300728D01*
X72347483Y-73280632D01*
X72376417Y-73263290D01*
X72406913Y-73248866D01*
X72438675Y-73237502D01*
X72471398Y-73229305D01*
X72504767Y-73224355D01*
X72538460Y-73222700D01*
X73650960Y-73222700D01*
X73684653Y-73224355D01*
X73684653Y-73224355D01*
G37*
D18*
X73094710Y-73910200D03*
D17*
G36*
X73684653Y-75099355D02*
X73718022Y-75104305D01*
X73750745Y-75112502D01*
X73782507Y-75123866D01*
X73813003Y-75138290D01*
X73841937Y-75155632D01*
X73869033Y-75175728D01*
X73894028Y-75198382D01*
X73916682Y-75223377D01*
X73936778Y-75250473D01*
X73954120Y-75279407D01*
X73968544Y-75309903D01*
X73979908Y-75341665D01*
X73988105Y-75374388D01*
X73993055Y-75407757D01*
X73994710Y-75441450D01*
X73994710Y-76128950D01*
X73993055Y-76162643D01*
X73988105Y-76196012D01*
X73979908Y-76228735D01*
X73968544Y-76260497D01*
X73954120Y-76290993D01*
X73936778Y-76319927D01*
X73916682Y-76347023D01*
X73894028Y-76372018D01*
X73869033Y-76394672D01*
X73841937Y-76414768D01*
X73813003Y-76432110D01*
X73782507Y-76446534D01*
X73750745Y-76457898D01*
X73718022Y-76466095D01*
X73684653Y-76471045D01*
X73650960Y-76472700D01*
X72538460Y-76472700D01*
X72504767Y-76471045D01*
X72471398Y-76466095D01*
X72438675Y-76457898D01*
X72406913Y-76446534D01*
X72376417Y-76432110D01*
X72347483Y-76414768D01*
X72320387Y-76394672D01*
X72295392Y-76372018D01*
X72272738Y-76347023D01*
X72252642Y-76319927D01*
X72235300Y-76290993D01*
X72220876Y-76260497D01*
X72209512Y-76228735D01*
X72201315Y-76196012D01*
X72196365Y-76162643D01*
X72194710Y-76128950D01*
X72194710Y-75441450D01*
X72196365Y-75407757D01*
X72201315Y-75374388D01*
X72209512Y-75341665D01*
X72220876Y-75309903D01*
X72235300Y-75279407D01*
X72252642Y-75250473D01*
X72272738Y-75223377D01*
X72295392Y-75198382D01*
X72320387Y-75175728D01*
X72347483Y-75155632D01*
X72376417Y-75138290D01*
X72406913Y-75123866D01*
X72438675Y-75112502D01*
X72471398Y-75104305D01*
X72504767Y-75099355D01*
X72538460Y-75097700D01*
X73650960Y-75097700D01*
X73684653Y-75099355D01*
X73684653Y-75099355D01*
G37*
D18*
X73094710Y-75785200D03*
G04 #@! TD*
D17*
G04 #@! TO.C,C18*
G36*
X64651141Y-91151767D02*
X64682735Y-91156454D01*
X64713718Y-91164215D01*
X64743791Y-91174975D01*
X64772665Y-91188631D01*
X64800061Y-91205052D01*
X64825716Y-91224079D01*
X64849382Y-91245528D01*
X64870831Y-91269194D01*
X64889858Y-91294849D01*
X64906279Y-91322245D01*
X64919935Y-91351119D01*
X64930695Y-91381192D01*
X64938456Y-91412175D01*
X64943143Y-91443769D01*
X64944710Y-91475671D01*
X64944710Y-92549729D01*
X64943143Y-92581631D01*
X64938456Y-92613225D01*
X64930695Y-92644208D01*
X64919935Y-92674281D01*
X64906279Y-92703155D01*
X64889858Y-92730551D01*
X64870831Y-92756206D01*
X64849382Y-92779872D01*
X64825716Y-92801321D01*
X64800061Y-92820348D01*
X64772665Y-92836769D01*
X64743791Y-92850425D01*
X64713718Y-92861185D01*
X64682735Y-92868946D01*
X64651141Y-92873633D01*
X64619239Y-92875200D01*
X62520181Y-92875200D01*
X62488279Y-92873633D01*
X62456685Y-92868946D01*
X62425702Y-92861185D01*
X62395629Y-92850425D01*
X62366755Y-92836769D01*
X62339359Y-92820348D01*
X62313704Y-92801321D01*
X62290038Y-92779872D01*
X62268589Y-92756206D01*
X62249562Y-92730551D01*
X62233141Y-92703155D01*
X62219485Y-92674281D01*
X62208725Y-92644208D01*
X62200964Y-92613225D01*
X62196277Y-92581631D01*
X62194710Y-92549729D01*
X62194710Y-91475671D01*
X62196277Y-91443769D01*
X62200964Y-91412175D01*
X62208725Y-91381192D01*
X62219485Y-91351119D01*
X62233141Y-91322245D01*
X62249562Y-91294849D01*
X62268589Y-91269194D01*
X62290038Y-91245528D01*
X62313704Y-91224079D01*
X62339359Y-91205052D01*
X62366755Y-91188631D01*
X62395629Y-91174975D01*
X62425702Y-91164215D01*
X62456685Y-91156454D01*
X62488279Y-91151767D01*
X62520181Y-91150200D01*
X64619239Y-91150200D01*
X64651141Y-91151767D01*
X64651141Y-91151767D01*
G37*
D19*
X63569710Y-92012700D03*
D17*
G36*
X64651141Y-94226767D02*
X64682735Y-94231454D01*
X64713718Y-94239215D01*
X64743791Y-94249975D01*
X64772665Y-94263631D01*
X64800061Y-94280052D01*
X64825716Y-94299079D01*
X64849382Y-94320528D01*
X64870831Y-94344194D01*
X64889858Y-94369849D01*
X64906279Y-94397245D01*
X64919935Y-94426119D01*
X64930695Y-94456192D01*
X64938456Y-94487175D01*
X64943143Y-94518769D01*
X64944710Y-94550671D01*
X64944710Y-95624729D01*
X64943143Y-95656631D01*
X64938456Y-95688225D01*
X64930695Y-95719208D01*
X64919935Y-95749281D01*
X64906279Y-95778155D01*
X64889858Y-95805551D01*
X64870831Y-95831206D01*
X64849382Y-95854872D01*
X64825716Y-95876321D01*
X64800061Y-95895348D01*
X64772665Y-95911769D01*
X64743791Y-95925425D01*
X64713718Y-95936185D01*
X64682735Y-95943946D01*
X64651141Y-95948633D01*
X64619239Y-95950200D01*
X62520181Y-95950200D01*
X62488279Y-95948633D01*
X62456685Y-95943946D01*
X62425702Y-95936185D01*
X62395629Y-95925425D01*
X62366755Y-95911769D01*
X62339359Y-95895348D01*
X62313704Y-95876321D01*
X62290038Y-95854872D01*
X62268589Y-95831206D01*
X62249562Y-95805551D01*
X62233141Y-95778155D01*
X62219485Y-95749281D01*
X62208725Y-95719208D01*
X62200964Y-95688225D01*
X62196277Y-95656631D01*
X62194710Y-95624729D01*
X62194710Y-94550671D01*
X62196277Y-94518769D01*
X62200964Y-94487175D01*
X62208725Y-94456192D01*
X62219485Y-94426119D01*
X62233141Y-94397245D01*
X62249562Y-94369849D01*
X62268589Y-94344194D01*
X62290038Y-94320528D01*
X62313704Y-94299079D01*
X62339359Y-94280052D01*
X62366755Y-94263631D01*
X62395629Y-94249975D01*
X62425702Y-94239215D01*
X62456685Y-94231454D01*
X62488279Y-94226767D01*
X62520181Y-94225200D01*
X64619239Y-94225200D01*
X64651141Y-94226767D01*
X64651141Y-94226767D01*
G37*
D19*
X63569710Y-95087700D03*
G04 #@! TD*
D17*
G04 #@! TO.C,C20*
G36*
X74811141Y-91151767D02*
X74842735Y-91156454D01*
X74873718Y-91164215D01*
X74903791Y-91174975D01*
X74932665Y-91188631D01*
X74960061Y-91205052D01*
X74985716Y-91224079D01*
X75009382Y-91245528D01*
X75030831Y-91269194D01*
X75049858Y-91294849D01*
X75066279Y-91322245D01*
X75079935Y-91351119D01*
X75090695Y-91381192D01*
X75098456Y-91412175D01*
X75103143Y-91443769D01*
X75104710Y-91475671D01*
X75104710Y-92549729D01*
X75103143Y-92581631D01*
X75098456Y-92613225D01*
X75090695Y-92644208D01*
X75079935Y-92674281D01*
X75066279Y-92703155D01*
X75049858Y-92730551D01*
X75030831Y-92756206D01*
X75009382Y-92779872D01*
X74985716Y-92801321D01*
X74960061Y-92820348D01*
X74932665Y-92836769D01*
X74903791Y-92850425D01*
X74873718Y-92861185D01*
X74842735Y-92868946D01*
X74811141Y-92873633D01*
X74779239Y-92875200D01*
X72680181Y-92875200D01*
X72648279Y-92873633D01*
X72616685Y-92868946D01*
X72585702Y-92861185D01*
X72555629Y-92850425D01*
X72526755Y-92836769D01*
X72499359Y-92820348D01*
X72473704Y-92801321D01*
X72450038Y-92779872D01*
X72428589Y-92756206D01*
X72409562Y-92730551D01*
X72393141Y-92703155D01*
X72379485Y-92674281D01*
X72368725Y-92644208D01*
X72360964Y-92613225D01*
X72356277Y-92581631D01*
X72354710Y-92549729D01*
X72354710Y-91475671D01*
X72356277Y-91443769D01*
X72360964Y-91412175D01*
X72368725Y-91381192D01*
X72379485Y-91351119D01*
X72393141Y-91322245D01*
X72409562Y-91294849D01*
X72428589Y-91269194D01*
X72450038Y-91245528D01*
X72473704Y-91224079D01*
X72499359Y-91205052D01*
X72526755Y-91188631D01*
X72555629Y-91174975D01*
X72585702Y-91164215D01*
X72616685Y-91156454D01*
X72648279Y-91151767D01*
X72680181Y-91150200D01*
X74779239Y-91150200D01*
X74811141Y-91151767D01*
X74811141Y-91151767D01*
G37*
D19*
X73729710Y-92012700D03*
D17*
G36*
X74811141Y-94226767D02*
X74842735Y-94231454D01*
X74873718Y-94239215D01*
X74903791Y-94249975D01*
X74932665Y-94263631D01*
X74960061Y-94280052D01*
X74985716Y-94299079D01*
X75009382Y-94320528D01*
X75030831Y-94344194D01*
X75049858Y-94369849D01*
X75066279Y-94397245D01*
X75079935Y-94426119D01*
X75090695Y-94456192D01*
X75098456Y-94487175D01*
X75103143Y-94518769D01*
X75104710Y-94550671D01*
X75104710Y-95624729D01*
X75103143Y-95656631D01*
X75098456Y-95688225D01*
X75090695Y-95719208D01*
X75079935Y-95749281D01*
X75066279Y-95778155D01*
X75049858Y-95805551D01*
X75030831Y-95831206D01*
X75009382Y-95854872D01*
X74985716Y-95876321D01*
X74960061Y-95895348D01*
X74932665Y-95911769D01*
X74903791Y-95925425D01*
X74873718Y-95936185D01*
X74842735Y-95943946D01*
X74811141Y-95948633D01*
X74779239Y-95950200D01*
X72680181Y-95950200D01*
X72648279Y-95948633D01*
X72616685Y-95943946D01*
X72585702Y-95936185D01*
X72555629Y-95925425D01*
X72526755Y-95911769D01*
X72499359Y-95895348D01*
X72473704Y-95876321D01*
X72450038Y-95854872D01*
X72428589Y-95831206D01*
X72409562Y-95805551D01*
X72393141Y-95778155D01*
X72379485Y-95749281D01*
X72368725Y-95719208D01*
X72360964Y-95688225D01*
X72356277Y-95656631D01*
X72354710Y-95624729D01*
X72354710Y-94550671D01*
X72356277Y-94518769D01*
X72360964Y-94487175D01*
X72368725Y-94456192D01*
X72379485Y-94426119D01*
X72393141Y-94397245D01*
X72409562Y-94369849D01*
X72428589Y-94344194D01*
X72450038Y-94320528D01*
X72473704Y-94299079D01*
X72499359Y-94280052D01*
X72526755Y-94263631D01*
X72555629Y-94249975D01*
X72585702Y-94239215D01*
X72616685Y-94231454D01*
X72648279Y-94226767D01*
X72680181Y-94225200D01*
X74779239Y-94225200D01*
X74811141Y-94226767D01*
X74811141Y-94226767D01*
G37*
D19*
X73729710Y-95087700D03*
G04 #@! TD*
D17*
G04 #@! TO.C,C19*
G36*
X69731141Y-91151767D02*
X69762735Y-91156454D01*
X69793718Y-91164215D01*
X69823791Y-91174975D01*
X69852665Y-91188631D01*
X69880061Y-91205052D01*
X69905716Y-91224079D01*
X69929382Y-91245528D01*
X69950831Y-91269194D01*
X69969858Y-91294849D01*
X69986279Y-91322245D01*
X69999935Y-91351119D01*
X70010695Y-91381192D01*
X70018456Y-91412175D01*
X70023143Y-91443769D01*
X70024710Y-91475671D01*
X70024710Y-92549729D01*
X70023143Y-92581631D01*
X70018456Y-92613225D01*
X70010695Y-92644208D01*
X69999935Y-92674281D01*
X69986279Y-92703155D01*
X69969858Y-92730551D01*
X69950831Y-92756206D01*
X69929382Y-92779872D01*
X69905716Y-92801321D01*
X69880061Y-92820348D01*
X69852665Y-92836769D01*
X69823791Y-92850425D01*
X69793718Y-92861185D01*
X69762735Y-92868946D01*
X69731141Y-92873633D01*
X69699239Y-92875200D01*
X67600181Y-92875200D01*
X67568279Y-92873633D01*
X67536685Y-92868946D01*
X67505702Y-92861185D01*
X67475629Y-92850425D01*
X67446755Y-92836769D01*
X67419359Y-92820348D01*
X67393704Y-92801321D01*
X67370038Y-92779872D01*
X67348589Y-92756206D01*
X67329562Y-92730551D01*
X67313141Y-92703155D01*
X67299485Y-92674281D01*
X67288725Y-92644208D01*
X67280964Y-92613225D01*
X67276277Y-92581631D01*
X67274710Y-92549729D01*
X67274710Y-91475671D01*
X67276277Y-91443769D01*
X67280964Y-91412175D01*
X67288725Y-91381192D01*
X67299485Y-91351119D01*
X67313141Y-91322245D01*
X67329562Y-91294849D01*
X67348589Y-91269194D01*
X67370038Y-91245528D01*
X67393704Y-91224079D01*
X67419359Y-91205052D01*
X67446755Y-91188631D01*
X67475629Y-91174975D01*
X67505702Y-91164215D01*
X67536685Y-91156454D01*
X67568279Y-91151767D01*
X67600181Y-91150200D01*
X69699239Y-91150200D01*
X69731141Y-91151767D01*
X69731141Y-91151767D01*
G37*
D19*
X68649710Y-92012700D03*
D17*
G36*
X69731141Y-94226767D02*
X69762735Y-94231454D01*
X69793718Y-94239215D01*
X69823791Y-94249975D01*
X69852665Y-94263631D01*
X69880061Y-94280052D01*
X69905716Y-94299079D01*
X69929382Y-94320528D01*
X69950831Y-94344194D01*
X69969858Y-94369849D01*
X69986279Y-94397245D01*
X69999935Y-94426119D01*
X70010695Y-94456192D01*
X70018456Y-94487175D01*
X70023143Y-94518769D01*
X70024710Y-94550671D01*
X70024710Y-95624729D01*
X70023143Y-95656631D01*
X70018456Y-95688225D01*
X70010695Y-95719208D01*
X69999935Y-95749281D01*
X69986279Y-95778155D01*
X69969858Y-95805551D01*
X69950831Y-95831206D01*
X69929382Y-95854872D01*
X69905716Y-95876321D01*
X69880061Y-95895348D01*
X69852665Y-95911769D01*
X69823791Y-95925425D01*
X69793718Y-95936185D01*
X69762735Y-95943946D01*
X69731141Y-95948633D01*
X69699239Y-95950200D01*
X67600181Y-95950200D01*
X67568279Y-95948633D01*
X67536685Y-95943946D01*
X67505702Y-95936185D01*
X67475629Y-95925425D01*
X67446755Y-95911769D01*
X67419359Y-95895348D01*
X67393704Y-95876321D01*
X67370038Y-95854872D01*
X67348589Y-95831206D01*
X67329562Y-95805551D01*
X67313141Y-95778155D01*
X67299485Y-95749281D01*
X67288725Y-95719208D01*
X67280964Y-95688225D01*
X67276277Y-95656631D01*
X67274710Y-95624729D01*
X67274710Y-94550671D01*
X67276277Y-94518769D01*
X67280964Y-94487175D01*
X67288725Y-94456192D01*
X67299485Y-94426119D01*
X67313141Y-94397245D01*
X67329562Y-94369849D01*
X67348589Y-94344194D01*
X67370038Y-94320528D01*
X67393704Y-94299079D01*
X67419359Y-94280052D01*
X67446755Y-94263631D01*
X67475629Y-94249975D01*
X67505702Y-94239215D01*
X67536685Y-94231454D01*
X67568279Y-94226767D01*
X67600181Y-94225200D01*
X69699239Y-94225200D01*
X69731141Y-94226767D01*
X69731141Y-94226767D01*
G37*
D19*
X68649710Y-95087700D03*
G04 #@! TD*
D17*
G04 #@! TO.C,C13*
G36*
X73684653Y-78909355D02*
X73718022Y-78914305D01*
X73750745Y-78922502D01*
X73782507Y-78933866D01*
X73813003Y-78948290D01*
X73841937Y-78965632D01*
X73869033Y-78985728D01*
X73894028Y-79008382D01*
X73916682Y-79033377D01*
X73936778Y-79060473D01*
X73954120Y-79089407D01*
X73968544Y-79119903D01*
X73979908Y-79151665D01*
X73988105Y-79184388D01*
X73993055Y-79217757D01*
X73994710Y-79251450D01*
X73994710Y-79938950D01*
X73993055Y-79972643D01*
X73988105Y-80006012D01*
X73979908Y-80038735D01*
X73968544Y-80070497D01*
X73954120Y-80100993D01*
X73936778Y-80129927D01*
X73916682Y-80157023D01*
X73894028Y-80182018D01*
X73869033Y-80204672D01*
X73841937Y-80224768D01*
X73813003Y-80242110D01*
X73782507Y-80256534D01*
X73750745Y-80267898D01*
X73718022Y-80276095D01*
X73684653Y-80281045D01*
X73650960Y-80282700D01*
X72538460Y-80282700D01*
X72504767Y-80281045D01*
X72471398Y-80276095D01*
X72438675Y-80267898D01*
X72406913Y-80256534D01*
X72376417Y-80242110D01*
X72347483Y-80224768D01*
X72320387Y-80204672D01*
X72295392Y-80182018D01*
X72272738Y-80157023D01*
X72252642Y-80129927D01*
X72235300Y-80100993D01*
X72220876Y-80070497D01*
X72209512Y-80038735D01*
X72201315Y-80006012D01*
X72196365Y-79972643D01*
X72194710Y-79938950D01*
X72194710Y-79251450D01*
X72196365Y-79217757D01*
X72201315Y-79184388D01*
X72209512Y-79151665D01*
X72220876Y-79119903D01*
X72235300Y-79089407D01*
X72252642Y-79060473D01*
X72272738Y-79033377D01*
X72295392Y-79008382D01*
X72320387Y-78985728D01*
X72347483Y-78965632D01*
X72376417Y-78948290D01*
X72406913Y-78933866D01*
X72438675Y-78922502D01*
X72471398Y-78914305D01*
X72504767Y-78909355D01*
X72538460Y-78907700D01*
X73650960Y-78907700D01*
X73684653Y-78909355D01*
X73684653Y-78909355D01*
G37*
D18*
X73094710Y-79595200D03*
D17*
G36*
X73684653Y-77034355D02*
X73718022Y-77039305D01*
X73750745Y-77047502D01*
X73782507Y-77058866D01*
X73813003Y-77073290D01*
X73841937Y-77090632D01*
X73869033Y-77110728D01*
X73894028Y-77133382D01*
X73916682Y-77158377D01*
X73936778Y-77185473D01*
X73954120Y-77214407D01*
X73968544Y-77244903D01*
X73979908Y-77276665D01*
X73988105Y-77309388D01*
X73993055Y-77342757D01*
X73994710Y-77376450D01*
X73994710Y-78063950D01*
X73993055Y-78097643D01*
X73988105Y-78131012D01*
X73979908Y-78163735D01*
X73968544Y-78195497D01*
X73954120Y-78225993D01*
X73936778Y-78254927D01*
X73916682Y-78282023D01*
X73894028Y-78307018D01*
X73869033Y-78329672D01*
X73841937Y-78349768D01*
X73813003Y-78367110D01*
X73782507Y-78381534D01*
X73750745Y-78392898D01*
X73718022Y-78401095D01*
X73684653Y-78406045D01*
X73650960Y-78407700D01*
X72538460Y-78407700D01*
X72504767Y-78406045D01*
X72471398Y-78401095D01*
X72438675Y-78392898D01*
X72406913Y-78381534D01*
X72376417Y-78367110D01*
X72347483Y-78349768D01*
X72320387Y-78329672D01*
X72295392Y-78307018D01*
X72272738Y-78282023D01*
X72252642Y-78254927D01*
X72235300Y-78225993D01*
X72220876Y-78195497D01*
X72209512Y-78163735D01*
X72201315Y-78131012D01*
X72196365Y-78097643D01*
X72194710Y-78063950D01*
X72194710Y-77376450D01*
X72196365Y-77342757D01*
X72201315Y-77309388D01*
X72209512Y-77276665D01*
X72220876Y-77244903D01*
X72235300Y-77214407D01*
X72252642Y-77185473D01*
X72272738Y-77158377D01*
X72295392Y-77133382D01*
X72320387Y-77110728D01*
X72347483Y-77090632D01*
X72376417Y-77073290D01*
X72406913Y-77058866D01*
X72438675Y-77047502D01*
X72471398Y-77039305D01*
X72504767Y-77034355D01*
X72538460Y-77032700D01*
X73650960Y-77032700D01*
X73684653Y-77034355D01*
X73684653Y-77034355D01*
G37*
D18*
X73094710Y-77720200D03*
G04 #@! TD*
D20*
G04 #@! TO.C,J1*
X84381710Y-88470200D03*
X81841710Y-88470200D03*
X84381710Y-85930200D03*
X81841710Y-85930200D03*
X84381710Y-83390200D03*
X81841710Y-83390200D03*
X84381710Y-80850200D03*
X81841710Y-80850200D03*
X84381710Y-78310200D03*
X81841710Y-78310200D03*
X84381710Y-75770200D03*
X81841710Y-75770200D03*
X84381710Y-73230200D03*
X81841710Y-73230200D03*
X84381710Y-70690200D03*
X81841710Y-70690200D03*
X84381710Y-68150200D03*
X81841710Y-68150200D03*
X84381710Y-65610200D03*
X81841710Y-65610200D03*
X84381710Y-63070200D03*
X81841710Y-63070200D03*
X84381710Y-60530200D03*
X81841710Y-60530200D03*
X84381710Y-57990200D03*
X81841710Y-57990200D03*
X84381710Y-55450200D03*
X81841710Y-55450200D03*
X84381710Y-52910200D03*
X81841710Y-52910200D03*
X84381710Y-50370200D03*
X81841710Y-50370200D03*
X84381710Y-47830200D03*
X81841710Y-47830200D03*
X84381710Y-45290200D03*
X81841710Y-45290200D03*
X84381710Y-42750200D03*
X81841710Y-42750200D03*
X84381710Y-40210200D03*
D21*
X81841710Y-40210200D03*
G04 #@! TD*
D17*
G04 #@! TO.C,C11*
G36*
X73684653Y-86529355D02*
X73718022Y-86534305D01*
X73750745Y-86542502D01*
X73782507Y-86553866D01*
X73813003Y-86568290D01*
X73841937Y-86585632D01*
X73869033Y-86605728D01*
X73894028Y-86628382D01*
X73916682Y-86653377D01*
X73936778Y-86680473D01*
X73954120Y-86709407D01*
X73968544Y-86739903D01*
X73979908Y-86771665D01*
X73988105Y-86804388D01*
X73993055Y-86837757D01*
X73994710Y-86871450D01*
X73994710Y-87558950D01*
X73993055Y-87592643D01*
X73988105Y-87626012D01*
X73979908Y-87658735D01*
X73968544Y-87690497D01*
X73954120Y-87720993D01*
X73936778Y-87749927D01*
X73916682Y-87777023D01*
X73894028Y-87802018D01*
X73869033Y-87824672D01*
X73841937Y-87844768D01*
X73813003Y-87862110D01*
X73782507Y-87876534D01*
X73750745Y-87887898D01*
X73718022Y-87896095D01*
X73684653Y-87901045D01*
X73650960Y-87902700D01*
X72538460Y-87902700D01*
X72504767Y-87901045D01*
X72471398Y-87896095D01*
X72438675Y-87887898D01*
X72406913Y-87876534D01*
X72376417Y-87862110D01*
X72347483Y-87844768D01*
X72320387Y-87824672D01*
X72295392Y-87802018D01*
X72272738Y-87777023D01*
X72252642Y-87749927D01*
X72235300Y-87720993D01*
X72220876Y-87690497D01*
X72209512Y-87658735D01*
X72201315Y-87626012D01*
X72196365Y-87592643D01*
X72194710Y-87558950D01*
X72194710Y-86871450D01*
X72196365Y-86837757D01*
X72201315Y-86804388D01*
X72209512Y-86771665D01*
X72220876Y-86739903D01*
X72235300Y-86709407D01*
X72252642Y-86680473D01*
X72272738Y-86653377D01*
X72295392Y-86628382D01*
X72320387Y-86605728D01*
X72347483Y-86585632D01*
X72376417Y-86568290D01*
X72406913Y-86553866D01*
X72438675Y-86542502D01*
X72471398Y-86534305D01*
X72504767Y-86529355D01*
X72538460Y-86527700D01*
X73650960Y-86527700D01*
X73684653Y-86529355D01*
X73684653Y-86529355D01*
G37*
D18*
X73094710Y-87215200D03*
D17*
G36*
X73684653Y-84654355D02*
X73718022Y-84659305D01*
X73750745Y-84667502D01*
X73782507Y-84678866D01*
X73813003Y-84693290D01*
X73841937Y-84710632D01*
X73869033Y-84730728D01*
X73894028Y-84753382D01*
X73916682Y-84778377D01*
X73936778Y-84805473D01*
X73954120Y-84834407D01*
X73968544Y-84864903D01*
X73979908Y-84896665D01*
X73988105Y-84929388D01*
X73993055Y-84962757D01*
X73994710Y-84996450D01*
X73994710Y-85683950D01*
X73993055Y-85717643D01*
X73988105Y-85751012D01*
X73979908Y-85783735D01*
X73968544Y-85815497D01*
X73954120Y-85845993D01*
X73936778Y-85874927D01*
X73916682Y-85902023D01*
X73894028Y-85927018D01*
X73869033Y-85949672D01*
X73841937Y-85969768D01*
X73813003Y-85987110D01*
X73782507Y-86001534D01*
X73750745Y-86012898D01*
X73718022Y-86021095D01*
X73684653Y-86026045D01*
X73650960Y-86027700D01*
X72538460Y-86027700D01*
X72504767Y-86026045D01*
X72471398Y-86021095D01*
X72438675Y-86012898D01*
X72406913Y-86001534D01*
X72376417Y-85987110D01*
X72347483Y-85969768D01*
X72320387Y-85949672D01*
X72295392Y-85927018D01*
X72272738Y-85902023D01*
X72252642Y-85874927D01*
X72235300Y-85845993D01*
X72220876Y-85815497D01*
X72209512Y-85783735D01*
X72201315Y-85751012D01*
X72196365Y-85717643D01*
X72194710Y-85683950D01*
X72194710Y-84996450D01*
X72196365Y-84962757D01*
X72201315Y-84929388D01*
X72209512Y-84896665D01*
X72220876Y-84864903D01*
X72235300Y-84834407D01*
X72252642Y-84805473D01*
X72272738Y-84778377D01*
X72295392Y-84753382D01*
X72320387Y-84730728D01*
X72347483Y-84710632D01*
X72376417Y-84693290D01*
X72406913Y-84678866D01*
X72438675Y-84667502D01*
X72471398Y-84659305D01*
X72504767Y-84654355D01*
X72538460Y-84652700D01*
X73650960Y-84652700D01*
X73684653Y-84654355D01*
X73684653Y-84654355D01*
G37*
D18*
X73094710Y-85340200D03*
G04 #@! TD*
D17*
G04 #@! TO.C,C12*
G36*
X73684653Y-80844355D02*
X73718022Y-80849305D01*
X73750745Y-80857502D01*
X73782507Y-80868866D01*
X73813003Y-80883290D01*
X73841937Y-80900632D01*
X73869033Y-80920728D01*
X73894028Y-80943382D01*
X73916682Y-80968377D01*
X73936778Y-80995473D01*
X73954120Y-81024407D01*
X73968544Y-81054903D01*
X73979908Y-81086665D01*
X73988105Y-81119388D01*
X73993055Y-81152757D01*
X73994710Y-81186450D01*
X73994710Y-81873950D01*
X73993055Y-81907643D01*
X73988105Y-81941012D01*
X73979908Y-81973735D01*
X73968544Y-82005497D01*
X73954120Y-82035993D01*
X73936778Y-82064927D01*
X73916682Y-82092023D01*
X73894028Y-82117018D01*
X73869033Y-82139672D01*
X73841937Y-82159768D01*
X73813003Y-82177110D01*
X73782507Y-82191534D01*
X73750745Y-82202898D01*
X73718022Y-82211095D01*
X73684653Y-82216045D01*
X73650960Y-82217700D01*
X72538460Y-82217700D01*
X72504767Y-82216045D01*
X72471398Y-82211095D01*
X72438675Y-82202898D01*
X72406913Y-82191534D01*
X72376417Y-82177110D01*
X72347483Y-82159768D01*
X72320387Y-82139672D01*
X72295392Y-82117018D01*
X72272738Y-82092023D01*
X72252642Y-82064927D01*
X72235300Y-82035993D01*
X72220876Y-82005497D01*
X72209512Y-81973735D01*
X72201315Y-81941012D01*
X72196365Y-81907643D01*
X72194710Y-81873950D01*
X72194710Y-81186450D01*
X72196365Y-81152757D01*
X72201315Y-81119388D01*
X72209512Y-81086665D01*
X72220876Y-81054903D01*
X72235300Y-81024407D01*
X72252642Y-80995473D01*
X72272738Y-80968377D01*
X72295392Y-80943382D01*
X72320387Y-80920728D01*
X72347483Y-80900632D01*
X72376417Y-80883290D01*
X72406913Y-80868866D01*
X72438675Y-80857502D01*
X72471398Y-80849305D01*
X72504767Y-80844355D01*
X72538460Y-80842700D01*
X73650960Y-80842700D01*
X73684653Y-80844355D01*
X73684653Y-80844355D01*
G37*
D18*
X73094710Y-81530200D03*
D17*
G36*
X73684653Y-82719355D02*
X73718022Y-82724305D01*
X73750745Y-82732502D01*
X73782507Y-82743866D01*
X73813003Y-82758290D01*
X73841937Y-82775632D01*
X73869033Y-82795728D01*
X73894028Y-82818382D01*
X73916682Y-82843377D01*
X73936778Y-82870473D01*
X73954120Y-82899407D01*
X73968544Y-82929903D01*
X73979908Y-82961665D01*
X73988105Y-82994388D01*
X73993055Y-83027757D01*
X73994710Y-83061450D01*
X73994710Y-83748950D01*
X73993055Y-83782643D01*
X73988105Y-83816012D01*
X73979908Y-83848735D01*
X73968544Y-83880497D01*
X73954120Y-83910993D01*
X73936778Y-83939927D01*
X73916682Y-83967023D01*
X73894028Y-83992018D01*
X73869033Y-84014672D01*
X73841937Y-84034768D01*
X73813003Y-84052110D01*
X73782507Y-84066534D01*
X73750745Y-84077898D01*
X73718022Y-84086095D01*
X73684653Y-84091045D01*
X73650960Y-84092700D01*
X72538460Y-84092700D01*
X72504767Y-84091045D01*
X72471398Y-84086095D01*
X72438675Y-84077898D01*
X72406913Y-84066534D01*
X72376417Y-84052110D01*
X72347483Y-84034768D01*
X72320387Y-84014672D01*
X72295392Y-83992018D01*
X72272738Y-83967023D01*
X72252642Y-83939927D01*
X72235300Y-83910993D01*
X72220876Y-83880497D01*
X72209512Y-83848735D01*
X72201315Y-83816012D01*
X72196365Y-83782643D01*
X72194710Y-83748950D01*
X72194710Y-83061450D01*
X72196365Y-83027757D01*
X72201315Y-82994388D01*
X72209512Y-82961665D01*
X72220876Y-82929903D01*
X72235300Y-82899407D01*
X72252642Y-82870473D01*
X72272738Y-82843377D01*
X72295392Y-82818382D01*
X72320387Y-82795728D01*
X72347483Y-82775632D01*
X72376417Y-82758290D01*
X72406913Y-82743866D01*
X72438675Y-82732502D01*
X72471398Y-82724305D01*
X72504767Y-82719355D01*
X72538460Y-82717700D01*
X73650960Y-82717700D01*
X73684653Y-82719355D01*
X73684653Y-82719355D01*
G37*
D18*
X73094710Y-83405200D03*
G04 #@! TD*
D22*
G04 #@! TO.C,J2*
X34201100Y-91716000D03*
X28023820Y-91716000D03*
X34201100Y-91216000D03*
X28023820Y-91216000D03*
X34201100Y-90716000D03*
X28023820Y-90716000D03*
X34201100Y-90216000D03*
X28023820Y-90216000D03*
X34201100Y-89716000D03*
X28023820Y-89716000D03*
X34201100Y-89216000D03*
X28023820Y-89216000D03*
X34201100Y-88716000D03*
X28023820Y-88716000D03*
X34201100Y-88216000D03*
X28023820Y-88216000D03*
X34201100Y-87716000D03*
X28023820Y-87716000D03*
X34201100Y-87216000D03*
X28023820Y-87216000D03*
X34201100Y-86716000D03*
X28023820Y-86716000D03*
X34201100Y-86216000D03*
X28023820Y-86216000D03*
X34201100Y-85716000D03*
X28023820Y-85716000D03*
X34201100Y-85216000D03*
X28023820Y-85216000D03*
X34201100Y-84716000D03*
X28023820Y-84716000D03*
X34201100Y-84216000D03*
X28023820Y-84216000D03*
X34201100Y-83716000D03*
X28023820Y-83716000D03*
X34201100Y-83216000D03*
X28023820Y-83216000D03*
X34201100Y-82716000D03*
X28023820Y-82716000D03*
X34201100Y-82216000D03*
X28023820Y-82216000D03*
X34201100Y-81716000D03*
X28023820Y-81716000D03*
X34201100Y-81216000D03*
X28023820Y-81216000D03*
X34201100Y-80716000D03*
X28023820Y-80716000D03*
X34201100Y-80216000D03*
X28023820Y-80216000D03*
X34201100Y-79716000D03*
X28023820Y-79716000D03*
X34201100Y-79216000D03*
X28023820Y-79216000D03*
X34201100Y-78716000D03*
X28023820Y-78716000D03*
X34201100Y-78216000D03*
X28023820Y-78216000D03*
X34201100Y-77716000D03*
X28023820Y-77716000D03*
X34201100Y-77216000D03*
X34201100Y-71716040D03*
X28023820Y-71716040D03*
X34201100Y-71216040D03*
X28023820Y-71216040D03*
X34201100Y-70716040D03*
X28023820Y-70716040D03*
X34201100Y-70216040D03*
X28023820Y-70216040D03*
X34201100Y-69716040D03*
X28023820Y-69716040D03*
X34201100Y-69216040D03*
X28023820Y-69216040D03*
X34201100Y-68716040D03*
X28023820Y-68716040D03*
X34201100Y-68216040D03*
X28023820Y-68216040D03*
X34201100Y-67716040D03*
X28023820Y-67716040D03*
X34201100Y-67216040D03*
X28023820Y-67216040D03*
X34201100Y-66716040D03*
X28023820Y-66716040D03*
X34201100Y-66216040D03*
X28023820Y-66216040D03*
X34201100Y-65716040D03*
X28023820Y-65716040D03*
X34201100Y-65216040D03*
X28023820Y-65216040D03*
X34201100Y-64716040D03*
X28023820Y-64716040D03*
X34201100Y-64216040D03*
X28023820Y-64216040D03*
X34201100Y-63716040D03*
X28023820Y-63716040D03*
X34201100Y-63216040D03*
X28023820Y-63216040D03*
X34201100Y-62716040D03*
X28023820Y-62716040D03*
X34201100Y-62216040D03*
X28023820Y-62216040D03*
X34201100Y-61716040D03*
X28023820Y-61716040D03*
X34201100Y-61216040D03*
X28023820Y-61216040D03*
X34201100Y-60716040D03*
X28023820Y-60716040D03*
X34201100Y-60216040D03*
X28023820Y-60216040D03*
X34201100Y-59716040D03*
X28023820Y-59716040D03*
X34201100Y-59216040D03*
X28023820Y-59216040D03*
X34201100Y-58716040D03*
X28023820Y-58716040D03*
X34201100Y-58216040D03*
X28023820Y-58216040D03*
X34201100Y-57716040D03*
X28023820Y-57716040D03*
X34201100Y-57216040D03*
X34203640Y-51716080D03*
X34203640Y-51216080D03*
X34203640Y-50716080D03*
X34203640Y-50216080D03*
X34203640Y-49716080D03*
X34203640Y-49216080D03*
X34203640Y-48716080D03*
X34203640Y-48216080D03*
X34203640Y-47716080D03*
X28023820Y-51716080D03*
X28023820Y-51216080D03*
X28023820Y-50716080D03*
X28023820Y-50216080D03*
X28023820Y-49716080D03*
X28023820Y-49216080D03*
X28023820Y-48716080D03*
X28023820Y-48216080D03*
X28023820Y-47716080D03*
X28023820Y-47216080D03*
X34203640Y-47216080D03*
D23*
X31115000Y-67640200D03*
D22*
X28023820Y-77216000D03*
X28023820Y-57216040D03*
X34203640Y-38715060D03*
X34203640Y-38217220D03*
X34203640Y-37716460D03*
X34203640Y-37216080D03*
X28023820Y-38715060D03*
X28023820Y-38217220D03*
X28023820Y-37716460D03*
X28023820Y-37216080D03*
X28023820Y-39213280D03*
X28023820Y-40714800D03*
X28023820Y-40216960D03*
X28023820Y-39718740D03*
X28023820Y-42717080D03*
X28023820Y-42219240D03*
X28023820Y-43215300D03*
X28023820Y-41715940D03*
X28023820Y-41215560D03*
X28023820Y-46716560D03*
X28023820Y-46218720D03*
X28023820Y-45217580D03*
X28023820Y-45717960D03*
X28023820Y-44714280D03*
X28023820Y-44216440D03*
X28023820Y-43718220D03*
X34203640Y-39215820D03*
X34203640Y-40734440D03*
X34203640Y-40236600D03*
X34203640Y-39718740D03*
X34203640Y-42739200D03*
X34203640Y-42241360D03*
X34203640Y-43217840D03*
X34203640Y-41718480D03*
X34203640Y-41215560D03*
X34203640Y-46714020D03*
X34203640Y-46216180D03*
X34203640Y-45215040D03*
X34203640Y-45717960D03*
X34203640Y-44716440D03*
X34203640Y-44218600D03*
X34203640Y-43715680D03*
D23*
X31115000Y-61290200D03*
D24*
X31115000Y-72910700D03*
X31115000Y-56022240D03*
X31115000Y-76027280D03*
D23*
X31115000Y-81295240D03*
X31115000Y-87645240D03*
D24*
X31115000Y-92915740D03*
X31115000Y-52915820D03*
D23*
X31115000Y-47645320D03*
X31115000Y-41295320D03*
D24*
X31115000Y-36024820D03*
D25*
X29083000Y-93703140D03*
X29083000Y-35227260D03*
D26*
X45415200Y-28905200D03*
X45415200Y-100025200D03*
X31115000Y-28905200D03*
X31115000Y-100025200D03*
G04 #@! TD*
D17*
G04 #@! TO.C,R42*
G36*
X50622203Y-30733035D02*
X50653145Y-30737625D01*
X50683488Y-30745225D01*
X50712940Y-30755763D01*
X50741218Y-30769138D01*
X50768048Y-30785219D01*
X50793173Y-30803853D01*
X50816350Y-30824860D01*
X50837357Y-30848037D01*
X50855991Y-30873162D01*
X50872072Y-30899992D01*
X50885447Y-30928270D01*
X50895985Y-30957722D01*
X50903585Y-30988065D01*
X50908175Y-31019007D01*
X50909710Y-31050250D01*
X50909710Y-31687750D01*
X50908175Y-31718993D01*
X50903585Y-31749935D01*
X50895985Y-31780278D01*
X50885447Y-31809730D01*
X50872072Y-31838008D01*
X50855991Y-31864838D01*
X50837357Y-31889963D01*
X50816350Y-31913140D01*
X50793173Y-31934147D01*
X50768048Y-31952781D01*
X50741218Y-31968862D01*
X50712940Y-31982237D01*
X50683488Y-31992775D01*
X50653145Y-32000375D01*
X50622203Y-32004965D01*
X50590960Y-32006500D01*
X49878460Y-32006500D01*
X49847217Y-32004965D01*
X49816275Y-32000375D01*
X49785932Y-31992775D01*
X49756480Y-31982237D01*
X49728202Y-31968862D01*
X49701372Y-31952781D01*
X49676247Y-31934147D01*
X49653070Y-31913140D01*
X49632063Y-31889963D01*
X49613429Y-31864838D01*
X49597348Y-31838008D01*
X49583973Y-31809730D01*
X49573435Y-31780278D01*
X49565835Y-31749935D01*
X49561245Y-31718993D01*
X49559710Y-31687750D01*
X49559710Y-31050250D01*
X49561245Y-31019007D01*
X49565835Y-30988065D01*
X49573435Y-30957722D01*
X49583973Y-30928270D01*
X49597348Y-30899992D01*
X49613429Y-30873162D01*
X49632063Y-30848037D01*
X49653070Y-30824860D01*
X49676247Y-30803853D01*
X49701372Y-30785219D01*
X49728202Y-30769138D01*
X49756480Y-30755763D01*
X49785932Y-30745225D01*
X49816275Y-30737625D01*
X49847217Y-30733035D01*
X49878460Y-30731500D01*
X50590960Y-30731500D01*
X50622203Y-30733035D01*
X50622203Y-30733035D01*
G37*
D27*
X50234710Y-31369000D03*
D17*
G36*
X50622203Y-32308035D02*
X50653145Y-32312625D01*
X50683488Y-32320225D01*
X50712940Y-32330763D01*
X50741218Y-32344138D01*
X50768048Y-32360219D01*
X50793173Y-32378853D01*
X50816350Y-32399860D01*
X50837357Y-32423037D01*
X50855991Y-32448162D01*
X50872072Y-32474992D01*
X50885447Y-32503270D01*
X50895985Y-32532722D01*
X50903585Y-32563065D01*
X50908175Y-32594007D01*
X50909710Y-32625250D01*
X50909710Y-33262750D01*
X50908175Y-33293993D01*
X50903585Y-33324935D01*
X50895985Y-33355278D01*
X50885447Y-33384730D01*
X50872072Y-33413008D01*
X50855991Y-33439838D01*
X50837357Y-33464963D01*
X50816350Y-33488140D01*
X50793173Y-33509147D01*
X50768048Y-33527781D01*
X50741218Y-33543862D01*
X50712940Y-33557237D01*
X50683488Y-33567775D01*
X50653145Y-33575375D01*
X50622203Y-33579965D01*
X50590960Y-33581500D01*
X49878460Y-33581500D01*
X49847217Y-33579965D01*
X49816275Y-33575375D01*
X49785932Y-33567775D01*
X49756480Y-33557237D01*
X49728202Y-33543862D01*
X49701372Y-33527781D01*
X49676247Y-33509147D01*
X49653070Y-33488140D01*
X49632063Y-33464963D01*
X49613429Y-33439838D01*
X49597348Y-33413008D01*
X49583973Y-33384730D01*
X49573435Y-33355278D01*
X49565835Y-33324935D01*
X49561245Y-33293993D01*
X49559710Y-33262750D01*
X49559710Y-32625250D01*
X49561245Y-32594007D01*
X49565835Y-32563065D01*
X49573435Y-32532722D01*
X49583973Y-32503270D01*
X49597348Y-32474992D01*
X49613429Y-32448162D01*
X49632063Y-32423037D01*
X49653070Y-32399860D01*
X49676247Y-32378853D01*
X49701372Y-32360219D01*
X49728202Y-32344138D01*
X49756480Y-32330763D01*
X49785932Y-32320225D01*
X49816275Y-32312625D01*
X49847217Y-32308035D01*
X49878460Y-32306500D01*
X50590960Y-32306500D01*
X50622203Y-32308035D01*
X50622203Y-32308035D01*
G37*
D27*
X50234710Y-32944000D03*
G04 #@! TD*
D17*
G04 #@! TO.C,R43*
G36*
X61798203Y-30165035D02*
X61829145Y-30169625D01*
X61859488Y-30177225D01*
X61888940Y-30187763D01*
X61917218Y-30201138D01*
X61944048Y-30217219D01*
X61969173Y-30235853D01*
X61992350Y-30256860D01*
X62013357Y-30280037D01*
X62031991Y-30305162D01*
X62048072Y-30331992D01*
X62061447Y-30360270D01*
X62071985Y-30389722D01*
X62079585Y-30420065D01*
X62084175Y-30451007D01*
X62085710Y-30482250D01*
X62085710Y-31119750D01*
X62084175Y-31150993D01*
X62079585Y-31181935D01*
X62071985Y-31212278D01*
X62061447Y-31241730D01*
X62048072Y-31270008D01*
X62031991Y-31296838D01*
X62013357Y-31321963D01*
X61992350Y-31345140D01*
X61969173Y-31366147D01*
X61944048Y-31384781D01*
X61917218Y-31400862D01*
X61888940Y-31414237D01*
X61859488Y-31424775D01*
X61829145Y-31432375D01*
X61798203Y-31436965D01*
X61766960Y-31438500D01*
X61054460Y-31438500D01*
X61023217Y-31436965D01*
X60992275Y-31432375D01*
X60961932Y-31424775D01*
X60932480Y-31414237D01*
X60904202Y-31400862D01*
X60877372Y-31384781D01*
X60852247Y-31366147D01*
X60829070Y-31345140D01*
X60808063Y-31321963D01*
X60789429Y-31296838D01*
X60773348Y-31270008D01*
X60759973Y-31241730D01*
X60749435Y-31212278D01*
X60741835Y-31181935D01*
X60737245Y-31150993D01*
X60735710Y-31119750D01*
X60735710Y-30482250D01*
X60737245Y-30451007D01*
X60741835Y-30420065D01*
X60749435Y-30389722D01*
X60759973Y-30360270D01*
X60773348Y-30331992D01*
X60789429Y-30305162D01*
X60808063Y-30280037D01*
X60829070Y-30256860D01*
X60852247Y-30235853D01*
X60877372Y-30217219D01*
X60904202Y-30201138D01*
X60932480Y-30187763D01*
X60961932Y-30177225D01*
X60992275Y-30169625D01*
X61023217Y-30165035D01*
X61054460Y-30163500D01*
X61766960Y-30163500D01*
X61798203Y-30165035D01*
X61798203Y-30165035D01*
G37*
D27*
X61410710Y-30801000D03*
D17*
G36*
X61798203Y-31740035D02*
X61829145Y-31744625D01*
X61859488Y-31752225D01*
X61888940Y-31762763D01*
X61917218Y-31776138D01*
X61944048Y-31792219D01*
X61969173Y-31810853D01*
X61992350Y-31831860D01*
X62013357Y-31855037D01*
X62031991Y-31880162D01*
X62048072Y-31906992D01*
X62061447Y-31935270D01*
X62071985Y-31964722D01*
X62079585Y-31995065D01*
X62084175Y-32026007D01*
X62085710Y-32057250D01*
X62085710Y-32694750D01*
X62084175Y-32725993D01*
X62079585Y-32756935D01*
X62071985Y-32787278D01*
X62061447Y-32816730D01*
X62048072Y-32845008D01*
X62031991Y-32871838D01*
X62013357Y-32896963D01*
X61992350Y-32920140D01*
X61969173Y-32941147D01*
X61944048Y-32959781D01*
X61917218Y-32975862D01*
X61888940Y-32989237D01*
X61859488Y-32999775D01*
X61829145Y-33007375D01*
X61798203Y-33011965D01*
X61766960Y-33013500D01*
X61054460Y-33013500D01*
X61023217Y-33011965D01*
X60992275Y-33007375D01*
X60961932Y-32999775D01*
X60932480Y-32989237D01*
X60904202Y-32975862D01*
X60877372Y-32959781D01*
X60852247Y-32941147D01*
X60829070Y-32920140D01*
X60808063Y-32896963D01*
X60789429Y-32871838D01*
X60773348Y-32845008D01*
X60759973Y-32816730D01*
X60749435Y-32787278D01*
X60741835Y-32756935D01*
X60737245Y-32725993D01*
X60735710Y-32694750D01*
X60735710Y-32057250D01*
X60737245Y-32026007D01*
X60741835Y-31995065D01*
X60749435Y-31964722D01*
X60759973Y-31935270D01*
X60773348Y-31906992D01*
X60789429Y-31880162D01*
X60808063Y-31855037D01*
X60829070Y-31831860D01*
X60852247Y-31810853D01*
X60877372Y-31792219D01*
X60904202Y-31776138D01*
X60932480Y-31762763D01*
X60961932Y-31752225D01*
X60992275Y-31744625D01*
X61023217Y-31740035D01*
X61054460Y-31738500D01*
X61766960Y-31738500D01*
X61798203Y-31740035D01*
X61798203Y-31740035D01*
G37*
D27*
X61410710Y-32376000D03*
G04 #@! TD*
D17*
G04 #@! TO.C,C6*
G36*
X73684653Y-54174355D02*
X73718022Y-54179305D01*
X73750745Y-54187502D01*
X73782507Y-54198866D01*
X73813003Y-54213290D01*
X73841937Y-54230632D01*
X73869033Y-54250728D01*
X73894028Y-54273382D01*
X73916682Y-54298377D01*
X73936778Y-54325473D01*
X73954120Y-54354407D01*
X73968544Y-54384903D01*
X73979908Y-54416665D01*
X73988105Y-54449388D01*
X73993055Y-54482757D01*
X73994710Y-54516450D01*
X73994710Y-55203950D01*
X73993055Y-55237643D01*
X73988105Y-55271012D01*
X73979908Y-55303735D01*
X73968544Y-55335497D01*
X73954120Y-55365993D01*
X73936778Y-55394927D01*
X73916682Y-55422023D01*
X73894028Y-55447018D01*
X73869033Y-55469672D01*
X73841937Y-55489768D01*
X73813003Y-55507110D01*
X73782507Y-55521534D01*
X73750745Y-55532898D01*
X73718022Y-55541095D01*
X73684653Y-55546045D01*
X73650960Y-55547700D01*
X72538460Y-55547700D01*
X72504767Y-55546045D01*
X72471398Y-55541095D01*
X72438675Y-55532898D01*
X72406913Y-55521534D01*
X72376417Y-55507110D01*
X72347483Y-55489768D01*
X72320387Y-55469672D01*
X72295392Y-55447018D01*
X72272738Y-55422023D01*
X72252642Y-55394927D01*
X72235300Y-55365993D01*
X72220876Y-55335497D01*
X72209512Y-55303735D01*
X72201315Y-55271012D01*
X72196365Y-55237643D01*
X72194710Y-55203950D01*
X72194710Y-54516450D01*
X72196365Y-54482757D01*
X72201315Y-54449388D01*
X72209512Y-54416665D01*
X72220876Y-54384903D01*
X72235300Y-54354407D01*
X72252642Y-54325473D01*
X72272738Y-54298377D01*
X72295392Y-54273382D01*
X72320387Y-54250728D01*
X72347483Y-54230632D01*
X72376417Y-54213290D01*
X72406913Y-54198866D01*
X72438675Y-54187502D01*
X72471398Y-54179305D01*
X72504767Y-54174355D01*
X72538460Y-54172700D01*
X73650960Y-54172700D01*
X73684653Y-54174355D01*
X73684653Y-54174355D01*
G37*
D18*
X73094710Y-54860200D03*
D17*
G36*
X73684653Y-56049355D02*
X73718022Y-56054305D01*
X73750745Y-56062502D01*
X73782507Y-56073866D01*
X73813003Y-56088290D01*
X73841937Y-56105632D01*
X73869033Y-56125728D01*
X73894028Y-56148382D01*
X73916682Y-56173377D01*
X73936778Y-56200473D01*
X73954120Y-56229407D01*
X73968544Y-56259903D01*
X73979908Y-56291665D01*
X73988105Y-56324388D01*
X73993055Y-56357757D01*
X73994710Y-56391450D01*
X73994710Y-57078950D01*
X73993055Y-57112643D01*
X73988105Y-57146012D01*
X73979908Y-57178735D01*
X73968544Y-57210497D01*
X73954120Y-57240993D01*
X73936778Y-57269927D01*
X73916682Y-57297023D01*
X73894028Y-57322018D01*
X73869033Y-57344672D01*
X73841937Y-57364768D01*
X73813003Y-57382110D01*
X73782507Y-57396534D01*
X73750745Y-57407898D01*
X73718022Y-57416095D01*
X73684653Y-57421045D01*
X73650960Y-57422700D01*
X72538460Y-57422700D01*
X72504767Y-57421045D01*
X72471398Y-57416095D01*
X72438675Y-57407898D01*
X72406913Y-57396534D01*
X72376417Y-57382110D01*
X72347483Y-57364768D01*
X72320387Y-57344672D01*
X72295392Y-57322018D01*
X72272738Y-57297023D01*
X72252642Y-57269927D01*
X72235300Y-57240993D01*
X72220876Y-57210497D01*
X72209512Y-57178735D01*
X72201315Y-57146012D01*
X72196365Y-57112643D01*
X72194710Y-57078950D01*
X72194710Y-56391450D01*
X72196365Y-56357757D01*
X72201315Y-56324388D01*
X72209512Y-56291665D01*
X72220876Y-56259903D01*
X72235300Y-56229407D01*
X72252642Y-56200473D01*
X72272738Y-56173377D01*
X72295392Y-56148382D01*
X72320387Y-56125728D01*
X72347483Y-56105632D01*
X72376417Y-56088290D01*
X72406913Y-56073866D01*
X72438675Y-56062502D01*
X72471398Y-56054305D01*
X72504767Y-56049355D01*
X72538460Y-56047700D01*
X73650960Y-56047700D01*
X73684653Y-56049355D01*
X73684653Y-56049355D01*
G37*
D18*
X73094710Y-56735200D03*
G04 #@! TD*
D17*
G04 #@! TO.C,C9*
G36*
X73684653Y-42744355D02*
X73718022Y-42749305D01*
X73750745Y-42757502D01*
X73782507Y-42768866D01*
X73813003Y-42783290D01*
X73841937Y-42800632D01*
X73869033Y-42820728D01*
X73894028Y-42843382D01*
X73916682Y-42868377D01*
X73936778Y-42895473D01*
X73954120Y-42924407D01*
X73968544Y-42954903D01*
X73979908Y-42986665D01*
X73988105Y-43019388D01*
X73993055Y-43052757D01*
X73994710Y-43086450D01*
X73994710Y-43773950D01*
X73993055Y-43807643D01*
X73988105Y-43841012D01*
X73979908Y-43873735D01*
X73968544Y-43905497D01*
X73954120Y-43935993D01*
X73936778Y-43964927D01*
X73916682Y-43992023D01*
X73894028Y-44017018D01*
X73869033Y-44039672D01*
X73841937Y-44059768D01*
X73813003Y-44077110D01*
X73782507Y-44091534D01*
X73750745Y-44102898D01*
X73718022Y-44111095D01*
X73684653Y-44116045D01*
X73650960Y-44117700D01*
X72538460Y-44117700D01*
X72504767Y-44116045D01*
X72471398Y-44111095D01*
X72438675Y-44102898D01*
X72406913Y-44091534D01*
X72376417Y-44077110D01*
X72347483Y-44059768D01*
X72320387Y-44039672D01*
X72295392Y-44017018D01*
X72272738Y-43992023D01*
X72252642Y-43964927D01*
X72235300Y-43935993D01*
X72220876Y-43905497D01*
X72209512Y-43873735D01*
X72201315Y-43841012D01*
X72196365Y-43807643D01*
X72194710Y-43773950D01*
X72194710Y-43086450D01*
X72196365Y-43052757D01*
X72201315Y-43019388D01*
X72209512Y-42986665D01*
X72220876Y-42954903D01*
X72235300Y-42924407D01*
X72252642Y-42895473D01*
X72272738Y-42868377D01*
X72295392Y-42843382D01*
X72320387Y-42820728D01*
X72347483Y-42800632D01*
X72376417Y-42783290D01*
X72406913Y-42768866D01*
X72438675Y-42757502D01*
X72471398Y-42749305D01*
X72504767Y-42744355D01*
X72538460Y-42742700D01*
X73650960Y-42742700D01*
X73684653Y-42744355D01*
X73684653Y-42744355D01*
G37*
D18*
X73094710Y-43430200D03*
D17*
G36*
X73684653Y-44619355D02*
X73718022Y-44624305D01*
X73750745Y-44632502D01*
X73782507Y-44643866D01*
X73813003Y-44658290D01*
X73841937Y-44675632D01*
X73869033Y-44695728D01*
X73894028Y-44718382D01*
X73916682Y-44743377D01*
X73936778Y-44770473D01*
X73954120Y-44799407D01*
X73968544Y-44829903D01*
X73979908Y-44861665D01*
X73988105Y-44894388D01*
X73993055Y-44927757D01*
X73994710Y-44961450D01*
X73994710Y-45648950D01*
X73993055Y-45682643D01*
X73988105Y-45716012D01*
X73979908Y-45748735D01*
X73968544Y-45780497D01*
X73954120Y-45810993D01*
X73936778Y-45839927D01*
X73916682Y-45867023D01*
X73894028Y-45892018D01*
X73869033Y-45914672D01*
X73841937Y-45934768D01*
X73813003Y-45952110D01*
X73782507Y-45966534D01*
X73750745Y-45977898D01*
X73718022Y-45986095D01*
X73684653Y-45991045D01*
X73650960Y-45992700D01*
X72538460Y-45992700D01*
X72504767Y-45991045D01*
X72471398Y-45986095D01*
X72438675Y-45977898D01*
X72406913Y-45966534D01*
X72376417Y-45952110D01*
X72347483Y-45934768D01*
X72320387Y-45914672D01*
X72295392Y-45892018D01*
X72272738Y-45867023D01*
X72252642Y-45839927D01*
X72235300Y-45810993D01*
X72220876Y-45780497D01*
X72209512Y-45748735D01*
X72201315Y-45716012D01*
X72196365Y-45682643D01*
X72194710Y-45648950D01*
X72194710Y-44961450D01*
X72196365Y-44927757D01*
X72201315Y-44894388D01*
X72209512Y-44861665D01*
X72220876Y-44829903D01*
X72235300Y-44799407D01*
X72252642Y-44770473D01*
X72272738Y-44743377D01*
X72295392Y-44718382D01*
X72320387Y-44695728D01*
X72347483Y-44675632D01*
X72376417Y-44658290D01*
X72406913Y-44643866D01*
X72438675Y-44632502D01*
X72471398Y-44624305D01*
X72504767Y-44619355D01*
X72538460Y-44617700D01*
X73650960Y-44617700D01*
X73684653Y-44619355D01*
X73684653Y-44619355D01*
G37*
D18*
X73094710Y-45305200D03*
G04 #@! TD*
D17*
G04 #@! TO.C,C3*
G36*
X73684653Y-65604355D02*
X73718022Y-65609305D01*
X73750745Y-65617502D01*
X73782507Y-65628866D01*
X73813003Y-65643290D01*
X73841937Y-65660632D01*
X73869033Y-65680728D01*
X73894028Y-65703382D01*
X73916682Y-65728377D01*
X73936778Y-65755473D01*
X73954120Y-65784407D01*
X73968544Y-65814903D01*
X73979908Y-65846665D01*
X73988105Y-65879388D01*
X73993055Y-65912757D01*
X73994710Y-65946450D01*
X73994710Y-66633950D01*
X73993055Y-66667643D01*
X73988105Y-66701012D01*
X73979908Y-66733735D01*
X73968544Y-66765497D01*
X73954120Y-66795993D01*
X73936778Y-66824927D01*
X73916682Y-66852023D01*
X73894028Y-66877018D01*
X73869033Y-66899672D01*
X73841937Y-66919768D01*
X73813003Y-66937110D01*
X73782507Y-66951534D01*
X73750745Y-66962898D01*
X73718022Y-66971095D01*
X73684653Y-66976045D01*
X73650960Y-66977700D01*
X72538460Y-66977700D01*
X72504767Y-66976045D01*
X72471398Y-66971095D01*
X72438675Y-66962898D01*
X72406913Y-66951534D01*
X72376417Y-66937110D01*
X72347483Y-66919768D01*
X72320387Y-66899672D01*
X72295392Y-66877018D01*
X72272738Y-66852023D01*
X72252642Y-66824927D01*
X72235300Y-66795993D01*
X72220876Y-66765497D01*
X72209512Y-66733735D01*
X72201315Y-66701012D01*
X72196365Y-66667643D01*
X72194710Y-66633950D01*
X72194710Y-65946450D01*
X72196365Y-65912757D01*
X72201315Y-65879388D01*
X72209512Y-65846665D01*
X72220876Y-65814903D01*
X72235300Y-65784407D01*
X72252642Y-65755473D01*
X72272738Y-65728377D01*
X72295392Y-65703382D01*
X72320387Y-65680728D01*
X72347483Y-65660632D01*
X72376417Y-65643290D01*
X72406913Y-65628866D01*
X72438675Y-65617502D01*
X72471398Y-65609305D01*
X72504767Y-65604355D01*
X72538460Y-65602700D01*
X73650960Y-65602700D01*
X73684653Y-65604355D01*
X73684653Y-65604355D01*
G37*
D18*
X73094710Y-66290200D03*
D17*
G36*
X73684653Y-67479355D02*
X73718022Y-67484305D01*
X73750745Y-67492502D01*
X73782507Y-67503866D01*
X73813003Y-67518290D01*
X73841937Y-67535632D01*
X73869033Y-67555728D01*
X73894028Y-67578382D01*
X73916682Y-67603377D01*
X73936778Y-67630473D01*
X73954120Y-67659407D01*
X73968544Y-67689903D01*
X73979908Y-67721665D01*
X73988105Y-67754388D01*
X73993055Y-67787757D01*
X73994710Y-67821450D01*
X73994710Y-68508950D01*
X73993055Y-68542643D01*
X73988105Y-68576012D01*
X73979908Y-68608735D01*
X73968544Y-68640497D01*
X73954120Y-68670993D01*
X73936778Y-68699927D01*
X73916682Y-68727023D01*
X73894028Y-68752018D01*
X73869033Y-68774672D01*
X73841937Y-68794768D01*
X73813003Y-68812110D01*
X73782507Y-68826534D01*
X73750745Y-68837898D01*
X73718022Y-68846095D01*
X73684653Y-68851045D01*
X73650960Y-68852700D01*
X72538460Y-68852700D01*
X72504767Y-68851045D01*
X72471398Y-68846095D01*
X72438675Y-68837898D01*
X72406913Y-68826534D01*
X72376417Y-68812110D01*
X72347483Y-68794768D01*
X72320387Y-68774672D01*
X72295392Y-68752018D01*
X72272738Y-68727023D01*
X72252642Y-68699927D01*
X72235300Y-68670993D01*
X72220876Y-68640497D01*
X72209512Y-68608735D01*
X72201315Y-68576012D01*
X72196365Y-68542643D01*
X72194710Y-68508950D01*
X72194710Y-67821450D01*
X72196365Y-67787757D01*
X72201315Y-67754388D01*
X72209512Y-67721665D01*
X72220876Y-67689903D01*
X72235300Y-67659407D01*
X72252642Y-67630473D01*
X72272738Y-67603377D01*
X72295392Y-67578382D01*
X72320387Y-67555728D01*
X72347483Y-67535632D01*
X72376417Y-67518290D01*
X72406913Y-67503866D01*
X72438675Y-67492502D01*
X72471398Y-67484305D01*
X72504767Y-67479355D01*
X72538460Y-67477700D01*
X73650960Y-67477700D01*
X73684653Y-67479355D01*
X73684653Y-67479355D01*
G37*
D18*
X73094710Y-68165200D03*
G04 #@! TD*
D17*
G04 #@! TO.C,C10*
G36*
X73684653Y-38934355D02*
X73718022Y-38939305D01*
X73750745Y-38947502D01*
X73782507Y-38958866D01*
X73813003Y-38973290D01*
X73841937Y-38990632D01*
X73869033Y-39010728D01*
X73894028Y-39033382D01*
X73916682Y-39058377D01*
X73936778Y-39085473D01*
X73954120Y-39114407D01*
X73968544Y-39144903D01*
X73979908Y-39176665D01*
X73988105Y-39209388D01*
X73993055Y-39242757D01*
X73994710Y-39276450D01*
X73994710Y-39963950D01*
X73993055Y-39997643D01*
X73988105Y-40031012D01*
X73979908Y-40063735D01*
X73968544Y-40095497D01*
X73954120Y-40125993D01*
X73936778Y-40154927D01*
X73916682Y-40182023D01*
X73894028Y-40207018D01*
X73869033Y-40229672D01*
X73841937Y-40249768D01*
X73813003Y-40267110D01*
X73782507Y-40281534D01*
X73750745Y-40292898D01*
X73718022Y-40301095D01*
X73684653Y-40306045D01*
X73650960Y-40307700D01*
X72538460Y-40307700D01*
X72504767Y-40306045D01*
X72471398Y-40301095D01*
X72438675Y-40292898D01*
X72406913Y-40281534D01*
X72376417Y-40267110D01*
X72347483Y-40249768D01*
X72320387Y-40229672D01*
X72295392Y-40207018D01*
X72272738Y-40182023D01*
X72252642Y-40154927D01*
X72235300Y-40125993D01*
X72220876Y-40095497D01*
X72209512Y-40063735D01*
X72201315Y-40031012D01*
X72196365Y-39997643D01*
X72194710Y-39963950D01*
X72194710Y-39276450D01*
X72196365Y-39242757D01*
X72201315Y-39209388D01*
X72209512Y-39176665D01*
X72220876Y-39144903D01*
X72235300Y-39114407D01*
X72252642Y-39085473D01*
X72272738Y-39058377D01*
X72295392Y-39033382D01*
X72320387Y-39010728D01*
X72347483Y-38990632D01*
X72376417Y-38973290D01*
X72406913Y-38958866D01*
X72438675Y-38947502D01*
X72471398Y-38939305D01*
X72504767Y-38934355D01*
X72538460Y-38932700D01*
X73650960Y-38932700D01*
X73684653Y-38934355D01*
X73684653Y-38934355D01*
G37*
D18*
X73094710Y-39620200D03*
D17*
G36*
X73684653Y-40809355D02*
X73718022Y-40814305D01*
X73750745Y-40822502D01*
X73782507Y-40833866D01*
X73813003Y-40848290D01*
X73841937Y-40865632D01*
X73869033Y-40885728D01*
X73894028Y-40908382D01*
X73916682Y-40933377D01*
X73936778Y-40960473D01*
X73954120Y-40989407D01*
X73968544Y-41019903D01*
X73979908Y-41051665D01*
X73988105Y-41084388D01*
X73993055Y-41117757D01*
X73994710Y-41151450D01*
X73994710Y-41838950D01*
X73993055Y-41872643D01*
X73988105Y-41906012D01*
X73979908Y-41938735D01*
X73968544Y-41970497D01*
X73954120Y-42000993D01*
X73936778Y-42029927D01*
X73916682Y-42057023D01*
X73894028Y-42082018D01*
X73869033Y-42104672D01*
X73841937Y-42124768D01*
X73813003Y-42142110D01*
X73782507Y-42156534D01*
X73750745Y-42167898D01*
X73718022Y-42176095D01*
X73684653Y-42181045D01*
X73650960Y-42182700D01*
X72538460Y-42182700D01*
X72504767Y-42181045D01*
X72471398Y-42176095D01*
X72438675Y-42167898D01*
X72406913Y-42156534D01*
X72376417Y-42142110D01*
X72347483Y-42124768D01*
X72320387Y-42104672D01*
X72295392Y-42082018D01*
X72272738Y-42057023D01*
X72252642Y-42029927D01*
X72235300Y-42000993D01*
X72220876Y-41970497D01*
X72209512Y-41938735D01*
X72201315Y-41906012D01*
X72196365Y-41872643D01*
X72194710Y-41838950D01*
X72194710Y-41151450D01*
X72196365Y-41117757D01*
X72201315Y-41084388D01*
X72209512Y-41051665D01*
X72220876Y-41019903D01*
X72235300Y-40989407D01*
X72252642Y-40960473D01*
X72272738Y-40933377D01*
X72295392Y-40908382D01*
X72320387Y-40885728D01*
X72347483Y-40865632D01*
X72376417Y-40848290D01*
X72406913Y-40833866D01*
X72438675Y-40822502D01*
X72471398Y-40814305D01*
X72504767Y-40809355D01*
X72538460Y-40807700D01*
X73650960Y-40807700D01*
X73684653Y-40809355D01*
X73684653Y-40809355D01*
G37*
D18*
X73094710Y-41495200D03*
G04 #@! TD*
D17*
G04 #@! TO.C,C7*
G36*
X73684653Y-50364355D02*
X73718022Y-50369305D01*
X73750745Y-50377502D01*
X73782507Y-50388866D01*
X73813003Y-50403290D01*
X73841937Y-50420632D01*
X73869033Y-50440728D01*
X73894028Y-50463382D01*
X73916682Y-50488377D01*
X73936778Y-50515473D01*
X73954120Y-50544407D01*
X73968544Y-50574903D01*
X73979908Y-50606665D01*
X73988105Y-50639388D01*
X73993055Y-50672757D01*
X73994710Y-50706450D01*
X73994710Y-51393950D01*
X73993055Y-51427643D01*
X73988105Y-51461012D01*
X73979908Y-51493735D01*
X73968544Y-51525497D01*
X73954120Y-51555993D01*
X73936778Y-51584927D01*
X73916682Y-51612023D01*
X73894028Y-51637018D01*
X73869033Y-51659672D01*
X73841937Y-51679768D01*
X73813003Y-51697110D01*
X73782507Y-51711534D01*
X73750745Y-51722898D01*
X73718022Y-51731095D01*
X73684653Y-51736045D01*
X73650960Y-51737700D01*
X72538460Y-51737700D01*
X72504767Y-51736045D01*
X72471398Y-51731095D01*
X72438675Y-51722898D01*
X72406913Y-51711534D01*
X72376417Y-51697110D01*
X72347483Y-51679768D01*
X72320387Y-51659672D01*
X72295392Y-51637018D01*
X72272738Y-51612023D01*
X72252642Y-51584927D01*
X72235300Y-51555993D01*
X72220876Y-51525497D01*
X72209512Y-51493735D01*
X72201315Y-51461012D01*
X72196365Y-51427643D01*
X72194710Y-51393950D01*
X72194710Y-50706450D01*
X72196365Y-50672757D01*
X72201315Y-50639388D01*
X72209512Y-50606665D01*
X72220876Y-50574903D01*
X72235300Y-50544407D01*
X72252642Y-50515473D01*
X72272738Y-50488377D01*
X72295392Y-50463382D01*
X72320387Y-50440728D01*
X72347483Y-50420632D01*
X72376417Y-50403290D01*
X72406913Y-50388866D01*
X72438675Y-50377502D01*
X72471398Y-50369305D01*
X72504767Y-50364355D01*
X72538460Y-50362700D01*
X73650960Y-50362700D01*
X73684653Y-50364355D01*
X73684653Y-50364355D01*
G37*
D18*
X73094710Y-51050200D03*
D17*
G36*
X73684653Y-52239355D02*
X73718022Y-52244305D01*
X73750745Y-52252502D01*
X73782507Y-52263866D01*
X73813003Y-52278290D01*
X73841937Y-52295632D01*
X73869033Y-52315728D01*
X73894028Y-52338382D01*
X73916682Y-52363377D01*
X73936778Y-52390473D01*
X73954120Y-52419407D01*
X73968544Y-52449903D01*
X73979908Y-52481665D01*
X73988105Y-52514388D01*
X73993055Y-52547757D01*
X73994710Y-52581450D01*
X73994710Y-53268950D01*
X73993055Y-53302643D01*
X73988105Y-53336012D01*
X73979908Y-53368735D01*
X73968544Y-53400497D01*
X73954120Y-53430993D01*
X73936778Y-53459927D01*
X73916682Y-53487023D01*
X73894028Y-53512018D01*
X73869033Y-53534672D01*
X73841937Y-53554768D01*
X73813003Y-53572110D01*
X73782507Y-53586534D01*
X73750745Y-53597898D01*
X73718022Y-53606095D01*
X73684653Y-53611045D01*
X73650960Y-53612700D01*
X72538460Y-53612700D01*
X72504767Y-53611045D01*
X72471398Y-53606095D01*
X72438675Y-53597898D01*
X72406913Y-53586534D01*
X72376417Y-53572110D01*
X72347483Y-53554768D01*
X72320387Y-53534672D01*
X72295392Y-53512018D01*
X72272738Y-53487023D01*
X72252642Y-53459927D01*
X72235300Y-53430993D01*
X72220876Y-53400497D01*
X72209512Y-53368735D01*
X72201315Y-53336012D01*
X72196365Y-53302643D01*
X72194710Y-53268950D01*
X72194710Y-52581450D01*
X72196365Y-52547757D01*
X72201315Y-52514388D01*
X72209512Y-52481665D01*
X72220876Y-52449903D01*
X72235300Y-52419407D01*
X72252642Y-52390473D01*
X72272738Y-52363377D01*
X72295392Y-52338382D01*
X72320387Y-52315728D01*
X72347483Y-52295632D01*
X72376417Y-52278290D01*
X72406913Y-52263866D01*
X72438675Y-52252502D01*
X72471398Y-52244305D01*
X72504767Y-52239355D01*
X72538460Y-52237700D01*
X73650960Y-52237700D01*
X73684653Y-52239355D01*
X73684653Y-52239355D01*
G37*
D18*
X73094710Y-52925200D03*
G04 #@! TD*
D17*
G04 #@! TO.C,C8*
G36*
X73684653Y-46554355D02*
X73718022Y-46559305D01*
X73750745Y-46567502D01*
X73782507Y-46578866D01*
X73813003Y-46593290D01*
X73841937Y-46610632D01*
X73869033Y-46630728D01*
X73894028Y-46653382D01*
X73916682Y-46678377D01*
X73936778Y-46705473D01*
X73954120Y-46734407D01*
X73968544Y-46764903D01*
X73979908Y-46796665D01*
X73988105Y-46829388D01*
X73993055Y-46862757D01*
X73994710Y-46896450D01*
X73994710Y-47583950D01*
X73993055Y-47617643D01*
X73988105Y-47651012D01*
X73979908Y-47683735D01*
X73968544Y-47715497D01*
X73954120Y-47745993D01*
X73936778Y-47774927D01*
X73916682Y-47802023D01*
X73894028Y-47827018D01*
X73869033Y-47849672D01*
X73841937Y-47869768D01*
X73813003Y-47887110D01*
X73782507Y-47901534D01*
X73750745Y-47912898D01*
X73718022Y-47921095D01*
X73684653Y-47926045D01*
X73650960Y-47927700D01*
X72538460Y-47927700D01*
X72504767Y-47926045D01*
X72471398Y-47921095D01*
X72438675Y-47912898D01*
X72406913Y-47901534D01*
X72376417Y-47887110D01*
X72347483Y-47869768D01*
X72320387Y-47849672D01*
X72295392Y-47827018D01*
X72272738Y-47802023D01*
X72252642Y-47774927D01*
X72235300Y-47745993D01*
X72220876Y-47715497D01*
X72209512Y-47683735D01*
X72201315Y-47651012D01*
X72196365Y-47617643D01*
X72194710Y-47583950D01*
X72194710Y-46896450D01*
X72196365Y-46862757D01*
X72201315Y-46829388D01*
X72209512Y-46796665D01*
X72220876Y-46764903D01*
X72235300Y-46734407D01*
X72252642Y-46705473D01*
X72272738Y-46678377D01*
X72295392Y-46653382D01*
X72320387Y-46630728D01*
X72347483Y-46610632D01*
X72376417Y-46593290D01*
X72406913Y-46578866D01*
X72438675Y-46567502D01*
X72471398Y-46559305D01*
X72504767Y-46554355D01*
X72538460Y-46552700D01*
X73650960Y-46552700D01*
X73684653Y-46554355D01*
X73684653Y-46554355D01*
G37*
D18*
X73094710Y-47240200D03*
D17*
G36*
X73684653Y-48429355D02*
X73718022Y-48434305D01*
X73750745Y-48442502D01*
X73782507Y-48453866D01*
X73813003Y-48468290D01*
X73841937Y-48485632D01*
X73869033Y-48505728D01*
X73894028Y-48528382D01*
X73916682Y-48553377D01*
X73936778Y-48580473D01*
X73954120Y-48609407D01*
X73968544Y-48639903D01*
X73979908Y-48671665D01*
X73988105Y-48704388D01*
X73993055Y-48737757D01*
X73994710Y-48771450D01*
X73994710Y-49458950D01*
X73993055Y-49492643D01*
X73988105Y-49526012D01*
X73979908Y-49558735D01*
X73968544Y-49590497D01*
X73954120Y-49620993D01*
X73936778Y-49649927D01*
X73916682Y-49677023D01*
X73894028Y-49702018D01*
X73869033Y-49724672D01*
X73841937Y-49744768D01*
X73813003Y-49762110D01*
X73782507Y-49776534D01*
X73750745Y-49787898D01*
X73718022Y-49796095D01*
X73684653Y-49801045D01*
X73650960Y-49802700D01*
X72538460Y-49802700D01*
X72504767Y-49801045D01*
X72471398Y-49796095D01*
X72438675Y-49787898D01*
X72406913Y-49776534D01*
X72376417Y-49762110D01*
X72347483Y-49744768D01*
X72320387Y-49724672D01*
X72295392Y-49702018D01*
X72272738Y-49677023D01*
X72252642Y-49649927D01*
X72235300Y-49620993D01*
X72220876Y-49590497D01*
X72209512Y-49558735D01*
X72201315Y-49526012D01*
X72196365Y-49492643D01*
X72194710Y-49458950D01*
X72194710Y-48771450D01*
X72196365Y-48737757D01*
X72201315Y-48704388D01*
X72209512Y-48671665D01*
X72220876Y-48639903D01*
X72235300Y-48609407D01*
X72252642Y-48580473D01*
X72272738Y-48553377D01*
X72295392Y-48528382D01*
X72320387Y-48505728D01*
X72347483Y-48485632D01*
X72376417Y-48468290D01*
X72406913Y-48453866D01*
X72438675Y-48442502D01*
X72471398Y-48434305D01*
X72504767Y-48429355D01*
X72538460Y-48427700D01*
X73650960Y-48427700D01*
X73684653Y-48429355D01*
X73684653Y-48429355D01*
G37*
D18*
X73094710Y-49115200D03*
G04 #@! TD*
D17*
G04 #@! TO.C,C4*
G36*
X73684653Y-61794355D02*
X73718022Y-61799305D01*
X73750745Y-61807502D01*
X73782507Y-61818866D01*
X73813003Y-61833290D01*
X73841937Y-61850632D01*
X73869033Y-61870728D01*
X73894028Y-61893382D01*
X73916682Y-61918377D01*
X73936778Y-61945473D01*
X73954120Y-61974407D01*
X73968544Y-62004903D01*
X73979908Y-62036665D01*
X73988105Y-62069388D01*
X73993055Y-62102757D01*
X73994710Y-62136450D01*
X73994710Y-62823950D01*
X73993055Y-62857643D01*
X73988105Y-62891012D01*
X73979908Y-62923735D01*
X73968544Y-62955497D01*
X73954120Y-62985993D01*
X73936778Y-63014927D01*
X73916682Y-63042023D01*
X73894028Y-63067018D01*
X73869033Y-63089672D01*
X73841937Y-63109768D01*
X73813003Y-63127110D01*
X73782507Y-63141534D01*
X73750745Y-63152898D01*
X73718022Y-63161095D01*
X73684653Y-63166045D01*
X73650960Y-63167700D01*
X72538460Y-63167700D01*
X72504767Y-63166045D01*
X72471398Y-63161095D01*
X72438675Y-63152898D01*
X72406913Y-63141534D01*
X72376417Y-63127110D01*
X72347483Y-63109768D01*
X72320387Y-63089672D01*
X72295392Y-63067018D01*
X72272738Y-63042023D01*
X72252642Y-63014927D01*
X72235300Y-62985993D01*
X72220876Y-62955497D01*
X72209512Y-62923735D01*
X72201315Y-62891012D01*
X72196365Y-62857643D01*
X72194710Y-62823950D01*
X72194710Y-62136450D01*
X72196365Y-62102757D01*
X72201315Y-62069388D01*
X72209512Y-62036665D01*
X72220876Y-62004903D01*
X72235300Y-61974407D01*
X72252642Y-61945473D01*
X72272738Y-61918377D01*
X72295392Y-61893382D01*
X72320387Y-61870728D01*
X72347483Y-61850632D01*
X72376417Y-61833290D01*
X72406913Y-61818866D01*
X72438675Y-61807502D01*
X72471398Y-61799305D01*
X72504767Y-61794355D01*
X72538460Y-61792700D01*
X73650960Y-61792700D01*
X73684653Y-61794355D01*
X73684653Y-61794355D01*
G37*
D18*
X73094710Y-62480200D03*
D17*
G36*
X73684653Y-63669355D02*
X73718022Y-63674305D01*
X73750745Y-63682502D01*
X73782507Y-63693866D01*
X73813003Y-63708290D01*
X73841937Y-63725632D01*
X73869033Y-63745728D01*
X73894028Y-63768382D01*
X73916682Y-63793377D01*
X73936778Y-63820473D01*
X73954120Y-63849407D01*
X73968544Y-63879903D01*
X73979908Y-63911665D01*
X73988105Y-63944388D01*
X73993055Y-63977757D01*
X73994710Y-64011450D01*
X73994710Y-64698950D01*
X73993055Y-64732643D01*
X73988105Y-64766012D01*
X73979908Y-64798735D01*
X73968544Y-64830497D01*
X73954120Y-64860993D01*
X73936778Y-64889927D01*
X73916682Y-64917023D01*
X73894028Y-64942018D01*
X73869033Y-64964672D01*
X73841937Y-64984768D01*
X73813003Y-65002110D01*
X73782507Y-65016534D01*
X73750745Y-65027898D01*
X73718022Y-65036095D01*
X73684653Y-65041045D01*
X73650960Y-65042700D01*
X72538460Y-65042700D01*
X72504767Y-65041045D01*
X72471398Y-65036095D01*
X72438675Y-65027898D01*
X72406913Y-65016534D01*
X72376417Y-65002110D01*
X72347483Y-64984768D01*
X72320387Y-64964672D01*
X72295392Y-64942018D01*
X72272738Y-64917023D01*
X72252642Y-64889927D01*
X72235300Y-64860993D01*
X72220876Y-64830497D01*
X72209512Y-64798735D01*
X72201315Y-64766012D01*
X72196365Y-64732643D01*
X72194710Y-64698950D01*
X72194710Y-64011450D01*
X72196365Y-63977757D01*
X72201315Y-63944388D01*
X72209512Y-63911665D01*
X72220876Y-63879903D01*
X72235300Y-63849407D01*
X72252642Y-63820473D01*
X72272738Y-63793377D01*
X72295392Y-63768382D01*
X72320387Y-63745728D01*
X72347483Y-63725632D01*
X72376417Y-63708290D01*
X72406913Y-63693866D01*
X72438675Y-63682502D01*
X72471398Y-63674305D01*
X72504767Y-63669355D01*
X72538460Y-63667700D01*
X73650960Y-63667700D01*
X73684653Y-63669355D01*
X73684653Y-63669355D01*
G37*
D18*
X73094710Y-64355200D03*
G04 #@! TD*
D17*
G04 #@! TO.C,C5*
G36*
X73684653Y-57984355D02*
X73718022Y-57989305D01*
X73750745Y-57997502D01*
X73782507Y-58008866D01*
X73813003Y-58023290D01*
X73841937Y-58040632D01*
X73869033Y-58060728D01*
X73894028Y-58083382D01*
X73916682Y-58108377D01*
X73936778Y-58135473D01*
X73954120Y-58164407D01*
X73968544Y-58194903D01*
X73979908Y-58226665D01*
X73988105Y-58259388D01*
X73993055Y-58292757D01*
X73994710Y-58326450D01*
X73994710Y-59013950D01*
X73993055Y-59047643D01*
X73988105Y-59081012D01*
X73979908Y-59113735D01*
X73968544Y-59145497D01*
X73954120Y-59175993D01*
X73936778Y-59204927D01*
X73916682Y-59232023D01*
X73894028Y-59257018D01*
X73869033Y-59279672D01*
X73841937Y-59299768D01*
X73813003Y-59317110D01*
X73782507Y-59331534D01*
X73750745Y-59342898D01*
X73718022Y-59351095D01*
X73684653Y-59356045D01*
X73650960Y-59357700D01*
X72538460Y-59357700D01*
X72504767Y-59356045D01*
X72471398Y-59351095D01*
X72438675Y-59342898D01*
X72406913Y-59331534D01*
X72376417Y-59317110D01*
X72347483Y-59299768D01*
X72320387Y-59279672D01*
X72295392Y-59257018D01*
X72272738Y-59232023D01*
X72252642Y-59204927D01*
X72235300Y-59175993D01*
X72220876Y-59145497D01*
X72209512Y-59113735D01*
X72201315Y-59081012D01*
X72196365Y-59047643D01*
X72194710Y-59013950D01*
X72194710Y-58326450D01*
X72196365Y-58292757D01*
X72201315Y-58259388D01*
X72209512Y-58226665D01*
X72220876Y-58194903D01*
X72235300Y-58164407D01*
X72252642Y-58135473D01*
X72272738Y-58108377D01*
X72295392Y-58083382D01*
X72320387Y-58060728D01*
X72347483Y-58040632D01*
X72376417Y-58023290D01*
X72406913Y-58008866D01*
X72438675Y-57997502D01*
X72471398Y-57989305D01*
X72504767Y-57984355D01*
X72538460Y-57982700D01*
X73650960Y-57982700D01*
X73684653Y-57984355D01*
X73684653Y-57984355D01*
G37*
D18*
X73094710Y-58670200D03*
D17*
G36*
X73684653Y-59859355D02*
X73718022Y-59864305D01*
X73750745Y-59872502D01*
X73782507Y-59883866D01*
X73813003Y-59898290D01*
X73841937Y-59915632D01*
X73869033Y-59935728D01*
X73894028Y-59958382D01*
X73916682Y-59983377D01*
X73936778Y-60010473D01*
X73954120Y-60039407D01*
X73968544Y-60069903D01*
X73979908Y-60101665D01*
X73988105Y-60134388D01*
X73993055Y-60167757D01*
X73994710Y-60201450D01*
X73994710Y-60888950D01*
X73993055Y-60922643D01*
X73988105Y-60956012D01*
X73979908Y-60988735D01*
X73968544Y-61020497D01*
X73954120Y-61050993D01*
X73936778Y-61079927D01*
X73916682Y-61107023D01*
X73894028Y-61132018D01*
X73869033Y-61154672D01*
X73841937Y-61174768D01*
X73813003Y-61192110D01*
X73782507Y-61206534D01*
X73750745Y-61217898D01*
X73718022Y-61226095D01*
X73684653Y-61231045D01*
X73650960Y-61232700D01*
X72538460Y-61232700D01*
X72504767Y-61231045D01*
X72471398Y-61226095D01*
X72438675Y-61217898D01*
X72406913Y-61206534D01*
X72376417Y-61192110D01*
X72347483Y-61174768D01*
X72320387Y-61154672D01*
X72295392Y-61132018D01*
X72272738Y-61107023D01*
X72252642Y-61079927D01*
X72235300Y-61050993D01*
X72220876Y-61020497D01*
X72209512Y-60988735D01*
X72201315Y-60956012D01*
X72196365Y-60922643D01*
X72194710Y-60888950D01*
X72194710Y-60201450D01*
X72196365Y-60167757D01*
X72201315Y-60134388D01*
X72209512Y-60101665D01*
X72220876Y-60069903D01*
X72235300Y-60039407D01*
X72252642Y-60010473D01*
X72272738Y-59983377D01*
X72295392Y-59958382D01*
X72320387Y-59935728D01*
X72347483Y-59915632D01*
X72376417Y-59898290D01*
X72406913Y-59883866D01*
X72438675Y-59872502D01*
X72471398Y-59864305D01*
X72504767Y-59859355D01*
X72538460Y-59857700D01*
X73650960Y-59857700D01*
X73684653Y-59859355D01*
X73684653Y-59859355D01*
G37*
D18*
X73094710Y-60545200D03*
G04 #@! TD*
D17*
G04 #@! TO.C,C2*
G36*
X73684653Y-69414355D02*
X73718022Y-69419305D01*
X73750745Y-69427502D01*
X73782507Y-69438866D01*
X73813003Y-69453290D01*
X73841937Y-69470632D01*
X73869033Y-69490728D01*
X73894028Y-69513382D01*
X73916682Y-69538377D01*
X73936778Y-69565473D01*
X73954120Y-69594407D01*
X73968544Y-69624903D01*
X73979908Y-69656665D01*
X73988105Y-69689388D01*
X73993055Y-69722757D01*
X73994710Y-69756450D01*
X73994710Y-70443950D01*
X73993055Y-70477643D01*
X73988105Y-70511012D01*
X73979908Y-70543735D01*
X73968544Y-70575497D01*
X73954120Y-70605993D01*
X73936778Y-70634927D01*
X73916682Y-70662023D01*
X73894028Y-70687018D01*
X73869033Y-70709672D01*
X73841937Y-70729768D01*
X73813003Y-70747110D01*
X73782507Y-70761534D01*
X73750745Y-70772898D01*
X73718022Y-70781095D01*
X73684653Y-70786045D01*
X73650960Y-70787700D01*
X72538460Y-70787700D01*
X72504767Y-70786045D01*
X72471398Y-70781095D01*
X72438675Y-70772898D01*
X72406913Y-70761534D01*
X72376417Y-70747110D01*
X72347483Y-70729768D01*
X72320387Y-70709672D01*
X72295392Y-70687018D01*
X72272738Y-70662023D01*
X72252642Y-70634927D01*
X72235300Y-70605993D01*
X72220876Y-70575497D01*
X72209512Y-70543735D01*
X72201315Y-70511012D01*
X72196365Y-70477643D01*
X72194710Y-70443950D01*
X72194710Y-69756450D01*
X72196365Y-69722757D01*
X72201315Y-69689388D01*
X72209512Y-69656665D01*
X72220876Y-69624903D01*
X72235300Y-69594407D01*
X72252642Y-69565473D01*
X72272738Y-69538377D01*
X72295392Y-69513382D01*
X72320387Y-69490728D01*
X72347483Y-69470632D01*
X72376417Y-69453290D01*
X72406913Y-69438866D01*
X72438675Y-69427502D01*
X72471398Y-69419305D01*
X72504767Y-69414355D01*
X72538460Y-69412700D01*
X73650960Y-69412700D01*
X73684653Y-69414355D01*
X73684653Y-69414355D01*
G37*
D18*
X73094710Y-70100200D03*
D17*
G36*
X73684653Y-71289355D02*
X73718022Y-71294305D01*
X73750745Y-71302502D01*
X73782507Y-71313866D01*
X73813003Y-71328290D01*
X73841937Y-71345632D01*
X73869033Y-71365728D01*
X73894028Y-71388382D01*
X73916682Y-71413377D01*
X73936778Y-71440473D01*
X73954120Y-71469407D01*
X73968544Y-71499903D01*
X73979908Y-71531665D01*
X73988105Y-71564388D01*
X73993055Y-71597757D01*
X73994710Y-71631450D01*
X73994710Y-72318950D01*
X73993055Y-72352643D01*
X73988105Y-72386012D01*
X73979908Y-72418735D01*
X73968544Y-72450497D01*
X73954120Y-72480993D01*
X73936778Y-72509927D01*
X73916682Y-72537023D01*
X73894028Y-72562018D01*
X73869033Y-72584672D01*
X73841937Y-72604768D01*
X73813003Y-72622110D01*
X73782507Y-72636534D01*
X73750745Y-72647898D01*
X73718022Y-72656095D01*
X73684653Y-72661045D01*
X73650960Y-72662700D01*
X72538460Y-72662700D01*
X72504767Y-72661045D01*
X72471398Y-72656095D01*
X72438675Y-72647898D01*
X72406913Y-72636534D01*
X72376417Y-72622110D01*
X72347483Y-72604768D01*
X72320387Y-72584672D01*
X72295392Y-72562018D01*
X72272738Y-72537023D01*
X72252642Y-72509927D01*
X72235300Y-72480993D01*
X72220876Y-72450497D01*
X72209512Y-72418735D01*
X72201315Y-72386012D01*
X72196365Y-72352643D01*
X72194710Y-72318950D01*
X72194710Y-71631450D01*
X72196365Y-71597757D01*
X72201315Y-71564388D01*
X72209512Y-71531665D01*
X72220876Y-71499903D01*
X72235300Y-71469407D01*
X72252642Y-71440473D01*
X72272738Y-71413377D01*
X72295392Y-71388382D01*
X72320387Y-71365728D01*
X72347483Y-71345632D01*
X72376417Y-71328290D01*
X72406913Y-71313866D01*
X72438675Y-71302502D01*
X72471398Y-71294305D01*
X72504767Y-71289355D01*
X72538460Y-71287700D01*
X73650960Y-71287700D01*
X73684653Y-71289355D01*
X73684653Y-71289355D01*
G37*
D18*
X73094710Y-71975200D03*
G04 #@! TD*
D10*
G04 #@! TO.C,JP1*
X58260000Y-36703000D03*
X55720000Y-36703000D03*
D11*
X53180000Y-36703000D03*
G04 #@! TD*
M02*
