M48
;DRILL file {KiCad 5.0.0} date Fri Sep 21 23:47:15 2018
;FORMAT={-:-/ absolute / inch / decimal}
FMAT,2
INCH,TZ
T1C0.0150
T2C0.0200
T3C0.0394
T4C0.0400
T5C0.0598
%
G90
G05
M72
T1
X1.0442Y-1.9376
X1.0442Y-2.2919
X1.0442Y-2.351
X1.0442Y-2.41
X1.0442Y-2.4691
X1.0442Y-2.5281
X1.0442Y-2.5872
X1.0442Y-2.6462
X1.0442Y-2.7053
X1.0442Y-2.7643
X1.0442Y-2.8234
X1.0442Y-3.0793
X1.0442Y-3.1384
X1.0442Y-3.1974
X1.0442Y-3.2565
X1.0442Y-3.3155
X1.0442Y-3.3746
X1.0442Y-3.4336
X1.0442Y-3.4927
X1.0442Y-3.5517
X1.0442Y-3.6108
X1.2875Y-1.9376
X1.2875Y-2.2919
X1.2875Y-2.351
X1.2875Y-2.41
X1.2875Y-2.4691
X1.2875Y-2.5281
X1.2875Y-2.5872
X1.2875Y-2.6462
X1.2875Y-2.7053
X1.2875Y-2.7643
X1.2875Y-2.8234
X1.2875Y-3.0793
X1.2875Y-3.1383
X1.2875Y-3.1974
X1.2875Y-3.2564
X1.2875Y-3.3155
X1.2875Y-3.3745
X1.2875Y-3.4336
X1.2875Y-3.4926
X1.2875Y-3.5517
X1.4057Y-2.2427
X1.4057Y-2.3017
X1.4057Y-2.3608
X1.4057Y-2.4199
X1.4057Y-2.4789
X1.4057Y-2.538
X1.4057Y-2.597
X1.4057Y-2.6561
X1.4057Y-2.7151
X1.4057Y-2.7742
X1.4057Y-3.0301
X1.4057Y-3.0891
X1.4057Y-3.1482
X1.4057Y-3.2073
X1.4057Y-3.2663
X1.4057Y-3.3254
X1.4057Y-3.3844
X1.4057Y-3.4435
X1.4057Y-3.5025
X1.4057Y-3.5616
X1.4352Y-2.2722
X1.4352Y-2.3313
X1.4352Y-2.3903
X1.4352Y-2.4494
X1.4352Y-2.5084
X1.4352Y-2.5675
X1.4352Y-2.6265
X1.4352Y-2.6856
X1.4352Y-2.7447
X1.4352Y-2.8037
X1.4352Y-3.0596
X1.4352Y-3.1187
X1.4352Y-3.1777
X1.4352Y-3.2368
X1.4352Y-3.2958
X1.4352Y-3.3549
X1.4352Y-3.4139
X1.4352Y-3.473
X1.4352Y-3.5321
X1.4352Y-3.5911
X1.5315Y-1.6059
X1.5315Y-1.6459
X1.5315Y-1.6859
X1.5315Y-1.7259
X1.5315Y-1.7659
X1.5317Y-2.145
X1.5339Y-1.5683
X1.5767Y-2.095
X1.5767Y-2.195
X1.6115Y-1.5059
X1.6267Y-2.095
X1.6267Y-2.195
X1.6515Y-1.5059
X1.6915Y-1.5059
X1.6915Y-1.8259
X1.6917Y-2.145
X1.7315Y-1.5059
X1.7315Y-1.8259
X1.7567Y-2.095
X1.7567Y-2.195
X1.7715Y-1.5059
X1.7715Y-1.8259
X1.8067Y-2.095
X1.8067Y-2.195
X1.8515Y-1.5659
X1.8515Y-1.6059
X1.8515Y-1.6459
X1.8515Y-1.6859
X1.8515Y-1.7259
X1.8515Y-1.7659
X1.8517Y-2.145
X2.0377Y-1.3463
X2.0377Y-1.4331
X2.1714Y-1.4863
X2.254Y-1.2963
X2.3777Y-1.3463
X2.3777Y-1.4331
X2.6121Y-3.4831
X2.6121Y-1.8831
X2.6121Y-1.5831
X2.6121Y-1.6831
X2.6121Y-1.7831
X2.6121Y-1.9831
X2.6121Y-2.0831
X2.6121Y-2.1831
X2.6121Y-2.2831
X2.6121Y-2.3831
X2.6121Y-2.4831
X2.6121Y-2.5831
X2.6121Y-2.6831
X2.6121Y-2.7831
X2.6121Y-2.8831
X2.6121Y-2.9831
X2.6121Y-3.0831
X2.6121Y-3.1831
X2.6121Y-3.2831
X2.6121Y-3.3831
X2.8334Y-1.5457
X2.8334Y-1.6457
X2.8334Y-1.7457
X2.8334Y-1.8457
X2.8334Y-1.9457
X2.8334Y-2.0457
X2.8334Y-2.1457
X2.8334Y-2.2457
X2.8334Y-2.3457
X2.8334Y-2.4457
X2.8334Y-2.5457
X2.8334Y-2.6457
X2.8334Y-2.7457
X2.8334Y-2.8457
X2.8334Y-2.9457
X2.8334Y-3.0457
X2.8334Y-3.1457
X2.8334Y-3.2457
X2.8334Y-3.3457
X2.8334Y-3.4457
X2.9834Y-1.5457
X2.9834Y-1.6457
X2.9834Y-1.7457
X2.9834Y-1.8457
X2.9834Y-1.9457
X2.9834Y-2.0457
X2.9834Y-2.1457
X2.9834Y-2.2457
X2.9834Y-2.3457
X2.9834Y-2.4457
X2.9834Y-2.5457
X2.9834Y-2.6457
X2.9834Y-2.7457
X2.9834Y-2.8457
X2.9834Y-2.9457
X2.9834Y-3.0457
X2.9834Y-3.1457
X2.9834Y-3.2457
X2.9834Y-3.3457
X2.9834Y-3.4457
T2
X2.4277Y-3.7436
X2.5777Y-3.7436
T3
X2.1077Y-1.5763
X2.2077Y-1.5763
X2.3077Y-1.5763
X2.5277Y-1.0931
X2.6277Y-1.0931
X2.7277Y-1.0931
X2.8277Y-1.0931
T4
X3.2221Y-1.5831
X3.2221Y-1.6831
X3.2221Y-1.7831
X3.2221Y-1.8831
X3.2221Y-1.9831
X3.2221Y-2.0831
X3.2221Y-2.1831
X3.2221Y-2.2831
X3.2221Y-2.3831
X3.2221Y-2.4831
X3.2221Y-2.5831
X3.2221Y-2.6831
X3.2221Y-2.7831
X3.2221Y-2.8831
X3.2221Y-2.9831
X3.2221Y-3.0831
X3.2221Y-3.1831
X3.2221Y-3.2831
X3.2221Y-3.3831
X3.2221Y-3.4831
X3.3221Y-1.5831
X3.3221Y-1.6831
X3.3221Y-1.7831
X3.3221Y-1.8831
X3.3221Y-1.9831
X3.3221Y-2.0831
X3.3221Y-2.1831
X3.3221Y-2.2831
X3.3221Y-2.3831
X3.3221Y-2.4831
X3.3221Y-2.5831
X3.3221Y-2.6831
X3.3221Y-2.7831
X3.3221Y-2.8831
X3.3221Y-2.9831
X3.3221Y-3.0831
X3.3221Y-3.1831
X3.3221Y-3.2831
X3.3221Y-3.3831
X3.3221Y-3.4831
T5
X2.3027Y-3.8831
X2.5027Y-3.8831
X2.7027Y-3.8831
X2.9027Y-3.8831
T0
M30
